M48
;Layer_Color=9474304
;FILE_FORMAT=4:4
METRIC,LZ
;TYPE=PLATED
T1F00S00C0.2000
T2F00S00C0.3000
T3F00S00C0.5000
T4F00S00C0.7000
T7F00S00C0.9000
T8F00S00C1.0000
T9F00S00C1.0160
T10F00S00C1.0414
T11F00S00C1.1000
T12F00S00C1.2000
T14F00S00C1.2200
T15F00S00C1.2500
T16F00S00C1.2700
T17F00S00C1.3000
T18F00S00C1.6000
T19F00S00C1.8500
T20F00S00C3.1000
T21F00S00C3.2000
T22F00S00C3.3000
;TYPE=NON_PLATED
T23F00S00C1.6500
%
T01
X01561Y00061
X01623Y00048
X0163Y00098
Y00106
X01634Y0011
X0163Y00114
Y00122
X01634Y00126
X0163Y0013
X01634Y00134
X01634Y00118
X01634Y00102
X01664Y00154
X0166Y00158
X01664Y00162
X0166Y00166
X01664Y0017
X0166Y00174
X01664Y00178
X0166Y00182
X01664Y00186
X0166Y0019
Y00198
Y00206
Y00214
Y00222
X01664Y00226
Y00218
Y00202
X01664Y00194
X0166Y0023
X0169Y00149
X01709Y00144
X01707Y00138
X01754Y00134
X0175Y0013
X01754Y00126
X0175Y00122
X01754Y00118
X0175Y00114
X01754Y0011
Y00102
X0175Y00098
Y00106
X01784Y00064
X0179
X01821Y00094
X01826Y00097
X01693Y00044
X01587Y00138
X01589Y00144
X0157Y00149
X01544Y00154
X0154Y00158
Y00166
Y00174
Y00182
Y0019
X01544Y00194
X0154Y00198
X01544Y00202
X0154Y00206
X01544Y0021
X0154Y00214
X01544Y00218
X0154Y00222
Y0023
X01544Y00226
Y00186
Y00178
Y0017
Y00162
X0152825Y00158
X01464
X0146Y00162
X01468Y00166
X01456Y00154
X01439Y00149
X01416Y0017
X01404Y00138
X01408Y0011
X01389Y00106
X01385Y00097
X01379
X01373
X01368Y00101
X01335Y00102
X01343Y00091
X01315
X01319Y00087
X01323Y00083
X01327Y00079
X01331Y00075
X01302Y00064
X01306Y0006
X0131Y00056
X01314Y00052
X01318Y00048
X01287Y00057
X01283Y00061
X01279Y00065
X01275Y00069
X01295Y00102
X013Y00118
X01312Y0011
X01325Y00144
X0133Y00149
X0135Y00144
X01331Y00174
X01327Y00178
X01316Y00182
X01305Y00194
X01339Y00198
X01335Y0021
X0132Y00218
X01288Y00226
X0128
X0135Y0023
X01354Y00226
X01358Y00222
X01367Y00206
X01371Y00202
X01404Y00222
X01481Y00222
X01473Y0019
X01452Y00186
X01477Y00122
X01483Y00051
X01421Y00061
X01249Y00098
X01241
X01245Y00106
X0125Y0015
X01255Y00146
X0126Y00149
X01265Y00144
X0129Y00149
X0121Y00142
X01196Y00134
X012Y00126
X01169Y0013
X01165Y00114
X0115Y00146
X01145Y0015
X01146Y00056
X01154
X01162
X0117
X0152825Y00226
X01138Y00056
X01082Y00051
X01082Y00045
Y00039
X00915Y0011
X00902Y00098
X00897Y00102
X00887Y00158
X00882Y00162
X00877Y00154
X00892Y00166
X00909Y00214
X00747Y00182
X00764Y00102
X00752Y00082
X007888Y00038
X00689Y00098
X0064Y0011
X00579Y00086
X00574Y0009
X00569Y00087
X00528Y00083
X00523Y00098
X00518Y00094
X00513Y00102
X00508Y00106
X00496Y0011
X00466Y0013
X00438Y00114
X00374Y00102
X00399Y00058
X00413Y00186
X00384Y00202
X00359Y0017
X00443Y00206
X00453Y00198
X00478Y0019
X0056Y00214
X00674Y0021
X00705Y00178
X00725Y00174
X0073Y0023
X00334Y00218
X00324Y00214
X00339Y00194
X00308Y00142
X00313Y00118
X00288Y00122
X00283Y00126
X00258Y00134
X00241Y00138
X0025Y0011
X00299Y00098
X00221Y0007
X00216Y00062
X00211Y00066
X00168Y00042
X00163Y00046
Y00094
X00168Y0009
X00206Y00196
X00206Y00226
X00211Y00222
X00121Y00196
X0011Y00249
X00088Y00254
X00066Y00262
X0015Y00282
X0017
X00189Y00258
X00208Y00297
X00219Y00297
X00212Y00333
X00194
X00189Y00338
X00225
X0025Y00262
X00263Y00266
X00299Y00254
X00364
X00374Y00249
X00408Y002935
X00448Y00262
X00486Y00266
X00491Y00234
X0054Y00327
X0056Y00323
X00598
X00609Y00327
X00589Y00306
X00584Y00302
X00649Y00298
X00654Y0031
X00679Y00314
X007Y00318
X0072Y00322
X00778Y00282
X00773Y0027
X00843Y0029
X0086Y00286
X00885Y00294
X00872Y00334
X00847Y00338
X00821Y0035
X00796Y00354
X00897Y00358
X00923Y00362
X00948Y0033
X00974Y00326
X01046Y00342
X01056Y00346
X01155Y00374
X01198Y0037
X01202Y00366
X01194Y00388
X0122Y00421
X01225Y00426
X01216Y00322
X01212Y00318
X01255Y00302
X0126Y00306
X01265Y00302
X0127Y00306
Y00286
X01266Y0029
X01262Y00282
X01258Y00266
Y00258
X01244Y00262
X0127Y00244
X01294Y00254
X0131Y00278
X01331Y0027
X01344Y00239
X01358
Y00253
X01354Y00249
X01373Y00244
X01371Y00274
X0137Y00298
X0133Y00331
X01325Y00335
X0132Y00339
X01315Y00343
X01303Y00355
X01299Y00359
X01295Y00363
X01291Y00367
X0129Y00346
X01285Y00342
X01208Y00239
X01173Y00244
X01461Y00234
X01485Y00253
X01481Y00294
X01485Y00316
X01527Y00386
X01533Y00434
X0159375Y00438
X01589Y00421
X01599
X01682Y0043
X01634Y00298
X0163Y00294
Y00286
X01634Y0029
Y00282
X0163Y00278
X01634Y00274
X0163Y0027
X01634Y00266
X0163Y00262
X01634Y00258
X0163Y00254
X01652Y00239
X01664Y00234
X0169Y00239
X01709Y00244
X01707Y00249
X0175Y00254
X01754Y00258
X0175Y00262
X01754Y00266
X0175Y0027
X01754Y00274
X0175Y00278
X01754Y00282
Y0029
X0175Y00294
Y00286
X01816Y00278
X01812Y00274
X01821Y00282
X01826Y00286
X01587Y00249
X01589Y00244
X0157Y00239
X01544Y00234
X01548Y00371
X01145Y00885
X0115Y00916
X01155Y00921
X0117Y00926
X01165Y00931
X0116Y00936
X01046Y00863
X01051Y0085
X00853Y00956
X00859Y00962
Y00978
Y0099
Y00996
Y01002
Y01013
X00775Y00975
X0075Y0097125
X00735Y00956
X00696
Y0097125
X00697Y01013
X0069Y00929
X00682
X00674
X00666
X00658
X00682Y00887
X00707
X00555Y00869
X00529Y00861
X00509
Y00869
X00509Y00877
X0051325Y00888
X0053325
X00381Y0097125
X00386364Y00979
X00383Y00988728
X00375Y00984
X00137Y00862
X00345Y01047
X00365Y01047
T02
X01369Y00226
X01429Y00227
X0147Y00227
X00938Y00076
X00906
X00714
X0056
X00324
X00099Y0019
X00739Y00245
X00908
X00932Y00239
X01037Y002445
X01223Y0032
X01243
X01278Y00304
X01347
X01334Y00381
X01232
X01321Y00239
X0147Y0024375
X01492Y00244
X01493Y00304
X01493Y0034
X01564Y00372
X01664Y00368
X01628Y00424
X00826Y00983
X00709
X00397Y01072
Y01083
X01225Y01123
X01218Y0113
X0139725Y0112275
X01452Y01144
T03
X01578Y00079
X01668Y00057
X0169825Y00079
X01793Y00109
X01492Y00079
X0143875
X01492Y00229
X01354Y00381
X01471Y01016
X00992Y01006
X01003Y0097
Y00956
X00905122Y00985042
X00889Y00895
X00854Y00867
X0078
X00826Y00945
X0047525Y0091875
X00393Y01001
X00174Y00988
X00049Y01018
X0044125Y01033198
X0055025Y0105625
X00554Y01118
X0063405Y0108395
X00909Y01145
X00916Y0121
X00991Y01137
X01109Y01123
T04
X00662Y01095
X00718
T07
X00706Y01217
Y01242
X00727
X00753
X00773999
Y01217
T08
X001355Y003946
X001609
X001863
X002117
X002371
X002625
X002879
X003133
X003387
Y004454
X003133
X002879
X002625
X002371
X002117
X001863
X001609
X001355
Y005946
X001609
X001863
X002117
X002371
X002625
X002879
X003133
X003387
X003641
X003895
X004149
X004403
X004657
X004911
X005165
X005419
X005673
X005927
X006181
X006435
X006689
X006943
X007197
X007451
Y004454
X007197
X006943
X006689
X006435
X006181
X005927
X005673
X005419
X005165
X004911
X004657
X004403
X004149
X003895
X003641
Y003946
X003895
X004149
X004403
X004657
X004911
X005165
X005419
X005673
X005927
X006181
X006435
X006689
X006943
X007197
X007451
X007705
X007959
X008213
X008467
X008721
X008975
X009229
X009483
X009737
X009991
X010245
Y004454
X009991
X009737
X009483
X009229
X008975
X008721
X008467
X008213
X007959
X007705
Y005946
X007959
X008213
X008467
X008721
X008975
X009229
X009483
X009737
X009991
X010245
Y006454
X009991
X009737
X009483
X009229
X008975
X008721
X008467
X008213
X007959
X007705
Y007946
X007959
X008213
X008467
X008721
X008975
X009229
X009483
X009737
X009991
X010245
Y008454
X009991
X009737
X009483
X009229
X008975
X008721
X008467
X008213
X007959
X007705
X007451
X007197
X006943
X006689
X006435
X006181
X005927
X005673
X005419
X005165
X004911
X004657
X004403
X004149
X003895
X003641
Y007946
X003895
X004149
X004403
X004657
X004911
X005165
X005419
X005673
X005927
X006181
X006435
X006689
X006943
X007197
X007451
Y006454
X007197
X006943
X006689
X006435
X006181
X005927
X005673
X005419
X005165
X004911
X004657
X004403
X004149
X003895
X003641
X003387
X003133
X002879
X002625
X002371
X002117
X001863
X001609
X001355
Y007946
X001609
X001863
X002117
X002371
X002625
X002879
X003133
X003387
Y008454
X003133
X002879
X002625
X002371
X002117
X001863
X001609
X001355
X0003Y01145
Y0119
X017466Y01068
X017974
T09
X019392Y000346
Y0006
X019646
Y000346
X0199
Y0006
X010331Y009
X010077
X009823
X009569
X010323Y009496
X010577
Y00975
X010323
Y010004
X010577
T10
X012576Y006114
X013592
X014608
X015624
X01537Y010686
X014354
X013846
T11
X00215Y00282
X00605
X0053588Y012158
X0050794
X0048
X0045206
X0042412
X0043809Y012442
X0046603
X0049397
X0052191
T12
X009564Y011846
X009794
X010024
X010254
X010484
X01037Y0121
X01013999
X00991
X00968
X00945
X009564Y012354
X009794
X010024
X010254
X010484
T14
X01845Y0035
X019025
X0196
X020175
X02075
X0216Y0097
X0196
X0176
T15
X01856Y00181
X0118125Y00029
X00843Y000205
X01338Y00404
X01793Y00306
T16
X0192Y01055
Y01205
T17
X00055Y011325
Y012025
T18
X00425Y00282
X00815
T19
X0203301Y011119
Y0115
X0208
Y011119
X0212699
Y0115
X021054Y01277
X020546
T20
X00355Y012297
X00605
T21
X00875Y0121
X01125
T22
X0219Y0005
X0005
Y0049
X011Y0055
Y0075
X0005Y0069
Y0127
X012
X0219
T23
X011Y0004
Y0011
M30
