%FSLAX44Y44*%
%MOMM*%
G71*
G01*
G75*
G04 Layer_Color=255*
%ADD10C,0.2000*%
%ADD11R,0.7500X1.3000*%
%ADD12C,0.3500*%
%ADD13R,1.3000X0.7500*%
%ADD14R,1.3000X1.9000*%
%ADD15R,0.6500X1.7500*%
%ADD16O,1.7000X0.4500*%
%ADD17O,2.0320X0.8890*%
%ADD18R,2.0320X0.8890*%
%ADD19P,1.4142X4X180.0*%
%ADD20P,1.4142X4X90.0*%
%ADD21R,1.0000X1.9000*%
%ADD22R,6.8000X6.9000*%
%ADD23R,2.6000X1.8000*%
%ADD24R,2.4000X2.5000*%
%ADD25R,2.6000X2.2000*%
%ADD26R,0.9900X0.6900*%
%ADD27R,5.5000X2.0000*%
%ADD28R,3.5000X1.2000*%
%ADD29R,1.0000X2.2000*%
%ADD30R,1.4500X2.0000*%
%ADD31R,0.8000X1.5000*%
%ADD32R,2.0000X3.0000*%
%ADD33R,1.0000X1.5000*%
%ADD34R,0.7000X1.5000*%
%ADD35R,1.5500X0.2500*%
%ADD36R,0.2500X1.5500*%
%ADD37R,0.9500X1.6500*%
%ADD38R,2.0000X0.6000*%
%ADD39O,2.1000X0.6000*%
%ADD40R,2.0000X5.5000*%
%ADD41R,5.3000X5.3000*%
%ADD42O,0.3000X0.8000*%
%ADD43O,0.8000X0.3000*%
%ADD44C,2.5000*%
%ADD45C,0.5000*%
%ADD46C,0.2500*%
%ADD47C,1.0000*%
%ADD48C,1.5000*%
%ADD49C,0.1500*%
%ADD50C,0.1250*%
%ADD51C,1.8000*%
%ADD52C,1.5000*%
%ADD53R,1.5000X1.5000*%
%ADD54C,2.5400*%
%ADD55R,2.0320X2.0320*%
%ADD56C,2.0320*%
%ADD57R,2.5000X2.5000*%
%ADD58C,2.5000*%
%ADD59O,1.4000X2.0000*%
%ADD60C,3.0000*%
%ADD61R,3.6000X2.6000*%
%ADD62O,3.2000X1.4000*%
%ADD63O,1.3000X3.5000*%
%ADD64O,3.7000X1.4000*%
%ADD65O,3.0000X1.4000*%
%ADD66O,1.4000X3.0000*%
%ADD67C,1.7000*%
%ADD68C,5.0000*%
%ADD69C,1.8000*%
%ADD70C,1.8000*%
%ADD71R,1.8000X1.8000*%
%ADD72C,7.0000*%
%ADD73R,1.9000X1.9000*%
%ADD74C,1.9000*%
%ADD75C,4.6000*%
%ADD76R,1.6510X1.6510*%
%ADD77C,1.6510*%
%ADD78R,1.6510X1.6510*%
%ADD79C,2.4000*%
%ADD80C,1.0000*%
%ADD81C,0.6000*%
%ADD82C,0.4000*%
D45*
X2239730Y1320000D02*
X-270D01*
Y-0D02*
Y1320000D01*
X2239730Y-0D02*
X-270D01*
X2239730D02*
Y1320000D01*
D52*
X1521730Y1095000D02*
D03*
D53*
X1577730D02*
D03*
D54*
X319730Y1205000D02*
D03*
Y1055000D02*
D03*
D55*
X855130Y1068600D02*
D03*
D56*
X880530Y611400D02*
D03*
X804330Y1068600D02*
D03*
X702730D02*
D03*
X982130Y611400D02*
D03*
X778930D02*
D03*
X677330D02*
D03*
D57*
X79730Y970000D02*
D03*
D58*
X279730D02*
D03*
X479730D02*
D03*
X394730Y350000D02*
D03*
X337230D02*
D03*
X279730D02*
D03*
X222230D02*
D03*
X164730D02*
D03*
D59*
X493130Y1068000D02*
D03*
X442330D02*
D03*
D60*
X112740Y1111900D02*
D03*
X159730D02*
D03*
X206720D02*
D03*
X112740Y1150000D02*
D03*
X159730D02*
D03*
X206720D02*
D03*
X185130Y1277000D02*
D03*
X134330D02*
D03*
D61*
X519730Y1150000D02*
D03*
X450730D02*
D03*
X588730D02*
D03*
D62*
X807730Y1250000D02*
D03*
D63*
X854731Y1220000D02*
D03*
D64*
X807730Y1188000D02*
D03*
D65*
X1499731Y1280000D02*
D03*
D66*
X1567230Y1272000D02*
D03*
X1432231D02*
D03*
D67*
X1512730Y1242000D02*
D03*
X1486730D02*
D03*
X1533730D02*
D03*
X1465730D02*
D03*
X1533730Y1217000D02*
D03*
X1465730D02*
D03*
D68*
X1634730Y1229700D02*
D03*
X1884730D02*
D03*
D69*
X1801640Y1244200D02*
D03*
X1773700D02*
D03*
X1745760D02*
D03*
X1717820D02*
D03*
D70*
X1815610Y1215800D02*
D03*
X1787670D02*
D03*
X1759730D02*
D03*
X1731790D02*
D03*
X2104230Y794600D02*
D03*
Y845400D02*
D03*
X2078830Y794600D02*
D03*
Y845400D02*
D03*
X2053430Y794600D02*
D03*
Y845400D02*
D03*
X2028030Y794600D02*
D03*
Y845400D02*
D03*
X2002630Y794600D02*
D03*
Y845400D02*
D03*
X1977230Y794600D02*
D03*
Y845400D02*
D03*
X1951830Y794600D02*
D03*
Y845400D02*
D03*
X1926430Y794600D02*
D03*
Y845400D02*
D03*
X1901030Y794600D02*
D03*
Y845400D02*
D03*
X1875630Y794600D02*
D03*
Y845400D02*
D03*
X1850230Y794600D02*
D03*
Y845400D02*
D03*
X1824830Y794600D02*
D03*
Y845400D02*
D03*
X1799430Y794600D02*
D03*
Y845400D02*
D03*
X1774030Y794600D02*
D03*
Y845400D02*
D03*
X1748630Y794600D02*
D03*
Y845400D02*
D03*
X1723230Y794600D02*
D03*
Y845400D02*
D03*
X1697830Y794600D02*
D03*
Y845400D02*
D03*
X1672430Y794600D02*
D03*
Y845400D02*
D03*
X1647030Y794600D02*
D03*
Y845400D02*
D03*
X1621630Y794600D02*
D03*
Y845400D02*
D03*
X1596230Y794600D02*
D03*
Y845400D02*
D03*
X1570830Y794600D02*
D03*
Y845400D02*
D03*
X1545430Y794600D02*
D03*
Y845400D02*
D03*
X1520030Y794600D02*
D03*
Y845400D02*
D03*
X1494630Y794600D02*
D03*
Y845400D02*
D03*
X1469230Y794600D02*
D03*
Y845400D02*
D03*
X1443830Y794600D02*
D03*
Y845400D02*
D03*
X1418430Y794600D02*
D03*
Y845400D02*
D03*
X1393030Y794600D02*
D03*
Y845400D02*
D03*
X1367630Y794600D02*
D03*
Y845400D02*
D03*
X1342230Y794600D02*
D03*
Y845400D02*
D03*
X1316830Y794600D02*
D03*
Y845400D02*
D03*
X1291430Y794600D02*
D03*
Y845400D02*
D03*
X1266030Y794600D02*
D03*
Y845400D02*
D03*
X1240630Y794600D02*
D03*
Y845400D02*
D03*
X1215230Y794600D02*
D03*
X2104230Y594600D02*
D03*
Y645400D02*
D03*
X2078830Y594600D02*
D03*
Y645400D02*
D03*
X2053430Y594600D02*
D03*
Y645400D02*
D03*
X2028030Y594600D02*
D03*
Y645400D02*
D03*
X2002630Y594600D02*
D03*
Y645400D02*
D03*
X1977230Y594600D02*
D03*
Y645400D02*
D03*
X1951830Y594600D02*
D03*
Y645400D02*
D03*
X1926430Y594600D02*
D03*
Y645400D02*
D03*
X1901030Y594600D02*
D03*
Y645400D02*
D03*
X1875630Y594600D02*
D03*
Y645400D02*
D03*
X1850230Y594600D02*
D03*
Y645400D02*
D03*
X1824830Y594600D02*
D03*
Y645400D02*
D03*
X1799430Y594600D02*
D03*
Y645400D02*
D03*
X1774030Y594600D02*
D03*
Y645400D02*
D03*
X1748630Y594600D02*
D03*
Y645400D02*
D03*
X1723230Y594600D02*
D03*
Y645400D02*
D03*
X1697830Y594600D02*
D03*
Y645400D02*
D03*
X1672430Y594600D02*
D03*
Y645400D02*
D03*
X1647030Y594600D02*
D03*
Y645400D02*
D03*
X1621630Y594600D02*
D03*
Y645400D02*
D03*
X1596230Y594600D02*
D03*
Y645400D02*
D03*
X1570830Y594600D02*
D03*
Y645400D02*
D03*
X1545430Y594600D02*
D03*
Y645400D02*
D03*
X1520030Y594600D02*
D03*
Y645400D02*
D03*
X1494630Y594600D02*
D03*
Y645400D02*
D03*
X1469230Y594600D02*
D03*
Y645400D02*
D03*
X1443830Y594600D02*
D03*
Y645400D02*
D03*
X1418430Y594600D02*
D03*
Y645400D02*
D03*
X1393030Y594600D02*
D03*
Y645400D02*
D03*
X1367630Y594600D02*
D03*
Y645400D02*
D03*
X1342230Y594600D02*
D03*
Y645400D02*
D03*
X1316830Y594600D02*
D03*
Y645400D02*
D03*
X1291430Y594600D02*
D03*
Y645400D02*
D03*
X1266030Y594600D02*
D03*
Y645400D02*
D03*
X1240630Y594600D02*
D03*
Y645400D02*
D03*
X1215230Y594600D02*
D03*
X2104230Y394600D02*
D03*
Y445400D02*
D03*
X2078830Y394600D02*
D03*
Y445400D02*
D03*
X2053430Y394600D02*
D03*
Y445400D02*
D03*
X2028030Y394600D02*
D03*
Y445400D02*
D03*
X2002630Y394600D02*
D03*
Y445400D02*
D03*
X1977230Y394600D02*
D03*
Y445400D02*
D03*
X1951830Y394600D02*
D03*
Y445400D02*
D03*
X1926430Y394600D02*
D03*
Y445400D02*
D03*
X1901030Y394600D02*
D03*
Y445400D02*
D03*
X1875630Y394600D02*
D03*
Y445400D02*
D03*
X1850230Y394600D02*
D03*
Y445400D02*
D03*
X1824830Y394600D02*
D03*
Y445400D02*
D03*
X1799430Y394600D02*
D03*
Y445400D02*
D03*
X1774030Y394600D02*
D03*
Y445400D02*
D03*
X1748630Y394600D02*
D03*
Y445400D02*
D03*
X1723230Y394600D02*
D03*
Y445400D02*
D03*
X1697830Y394600D02*
D03*
Y445400D02*
D03*
X1672430Y394600D02*
D03*
Y445400D02*
D03*
X1647030Y394600D02*
D03*
Y445400D02*
D03*
X1621630Y394600D02*
D03*
Y445400D02*
D03*
X1596230Y394600D02*
D03*
Y445400D02*
D03*
X1570830Y394600D02*
D03*
Y445400D02*
D03*
X1545430Y394600D02*
D03*
Y445400D02*
D03*
X1520030Y394600D02*
D03*
Y445400D02*
D03*
X1494630Y394600D02*
D03*
Y445400D02*
D03*
X1469230Y394600D02*
D03*
Y445400D02*
D03*
X1443830Y394600D02*
D03*
Y445400D02*
D03*
X1418430Y394600D02*
D03*
Y445400D02*
D03*
X1393030Y394600D02*
D03*
Y445400D02*
D03*
X1367630Y394600D02*
D03*
Y445400D02*
D03*
X1342230Y394600D02*
D03*
Y445400D02*
D03*
X1316830Y394600D02*
D03*
Y445400D02*
D03*
X1291430Y394600D02*
D03*
Y445400D02*
D03*
X1266030Y394600D02*
D03*
Y445400D02*
D03*
X1240630Y394600D02*
D03*
Y445400D02*
D03*
X1215230Y394600D02*
D03*
X2209730Y1190000D02*
D03*
Y1145000D02*
D03*
D71*
X1703850Y1215800D02*
D03*
X1215230Y845400D02*
D03*
Y645400D02*
D03*
Y445400D02*
D03*
D72*
X1039730Y1270000D02*
D03*
X1139730Y550000D02*
D03*
Y750000D02*
D03*
X2189730Y1270000D02*
D03*
X49730D02*
D03*
Y50000D02*
D03*
X2189730D02*
D03*
Y690000D02*
D03*
Y490000D02*
D03*
D73*
X1283331Y1184600D02*
D03*
D74*
X1260330D02*
D03*
X1237330D02*
D03*
X1214331D02*
D03*
X1191330D02*
D03*
X1202730Y1210000D02*
D03*
X1225731D02*
D03*
X1248730D02*
D03*
X1271730D02*
D03*
X1294730D02*
D03*
X1191330Y1235400D02*
D03*
X1214331D02*
D03*
X1237330D02*
D03*
X1260330D02*
D03*
X1283331D02*
D03*
D75*
X1364731Y1210000D02*
D03*
X1114731D02*
D03*
D76*
X249730Y60000D02*
D03*
X1206630Y900000D02*
D03*
D77*
X249730Y34600D02*
D03*
X275130Y60000D02*
D03*
Y34600D02*
D03*
X300530Y60000D02*
D03*
Y34600D02*
D03*
X1282830Y900000D02*
D03*
X1257430D02*
D03*
X1232030D02*
D03*
X1182030Y1000400D02*
D03*
X1207430Y975000D02*
D03*
X1182030D02*
D03*
X1207430Y949600D02*
D03*
X1182030D02*
D03*
D78*
X1207430Y1000400D02*
D03*
D79*
X2184730Y1202500D02*
D03*
Y1132500D02*
D03*
M02*
