%FSLAX44Y44*%
%MOMM*%
G71*
G01*
G75*
G04 Layer_Color=4989720*
%ADD10C,0.2000*%
%ADD11R,1.2000X3.5000*%
%ADD12R,1.3000X0.7500*%
%ADD13R,0.9900X0.6900*%
%ADD14R,0.7500X1.3000*%
%ADD15R,3.5000X1.2000*%
%ADD16R,0.6900X0.9900*%
%ADD17R,2.0000X5.5000*%
%ADD18R,1.0000X1.5000*%
%ADD19R,0.7000X1.5000*%
%ADD20R,2.0000X3.0000*%
%ADD21C,0.3500*%
%ADD22R,1.3000X1.9000*%
%ADD23R,5.5000X2.0000*%
%ADD24R,0.8000X1.5000*%
%ADD25R,1.4500X2.0000*%
%ADD26R,2.0320X0.8890*%
%ADD27O,2.0320X0.8890*%
%ADD28R,0.6500X1.7500*%
%ADD29R,0.2500X1.5500*%
%ADD30R,1.5500X0.2500*%
%ADD31O,2.1000X0.6000*%
%ADD32R,2.0000X0.6000*%
%ADD33O,0.8000X0.3000*%
%ADD34O,0.3000X0.8000*%
%ADD35R,5.3000X5.3000*%
%ADD36O,0.4500X1.7000*%
%ADD37P,1.4142X4X270.0*%
%ADD38P,1.4142X4X360.0*%
%ADD39R,6.8000X6.9000*%
%ADD40R,1.0000X1.9000*%
%ADD41R,0.9500X1.6500*%
%ADD42R,2.6000X2.2000*%
%ADD43R,2.4000X2.5000*%
%ADD44R,2.6000X1.8000*%
%ADD45R,1.0000X2.2000*%
%ADD46C,0.5000*%
%ADD47C,2.5000*%
%ADD48C,0.2500*%
%ADD49C,1.0000*%
%ADD50C,1.5000*%
%ADD51C,1.8000*%
%ADD52C,0.1250*%
%ADD53C,0.1500*%
%ADD54C,1.6510*%
%ADD55R,1.6510X1.6510*%
%ADD56C,7.0000*%
%ADD57R,1.9000X1.9000*%
%ADD58C,1.9000*%
%ADD59R,1.6510X1.6510*%
%ADD60R,1.5000X1.5000*%
%ADD61C,1.5000*%
%ADD62C,2.0320*%
%ADD63R,2.0320X2.0320*%
%ADD64C,2.5400*%
%ADD65O,1.4000X2.0000*%
%ADD66C,1.7000*%
%ADD67O,1.4000X3.0000*%
%ADD68O,3.0000X1.4000*%
%ADD69C,4.6000*%
%ADD70R,1.8000X1.8000*%
%ADD71C,1.8000*%
%ADD72C,1.8000*%
%ADD73C,5.0000*%
%ADD74C,2.5000*%
%ADD75R,2.5000X2.5000*%
%ADD76C,3.0000*%
%ADD77C,2.4000*%
%ADD78R,3.6000X2.6000*%
%ADD79O,3.7000X1.4000*%
%ADD80O,1.3000X3.5000*%
%ADD81O,3.2000X1.4000*%
%ADD82C,1.2000*%
%ADD83C,0.6000*%
%ADD84C,0.4000*%
%ADD85C,1.0000*%
%ADD86C,0.1778*%
%ADD87C,0.1250*%
%ADD88C,0.2540*%
%ADD89C,0.6000*%
%ADD90C,0.2032*%
%ADD91C,0.1270*%
%ADD92C,0.0800*%
%ADD93C,0.0100*%
%ADD94R,3.2500X1.0000*%
%ADD95R,1.0000X3.2500*%
%ADD96R,1.0000X3.2500*%
%ADD97R,1.0001X3.2500*%
%ADD98R,1.1000X0.2000*%
%ADD99R,0.9000X1.4500*%
%ADD100R,1.4032X3.7032*%
%ADD101R,1.5032X0.9532*%
%ADD102R,1.1932X0.8932*%
%ADD103R,0.9532X1.5032*%
%ADD104R,3.7032X1.4032*%
%ADD105R,0.8932X1.1932*%
%ADD106R,2.2032X5.7032*%
%ADD107R,1.2032X1.7032*%
%ADD108R,0.9032X1.7032*%
%ADD109R,2.2032X3.2032*%
%ADD110C,0.5532*%
%ADD111R,1.5032X2.1032*%
%ADD112R,5.7032X2.2032*%
%ADD113R,1.0032X1.7032*%
%ADD114R,1.6532X2.2032*%
%ADD115R,2.2352X1.0922*%
%ADD116O,2.2352X1.0922*%
%ADD117R,0.8532X1.9532*%
%ADD118R,0.4532X1.7532*%
%ADD119R,1.7532X0.4532*%
%ADD120O,2.3032X0.8032*%
%ADD121R,2.2032X0.8032*%
%ADD122O,1.0032X0.5032*%
%ADD123O,0.5032X1.0032*%
%ADD124R,5.5032X5.5032*%
%ADD125O,0.6532X1.9032*%
%ADD126P,1.7016X4X270.0*%
%ADD127P,1.7016X4X360.0*%
%ADD128R,7.0032X7.1032*%
%ADD129R,1.2032X2.1032*%
%ADD130R,1.1532X1.8532*%
%ADD131R,2.8032X2.4032*%
%ADD132R,2.6032X2.7032*%
%ADD133R,2.8032X2.0032*%
%ADD134R,1.2032X2.4032*%
%ADD135C,1.8542*%
%ADD136R,1.8542X1.8542*%
%ADD137C,7.2032*%
%ADD138R,0.2032X0.2032*%
%ADD139R,2.1032X2.1032*%
%ADD140C,2.1032*%
%ADD141R,1.8542X1.8542*%
%ADD142R,1.7032X1.7032*%
%ADD143C,1.7032*%
%ADD144C,2.2352*%
%ADD145R,2.2352X2.2352*%
%ADD146C,2.7432*%
%ADD147O,1.6032X2.2032*%
%ADD148C,1.9032*%
%ADD149O,1.6032X3.2032*%
%ADD150O,3.2032X1.6032*%
%ADD151C,4.8032*%
%ADD152R,2.0032X2.0032*%
%ADD153C,2.0032*%
%ADD154C,2.0032*%
%ADD155C,5.2032*%
%ADD156C,2.7032*%
%ADD157R,2.7032X2.7032*%
%ADD158C,3.2032*%
%ADD159C,2.6032*%
%ADD160R,3.8032X2.8032*%
%ADD161O,3.9032X1.6032*%
%ADD162O,1.5032X3.7032*%
%ADD163O,3.4032X1.6032*%
%ADD164C,1.4032*%
%ADD165C,1.2032*%
D46*
X2239730Y1320000D02*
X2239730Y1320000D01*
X724730D01*
X314730D02*
X-270D01*
X314730Y1280000D02*
Y1320000D01*
X724730Y1280000D02*
X314730D01*
X724730D02*
Y1320000D01*
X2239730Y-0D02*
Y1320000D01*
Y-0D02*
X-270D01*
Y1320000D01*
D135*
X996730Y464600D02*
D03*
Y490000D02*
D03*
X1182030Y949600D02*
D03*
X1207430D02*
D03*
X1182030Y975000D02*
D03*
X1207430D02*
D03*
X1182030Y1000400D02*
D03*
X633730Y365700D02*
D03*
Y340300D02*
D03*
X300530Y34600D02*
D03*
Y60000D02*
D03*
X275130Y34600D02*
D03*
Y60000D02*
D03*
X249730Y34600D02*
D03*
X1232030Y900000D02*
D03*
X1257430D02*
D03*
X1282830D02*
D03*
D136*
X996730Y515400D02*
D03*
X1207430Y1000400D02*
D03*
D137*
X2189730Y490000D02*
D03*
Y690000D02*
D03*
Y50000D02*
D03*
X49730D02*
D03*
Y1270000D02*
D03*
X2189730D02*
D03*
X1139730Y750000D02*
D03*
Y550000D02*
D03*
X1039730Y1270000D02*
D03*
D138*
X1634730Y282000D02*
D03*
X1424730D02*
D03*
X1139730Y40000D02*
D03*
Y110000D02*
D03*
X2024730Y282000D02*
D03*
X1814730D02*
D03*
D139*
X1215230Y645400D02*
D03*
Y445400D02*
D03*
X1283331Y1184600D02*
D03*
X1215230Y845400D02*
D03*
D140*
Y594600D02*
D03*
X1240630Y645400D02*
D03*
Y594600D02*
D03*
X1266030Y645400D02*
D03*
Y594600D02*
D03*
X1291430Y645400D02*
D03*
Y594600D02*
D03*
X1316830Y645400D02*
D03*
Y594600D02*
D03*
X1342230Y645400D02*
D03*
Y594600D02*
D03*
X1367630Y645400D02*
D03*
Y594600D02*
D03*
X1393030Y645400D02*
D03*
Y594600D02*
D03*
X1418430Y645400D02*
D03*
Y594600D02*
D03*
X1443830Y645400D02*
D03*
Y594600D02*
D03*
X1469230Y645400D02*
D03*
Y594600D02*
D03*
X1494630Y645400D02*
D03*
Y594600D02*
D03*
X1520030Y645400D02*
D03*
Y594600D02*
D03*
X1545430Y645400D02*
D03*
Y594600D02*
D03*
X1570830Y645400D02*
D03*
Y594600D02*
D03*
X1596230Y645400D02*
D03*
Y594600D02*
D03*
X1621630Y645400D02*
D03*
Y594600D02*
D03*
X1647030Y645400D02*
D03*
Y594600D02*
D03*
X1672430Y645400D02*
D03*
Y594600D02*
D03*
X1697830Y645400D02*
D03*
Y594600D02*
D03*
X1723230Y645400D02*
D03*
Y594600D02*
D03*
X1748630Y645400D02*
D03*
Y594600D02*
D03*
X1774030Y645400D02*
D03*
Y594600D02*
D03*
X1799430Y645400D02*
D03*
Y594600D02*
D03*
X1824830Y645400D02*
D03*
Y594600D02*
D03*
X1850230Y645400D02*
D03*
Y594600D02*
D03*
X1875630Y645400D02*
D03*
Y594600D02*
D03*
X1901030Y645400D02*
D03*
Y594600D02*
D03*
X1926430Y645400D02*
D03*
Y594600D02*
D03*
X1951830Y645400D02*
D03*
Y594600D02*
D03*
X1977230Y645400D02*
D03*
Y594600D02*
D03*
X2002630Y645400D02*
D03*
Y594600D02*
D03*
X2028030Y645400D02*
D03*
Y594600D02*
D03*
X2053430Y645400D02*
D03*
Y594600D02*
D03*
X2078830Y645400D02*
D03*
Y594600D02*
D03*
X2104230Y645400D02*
D03*
Y594600D02*
D03*
X1215230Y394600D02*
D03*
X1240630Y445400D02*
D03*
Y394600D02*
D03*
X1266030Y445400D02*
D03*
Y394600D02*
D03*
X1291430Y445400D02*
D03*
Y394600D02*
D03*
X1316830Y445400D02*
D03*
Y394600D02*
D03*
X1342230Y445400D02*
D03*
Y394600D02*
D03*
X1367630Y445400D02*
D03*
Y394600D02*
D03*
X1393030Y445400D02*
D03*
Y394600D02*
D03*
X1418430Y445400D02*
D03*
Y394600D02*
D03*
X1443830Y445400D02*
D03*
Y394600D02*
D03*
X1469230Y445400D02*
D03*
Y394600D02*
D03*
X1494630Y445400D02*
D03*
Y394600D02*
D03*
X1520030Y445400D02*
D03*
Y394600D02*
D03*
X1545430Y445400D02*
D03*
Y394600D02*
D03*
X1570830Y445400D02*
D03*
Y394600D02*
D03*
X1596230Y445400D02*
D03*
Y394600D02*
D03*
X1621630Y445400D02*
D03*
Y394600D02*
D03*
X1647030Y445400D02*
D03*
Y394600D02*
D03*
X1672430Y445400D02*
D03*
Y394600D02*
D03*
X1697830Y445400D02*
D03*
Y394600D02*
D03*
X1723230Y445400D02*
D03*
Y394600D02*
D03*
X1748630Y445400D02*
D03*
Y394600D02*
D03*
X1774030Y445400D02*
D03*
Y394600D02*
D03*
X1799430Y445400D02*
D03*
Y394600D02*
D03*
X1824830Y445400D02*
D03*
Y394600D02*
D03*
X1850230Y445400D02*
D03*
Y394600D02*
D03*
X1875630Y445400D02*
D03*
Y394600D02*
D03*
X1901030Y445400D02*
D03*
Y394600D02*
D03*
X1926430Y445400D02*
D03*
Y394600D02*
D03*
X1951830Y445400D02*
D03*
Y394600D02*
D03*
X1977230Y445400D02*
D03*
Y394600D02*
D03*
X2002630Y445400D02*
D03*
Y394600D02*
D03*
X2028030Y445400D02*
D03*
Y394600D02*
D03*
X2053430Y445400D02*
D03*
Y394600D02*
D03*
X2078830Y445400D02*
D03*
Y394600D02*
D03*
X2104230Y445400D02*
D03*
Y394600D02*
D03*
X1283331Y1235400D02*
D03*
X1260330D02*
D03*
X1237330D02*
D03*
X1214331D02*
D03*
X1191330D02*
D03*
X1294730Y1210000D02*
D03*
X1271730D02*
D03*
X1248730D02*
D03*
X1225731D02*
D03*
X1202730D02*
D03*
X1191330Y1184600D02*
D03*
X1214331D02*
D03*
X1237330D02*
D03*
X1260330D02*
D03*
X1215230Y794600D02*
D03*
X1240630Y845400D02*
D03*
Y794600D02*
D03*
X1266030Y845400D02*
D03*
Y794600D02*
D03*
X1291430Y845400D02*
D03*
Y794600D02*
D03*
X1316830Y845400D02*
D03*
Y794600D02*
D03*
X1342230Y845400D02*
D03*
Y794600D02*
D03*
X1367630Y845400D02*
D03*
Y794600D02*
D03*
X1393030Y845400D02*
D03*
Y794600D02*
D03*
X1418430Y845400D02*
D03*
Y794600D02*
D03*
X1443830Y845400D02*
D03*
Y794600D02*
D03*
X1469230Y845400D02*
D03*
Y794600D02*
D03*
X1494630Y845400D02*
D03*
Y794600D02*
D03*
X1520030Y845400D02*
D03*
Y794600D02*
D03*
X1545430Y845400D02*
D03*
Y794600D02*
D03*
X1570830Y845400D02*
D03*
Y794600D02*
D03*
X1596230Y845400D02*
D03*
Y794600D02*
D03*
X1621630Y845400D02*
D03*
Y794600D02*
D03*
X1647030Y845400D02*
D03*
Y794600D02*
D03*
X1672430Y845400D02*
D03*
Y794600D02*
D03*
X1697830Y845400D02*
D03*
Y794600D02*
D03*
X1723230Y845400D02*
D03*
Y794600D02*
D03*
X1748630Y845400D02*
D03*
Y794600D02*
D03*
X1774030Y845400D02*
D03*
Y794600D02*
D03*
X1799430Y845400D02*
D03*
Y794600D02*
D03*
X1824830Y845400D02*
D03*
Y794600D02*
D03*
X1850230Y845400D02*
D03*
Y794600D02*
D03*
X1875630Y845400D02*
D03*
Y794600D02*
D03*
X1901030Y845400D02*
D03*
Y794600D02*
D03*
X1926430Y845400D02*
D03*
Y794600D02*
D03*
X1951830Y845400D02*
D03*
Y794600D02*
D03*
X1977230Y845400D02*
D03*
Y794600D02*
D03*
X2002630Y845400D02*
D03*
Y794600D02*
D03*
X2028030Y845400D02*
D03*
Y794600D02*
D03*
X2053430Y845400D02*
D03*
Y794600D02*
D03*
X2078830Y845400D02*
D03*
Y794600D02*
D03*
X2104230Y845400D02*
D03*
Y794600D02*
D03*
D141*
X249730Y60000D02*
D03*
X1206630Y900000D02*
D03*
D142*
X1577730Y1095000D02*
D03*
D143*
X1521730D02*
D03*
D144*
X677330Y611400D02*
D03*
X778930D02*
D03*
X982130D02*
D03*
X702730Y1068600D02*
D03*
X804330D02*
D03*
X880530Y611400D02*
D03*
D145*
X855130Y1068600D02*
D03*
D146*
X319730Y1055000D02*
D03*
Y1205000D02*
D03*
D147*
X442330Y1068000D02*
D03*
X493130D02*
D03*
D148*
X1465730Y1217000D02*
D03*
X1533730D02*
D03*
X1465730Y1242000D02*
D03*
X1533730D02*
D03*
X1486730D02*
D03*
X1512730D02*
D03*
D149*
X1432231Y1272000D02*
D03*
X1567230D02*
D03*
D150*
X1499731Y1280000D02*
D03*
D151*
X1114731Y1210000D02*
D03*
X1364731D02*
D03*
D152*
X1703850Y1215800D02*
D03*
D153*
X1731790D02*
D03*
X1759730D02*
D03*
X1787670D02*
D03*
X1815610D02*
D03*
X2209730Y1145000D02*
D03*
Y1190000D02*
D03*
D154*
X1717820Y1244200D02*
D03*
X1745760D02*
D03*
X1773700D02*
D03*
X1801640D02*
D03*
D155*
X1884730Y1229700D02*
D03*
X1634730D02*
D03*
D156*
X164730Y350000D02*
D03*
X222230D02*
D03*
X279730D02*
D03*
X337230D02*
D03*
X394730D02*
D03*
X479730Y970000D02*
D03*
X279730D02*
D03*
D157*
X79730D02*
D03*
D158*
X134330Y1276000D02*
D03*
X185130D02*
D03*
X206720Y1149000D02*
D03*
X159730D02*
D03*
X112740D02*
D03*
X206720Y1110900D02*
D03*
X159730D02*
D03*
X112740D02*
D03*
D159*
X2184730Y1132500D02*
D03*
Y1202500D02*
D03*
D160*
X588730Y1143000D02*
D03*
X450730D02*
D03*
X519730D02*
D03*
D161*
X807730Y1188000D02*
D03*
D162*
X854731Y1220000D02*
D03*
D163*
X807730Y1250000D02*
D03*
D164*
X633430Y420500D02*
D03*
X658830Y445900D02*
D03*
Y420500D02*
D03*
X684230Y445900D02*
D03*
X658830Y471300D02*
D03*
X684230D02*
D03*
X658830Y496700D02*
D03*
X684230D02*
D03*
X658830Y522100D02*
D03*
X684230D02*
D03*
X658830Y547500D02*
D03*
X633430Y522100D02*
D03*
Y547500D02*
D03*
X608030Y522100D02*
D03*
Y547500D02*
D03*
X582630Y522100D02*
D03*
Y547500D02*
D03*
X557230Y522100D02*
D03*
X582630Y496700D02*
D03*
X557230D02*
D03*
X582630Y471300D02*
D03*
X557230D02*
D03*
X582630Y445900D02*
D03*
X557230D02*
D03*
X582630Y420500D02*
D03*
X608030Y445900D02*
D03*
Y420500D02*
D03*
X633430Y445900D02*
D03*
M02*
