%FSLAX44Y44*%
%MOMM*%
G71*
G01*
G75*
G04 Layer_Physical_Order=1*
G04 Layer_Color=255*
%ADD10C,0.2000*%
%ADD11R,2.0000X3.0000*%
%ADD12R,1.0000X1.5000*%
%ADD13R,0.7000X1.5000*%
%ADD14R,1.0000X2.2000*%
%ADD15R,2.6000X1.8000*%
%ADD16R,2.4000X2.5000*%
%ADD17R,2.6000X2.2000*%
%ADD18R,3.5000X1.2000*%
%ADD19R,0.9500X1.6500*%
%ADD20R,0.9900X0.6900*%
%ADD21R,0.7500X1.3000*%
%ADD22R,1.0000X1.9000*%
%ADD23R,6.8000X6.9000*%
%ADD24P,1.4142X4X180.0*%
%ADD25P,1.4142X4X90.0*%
%ADD26O,1.7000X0.4500*%
%ADD27R,5.3000X5.3000*%
%ADD28O,0.3000X0.8000*%
%ADD29O,0.8000X0.3000*%
%ADD30R,2.0000X0.6000*%
%ADD31O,2.1000X0.6000*%
%ADD32R,1.5500X0.2500*%
%ADD33R,0.2500X1.5500*%
%ADD34R,0.6500X1.7500*%
%ADD35O,2.0320X0.8890*%
%ADD36R,2.0320X0.8890*%
%ADD37R,1.4500X2.0000*%
%ADD38R,0.8000X1.5000*%
%ADD39R,5.5000X2.0000*%
%ADD40R,1.3000X1.9000*%
%ADD41C,0.3500*%
%ADD42R,1.3000X0.7500*%
%ADD43R,2.0000X5.5000*%
%ADD44C,1.0000*%
%ADD45C,2.5000*%
%ADD46C,0.2500*%
%ADD47C,0.5000*%
%ADD48C,1.5000*%
%ADD49C,1.8000*%
%ADD50C,0.1500*%
%ADD51C,0.1250*%
%ADD52C,1.9000*%
%ADD53R,1.9000X1.9000*%
%ADD54O,3.2000X1.4000*%
%ADD55O,1.3000X3.5000*%
%ADD56O,3.7000X1.4000*%
%ADD57R,3.6000X2.6000*%
%ADD58C,1.8000*%
%ADD59C,2.4000*%
%ADD60C,3.0000*%
%ADD61R,2.5000X2.5000*%
%ADD62C,2.5000*%
%ADD63C,5.0000*%
%ADD64C,1.8000*%
%ADD65R,1.8000X1.8000*%
%ADD66C,4.6000*%
%ADD67O,3.0000X1.4000*%
%ADD68O,1.4000X3.0000*%
%ADD69C,1.7000*%
%ADD70O,1.4000X2.0000*%
%ADD71C,2.5400*%
%ADD72R,2.0320X2.0320*%
%ADD73C,2.0320*%
%ADD74C,1.5000*%
%ADD75R,1.5000X1.5000*%
%ADD76C,1.6510*%
%ADD77R,1.6510X1.6510*%
%ADD78C,7.0000*%
%ADD79R,1.6510X1.6510*%
%ADD80C,0.6000*%
%ADD81C,1.0000*%
%ADD82C,0.4000*%
G36*
X1034548Y33837D02*
Y15452D01*
X1016163D01*
X1007678Y23938D01*
X1026062Y42322D01*
X1034548Y33837D01*
D02*
G37*
G36*
X972322Y23938D02*
X963837Y15452D01*
X945452D01*
Y33837D01*
X953938Y42322D01*
X972322Y23938D01*
D02*
G37*
G36*
X1034548Y86163D02*
X1026062Y77678D01*
X1007678Y96062D01*
X1016163Y104548D01*
X1034548D01*
Y86163D01*
D02*
G37*
G36*
X972322Y96062D02*
X953938Y77678D01*
X945452Y86163D01*
Y104548D01*
X963837D01*
X972322Y96062D01*
D02*
G37*
D10*
X2167284Y1310000D02*
G03*
X2230000Y1247285I22715J-40000D01*
G01*
X2131400Y1276000D02*
G03*
X2080000Y1281553I-26000J0D01*
G01*
Y1270447D02*
G03*
X2131400Y1276000I25400J5553D01*
G01*
X2144684Y1129950D02*
G03*
X2152990Y1149000I-17695J19050D01*
G01*
D02*
G03*
X2103495Y1160135I-26000J0D01*
G01*
D02*
G03*
X2056505Y1160135I-23495J-11135D01*
G01*
X2080000Y1281553D02*
G03*
X2080000Y1270447I-25400J-5553D01*
G01*
X2056505Y1160135D02*
G03*
X2007098Y1151136I-23495J-11135D01*
G01*
X1972617Y1185617D02*
G03*
X1956000Y1192500I-16617J-16617D01*
G01*
X1972625Y1185609D02*
G03*
X1956000Y1192500I-16625J-16609D01*
G01*
X1943700Y1205000D02*
G03*
X1896730Y1200504I-23700J0D01*
G01*
X1940135Y1192500D02*
G03*
X1943700Y1205000I-20136J12500D01*
G01*
X2152990Y1110900D02*
G03*
X2144684Y1129950I-26000J0D01*
G01*
X2088751Y1086417D02*
G03*
X2103495Y1099765I-8751J24483D01*
G01*
D02*
G03*
X2152990Y1110900I23495J11135D01*
G01*
X1982383Y1059383D02*
G03*
X1999000Y1052500I16617J16617D01*
G01*
X2045100D02*
G03*
X2061725Y1059391I0J23500D01*
G01*
X1982375D02*
G03*
X1999000Y1052500I16625J16609D01*
G01*
X1943700Y1055000D02*
G03*
X1943700Y1055000I-23700J0D01*
G01*
X2045100Y1052500D02*
G03*
X2061717Y1059383I0J23500D01*
G01*
X1983500Y970000D02*
G03*
X1983500Y970000I-23500J0D01*
G01*
X1855617Y1241617D02*
G03*
X1839000Y1248500I-16617J-16617D01*
G01*
X1855625Y1241609D02*
G03*
X1839000Y1248500I-16625J-16609D01*
G01*
X1858375Y1118391D02*
G03*
X1875000Y1111500I16625J16609D01*
G01*
X1858383Y1118383D02*
G03*
X1875000Y1111500I16617J16617D01*
G01*
X1573573Y1102855D02*
G03*
X1577750Y1102300I4178J15445D01*
G01*
X1815400Y1071000D02*
G03*
X1779400Y1071000I-18000J0D01*
G01*
X1764600D02*
G03*
X1728896Y1074250I-18000J0D01*
G01*
X1779400Y1065000D02*
G03*
X1815400Y1065000I18000J0D01*
G01*
X1748308Y1047081D02*
G03*
X1764600Y1065000I-1708J17919D01*
G01*
X1783500Y970000D02*
G03*
X1783500Y970000I-23500J0D01*
G01*
X1736850Y1042250D02*
G03*
X1748163Y1046936I0J16000D01*
G01*
X1736850Y1042250D02*
G03*
X1748163Y1046936I0J16000D01*
G01*
X1702800Y1043500D02*
G03*
X1709000Y1042250I6200J14750D01*
G01*
X2161968Y1306472D02*
Y1310000D01*
X2156968Y1302014D02*
Y1310000D01*
X2151968Y1295876D02*
Y1310000D01*
X2128474Y1287984D02*
X2147661D01*
X2146968Y1286256D02*
Y1310000D01*
X2125087Y1292984D02*
X2150153D01*
X2126968Y1290520D02*
Y1310000D01*
X2130444Y1282984D02*
X2145870D01*
X2121968Y1296038D02*
Y1310000D01*
X2131324Y1277984D02*
X2144698D01*
X2131224Y1272984D02*
X2144097D01*
X2130133Y1267984D02*
X2144044D01*
X2127907Y1262984D02*
X2144538D01*
X2146968Y1165640D02*
Y1253744D01*
X2124146Y1257984D02*
X2145597D01*
X2136968Y1173009D02*
Y1310000D01*
X2141968Y1170253D02*
Y1310000D01*
X2131968Y1174519D02*
Y1310000D01*
X2126968Y1175000D02*
Y1261480D01*
X2121968Y1174510D02*
Y1255963D01*
X2111968Y1301157D02*
Y1310000D01*
X2116968Y1299285D02*
Y1310000D01*
X1935000D02*
X2167284D01*
X1935000Y1302984D02*
X2157936D01*
X1935000Y1307984D02*
X2164053D01*
X2106968Y1301953D02*
Y1310000D01*
X2101968Y1301773D02*
Y1310000D01*
X2096968Y1300595D02*
Y1310000D01*
X2091968Y1298262D02*
Y1310000D01*
X2068483Y1297984D02*
X2091517D01*
X2119283D02*
X2153491D01*
X2086968Y1294337D02*
Y1310000D01*
Y1174049D02*
Y1257663D01*
X2077674Y1287984D02*
X2082326D01*
X2081968Y1287267D02*
Y1310000D01*
X2074287Y1292984D02*
X2085713D01*
X2077107Y1262984D02*
X2082893D01*
X2073346Y1257984D02*
X2086654D01*
X2223029Y1237984D02*
X2230000D01*
X2217309Y1232984D02*
X2230000D01*
X2208725Y1227984D02*
X2230000D01*
X2144756Y1167984D02*
X2230000D01*
X2148909Y1162984D02*
X2230000D01*
X2137029Y1172984D02*
X2230000D01*
X2117493Y1252984D02*
X2147263D01*
X2116968Y1172991D02*
Y1252715D01*
X2111968Y1170221D02*
Y1250843D01*
X2227230Y1242984D02*
X2230000D01*
X2106968Y1165587D02*
Y1250048D01*
X2152683Y1152984D02*
X2230000D01*
X2152970Y1147984D02*
X2230000D01*
X2151389Y1157984D02*
X2230000D01*
X2152284Y1142984D02*
X2230000D01*
X2150541Y1137984D02*
X2230000D01*
X2151968Y1156219D02*
Y1244124D01*
X2147471Y1132984D02*
X2230000D01*
X2146968Y1127540D02*
Y1132360D01*
X2146590Y1127984D02*
X2230000D01*
X1943511Y1207984D02*
X2230000D01*
X1943614Y1202984D02*
X2230000D01*
X1942637Y1197984D02*
X2230000D01*
X1969852Y1187984D02*
X2230000D01*
X1940428Y1192984D02*
X2230000D01*
X2066693Y1252984D02*
X2093307D01*
X1935436Y1222984D02*
X2230000D01*
X1925782Y1227984D02*
X2171274D01*
X1942314Y1212984D02*
X2230000D01*
X1939827Y1217984D02*
X2230000D01*
X1980250Y1177984D02*
X2230000D01*
X1975250Y1182984D02*
X2230000D01*
X2097766Y1167984D02*
X2109224D01*
X2090039Y1172984D02*
X2116951D01*
X2096968Y1168700D02*
Y1251405D01*
X2101968Y1162907D02*
Y1250228D01*
X2091968Y1172082D02*
Y1253738D01*
X2101919Y1162984D02*
X2105071D01*
X2061968Y1300934D02*
Y1310000D01*
X2066968Y1298870D02*
Y1310000D01*
X2056968Y1301892D02*
Y1310000D01*
X2076968Y1289254D02*
Y1310000D01*
X2079644Y1282984D02*
X2080355D01*
X2071968Y1295348D02*
Y1310000D01*
X2041968Y1298725D02*
Y1310000D01*
X2036968Y1295108D02*
Y1310000D01*
X2031968Y1288798D02*
Y1310000D01*
X2051968Y1301867D02*
Y1310000D01*
X2046968Y1300855D02*
Y1310000D01*
X2021968Y1172539D02*
Y1310000D01*
X2016968Y1169461D02*
Y1310000D01*
X2011968Y1164272D02*
Y1310000D01*
X2026968Y1174288D02*
Y1310000D01*
X1991968Y1166266D02*
Y1310000D01*
X1996968Y1161266D02*
Y1310000D01*
X1986968Y1171266D02*
Y1310000D01*
X2006968Y1151266D02*
Y1310000D01*
X2001968Y1156266D02*
Y1310000D01*
X1935000Y1292984D02*
X2034913D01*
X1935000Y1287984D02*
X2031526D01*
X1935000Y1297984D02*
X2040717D01*
X1935000Y1272984D02*
X2028775D01*
X1935000Y1282984D02*
X2029555D01*
X1935000Y1270000D02*
Y1310000D01*
X1936968Y1221545D02*
Y1310000D01*
X1935000Y1277984D02*
X2028676D01*
X1931968Y1225456D02*
Y1270000D01*
X1881968Y1215266D02*
Y1270000D01*
X1966968Y1189783D02*
Y1310000D01*
X1971968Y1186242D02*
Y1310000D01*
X1961968Y1191730D02*
Y1310000D01*
X1981968Y1176266D02*
Y1310000D01*
X1976968Y1181266D02*
Y1310000D01*
X1951968Y1192500D02*
Y1310000D01*
X1956968Y1192480D02*
Y1310000D01*
X1946968Y1192500D02*
Y1310000D01*
X1941968Y1213892D02*
Y1310000D01*
X1891968Y1205266D02*
Y1270000D01*
X2079333Y1267984D02*
X2080667D01*
X2081968Y1174926D02*
Y1264733D01*
X2076968Y1174823D02*
Y1262746D01*
X2071968Y1173728D02*
Y1256652D01*
X2043049Y1172984D02*
X2069961D01*
X2036968Y1174697D02*
Y1256892D01*
X2041968Y1173408D02*
Y1253275D01*
X2031968Y1174979D02*
Y1263202D01*
X2066968Y1171498D02*
Y1253130D01*
X2046968Y1170936D02*
Y1251145D01*
X2061968Y1167731D02*
Y1251066D01*
X2056968Y1161064D02*
Y1250108D01*
X2054929Y1162984D02*
X2058081D01*
X2050776Y1167984D02*
X2062234D01*
X2051968Y1166793D02*
Y1250134D01*
X1995250Y1162984D02*
X2011091D01*
X1990250Y1167984D02*
X2015244D01*
X2005250Y1152984D02*
X2007317D01*
X2000250Y1157984D02*
X2008611D01*
X1916968Y1228505D02*
Y1270000D01*
X1911968Y1227297D02*
Y1270000D01*
X1906968Y1224796D02*
Y1270000D01*
X1926968Y1227652D02*
Y1270000D01*
X1921968Y1228618D02*
Y1270000D01*
X1901968Y1220380D02*
Y1270000D01*
X1896968Y1210589D02*
Y1270000D01*
X1886968Y1210266D02*
Y1270000D01*
X1884250Y1212984D02*
X1897685D01*
X1879250Y1217984D02*
X1900173D01*
X1940135Y1192500D02*
X1956000D01*
X1985250Y1172984D02*
X2022971D01*
X1972625Y1185609D02*
X2007098Y1151136D01*
X1889250Y1207984D02*
X1896488D01*
X1941968Y1192500D02*
Y1196107D01*
X1894250Y1202984D02*
X1896386D01*
X2211968Y900000D02*
Y1229584D01*
X2216968Y900000D02*
Y1232734D01*
X2171968Y986000D02*
Y1227682D01*
X2152906Y1112984D02*
X2230000D01*
X2152826Y1107984D02*
X2230000D01*
X2152006Y1117984D02*
X2230000D01*
X2161968Y986000D02*
Y1233528D01*
X2166968Y986000D02*
Y1230181D01*
X2156968Y986000D02*
Y1237986D01*
X2151968Y986000D02*
Y1103682D01*
Y1118119D02*
Y1141782D01*
X2226968Y900000D02*
Y1242625D01*
X2230000Y900000D02*
Y1247285D01*
X2221968Y900000D02*
Y1236923D01*
X2206968Y900000D02*
Y1227244D01*
X2201968Y900000D02*
Y1225584D01*
X2181968Y900000D02*
Y1224706D01*
X2196968Y900000D02*
Y1224531D01*
X2176968Y900000D02*
Y1225884D01*
X2191968Y900000D02*
Y1224042D01*
X2186968Y900000D02*
Y1224100D01*
X2150011Y1122984D02*
X2230000D01*
X2151756Y1102984D02*
X2230000D01*
X2149555Y1097984D02*
X2230000D01*
X2145832Y1092984D02*
X2230000D01*
X2139272Y1087984D02*
X2230000D01*
X2102565Y1097984D02*
X2104425D01*
X2098842Y1092984D02*
X2108148D01*
X2092282Y1087984D02*
X2114708D01*
X2146968Y986000D02*
Y1094260D01*
X2141968Y900000D02*
Y1089648D01*
X2136968Y900000D02*
Y1086891D01*
X2131968Y900000D02*
Y1085381D01*
X2111968Y900000D02*
Y1089679D01*
X2116968Y900000D02*
Y1086909D01*
X2106968Y900000D02*
Y1094314D01*
X2126968Y900000D02*
Y1084900D01*
X2121968Y900000D02*
Y1085390D01*
X2176000Y982984D02*
X2230000D01*
X2176000Y977984D02*
X2230000D01*
X2085318Y1082984D02*
X2230000D01*
X2176000Y962984D02*
X2230000D01*
X2176000Y957984D02*
X2230000D01*
X2176000Y972984D02*
X2230000D01*
X2144000Y986000D02*
X2176000D01*
Y967984D02*
X2230000D01*
X2176000Y954000D02*
Y986000D01*
X2171968Y900000D02*
Y954000D01*
X2144000D02*
X2176000D01*
X2166968Y900000D02*
Y954000D01*
X2161968Y900000D02*
Y954000D01*
X2156968Y900000D02*
Y954000D01*
X2144000D02*
Y986000D01*
X2151968Y900000D02*
Y954000D01*
X2146968Y900000D02*
Y954000D01*
X2049845Y1052984D02*
X2230000D01*
X1942637Y1047984D02*
X2230000D01*
X1940428Y1042984D02*
X2230000D01*
X1936497Y1037984D02*
X2230000D01*
X1928774Y1032984D02*
X2230000D01*
X2080318Y1077984D02*
X2230000D01*
X2075318Y1072984D02*
X2230000D01*
X2070318Y1067984D02*
X2230000D01*
X2065318Y1062984D02*
X2230000D01*
X2060189Y1057984D02*
X2230000D01*
X1975126Y987984D02*
X2230000D01*
X1982102Y977984D02*
X2144000D01*
X1964896Y992984D02*
X2230000D01*
X1976208Y952984D02*
X2230000D01*
X1968219Y947984D02*
X2230000D01*
X1983309Y972984D02*
X2144000D01*
X1983413Y967984D02*
X2144000D01*
X1979587Y982984D02*
X2144000D01*
X1982428Y962984D02*
X2144000D01*
X1980195Y957984D02*
X2144000D01*
X2061725Y1059391D02*
X2088751Y1086417D01*
X1976968Y986258D02*
Y1064798D01*
X1971968Y990224D02*
Y1069798D01*
X1956968Y993304D02*
Y1084798D01*
X1951968Y992085D02*
Y1089798D01*
X1946968Y989556D02*
Y1094798D01*
X1966968Y992443D02*
Y1074798D01*
X1961968Y993417D02*
Y1079798D01*
X2096968Y900000D02*
Y1091200D01*
X2101968Y900000D02*
Y1096993D01*
X2091968Y900000D02*
Y1087818D01*
X2086968Y900000D02*
Y1084634D01*
X2081968Y900000D02*
Y1079634D01*
X2071968Y900000D02*
Y1069634D01*
X2076968Y900000D02*
Y1074634D01*
X2066968Y900000D02*
Y1064634D01*
X2061968Y900000D02*
Y1059634D01*
X1981968Y978345D02*
Y1059798D01*
X1931968Y1075456D02*
Y1109798D01*
X1936968Y1071546D02*
Y1104798D01*
X1926968Y1077653D02*
Y1111500D01*
X1935436Y1072984D02*
X1968782D01*
X1925782Y1077984D02*
X1963782D01*
X1911968Y1077298D02*
Y1111500D01*
X1906968Y1074796D02*
Y1111500D01*
X1901968Y1070380D02*
Y1111500D01*
X1921968Y1078618D02*
Y1111500D01*
X1916968Y1078505D02*
Y1111500D01*
X1941968Y1063893D02*
Y1099798D01*
X1930266Y1111500D02*
X1982375Y1059391D01*
X1942314Y1062984D02*
X1978782D01*
X1939827Y1067984D02*
X1973782D01*
X1881968Y900000D02*
Y1111500D01*
X1886968Y900000D02*
Y1111500D01*
X1876968Y900000D02*
Y1111500D01*
X1896968Y1060590D02*
Y1111500D01*
X1891968Y900000D02*
Y1111500D01*
X2051968Y900000D02*
Y1053526D01*
X2056968Y900000D02*
Y1055717D01*
X2046968Y900000D02*
Y1052574D01*
X1999000Y1052500D02*
X2045100D01*
X2026968Y900000D02*
Y1052500D01*
X2031968Y900000D02*
Y1052500D01*
X2021968Y900000D02*
Y1052500D01*
X2041968Y900000D02*
Y1052500D01*
X2036968Y900000D02*
Y1052500D01*
X2001968Y900000D02*
Y1052500D01*
X2006968Y900000D02*
Y1052500D01*
X1996968Y900000D02*
Y1052588D01*
X2016968Y900000D02*
Y1052500D01*
X2011968Y900000D02*
Y1052500D01*
X1986968Y900000D02*
Y1055814D01*
X1991968Y900000D02*
Y1053577D01*
X1981968Y900000D02*
Y961655D01*
X1976968Y900000D02*
Y953742D01*
X1971968Y900000D02*
Y949776D01*
X1943511Y1057984D02*
X1983911D01*
X1943614Y1052984D02*
X1994255D01*
X1966968Y900000D02*
Y947557D01*
X1961968Y900000D02*
Y946583D01*
X1941968Y985070D02*
Y1046108D01*
Y900000D02*
Y954930D01*
X1936968Y974669D02*
Y1038454D01*
X1956968Y900000D02*
Y946696D01*
X1951968Y900000D02*
Y947915D01*
X1926968Y900000D02*
Y1032348D01*
X1931968Y900000D02*
Y1034544D01*
X1921968Y900000D02*
Y1031382D01*
X1946968Y900000D02*
Y950444D01*
X1936968Y900000D02*
Y965331D01*
X1901968Y900000D02*
Y1039620D01*
X1906968Y900000D02*
Y1035204D01*
X1896968Y900000D02*
Y1049411D01*
X1916968Y900000D02*
Y1031495D01*
X1911968Y900000D02*
Y1032702D01*
X1846968Y1247108D02*
Y1270000D01*
X1851968Y1244598D02*
Y1270000D01*
X1843899Y1247984D02*
X2149610D01*
X1854127Y1242984D02*
X2152769D01*
X1826969Y1248500D02*
Y1270000D01*
X1831968Y1248500D02*
Y1270000D01*
X1821969Y1248500D02*
Y1270000D01*
X1841968Y1248312D02*
Y1270000D01*
X1836968Y1248500D02*
Y1270000D01*
X1859250Y1237984D02*
X2156970D01*
X1864250Y1232984D02*
X2162690D01*
X1855625Y1241609D02*
X1896730Y1200504D01*
X1874250Y1222984D02*
X1904564D01*
X1869250Y1227984D02*
X1914218D01*
X1861968Y1235266D02*
Y1270000D01*
X1866968Y1230266D02*
Y1270000D01*
X1856968Y1240266D02*
Y1270000D01*
X1876968Y1220266D02*
Y1270000D01*
X1871968Y1225266D02*
Y1270000D01*
X1570000Y1267984D02*
X2029867D01*
X1570000Y1262984D02*
X2032093D01*
X1570000Y1270000D02*
X1935000D01*
X1570000Y1252984D02*
X2042507D01*
X1570000Y1257984D02*
X2035854D01*
X1791969Y1248500D02*
Y1270000D01*
X1796969Y1248500D02*
Y1270000D01*
X1786969Y1248500D02*
Y1270000D01*
X1816969Y1248500D02*
Y1270000D01*
X1801969Y1248500D02*
Y1270000D01*
X1781969Y1248500D02*
Y1270000D01*
X1806969Y1248500D02*
Y1270000D01*
X1776969Y1248500D02*
Y1270000D01*
X1811969Y1248500D02*
Y1270000D01*
X1570000Y1248500D02*
X1839000D01*
X1756969D02*
Y1270000D01*
X1761969Y1248500D02*
Y1270000D01*
X1751969Y1248500D02*
Y1270000D01*
X1771969Y1248500D02*
Y1270000D01*
X1766969Y1248500D02*
Y1270000D01*
X1818000Y1142984D02*
X1833782D01*
X1818000Y1137984D02*
X1838782D01*
X1818000Y1147984D02*
X1828782D01*
X1818000Y1127984D02*
X1848782D01*
X1818000Y1122984D02*
X1853782D01*
X1818000Y1132984D02*
X1843782D01*
X1818000Y1157984D02*
X1818782D01*
X1818000Y1119000D02*
Y1158766D01*
X1760000Y1119000D02*
Y1164500D01*
X1818000Y1152984D02*
X1823782D01*
X1760000Y1119000D02*
X1818000D01*
Y1158766D02*
X1858375Y1118391D01*
X1875000Y1111500D02*
X1930266D01*
X1803361Y1087984D02*
X1953782D01*
X1796969Y1088995D02*
Y1119000D01*
X1791969Y1088161D02*
Y1119000D01*
X1786969Y1085669D02*
Y1119000D01*
X1806969Y1086246D02*
Y1119000D01*
X1801969Y1088410D02*
Y1119000D01*
X1741500Y1137984D02*
X1760000D01*
X1741500Y1132984D02*
X1760000D01*
X1741500Y1142984D02*
X1760000D01*
X1741500Y1127984D02*
X1760000D01*
X1684393Y1122984D02*
X1760000D01*
X1680000Y1162984D02*
X1760000D01*
X1741500Y1157984D02*
X1760000D01*
X1680000Y1164500D02*
X1760000D01*
X1741500Y1147984D02*
X1760000D01*
X1741500Y1152984D02*
X1760000D01*
X1699393Y1107984D02*
X1933782D01*
X1704393Y1102984D02*
X1938782D01*
X1694393Y1112984D02*
X1866781D01*
X1714393Y1092984D02*
X1948782D01*
X1709393Y1097984D02*
X1943782D01*
X1751969Y1088181D02*
Y1164500D01*
X1756969Y1085714D02*
Y1164500D01*
X1746969Y1088996D02*
Y1164500D01*
X1752561Y1087984D02*
X1791439D01*
X1689393Y1117984D02*
X1858792D01*
X1726969Y1248500D02*
Y1270000D01*
X1731969Y1248500D02*
Y1270000D01*
X1721969Y1248500D02*
Y1270000D01*
X1741969Y1248500D02*
Y1270000D01*
X1746969Y1248500D02*
Y1270000D01*
X1736969Y1248500D02*
Y1270000D01*
X1686969Y1248500D02*
Y1270000D01*
X1706969Y1248500D02*
Y1270000D01*
X1681969Y1248500D02*
Y1270000D01*
X1716969Y1248500D02*
Y1270000D01*
X1711969Y1248500D02*
Y1270000D01*
Y1159500D02*
Y1164500D01*
X1741969Y1088394D02*
Y1164500D01*
X1701969Y1248500D02*
Y1270000D01*
X1706969Y1159500D02*
Y1164500D01*
X1701969Y1159500D02*
Y1164500D01*
X1671969Y1248500D02*
Y1270000D01*
X1676969Y1248500D02*
Y1270000D01*
X1666969Y1248500D02*
Y1270000D01*
X1696969Y1248500D02*
Y1270000D01*
X1691969Y1248500D02*
Y1270000D01*
X1596969Y1248500D02*
Y1270000D01*
X1601969Y1248500D02*
Y1270000D01*
X1591969Y1248500D02*
Y1270000D01*
X1611969Y1248500D02*
Y1270000D01*
X1606969Y1248500D02*
Y1270000D01*
X1571969Y1248500D02*
Y1270000D01*
X1576969Y1248500D02*
Y1270000D01*
X1570000Y1248500D02*
Y1270000D01*
X1586969Y1248500D02*
Y1270000D01*
X1581969Y1248500D02*
Y1270000D01*
X1646969Y1248500D02*
Y1270000D01*
X1651969Y1248500D02*
Y1270000D01*
X1641969Y1248500D02*
Y1270000D01*
X1661969Y1248500D02*
Y1270000D01*
X1656969Y1248500D02*
Y1270000D01*
X1621969Y1248500D02*
Y1270000D01*
X1626969Y1248500D02*
Y1270000D01*
X1616969Y1248500D02*
Y1270000D01*
X1636969Y1248500D02*
Y1270000D01*
X1631969Y1248500D02*
Y1270000D01*
X1731969Y1159500D02*
Y1164500D01*
X1736969Y1159500D02*
Y1164500D01*
X1698500Y1159500D02*
X1741500D01*
Y1126500D02*
Y1159500D01*
X1721969D02*
Y1164500D01*
X1726969Y1159500D02*
Y1164500D01*
X1716969Y1159500D02*
Y1164500D01*
X1698500Y1126500D02*
Y1159500D01*
X1721969Y1090500D02*
Y1126500D01*
X1736969Y1086206D02*
Y1126500D01*
X1698500D02*
X1741500D01*
X1726500Y1087984D02*
X1740639D01*
X1716877Y1090500D02*
X1726500D01*
X1716969D02*
Y1126500D01*
X1711969Y1095408D02*
Y1126500D01*
X1706969Y1100408D02*
Y1126500D01*
X1701969Y1105408D02*
Y1126500D01*
X1680000Y1147984D02*
X1698500D01*
X1680000Y1152984D02*
X1698500D01*
X1680000Y1137984D02*
X1698500D01*
X1680000Y1142984D02*
X1698500D01*
X1680000Y1127377D02*
Y1164500D01*
X1681969Y1125408D02*
Y1164500D01*
X1680000Y1157984D02*
X1698500D01*
X1680000Y1127984D02*
X1698500D01*
X1680000Y1132984D02*
X1698500D01*
X1691969Y1115408D02*
Y1164500D01*
X1696969Y1110408D02*
Y1164500D01*
X1686969Y1120408D02*
Y1164500D01*
X1680000Y1127377D02*
X1716877Y1090500D01*
X1570000Y1087984D02*
X1674138D01*
X1577750Y1102300D02*
X1659823D01*
X1570000Y1102855D02*
X1573573D01*
X1570000Y1092984D02*
X1669138D01*
X1570000Y1097984D02*
X1664138D01*
X1813990Y1077984D02*
X1914218D01*
X1815290Y1072984D02*
X1904564D01*
X1810831Y1082984D02*
X1958782D01*
X1815400Y1067984D02*
X1900173D01*
X1815287Y1062984D02*
X1897685D01*
X1813977Y1057984D02*
X1896488D01*
X1851968Y900000D02*
Y1124798D01*
X1856968Y900000D02*
Y1119798D01*
X1846968Y900000D02*
Y1129798D01*
X1815400Y1065000D02*
Y1071000D01*
X1811969Y1081572D02*
Y1119000D01*
X1841968Y900000D02*
Y1134798D01*
X1861968Y900000D02*
Y1115444D01*
X1836968Y900000D02*
Y1139798D01*
X1871968Y900000D02*
Y1111696D01*
X1866968Y900000D02*
Y1112915D01*
X1826969Y900000D02*
Y1149798D01*
X1831968Y900000D02*
Y1144798D01*
X1821969Y900000D02*
Y1154798D01*
X1816969Y900000D02*
Y1119000D01*
X1811969Y900000D02*
Y1054428D01*
X1781969Y1080266D02*
Y1119000D01*
X1760031Y1082984D02*
X1783970D01*
X1764487Y1062984D02*
X1779513D01*
X1763190Y1077984D02*
X1780810D01*
X1764490Y1072984D02*
X1779510D01*
X1779400Y1065000D02*
Y1071000D01*
X1764600Y1067984D02*
X1779400D01*
X1764600Y1065000D02*
Y1071000D01*
X1810802Y1052984D02*
X1896386D01*
X1781969Y978344D02*
Y1055733D01*
X1786969Y900000D02*
Y1050331D01*
X1760002Y1052984D02*
X1783998D01*
X1771969Y990224D02*
Y1119000D01*
X1776969Y986257D02*
Y1119000D01*
X1766969Y992443D02*
Y1119000D01*
X1763177Y1057984D02*
X1780824D01*
X1775126Y987984D02*
X1944873D01*
X1779587Y982984D02*
X1940412D01*
X1764896Y992984D02*
X1955103D01*
X1782102Y977984D02*
X1937898D01*
X1782428Y962984D02*
X1937571D01*
X1780195Y957984D02*
X1939804D01*
X1752471Y1047984D02*
X1791529D01*
X1803271D02*
X1897362D01*
X1741640Y1042984D02*
X1899572D01*
X1783413Y967984D02*
X1936586D01*
X1783309Y972984D02*
X1936690D01*
X1801969Y900000D02*
Y1047589D01*
X1806969Y900000D02*
Y1049754D01*
X1796969Y900000D02*
Y1047005D01*
X1776208Y952984D02*
X1943791D01*
X1768219Y947984D02*
X1951780D01*
X1781969Y900000D02*
Y961656D01*
X1791969Y900000D02*
Y1047839D01*
X1776969Y900000D02*
Y953743D01*
X1771969Y900000D02*
Y949776D01*
X1766969Y900000D02*
Y947557D01*
X1570000Y1022984D02*
X2230000D01*
X1570000Y1017984D02*
X2230000D01*
X1570000Y1027984D02*
X2230000D01*
X1570000Y997984D02*
X2230000D01*
X1570000Y1012984D02*
X2230000D01*
X1570000Y1032984D02*
X1911225D01*
X1570000Y1007984D02*
X2230000D01*
X1570000Y1037984D02*
X1903503D01*
X1570000Y1002984D02*
X2230000D01*
X1570000Y912984D02*
X2230000D01*
X1570000Y907984D02*
X2230000D01*
X1570000Y917984D02*
X2230000D01*
X1570000Y900000D02*
X2230000D01*
X1570000Y902984D02*
X2230000D01*
X1570000Y937984D02*
X2230000D01*
X1570000Y932984D02*
X2230000D01*
X1570000Y942984D02*
X2230000D01*
X1570000Y922984D02*
X2230000D01*
X1570000Y927984D02*
X2230000D01*
X1731969Y1081484D02*
Y1126500D01*
X1761969Y1080370D02*
Y1119000D01*
X1726969Y1074250D02*
Y1126500D01*
X1726500Y1077984D02*
X1730010D01*
X1726500Y1074250D02*
X1728896D01*
X1726500Y1082984D02*
X1733170D01*
X1726500Y1074250D02*
Y1090500D01*
X1691500Y1061000D02*
Y1070622D01*
X1659823Y1102300D02*
X1691500Y1070622D01*
Y1043500D02*
Y1061000D01*
Y1070622D01*
X1671969Y900000D02*
Y1090154D01*
X1676969Y900000D02*
Y1085154D01*
X1666969Y900000D02*
Y1095154D01*
X1686969Y900000D02*
Y1075154D01*
X1681969Y900000D02*
Y1080154D01*
X1646969Y900000D02*
Y1102300D01*
X1651969Y900000D02*
Y1102300D01*
X1641969Y900000D02*
Y1102300D01*
X1661969Y900000D02*
Y1100154D01*
X1656969Y900000D02*
Y1102300D01*
X1570000Y1077984D02*
X1684138D01*
X1570000Y1072984D02*
X1689138D01*
X1570000Y1082984D02*
X1679138D01*
X1570000Y1062984D02*
X1691500D01*
X1570000Y1067984D02*
X1691500D01*
X1611969Y900000D02*
Y1102300D01*
X1616969Y900000D02*
Y1102300D01*
X1606969Y900000D02*
Y1102300D01*
X1636969Y900000D02*
Y1102300D01*
X1621969Y900000D02*
Y1102300D01*
X1596969Y900000D02*
Y1102300D01*
X1601969Y900000D02*
Y1102300D01*
X1591969Y900000D02*
Y1102300D01*
X1631969Y900000D02*
Y1102300D01*
X1626969Y900000D02*
Y1102300D01*
X1571969Y900000D02*
Y1102855D01*
X1576969Y900000D02*
Y1102319D01*
X1570000Y900000D02*
Y1102855D01*
X1586969Y900000D02*
Y1102300D01*
X1581969Y900000D02*
Y1102300D01*
X1761969Y993417D02*
Y1055629D01*
X1756969Y993304D02*
Y1050286D01*
X1751969Y992085D02*
Y1047819D01*
X1756969Y900000D02*
Y946696D01*
X1746969Y989556D02*
Y1045856D01*
X1741969Y985071D02*
Y1043091D01*
X1736969Y974672D02*
Y1042251D01*
X1709000Y1042250D02*
X1736850D01*
X1741969Y900000D02*
Y954929D01*
X1746969Y900000D02*
Y950444D01*
X1736969Y900000D02*
Y965328D01*
X1761969Y900000D02*
Y946583D01*
X1751969Y900000D02*
Y947915D01*
X1716969Y900000D02*
Y1042250D01*
X1721969Y900000D02*
Y1042250D01*
X1711969Y900000D02*
Y1042250D01*
X1731969Y900000D02*
Y1042250D01*
X1726969Y900000D02*
Y1042250D01*
X1570000Y992984D02*
X1755103D01*
X1570000Y987984D02*
X1744873D01*
X1570000Y977984D02*
X1737897D01*
X1570000Y982984D02*
X1740412D01*
X1570000Y1052984D02*
X1691500D01*
X1570000Y1047984D02*
X1691500D01*
X1570000Y1057984D02*
X1691500D01*
Y1043500D02*
X1702800D01*
X1570000Y1042984D02*
X1704210D01*
X1570000Y962984D02*
X1737571D01*
X1570000Y957984D02*
X1739804D01*
X1570000Y972984D02*
X1736690D01*
X1570000Y947984D02*
X1751780D01*
X1570000Y952984D02*
X1743791D01*
X1696969Y900000D02*
Y1043500D01*
X1701969Y900000D02*
Y1043500D01*
X1691969Y900000D02*
Y1043500D01*
X1706969Y900000D02*
Y1042380D01*
X1570000Y967984D02*
X1736586D01*
D11*
X488200Y32500D02*
D03*
X187200D02*
D03*
X878200D02*
D03*
X577200D02*
D03*
D12*
X423800Y310000D02*
D03*
X232500D02*
D03*
X249500D02*
D03*
X398800D02*
D03*
X373800D02*
D03*
X348800D02*
D03*
X323800D02*
D03*
X298800D02*
D03*
X273800D02*
D03*
X813800D02*
D03*
X622500D02*
D03*
X639500D02*
D03*
X788800D02*
D03*
X763800D02*
D03*
X738800D02*
D03*
X713800D02*
D03*
X688800D02*
D03*
X663800D02*
D03*
D13*
X207500D02*
D03*
X219500D02*
D03*
X597500D02*
D03*
X609500D02*
D03*
D14*
X225400Y1010000D02*
D03*
X200000D02*
D03*
X174600D02*
D03*
X149200D02*
D03*
Y1110000D02*
D03*
X174600D02*
D03*
X200000D02*
D03*
X225400D02*
D03*
D15*
X1064000Y21000D02*
D03*
Y48000D02*
D03*
X1136000Y29000D02*
D03*
D16*
X1093000Y163000D02*
D03*
D17*
X1136000Y122000D02*
D03*
D18*
X1920000Y220000D02*
D03*
X1860000D02*
D03*
X2060000D02*
D03*
X2000000D02*
D03*
X1320000Y490000D02*
D03*
X1260000D02*
D03*
X1400000D02*
D03*
X1460000D02*
D03*
D19*
X1424750Y1120000D02*
D03*
X1397250D02*
D03*
D20*
X961250Y1115000D02*
D03*
Y1105500D02*
D03*
Y1124500D02*
D03*
X988750D02*
D03*
Y1115000D02*
D03*
Y1105500D02*
D03*
X1029750Y137500D02*
D03*
Y156500D02*
D03*
X1002250Y147000D02*
D03*
X44250Y1074500D02*
D03*
Y1093500D02*
D03*
X71750D02*
D03*
Y1084000D02*
D03*
Y1074500D02*
D03*
X1668750Y405500D02*
D03*
Y424500D02*
D03*
X1641250Y415000D02*
D03*
X1499750Y304000D02*
D03*
Y313500D02*
D03*
Y294500D02*
D03*
X1472250D02*
D03*
Y304000D02*
D03*
Y313500D02*
D03*
D21*
X614500Y1149000D02*
D03*
X589500D02*
D03*
X1561250Y50000D02*
D03*
X1578750D02*
D03*
X1561250Y25000D02*
D03*
X1578750D02*
D03*
X1841250D02*
D03*
X1858750D02*
D03*
X1841250Y50000D02*
D03*
X1858750D02*
D03*
X1578250Y244000D02*
D03*
X1595750D02*
D03*
Y144000D02*
D03*
X1578250D02*
D03*
X1576250Y360000D02*
D03*
X1593750D02*
D03*
X1007250Y182000D02*
D03*
X1024750D02*
D03*
X1007250Y202000D02*
D03*
X1024750D02*
D03*
X970250D02*
D03*
X987750D02*
D03*
X970250Y182000D02*
D03*
X987750D02*
D03*
X933250Y202000D02*
D03*
X950750D02*
D03*
X933250Y182000D02*
D03*
X950750D02*
D03*
X1715750Y144000D02*
D03*
X1698250D02*
D03*
Y244000D02*
D03*
X1715750D02*
D03*
X1500750Y401000D02*
D03*
X1483250D02*
D03*
X1406250D02*
D03*
X1423750D02*
D03*
X1421250Y295000D02*
D03*
X1438750D02*
D03*
X2058750Y282000D02*
D03*
X2041250D02*
D03*
X1861250D02*
D03*
X1878750D02*
D03*
X1181250Y240000D02*
D03*
X1198750D02*
D03*
X1181250Y265000D02*
D03*
X1198750D02*
D03*
X1438750Y205000D02*
D03*
X1421250D02*
D03*
X1438750Y275000D02*
D03*
X1421250D02*
D03*
X441250Y995000D02*
D03*
X458750D02*
D03*
X49250Y1054000D02*
D03*
X66750D02*
D03*
Y1034000D02*
D03*
X49250D02*
D03*
X831250Y1145000D02*
D03*
X848750D02*
D03*
X831250Y1125000D02*
D03*
X848750D02*
D03*
X831250Y1105000D02*
D03*
X848750D02*
D03*
X921250D02*
D03*
X938750D02*
D03*
X921250Y1125000D02*
D03*
X938750D02*
D03*
X921250Y1145000D02*
D03*
X938750D02*
D03*
X971250Y950000D02*
D03*
X988750D02*
D03*
X971250Y970000D02*
D03*
X988750D02*
D03*
X741250Y945000D02*
D03*
X758750D02*
D03*
X1593750Y340000D02*
D03*
X1576250D02*
D03*
X1557500Y450000D02*
D03*
X1532500D02*
D03*
X1593750D02*
D03*
X1576250D02*
D03*
X1663750Y380000D02*
D03*
X1646250D02*
D03*
X1488750Y1120000D02*
D03*
X1471250D02*
D03*
X1488750Y1140000D02*
D03*
X1471250D02*
D03*
X758750Y1015000D02*
D03*
X741250D02*
D03*
X1421250Y25000D02*
D03*
X1438750D02*
D03*
X1421250Y50000D02*
D03*
X1438750D02*
D03*
X1491250D02*
D03*
X1508750D02*
D03*
X1491250Y25000D02*
D03*
X1508750D02*
D03*
X1631250D02*
D03*
X1648750D02*
D03*
X1631250Y50000D02*
D03*
X1648750D02*
D03*
X1701250Y25000D02*
D03*
X1718750D02*
D03*
X1701250Y50000D02*
D03*
X1718750D02*
D03*
X1771250Y25000D02*
D03*
X1788750D02*
D03*
X1771250Y50000D02*
D03*
X1788750D02*
D03*
X1301250Y552000D02*
D03*
X1318750D02*
D03*
X1401250D02*
D03*
X1418750D02*
D03*
D22*
X1297252Y1149904D02*
D03*
X1342852D02*
D03*
D23*
X1320052Y1214904D02*
D03*
D24*
X1023234Y93234D02*
D03*
X956766Y26766D02*
D03*
D25*
X1023234Y26766D02*
D03*
X956766Y93234D02*
D03*
D26*
X1556592Y385450D02*
D03*
Y391950D02*
D03*
Y398450D02*
D03*
Y404950D02*
D03*
Y411450D02*
D03*
Y417950D02*
D03*
Y424450D02*
D03*
X1613592D02*
D03*
Y417950D02*
D03*
Y411450D02*
D03*
Y404950D02*
D03*
Y398450D02*
D03*
Y391950D02*
D03*
Y385450D02*
D03*
D27*
X905122Y985042D02*
D03*
D28*
X877622Y1020042D02*
D03*
X882622D02*
D03*
X887622D02*
D03*
X892622D02*
D03*
X897622D02*
D03*
X902622D02*
D03*
X907622D02*
D03*
X912622D02*
D03*
X917622D02*
D03*
X922622D02*
D03*
X927622D02*
D03*
X932622D02*
D03*
Y950042D02*
D03*
X927622D02*
D03*
X922622D02*
D03*
X917622D02*
D03*
X912622D02*
D03*
X907622D02*
D03*
X902622D02*
D03*
X897622D02*
D03*
X892622D02*
D03*
X887622D02*
D03*
X882622D02*
D03*
X877622D02*
D03*
D29*
X940122Y1012542D02*
D03*
Y1007542D02*
D03*
Y1002542D02*
D03*
Y997542D02*
D03*
Y992542D02*
D03*
Y987542D02*
D03*
Y982542D02*
D03*
Y977542D02*
D03*
Y972542D02*
D03*
Y967542D02*
D03*
Y962542D02*
D03*
Y957542D02*
D03*
X870122D02*
D03*
Y962542D02*
D03*
Y967542D02*
D03*
Y972542D02*
D03*
Y977542D02*
D03*
Y982542D02*
D03*
Y987542D02*
D03*
Y992542D02*
D03*
Y997542D02*
D03*
Y1002542D02*
D03*
Y1007542D02*
D03*
Y1012542D02*
D03*
D30*
X416000Y1109398D02*
D03*
Y1096698D02*
D03*
Y1083998D02*
D03*
Y1071298D02*
D03*
Y1058598D02*
D03*
Y1045898D02*
D03*
Y1033198D02*
D03*
Y1020498D02*
D03*
X484000Y1109398D02*
D03*
Y1096698D02*
D03*
Y1083998D02*
D03*
Y1071298D02*
D03*
Y1058598D02*
D03*
Y1045898D02*
D03*
Y1033198D02*
D03*
Y1020498D02*
D03*
D31*
X952516Y235900D02*
D03*
Y248600D02*
D03*
Y261300D02*
D03*
Y274000D02*
D03*
X1017516D02*
D03*
Y261300D02*
D03*
Y248600D02*
D03*
Y235900D02*
D03*
D32*
X1389000Y180000D02*
D03*
Y185000D02*
D03*
Y190000D02*
D03*
Y195000D02*
D03*
Y200000D02*
D03*
Y205000D02*
D03*
Y210000D02*
D03*
Y215000D02*
D03*
Y220000D02*
D03*
Y225000D02*
D03*
Y230000D02*
D03*
Y235000D02*
D03*
Y240000D02*
D03*
Y245000D02*
D03*
Y250000D02*
D03*
Y255000D02*
D03*
Y260000D02*
D03*
Y265000D02*
D03*
Y270000D02*
D03*
Y275000D02*
D03*
Y280000D02*
D03*
Y285000D02*
D03*
Y290000D02*
D03*
Y295000D02*
D03*
Y300000D02*
D03*
X1231000D02*
D03*
Y295000D02*
D03*
Y290000D02*
D03*
Y285000D02*
D03*
Y280000D02*
D03*
Y275000D02*
D03*
Y270000D02*
D03*
Y265000D02*
D03*
Y260000D02*
D03*
Y255000D02*
D03*
Y250000D02*
D03*
Y245000D02*
D03*
Y240000D02*
D03*
Y235000D02*
D03*
Y230000D02*
D03*
Y225000D02*
D03*
Y220000D02*
D03*
Y215000D02*
D03*
Y210000D02*
D03*
Y205000D02*
D03*
Y200000D02*
D03*
Y195000D02*
D03*
Y190000D02*
D03*
Y185000D02*
D03*
Y180000D02*
D03*
D33*
X1370000Y319000D02*
D03*
X1365000D02*
D03*
X1360000D02*
D03*
X1355000D02*
D03*
X1350000D02*
D03*
X1345000D02*
D03*
X1340000D02*
D03*
X1335000D02*
D03*
X1330000D02*
D03*
X1325000D02*
D03*
X1320000D02*
D03*
X1315000D02*
D03*
X1310000D02*
D03*
X1305000D02*
D03*
X1300000D02*
D03*
X1295000D02*
D03*
X1290000D02*
D03*
X1285000D02*
D03*
X1280000D02*
D03*
X1275000D02*
D03*
X1270000D02*
D03*
X1265000D02*
D03*
X1260000D02*
D03*
X1255000D02*
D03*
X1250000D02*
D03*
Y160750D02*
D03*
X1255000D02*
D03*
X1260000D02*
D03*
X1265000D02*
D03*
X1270000D02*
D03*
X1275000D02*
D03*
X1280000D02*
D03*
X1285000D02*
D03*
X1290000D02*
D03*
X1295000D02*
D03*
X1300000D02*
D03*
X1305000D02*
D03*
X1310000D02*
D03*
X1315000D02*
D03*
X1320000D02*
D03*
X1325000D02*
D03*
X1330000D02*
D03*
X1335000D02*
D03*
X1340000D02*
D03*
X1345000D02*
D03*
X1350000D02*
D03*
X1355000D02*
D03*
X1360000D02*
D03*
X1365000D02*
D03*
X1370000D02*
D03*
D34*
X595950Y1067000D02*
D03*
X634050Y1123000D02*
D03*
X621350D02*
D03*
X608650D02*
D03*
X595950D02*
D03*
X634050Y1067000D02*
D03*
X621350D02*
D03*
X608650D02*
D03*
D35*
X1514250Y1118300D02*
D03*
X1577750Y1143700D02*
D03*
X1514250D02*
D03*
D36*
X1577750Y1118300D02*
D03*
D37*
X31250Y148500D02*
D03*
X168750D02*
D03*
X31250Y231500D02*
D03*
X168750D02*
D03*
D38*
X132050Y174500D02*
D03*
X121050D02*
D03*
X110050D02*
D03*
X99050D02*
D03*
X88050D02*
D03*
X77050D02*
D03*
X66050D02*
D03*
X55050D02*
D03*
D39*
X1501500Y361000D02*
D03*
X1406500D02*
D03*
D40*
X637500Y1004000D02*
D03*
X582500D02*
D03*
Y1036000D02*
D03*
X637500D02*
D03*
D41*
X1613226Y212628D02*
D03*
Y205128D02*
D03*
Y197628D02*
D03*
Y190128D02*
D03*
Y182628D02*
D03*
Y175128D02*
D03*
X1605726Y212628D02*
D03*
Y205128D02*
D03*
Y197628D02*
D03*
Y190128D02*
D03*
Y182628D02*
D03*
Y175128D02*
D03*
X1598226Y212628D02*
D03*
Y205128D02*
D03*
Y197628D02*
D03*
Y190128D02*
D03*
Y182628D02*
D03*
Y175128D02*
D03*
X1590726Y212628D02*
D03*
Y205128D02*
D03*
Y197628D02*
D03*
Y190128D02*
D03*
Y182628D02*
D03*
Y175128D02*
D03*
X1583226Y212628D02*
D03*
Y205128D02*
D03*
Y197628D02*
D03*
Y190128D02*
D03*
Y182628D02*
D03*
Y175128D02*
D03*
X1575726Y212628D02*
D03*
Y205128D02*
D03*
Y197628D02*
D03*
Y190128D02*
D03*
Y182628D02*
D03*
Y175128D02*
D03*
X1568226Y212628D02*
D03*
Y205128D02*
D03*
Y197628D02*
D03*
Y190128D02*
D03*
Y182628D02*
D03*
Y175128D02*
D03*
X1560726Y212628D02*
D03*
Y205128D02*
D03*
Y197628D02*
D03*
Y190128D02*
D03*
Y182628D02*
D03*
Y175128D02*
D03*
X1733226Y212628D02*
D03*
Y205128D02*
D03*
Y197628D02*
D03*
Y190128D02*
D03*
Y182628D02*
D03*
Y175128D02*
D03*
X1725726Y212628D02*
D03*
Y205128D02*
D03*
Y197628D02*
D03*
Y190128D02*
D03*
Y182628D02*
D03*
Y175128D02*
D03*
X1718226Y212628D02*
D03*
Y205128D02*
D03*
Y197628D02*
D03*
Y190128D02*
D03*
Y182628D02*
D03*
Y175128D02*
D03*
X1710726Y212628D02*
D03*
Y205128D02*
D03*
Y197628D02*
D03*
Y190128D02*
D03*
Y182628D02*
D03*
Y175128D02*
D03*
X1703226Y212628D02*
D03*
Y205128D02*
D03*
Y197628D02*
D03*
Y190128D02*
D03*
Y182628D02*
D03*
Y175128D02*
D03*
X1695726Y212628D02*
D03*
Y205128D02*
D03*
Y197628D02*
D03*
Y190128D02*
D03*
Y182628D02*
D03*
Y175128D02*
D03*
X1688226Y212628D02*
D03*
Y205128D02*
D03*
Y197628D02*
D03*
Y190128D02*
D03*
Y182628D02*
D03*
Y175128D02*
D03*
X1680726Y212628D02*
D03*
Y205128D02*
D03*
Y197628D02*
D03*
Y190128D02*
D03*
Y182628D02*
D03*
Y175128D02*
D03*
D42*
X570000Y1118750D02*
D03*
Y1101250D02*
D03*
X1709000Y1058250D02*
D03*
Y1075750D02*
D03*
X959000Y138250D02*
D03*
Y155750D02*
D03*
X979000Y134500D02*
D03*
Y159500D02*
D03*
X1045000Y200750D02*
D03*
Y183250D02*
D03*
X1350000Y111250D02*
D03*
Y128750D02*
D03*
X1325000Y111250D02*
D03*
Y128750D02*
D03*
X1265000Y111250D02*
D03*
Y128750D02*
D03*
X1250000Y369750D02*
D03*
Y352250D02*
D03*
X1280000Y369750D02*
D03*
Y352250D02*
D03*
X1314000Y369750D02*
D03*
Y352250D02*
D03*
X1334000D02*
D03*
Y369750D02*
D03*
X1354000D02*
D03*
Y352250D02*
D03*
X385000Y1016250D02*
D03*
Y1033750D02*
D03*
X515000Y1021250D02*
D03*
Y1038750D02*
D03*
Y1073750D02*
D03*
Y1056250D02*
D03*
X535000D02*
D03*
Y1073750D02*
D03*
X420000Y1134250D02*
D03*
Y1151750D02*
D03*
X440000Y1134250D02*
D03*
Y1151750D02*
D03*
X460000Y1134250D02*
D03*
Y1151750D02*
D03*
X480000Y1134250D02*
D03*
Y1151750D02*
D03*
X365000Y1016250D02*
D03*
Y1033750D02*
D03*
X345000Y1016250D02*
D03*
Y1033750D02*
D03*
X920000Y231250D02*
D03*
Y248750D02*
D03*
X2018600Y56050D02*
D03*
Y38550D02*
D03*
X810000Y1061250D02*
D03*
Y1078750D02*
D03*
X830000Y1061250D02*
D03*
Y1078750D02*
D03*
X850000Y1061250D02*
D03*
Y1078750D02*
D03*
X870000Y1061250D02*
D03*
Y1078750D02*
D03*
X890000Y1061250D02*
D03*
Y1078750D02*
D03*
X910000Y1061250D02*
D03*
Y1078750D02*
D03*
X930000Y1061250D02*
D03*
Y1078750D02*
D03*
X950000Y1061250D02*
D03*
Y1078750D02*
D03*
X970000Y1061250D02*
D03*
Y1078750D02*
D03*
X990000Y1061250D02*
D03*
Y1078750D02*
D03*
X1010000Y1061250D02*
D03*
Y1078750D02*
D03*
X1030000Y1061250D02*
D03*
Y1078750D02*
D03*
X1050000Y1061250D02*
D03*
Y1078750D02*
D03*
X1070000Y1061250D02*
D03*
Y1078750D02*
D03*
X1090000Y1061250D02*
D03*
Y1078750D02*
D03*
X840000Y918250D02*
D03*
Y935750D02*
D03*
Y1021750D02*
D03*
Y1004250D02*
D03*
X869000Y923750D02*
D03*
Y906250D02*
D03*
X889000Y923750D02*
D03*
Y906250D02*
D03*
X909000Y923750D02*
D03*
Y906250D02*
D03*
X840000Y978750D02*
D03*
Y961250D02*
D03*
X720000Y988750D02*
D03*
Y971250D02*
D03*
X760000D02*
D03*
Y988750D02*
D03*
Y901250D02*
D03*
Y918750D02*
D03*
X740000Y901250D02*
D03*
Y918750D02*
D03*
X720000Y901250D02*
D03*
Y918750D02*
D03*
X700000Y901250D02*
D03*
Y918750D02*
D03*
X680000Y901250D02*
D03*
Y918750D02*
D03*
X660000Y901250D02*
D03*
Y918750D02*
D03*
X640000Y901250D02*
D03*
Y918750D02*
D03*
X620000Y901250D02*
D03*
Y918750D02*
D03*
X600000Y901250D02*
D03*
Y918750D02*
D03*
X580000Y901250D02*
D03*
Y918750D02*
D03*
X560000Y901250D02*
D03*
Y918750D02*
D03*
X540000Y901250D02*
D03*
Y918750D02*
D03*
X520000Y901250D02*
D03*
Y918750D02*
D03*
X500000Y901250D02*
D03*
Y918750D02*
D03*
X740000Y971250D02*
D03*
Y988750D02*
D03*
X560000Y308750D02*
D03*
Y291250D02*
D03*
X540000Y308750D02*
D03*
Y291250D02*
D03*
X150000D02*
D03*
Y308750D02*
D03*
X170000Y291250D02*
D03*
Y308750D02*
D03*
X1519000Y295250D02*
D03*
Y312750D02*
D03*
D43*
X800000Y1004500D02*
D03*
Y909500D02*
D03*
D44*
X1286250Y376000D02*
X1314000D01*
X1438750Y79000D02*
Y205000D01*
X738750Y32500D02*
Y309950D01*
X1717750Y306000D02*
X1793000D01*
X1695875Y327875D02*
X1717750Y306000D01*
X1647000Y328000D02*
X1666000D01*
X1625000Y306000D02*
X1647000Y328000D01*
X1354000Y381000D02*
Y388000D01*
X1338000Y404000D02*
X1354000Y388000D01*
X1338000Y404000D02*
X1354000Y420000D01*
X1314000Y376000D02*
Y380000D01*
Y369750D02*
Y376000D01*
Y380000D02*
X1338000Y404000D01*
X1666450Y1118300D02*
X1709000Y1075750D01*
X1577750Y1118300D02*
X1666450D01*
X925000Y77000D02*
Y162000D01*
X880500Y32500D02*
X925000Y77000D01*
X130000Y1084000D02*
X149200Y1064800D01*
X130000Y1084000D02*
Y1115000D01*
X149200Y1010000D02*
Y1064800D01*
X780000Y867000D02*
Y910000D01*
X771250Y918750D02*
X780000Y910000D01*
X760000Y918750D02*
X771250D01*
X1181250Y29000D02*
Y121000D01*
X702750Y918750D02*
X720000D01*
X393000Y1001000D02*
X475250Y918750D01*
X500000D01*
X174000Y1009400D02*
X174600Y1010000D01*
X174000Y988000D02*
Y1009400D01*
X878200Y32500D02*
X880500D01*
X1181250Y121000D02*
Y240000D01*
X1350000Y105000D02*
X1376000Y79000D01*
X1350000Y105000D02*
Y111250D01*
X1325000Y96000D02*
X1359000Y62000D01*
X1325000Y96000D02*
Y111250D01*
Y30000D02*
X1326000Y29000D01*
X1265000Y30000D02*
X1266000Y29000D01*
X1265000Y30000D02*
Y111250D01*
X1605000Y306000D02*
X1625000D01*
X1605000D02*
X1605000D01*
X1605000D02*
X1605000Y306000D01*
X1595750Y306000D02*
X1605000D01*
X1554000D02*
X1595750D01*
X1423750Y401000D02*
Y412250D01*
X1416000Y420000D02*
X1423750Y412250D01*
X1354000Y420000D02*
X1416000D01*
X272000Y32500D02*
X273800Y34300D01*
Y310000D01*
X348000Y32500D02*
X348800Y33300D01*
Y310000D01*
X738750Y309950D02*
X738800Y310000D01*
X663800Y32701D02*
X664000Y32500D01*
X663800Y32701D02*
Y310000D01*
X1492000Y79000D02*
Y229000D01*
Y244000D01*
X1423750Y401000D02*
X1483250D01*
X580000Y918750D02*
X600000D01*
X720000D02*
X740000D01*
X956766Y26766D02*
Y93234D01*
Y26766D02*
X1023234D01*
X1136000Y120000D02*
Y122000D01*
X1064000Y48000D02*
X1136000Y120000D01*
X1939200Y60000D02*
X1964600D01*
X148200Y845400D02*
X149200Y846400D01*
Y1010000D01*
X66000Y1179000D02*
X130000Y1115000D01*
X1709000Y1058250D02*
X1736850D01*
X1746600Y1068000D01*
X1510300Y1143700D02*
X1514250D01*
X1488750Y1120000D02*
Y1140000D01*
Y1120000D02*
X1490450Y1118300D01*
X1514250D01*
X500000Y918750D02*
X520000D01*
X540000D01*
X560000D01*
X580000D01*
X600000D02*
X620000D01*
X640000D01*
X660000D01*
X680000D01*
X700000D01*
X740000D02*
X760000D01*
X1048400Y1184600D02*
Y1198600D01*
X1037000Y1210000D02*
X1048400Y1198600D01*
X945000Y1210000D02*
X968000D01*
X991000D01*
X1013999D01*
X1037000D01*
X1048400Y1184600D02*
X1083096Y1149904D01*
X1297252D01*
X916000Y1210000D02*
X945000D01*
X916000D02*
Y1229000D01*
X873000Y1272000D02*
X916000Y1229000D01*
X807500Y1272000D02*
X873000D01*
X799500Y1280000D02*
X807500Y1272000D01*
X740000Y1280000D02*
X799500D01*
X680500D02*
X740000D01*
X672500Y1272000D02*
X680500Y1280000D01*
X693000Y1242000D02*
X706000D01*
X672500Y1262500D02*
X693000Y1242000D01*
X672500Y1262500D02*
Y1272000D01*
X647300D02*
X672500D01*
X605000Y1229700D02*
X647300Y1272000D01*
X562700D02*
X605000Y1229700D01*
X397300Y1272000D02*
X562700D01*
X355000Y1229700D02*
X397300Y1272000D01*
X30000Y1190000D02*
X41000Y1179000D01*
X66000D01*
X116700Y1229700D01*
X355000D01*
X368899Y1215800D02*
X424120D01*
X355000Y1229700D02*
X368899Y1215800D01*
X1250000Y369750D02*
X1269000D01*
X1280000D01*
X1286250Y376000D01*
X1024500Y845400D02*
Y860500D01*
X1109000Y945000D01*
Y1123000D01*
X1491000Y1163000D02*
X1510300Y1143700D01*
X1318750Y552000D02*
X1360000D01*
X1424750Y1120000D02*
Y1138750D01*
X1449000Y1163000D01*
X1491000D01*
X1577750Y1143700D02*
X1650300D01*
X1651000Y1143000D01*
X1424750Y1079250D02*
Y1120000D01*
Y1079250D02*
X1435400Y1068600D01*
X1360000Y552000D02*
X1401250D01*
X1492000Y244000D02*
X1532000Y284000D01*
X1554000Y306000D01*
D45*
X1887000Y253000D02*
Y334500D01*
X2067000Y227000D02*
Y342000D01*
X2033000Y253000D02*
Y334500D01*
X1964000Y184000D02*
X2000000Y220000D01*
X1961000Y181000D02*
X1964000Y184000D01*
X1856000Y181000D02*
X1961000D01*
X750750Y20500D02*
X843000D01*
X738750Y32500D02*
X750750Y20500D01*
X664000Y32500D02*
X738750D01*
X855000D02*
X878200D01*
X843000Y20500D02*
X855000Y32500D01*
X1359000Y62000D02*
X1376000Y79000D01*
X1326000Y29000D02*
X1359000Y62000D01*
X1376000Y79000D02*
X1438750D01*
X1294000Y29000D02*
X1326000D01*
X1266000D02*
X1294000D01*
X1181250D02*
X1266000D01*
X1698250Y79000D02*
X1763000D01*
X1578000D02*
X1698250D01*
X1492000D02*
X1578000D01*
X1438750D02*
X1492000D01*
X1136000Y29000D02*
X1181250D01*
X1320000Y422000D02*
X1338000Y404000D01*
X1320000Y422000D02*
Y490000D01*
X272000Y32500D02*
X348000D01*
X187200D02*
X272000D01*
X348000D02*
X488200D01*
X577200D02*
X664000D01*
X31250Y290350D02*
X135500Y394600D01*
X31250Y231500D02*
Y290350D01*
X168750Y148500D02*
Y231500D01*
X31250Y148500D02*
Y231500D01*
X77000Y148500D02*
X168750D01*
X31250D02*
X77000D01*
X168750D02*
X187200Y130050D01*
Y32500D02*
Y130050D01*
X488200Y32500D02*
X577200D01*
X1390148Y1285000D02*
X1458000D01*
X1320052Y1214904D02*
X1390148Y1285000D01*
X1342852Y1149904D02*
X1370096D01*
X1845000Y350000D02*
X1852000Y343000D01*
Y228000D02*
X1860000Y220000D01*
X2017500Y350000D02*
X2033000Y334500D01*
X2000000Y220000D02*
X2033000Y253000D01*
X2060000Y220000D02*
X2067000Y227000D01*
Y342000D02*
X2075000Y350000D01*
X1887000Y334500D02*
X1902500Y350000D01*
X1887000Y253000D02*
X1920000Y220000D01*
X1763000Y79000D02*
X1793000Y109000D01*
Y306000D01*
X1360000Y490000D02*
X1360000Y490000D01*
X1320000Y490000D02*
X1360000D01*
X1400000D01*
X1397250Y1081250D02*
Y1120000D01*
X1458000Y1285000D02*
X1518000Y1225000D01*
X1720000Y1143000D02*
X1758000Y1105000D01*
X1432000Y1188000D02*
X1822000D01*
X1875000Y1135000D01*
X1940000D01*
X1758000Y1105000D02*
X1855502D01*
X1860503Y1100000D01*
X1925000D01*
X1518000Y1225000D02*
X1839000D01*
X1895000Y1169000D01*
X1956000D01*
X1940000Y1135000D02*
X1999000Y1076000D01*
X2045100D01*
X1956000Y1169000D02*
X2014100Y1110900D01*
X1925000Y1100000D02*
X1985000Y1040000D01*
X2090000D01*
X2160000Y970000D01*
X2014100Y1110900D02*
X2033010D01*
X2045100Y1076000D02*
X2080000Y1110900D01*
X1384600Y1068600D02*
X1397250Y1081250D01*
X1257600Y611400D02*
X1292000Y577000D01*
X1427000Y577600D02*
X1460800Y611400D01*
X1594000Y651000D02*
X1845000Y400000D01*
X1297200Y651000D02*
X1594000D01*
X1257600Y611400D02*
X1297200Y651000D01*
X1845000Y350000D02*
Y400000D01*
X1427000Y553000D02*
X1460000Y520000D01*
Y490000D02*
Y520000D01*
X1260000Y490000D02*
Y520000D01*
X1292000Y552000D01*
X1427000Y553000D02*
Y577600D01*
X1292000Y552000D02*
Y577000D01*
X1360000Y490000D02*
Y552000D01*
X1370096Y1149904D02*
X1397250Y1122750D01*
X1852000Y228000D02*
Y343000D01*
D46*
X1698000Y149000D02*
X1701000D01*
X1578000D02*
X1581000D01*
X1350000Y128750D02*
Y160750D01*
X1325000Y128750D02*
Y160750D01*
X1265000Y128750D02*
Y160750D01*
X1698000Y244250D02*
X1698250Y244000D01*
X1638000Y144000D02*
Y239000D01*
X1570000D02*
X1575500D01*
X1578250Y241750D01*
X1695500Y239000D02*
X1698250Y241750D01*
X1690000Y239000D02*
X1695500D01*
X1715750Y144000D02*
X1723000D01*
X1603000D02*
X1603000Y144000D01*
X1595750Y144000D02*
X1603000D01*
X1254000Y75500D02*
Y112000D01*
X1250000Y116000D02*
X1254000Y112000D01*
X1250000Y116000D02*
Y142000D01*
X1715750Y144000D02*
Y146250D01*
X1710726Y151274D02*
X1715750Y146250D01*
X1710726Y151274D02*
Y175128D01*
X1703226Y212628D02*
Y236774D01*
X1698250Y241750D02*
X1703226Y236774D01*
X1698250Y241750D02*
Y244000D01*
X1583226Y212628D02*
Y236774D01*
X1578250Y241750D02*
X1583226Y236774D01*
X1578250Y241750D02*
Y244000D01*
X1595750Y144000D02*
Y146250D01*
X1590726Y151274D02*
X1595750Y146250D01*
X1590726Y151274D02*
Y175128D01*
X1585000Y387000D02*
X1585100D01*
X1604450Y398450D02*
X1613592D01*
X1585000Y379000D02*
X1604450Y398450D01*
X1585000Y348750D02*
Y379000D01*
X1585100Y387000D02*
X1603050Y404950D01*
X1600000Y387000D02*
X1601550Y385450D01*
X1613592D01*
X618100Y474100D02*
Y613900D01*
X1603050Y417950D02*
X1613592D01*
X1593750Y427250D02*
X1603050Y417950D01*
X1593750Y427250D02*
Y438000D01*
X1587000Y421000D02*
X1603050Y404950D01*
X1613592D01*
X1639250Y413000D02*
X1641250Y415000D01*
X1633000Y413000D02*
X1639250D01*
X1628000Y408000D02*
X1633000Y413000D01*
X1628000Y395000D02*
Y408000D01*
X1624950Y391950D02*
X1628000Y395000D01*
X1613592Y391950D02*
X1624950D01*
X1613592Y411450D02*
X1624550D01*
X1628000Y408000D01*
X1500750Y361750D02*
X1519750D01*
X1545950Y391950D02*
X1556592D01*
X1534000Y380000D02*
X1545950Y391950D01*
X1534000Y376000D02*
Y380000D01*
X1556592Y391950D02*
Y398450D01*
Y411450D02*
Y417950D01*
Y404950D02*
Y411450D01*
X1533000Y434000D02*
X1542550Y424450D01*
X1556592D01*
X186300Y473700D02*
Y613700D01*
X747000Y1190001D02*
X773999Y1217000D01*
X747000Y1080000D02*
Y1190001D01*
X717000Y1050000D02*
X747000Y1080000D01*
X717000Y1007000D02*
Y1050000D01*
X690000Y980000D02*
X717000Y1007000D01*
X690000Y935000D02*
Y980000D01*
X745100Y473700D02*
Y613700D01*
Y393100D02*
Y416300D01*
X712000Y1009000D02*
Y1052000D01*
X685000Y982000D02*
X712000Y1009000D01*
X685000Y932000D02*
Y982000D01*
X690000Y935000D02*
X696000Y929000D01*
X742000Y1231000D02*
X753000Y1242000D01*
X770500Y473700D02*
Y613700D01*
Y393500D02*
Y416300D01*
X742000Y1082000D02*
Y1231000D01*
X712000Y1052000D02*
X742000Y1082000D01*
X685000Y932000D02*
X688000Y929000D01*
X719700Y673700D02*
Y808300D01*
Y473700D02*
Y613700D01*
X694300Y673700D02*
Y808700D01*
Y473700D02*
Y613700D01*
X727000Y886000D02*
X732500Y880500D01*
X707000Y821000D02*
Y886000D01*
X682000Y821000D02*
Y886000D01*
X758000Y821000D02*
Y886000D01*
Y821000D02*
X770500Y808500D01*
Y794600D02*
Y808500D01*
X732500Y820500D02*
Y880500D01*
Y820500D02*
X745100Y807900D01*
Y794600D02*
Y807900D01*
X541900Y821300D02*
Y879350D01*
Y627100D02*
Y660900D01*
Y428100D02*
Y460900D01*
X516500Y821300D02*
Y884750D01*
Y626500D02*
Y661500D01*
Y428500D02*
Y460500D01*
X680000Y984000D02*
X707000Y1011000D01*
X672000Y929000D02*
Y983000D01*
X702000Y1013000D01*
X664000Y983000D02*
X694000Y1013000D01*
X656000Y982000D02*
X684000Y1010000D01*
X648000Y981000D02*
X679000Y1012000D01*
X567300Y821300D02*
Y873950D01*
Y626700D02*
Y661300D01*
Y428700D02*
Y461300D01*
X592700Y673700D02*
Y808300D01*
Y473700D02*
Y613700D01*
Y391700D02*
Y416300D01*
X922900Y473700D02*
Y613700D01*
X262500Y626500D02*
Y661500D01*
Y428500D02*
Y461500D01*
X364100Y626900D02*
Y661100D01*
Y428900D02*
Y461100D01*
X668900Y821300D02*
Y890150D01*
Y428100D02*
Y460900D01*
Y627100D02*
Y660900D01*
X745100Y626900D02*
Y661100D01*
Y821300D02*
Y896150D01*
Y428900D02*
Y461100D01*
X897500Y473700D02*
Y613700D01*
X262500Y473700D02*
Y613700D01*
X414900Y473700D02*
Y613700D01*
X643500Y821300D02*
Y897750D01*
Y428500D02*
Y461500D01*
Y626500D02*
Y661500D01*
X237100Y474100D02*
Y613900D01*
Y626900D02*
Y661100D01*
Y428900D02*
Y461100D01*
X338700Y626300D02*
Y661700D01*
Y428300D02*
Y461700D01*
X389500Y473700D02*
Y613700D01*
X516500Y673700D02*
Y809500D01*
Y473700D02*
Y613700D01*
X371000Y988000D02*
X504000Y855000D01*
X668900Y673700D02*
Y808100D01*
Y473700D02*
Y613700D01*
X846700Y473700D02*
Y613700D01*
Y627300D02*
Y661700D01*
Y429300D02*
Y461700D01*
X872100Y473700D02*
Y613700D01*
X313300Y626700D02*
Y661300D01*
Y428700D02*
Y461300D01*
X541900Y675000D02*
Y808100D01*
Y473700D02*
Y613700D01*
X618100Y821300D02*
Y883150D01*
Y427900D02*
Y461100D01*
Y626900D02*
Y661100D01*
X770500Y821300D02*
Y890750D01*
Y626500D02*
Y661500D01*
Y428500D02*
Y461500D01*
X795900Y473700D02*
Y613700D01*
X211700Y473700D02*
Y613700D01*
X440300Y626700D02*
Y661300D01*
Y428700D02*
Y461300D01*
X491100Y473700D02*
Y613700D01*
X592700Y821300D02*
Y888550D01*
Y627300D02*
Y661700D01*
Y428300D02*
Y461700D01*
X643500Y673700D02*
Y808500D01*
Y473700D02*
Y613700D01*
X821300Y626700D02*
Y661300D01*
Y428700D02*
Y461300D01*
X973700Y473700D02*
Y613700D01*
X287900Y627100D02*
Y660900D01*
Y428100D02*
Y460900D01*
X338700Y473700D02*
Y613700D01*
X795900Y627100D02*
Y660900D01*
Y428100D02*
Y460900D01*
X948300Y473700D02*
Y613700D01*
X313300Y473700D02*
Y613700D01*
X414900Y627100D02*
Y660900D01*
Y428100D02*
Y460900D01*
X465700Y473700D02*
Y613700D01*
X567300Y673700D02*
Y808700D01*
Y473700D02*
Y613700D01*
X821300Y473700D02*
Y613700D01*
X800000Y1004500D02*
X808000Y996500D01*
Y969000D02*
Y996500D01*
Y969000D02*
X826958Y950042D01*
X877622D01*
X66750Y1034000D02*
X137000Y963750D01*
Y862000D02*
Y963750D01*
X960300Y922000D02*
X982300Y900000D01*
X955000Y922000D02*
X960300D01*
X944000Y933000D02*
X955000Y922000D01*
X981700Y926000D02*
X1007700Y900000D01*
X957000Y926000D02*
X981700D01*
X945500Y937500D02*
X957000Y926000D01*
X1003100Y930000D02*
X1033100Y900000D01*
X959000Y930000D02*
X1003100D01*
X947000Y942000D02*
X959000Y930000D01*
X956900Y900000D02*
Y914100D01*
X942500Y928500D02*
X956900Y914100D01*
X920408Y928500D02*
X942500D01*
X922272Y933000D02*
X944000D01*
X924136Y937500D02*
X945500D01*
X926000Y942000D02*
X947000D01*
X1016700Y934000D02*
X1032300Y949600D01*
X961000Y934000D02*
X1016700D01*
X944958Y950042D02*
X961000Y934000D01*
X932622Y950042D02*
X944958D01*
X501092Y877000D02*
X509000D01*
X1682000Y416000D02*
Y430000D01*
X1671500Y405500D02*
X1682000Y416000D01*
X1668750Y405500D02*
X1671500D01*
X1220000Y421000D02*
Y1117000D01*
X1170000Y419000D02*
Y926000D01*
Y419000D02*
X1198500Y390500D01*
Y370500D02*
Y390500D01*
X1198000Y370000D02*
X1198500Y370500D01*
X1165000Y417000D02*
Y931000D01*
Y417000D02*
X1194000Y388000D01*
X1051000Y235000D02*
Y344000D01*
X1046000Y349000D02*
X1051000Y344000D01*
Y351000D02*
X1056000Y346000D01*
X1155000Y374000D02*
Y921000D01*
Y63000D02*
Y374000D01*
X1160000Y66000D02*
Y936000D01*
X1155000Y63000D02*
X1162000Y56000D01*
X1160000Y66000D02*
X1170000Y56000D01*
X386364Y979000D02*
X504364Y861000D01*
X372864Y992500D02*
X386364Y979000D01*
X383000Y988728D02*
X502728Y869000D01*
X374728Y997000D02*
X383000Y988728D01*
X758750Y1015000D02*
X775000Y998750D01*
Y975000D02*
Y998750D01*
X750000Y971250D02*
X760000D01*
X740000D02*
X750000D01*
X1576250Y340000D02*
Y342750D01*
X1548000Y371000D02*
X1576250Y342750D01*
X737000Y1084000D02*
Y1186000D01*
X707000Y1054000D02*
X737000Y1084000D01*
X706000Y1217000D02*
X737000Y1186000D01*
X715000Y1230000D02*
X727000Y1242000D01*
X699000Y1230000D02*
X715000D01*
X693000Y1224000D02*
X699000Y1230000D01*
X693000Y1210000D02*
Y1224000D01*
Y1210000D02*
X732000Y1171000D01*
Y1086000D02*
Y1171000D01*
X702000Y1056000D02*
X732000Y1086000D01*
X707000Y821000D02*
X719700Y808300D01*
X682000Y821000D02*
X694300Y808700D01*
X741250Y945000D02*
Y950001D01*
X121000Y174550D02*
X121050Y174500D01*
X121000Y174550D02*
Y196000D01*
X206000Y162000D02*
Y196000D01*
Y162000D02*
X221000Y147000D01*
Y70000D02*
Y147000D01*
X250000Y262000D02*
Y309499D01*
Y110000D02*
Y262000D01*
X66000Y174550D02*
Y262000D01*
Y174550D02*
X66050Y174500D01*
X299000Y254000D02*
Y309799D01*
Y98000D02*
Y254000D01*
X88000Y174550D02*
Y254000D01*
Y174550D02*
X88050Y174500D01*
X110000Y174550D02*
Y249000D01*
X374000D02*
Y309799D01*
Y102000D02*
Y249000D01*
X110000Y174550D02*
X110050Y174500D01*
X249500Y310000D02*
X250000Y309499D01*
X298800Y310000D02*
X299000Y309799D01*
X373800Y310000D02*
X374000Y309799D01*
X399000Y58000D02*
Y309800D01*
X398800Y310000D02*
X399000Y309800D01*
X640000Y110000D02*
Y309500D01*
X639500Y310000D02*
X640000Y309500D01*
X689000Y98000D02*
Y309800D01*
X688800Y310000D02*
X689000Y309800D01*
X788800Y38000D02*
Y310000D01*
X764000Y102000D02*
Y309800D01*
X763800Y310000D02*
X764000Y309800D01*
X163000Y46000D02*
Y94000D01*
X575250Y278250D02*
Y303750D01*
X574000Y305000D02*
X575250Y303750D01*
X574000Y305000D02*
Y380000D01*
X569000Y87000D02*
Y277303D01*
X571500Y279803D01*
Y301500D01*
X564250Y308750D02*
X571500Y301500D01*
X560000Y308750D02*
X564250D01*
X574000Y90000D02*
X574000Y90000D01*
Y277000D01*
X575250Y278250D01*
X580000Y386000D02*
Y416000D01*
X574000Y380000D02*
X580000Y386000D01*
X579000Y378000D02*
X592700Y391700D01*
X579000Y86000D02*
Y378000D01*
X584000Y302000D02*
Y345303D01*
X605000Y366303D01*
Y416000D01*
X528000Y83000D02*
Y302000D01*
X534750Y308750D01*
X540000D01*
X508000Y367000D02*
X529000Y388000D01*
X508000Y106000D02*
Y367000D01*
X529000Y388000D02*
Y416000D01*
X513000Y365700D02*
X541900Y394600D01*
X513000Y102000D02*
Y365700D01*
X518000Y94000D02*
Y351000D01*
X523000Y98000D02*
Y350300D01*
X567300Y394600D01*
X168000Y42000D02*
Y90000D01*
X540000Y308750D02*
X540000Y308750D01*
Y327000D01*
X560000Y308750D02*
X560000Y308750D01*
Y323000D01*
X609000Y310500D02*
X609500Y310000D01*
X609000Y310500D02*
Y327000D01*
X597500Y310000D02*
X598000Y310500D01*
Y323000D01*
X216000Y62000D02*
Y145000D01*
X201000Y160000D02*
X216000Y145000D01*
X201000Y160000D02*
Y237000D01*
X211000Y66000D02*
Y143000D01*
X196000Y158000D02*
X211000Y143000D01*
X196000Y158000D02*
Y236000D01*
X150000Y282000D02*
X196000Y236000D01*
X170000Y268000D02*
X201000Y237000D01*
X170000Y268000D02*
Y282000D01*
X206000Y226000D02*
Y247000D01*
X194000Y259000D02*
X206000Y247000D01*
X194000Y259000D02*
Y333000D01*
X211000Y222000D02*
Y250000D01*
X199000Y262000D02*
X211000Y250000D01*
X199000Y262000D02*
Y416000D01*
X219000Y297000D02*
Y309500D01*
X219500Y310000D01*
X208000Y297000D02*
Y309500D01*
X207500Y310000D02*
X208000Y309500D01*
X170000Y282000D02*
X170000Y282000D01*
Y291250D01*
X150000Y282000D02*
X150000Y282000D01*
Y291250D01*
X1205000Y123000D02*
Y195000D01*
X1203000Y121000D02*
X1205000Y123000D01*
X1181250Y121000D02*
X1203000D01*
X915000Y110000D02*
Y204000D01*
X1358000Y239000D02*
X1362500Y234500D01*
X1372904Y197500D02*
X1380404Y205000D01*
X1362500Y203096D02*
X1368096Y197500D01*
X1372904D01*
X1362500Y203096D02*
Y234500D01*
X1380404Y205000D02*
X1389000D01*
X1347000Y304000D02*
X1350000Y307000D01*
Y319000D01*
X1249000Y320000D02*
X1250000Y319000D01*
X1243000Y320000D02*
X1249000D01*
X1250000Y275000D02*
Y319000D01*
X1240000Y265000D02*
X1250000Y275000D01*
X1231000Y265000D02*
X1240000D01*
X1209000Y240000D02*
X1231000D01*
X1208000Y239000D02*
X1209000Y240000D01*
X1198750D02*
X1199750Y239000D01*
X1208000D01*
X1231000Y300000D02*
Y302000D01*
X1389000D02*
X1389000Y302000D01*
Y300000D02*
Y302000D01*
X1595750Y244000D02*
X1595750Y244000D01*
X1589000Y244000D02*
X1595750D01*
X1709000Y244000D02*
X1715750D01*
X1269000Y344000D02*
X1275000Y338000D01*
Y319000D02*
Y338000D01*
X308000Y142000D02*
Y378000D01*
X1260000Y149000D02*
Y160750D01*
X1290000Y149000D02*
Y160750D01*
X1330000Y149000D02*
Y160750D01*
X1570000Y149000D02*
X1578000D01*
X1260000Y142000D02*
Y149000D01*
X237100Y394600D02*
X241000Y390700D01*
Y139000D02*
Y390700D01*
X1037900Y235900D02*
X1046000Y244000D01*
X1017516Y235900D02*
X1037900D01*
X1046000Y244000D02*
Y342000D01*
X1034000Y218000D02*
X1051000Y235000D01*
X945000Y218000D02*
X1034000D01*
X933250Y206250D02*
X945000Y218000D01*
X982000Y222000D02*
X1008600Y248600D01*
X933000Y222000D02*
X982000D01*
X915000Y204000D02*
X933000Y222000D01*
X1008600Y248600D02*
X1017516D01*
X933250Y202000D02*
Y206250D01*
X902000Y98000D02*
Y253000D01*
X910300Y261300D01*
X952516D01*
X897000Y102000D02*
Y256000D01*
X915000Y274000D01*
X952516D01*
X892000Y166000D02*
Y259000D01*
X951000Y318000D01*
X1260750Y111250D02*
X1265000D01*
X1254000Y118000D02*
X1260750Y111250D01*
X1254000Y118000D02*
Y136000D01*
X1260000Y142000D01*
X1205000Y195000D02*
X1220000Y210000D01*
X1231000D01*
X1177250Y244000D02*
X1181250Y240000D01*
X1173000Y244000D02*
X1177250D01*
X1270000Y238000D02*
Y244000D01*
X1242000Y210000D02*
X1270000Y238000D01*
X1231000Y210000D02*
X1242000D01*
X1369000Y226000D02*
X1378000Y235000D01*
X1389000D01*
X1369000Y226000D02*
Y240000D01*
X1373000Y244000D01*
Y250000D01*
X1378000Y255000D01*
X1389000D01*
X1438750Y205000D02*
X1439000Y204750D01*
X189000Y258000D02*
Y338000D01*
X258000Y134000D02*
Y376000D01*
X250000Y384000D02*
X258000Y376000D01*
X250000Y384000D02*
Y416000D01*
X773000Y270000D02*
Y377000D01*
X783000Y387000D01*
Y416000D01*
X770500Y428500D02*
X783000Y416000D01*
X589000Y345000D02*
X631000Y387000D01*
X589000Y306000D02*
Y345000D01*
X631000Y387000D02*
Y415000D01*
X752000Y375000D02*
X770500Y393500D01*
X752000Y82000D02*
Y375000D01*
X758000Y387000D02*
Y416000D01*
X747000Y376000D02*
X758000Y387000D01*
X747000Y182000D02*
Y376000D01*
X745100Y428900D02*
X758000Y416000D01*
X707000Y386000D02*
Y416000D01*
X705000Y384000D02*
X707000Y386000D01*
X705000Y178000D02*
Y384000D01*
X730000Y230000D02*
Y378000D01*
X745100Y393100D01*
X725000Y174000D02*
Y379000D01*
X733000Y387000D01*
Y416000D01*
X719700Y429300D02*
X733000Y416000D01*
X478000Y190000D02*
Y417000D01*
X465700Y394600D02*
X466000Y394300D01*
Y130000D02*
Y394300D01*
X465700Y130000D02*
X466000D01*
X453000Y198000D02*
Y416000D01*
X448000Y262000D02*
Y386900D01*
X440300Y394600D02*
X448000Y386900D01*
X443000Y206000D02*
Y373000D01*
X428000Y388000D02*
X443000Y373000D01*
X438000Y114000D02*
Y371500D01*
X414900Y394600D02*
X438000Y371500D01*
X384000Y202000D02*
Y380000D01*
X377000Y387000D02*
X384000Y380000D01*
X377000Y387000D02*
Y416000D01*
X263000Y266000D02*
Y394100D01*
X262500Y394600D02*
X263000Y394100D01*
X283000Y126000D02*
Y376000D01*
X275000Y384000D02*
X283000Y376000D01*
X275000Y384000D02*
Y416000D01*
X288000Y122000D02*
Y394500D01*
X287900Y394600D02*
X288000Y394500D01*
X301000Y385000D02*
X308000Y378000D01*
X301000Y385000D02*
Y415000D01*
X313000Y118000D02*
Y394300D01*
X313300Y394600D01*
X334000Y218000D02*
Y378000D01*
X326000Y386000D02*
X334000Y378000D01*
X326000Y386000D02*
Y416000D01*
X339000Y194000D02*
Y394300D01*
X338700Y394600D02*
X339000Y394300D01*
X359000Y170000D02*
Y379000D01*
X351000Y387000D02*
X359000Y379000D01*
X364000Y394500D02*
X364100Y394600D01*
X364000Y254000D02*
Y394500D01*
X408000Y293500D02*
Y376100D01*
X389500Y394600D02*
X408000Y376100D01*
X413000Y186000D02*
Y377000D01*
X402000Y388000D02*
X413000Y377000D01*
X486000Y266000D02*
Y389500D01*
X496000Y110000D02*
Y374100D01*
X649000Y298000D02*
Y389100D01*
X643500Y394600D02*
X649000Y389100D01*
X654000Y310000D02*
Y323000D01*
X656000Y325000D01*
X674000Y210000D02*
Y389500D01*
X668900Y394600D02*
X674000Y389500D01*
X679000Y314000D02*
Y322000D01*
X682000Y325000D01*
X700000Y318000D02*
Y388900D01*
X694300Y394600D02*
X700000Y388900D01*
X720000Y322000D02*
Y394300D01*
X719700Y394600D02*
X720000Y394300D01*
X694300Y428700D02*
X707000Y416000D01*
X694300Y393997D02*
Y394600D01*
X682000Y325000D02*
Y415000D01*
X668900Y428100D02*
X682000Y415000D01*
X668900Y394597D02*
Y394600D01*
X656000Y325000D02*
Y416000D01*
X643500Y428500D02*
X656000Y416000D01*
X643500Y394197D02*
Y394600D01*
X618100Y427900D02*
X631000Y415000D01*
X1593750Y438000D02*
Y450000D01*
X313300Y428700D02*
X326000Y416000D01*
X287900Y428100D02*
X301000Y415000D01*
X287900Y394597D02*
Y394600D01*
X262500Y428500D02*
X275000Y416000D01*
X237100Y428900D02*
X250000Y416000D01*
X1406250Y361250D02*
X1406500Y361000D01*
X1406250Y361250D02*
Y401000D01*
X1500750Y361750D02*
X1501500Y361000D01*
X1500750Y361750D02*
Y401000D01*
X1438750Y298250D02*
X1501500Y361000D01*
X1438750Y295000D02*
Y298250D01*
X1406500Y300500D02*
Y361000D01*
X1401000Y295000D02*
X1406500Y300500D01*
X1389000Y295000D02*
X1401000D01*
X1350000Y348250D02*
X1354000Y352250D01*
X1350000Y319000D02*
Y348250D01*
X1250000Y319000D02*
Y352000D01*
X1590726Y212628D02*
Y236726D01*
X1595750Y241750D01*
X902622Y930128D02*
Y950042D01*
X846208Y972542D02*
X870122D01*
X174000Y626000D02*
Y661400D01*
X745100Y626900D02*
X758000Y614000D01*
X745100Y461100D02*
X758000Y474000D01*
X605000D02*
Y615000D01*
X618100Y626900D02*
X631000Y614000D01*
X345000Y1047000D02*
X407398Y1109398D01*
X719700Y626300D02*
X732000Y614000D01*
X631000Y428800D02*
Y461200D01*
X795900Y460900D02*
X809000Y474000D01*
X795900Y627100D02*
X809000Y614000D01*
X402000Y460800D02*
X414900Y473700D01*
X402000Y429200D02*
X414900Y416300D01*
X453000Y461000D02*
X465700Y473700D01*
X453000Y429000D02*
Y461000D01*
X478000Y460600D02*
X491100Y473700D01*
X478000Y429400D02*
X491100Y416300D01*
X224000Y473000D02*
Y614000D01*
X237100Y626900D02*
X250000Y614000D01*
X275000Y474000D02*
Y614000D01*
X301000Y474000D02*
Y614000D01*
X313300Y461300D02*
X326000Y474000D01*
X377000D02*
Y614000D01*
X364100Y461100D02*
X377000Y474000D01*
X428000D02*
Y614000D01*
X414900Y460900D02*
X428000Y474000D01*
X453000D02*
Y614000D01*
X440300Y461300D02*
X453000Y474000D01*
X478000Y673000D02*
Y809000D01*
Y473000D02*
Y614000D01*
X491100Y626900D02*
X504000Y614000D01*
X2015350Y38550D02*
X2018600D01*
X2006600Y47300D02*
X2015350Y38550D01*
X1977300Y47300D02*
X2006600D01*
X1964600Y34600D02*
X1977300Y47300D01*
X1280000Y319000D02*
Y351250D01*
X1416250Y290000D02*
X1421250Y295000D01*
X1389000Y290000D02*
X1416250D01*
X1314000Y352250D02*
X1334000D01*
X1338000D02*
X1345000Y345250D01*
Y319000D02*
Y345250D01*
X1578000Y149000D02*
X1578250Y148750D01*
Y144000D02*
Y148750D01*
X1690000Y149000D02*
X1698000D01*
X1698250Y148750D01*
Y144000D02*
Y148750D01*
X1701000Y149000D02*
X1703226Y151226D01*
Y175128D01*
X1710726Y212628D02*
Y236726D01*
X1715750Y241750D01*
X1583226Y151226D02*
Y175128D01*
X1581000Y149000D02*
X1583226Y151226D01*
X376592Y1001500D02*
X501092Y877000D01*
X308592Y1001500D02*
X376592D01*
X225400Y1084692D02*
X308592Y1001500D01*
X225400Y1084692D02*
Y1110000D01*
X149200Y1102800D02*
X166500Y1085500D01*
X205500D02*
X303000Y988000D01*
X166500Y1085500D02*
X205500D01*
X207364Y1090000D02*
X304864Y992500D01*
X187000Y1090000D02*
X207364D01*
X174600Y1102400D02*
X187000Y1090000D01*
X200000Y1103728D02*
X306728Y997000D01*
X200000Y1103728D02*
Y1110000D01*
X306728Y997000D02*
X374728D01*
X304864Y992500D02*
X372864D01*
X303000Y988000D02*
X371000D01*
X502728Y869000D02*
X509000D01*
X504364Y861000D02*
X509000D01*
X174600Y1102400D02*
Y1110000D01*
X149200Y1102800D02*
Y1110000D01*
X504000Y822000D02*
Y855000D01*
Y822000D02*
X516500Y809500D01*
X529000Y821000D02*
Y861000D01*
Y821000D02*
X541900Y808100D01*
X555000Y821000D02*
X567300Y808700D01*
X555000Y821000D02*
Y869000D01*
X760000Y901250D02*
X770500Y890750D01*
X740000Y901250D02*
X745100Y896150D01*
X719700Y900950D02*
X720000Y901250D01*
X694300Y895550D02*
X700000Y901250D01*
X668900Y890150D02*
X680000Y901250D01*
X656650Y897900D02*
X660000Y901250D01*
X656650Y820350D02*
Y897900D01*
Y820350D02*
X668900Y808100D01*
X640000Y901250D02*
X643500Y897750D01*
X620000Y901250D02*
X631000Y890250D01*
Y821000D02*
Y890250D01*
Y821000D02*
X643500Y808500D01*
X600000Y901250D02*
X618100Y883150D01*
X580000Y901250D02*
X592700Y888550D01*
X560000Y901250D02*
X580000Y881250D01*
Y821000D02*
Y881250D01*
Y821000D02*
X592700Y808300D01*
X540000Y901250D02*
X567300Y873950D01*
X237100Y674100D02*
Y794600D01*
X224000Y661000D02*
X237100Y674100D01*
X224000Y627000D02*
Y661000D01*
Y627000D02*
X237100Y613900D01*
X364100Y674100D02*
Y794600D01*
X351000Y661000D02*
X364100Y674100D01*
X351000Y627000D02*
Y661000D01*
Y627000D02*
X364100Y613900D01*
X237100Y394600D02*
Y415900D01*
X224000Y429000D02*
X237100Y415900D01*
X224000Y429000D02*
Y461000D01*
X237100Y474100D01*
X364100Y394600D02*
Y415900D01*
X351000Y429000D02*
X364100Y415900D01*
X351000Y429000D02*
Y461000D01*
X364100Y474100D01*
X605000Y627000D02*
X618100Y613900D01*
X605000Y627000D02*
Y661000D01*
X618100Y674100D02*
Y794600D01*
X605000Y661000D02*
X618100Y674100D01*
Y394600D02*
Y415900D01*
X605000Y429000D02*
X618100Y415900D01*
X605000Y429000D02*
Y461000D01*
X618100Y474100D01*
X732000Y474000D02*
Y614000D01*
X719700Y461700D02*
X732000Y474000D01*
Y674000D02*
Y808000D01*
X719700Y661700D02*
X732000Y674000D01*
X719700Y820300D02*
X732000Y808000D01*
X480000Y1109398D02*
X484000D01*
X474302Y1096698D02*
X484000D01*
X460000Y1111000D02*
X474302Y1096698D01*
X460000Y1111000D02*
Y1134250D01*
X416000Y1045898D02*
X425898D01*
X442000Y1062000D01*
Y1132250D01*
X440000Y1134250D02*
X442000Y1132250D01*
X416000Y1058598D02*
X425598D01*
X437000Y1070000D01*
Y1117250D01*
X420000Y1134250D02*
X437000Y1117250D01*
X62500Y1074500D02*
X71750D01*
X58000Y1070000D02*
X62500Y1074500D01*
X58000Y1042750D02*
Y1070000D01*
Y1042750D02*
X66750Y1034000D01*
X30000Y1107750D02*
X44250Y1093500D01*
X30000Y1107750D02*
Y1145000D01*
X174000Y428600D02*
X186300Y416300D01*
X174000Y626000D02*
X186300Y613700D01*
X174000Y661400D02*
X186300Y673700D01*
X199000Y429000D02*
X211700Y416300D01*
X199000Y626400D02*
X211700Y613700D01*
X199000Y626400D02*
Y661000D01*
X211700Y673700D01*
X250000Y428800D02*
X262500Y416300D01*
X250000Y626200D02*
X262500Y613700D01*
X275000Y429200D02*
X287900Y416300D01*
X275000Y626600D02*
X287900Y613700D01*
X301000Y428600D02*
X313300Y416300D01*
X301000Y626000D02*
X313300Y613700D01*
X301000Y626000D02*
Y661400D01*
X313300Y673700D01*
X326000Y661000D02*
X338700Y673700D01*
X326000Y626400D02*
Y661000D01*
Y626400D02*
X338700Y613700D01*
X326000Y429000D02*
X338700Y416300D01*
X377000Y661200D02*
X389500Y673700D01*
X377000Y626200D02*
Y661200D01*
Y626200D02*
X389500Y613700D01*
X377000Y428800D02*
X389500Y416300D01*
X402000Y626600D02*
X414900Y613700D01*
X402000Y626600D02*
Y660800D01*
X414900Y673700D01*
X428000Y661400D02*
X440300Y673700D01*
X428000Y626000D02*
Y661400D01*
Y626000D02*
X440300Y613700D01*
X428000Y428600D02*
X440300Y416300D01*
X453000Y429000D02*
X465700Y416300D01*
X453000Y626400D02*
X465700Y613700D01*
X453000Y626400D02*
Y661000D01*
X465700Y673700D01*
X478000Y660600D02*
X491100Y673700D01*
X478000Y626800D02*
Y660600D01*
Y626800D02*
X491100Y613700D01*
X504000Y428800D02*
X516500Y416300D01*
X504000Y626200D02*
X516500Y613700D01*
X504000Y626200D02*
Y661200D01*
X516500Y673700D01*
X529000Y662100D02*
X541900Y675000D01*
X529000Y626600D02*
Y662100D01*
Y626600D02*
X541900Y613700D01*
X529000Y429200D02*
X541900Y416300D01*
X555000Y428600D02*
X567300Y416300D01*
X555000Y626000D02*
X567300Y613700D01*
X555000Y626000D02*
Y661400D01*
X567300Y673700D01*
X580000Y661000D02*
X592700Y673700D01*
X580000Y626400D02*
Y661000D01*
Y626400D02*
X592700Y613700D01*
X580000Y429000D02*
X592700Y416300D01*
X631000Y661200D02*
X643500Y673700D01*
X631000Y626200D02*
Y661200D01*
Y626200D02*
X643500Y613700D01*
X631000Y428800D02*
X643500Y416300D01*
X656000Y626600D02*
X668900Y613700D01*
X656000Y626600D02*
Y660800D01*
X668900Y673700D01*
X656000Y429200D02*
X668900Y416300D01*
X682000Y428600D02*
X694300Y416300D01*
X682000Y626000D02*
X694300Y613700D01*
X682000Y626000D02*
Y661400D01*
X694300Y673700D01*
X707000Y661000D02*
X719700Y673700D01*
X707000Y626400D02*
Y661000D01*
Y626400D02*
X719700Y613700D01*
X707000Y429000D02*
X719700Y416300D01*
X732000Y429400D02*
X745100Y416300D01*
X732000Y626800D02*
X745100Y613700D01*
X732000Y626800D02*
Y660600D01*
X745100Y673700D01*
X758000Y661200D02*
X770500Y673700D01*
X758000Y626200D02*
Y661200D01*
Y626200D02*
X770500Y613700D01*
X758000Y428800D02*
X770500Y416300D01*
X783000Y429200D02*
X795900Y416300D01*
X783000Y626600D02*
X795900Y613700D01*
X783000Y626600D02*
Y660800D01*
X795900Y673700D01*
X809000Y661400D02*
X821300Y673700D01*
X809000Y626000D02*
Y661400D01*
Y626000D02*
X821300Y613700D01*
X809000Y428600D02*
X821300Y416300D01*
X834000Y429000D02*
X846700Y416300D01*
X834000Y626400D02*
X846700Y613700D01*
X834000Y626400D02*
Y661000D01*
X846700Y673700D01*
X859000Y660600D02*
X872100Y673700D01*
X859000Y626800D02*
Y660600D01*
Y626800D02*
X872100Y613700D01*
X859000Y429400D02*
X872100Y416300D01*
X885000Y428800D02*
X897500Y416300D01*
X885000Y626200D02*
X897500Y613700D01*
X885000Y626200D02*
Y661200D01*
X897500Y673700D01*
X910000Y660800D02*
X922900Y673700D01*
X910000Y626600D02*
Y660800D01*
Y626600D02*
X922900Y613700D01*
X910000Y429200D02*
X922900Y416300D01*
X936000Y428600D02*
X948300Y416300D01*
X936000Y626000D02*
X948300Y613700D01*
X936000Y626000D02*
Y661400D01*
X948300Y673700D01*
X961000Y661000D02*
X973700Y673700D01*
X961000Y626400D02*
Y661000D01*
Y626400D02*
X973700Y613700D01*
X961000Y429000D02*
X973700Y416300D01*
X174000Y428600D02*
Y461400D01*
X186300Y473700D01*
X199000Y429000D02*
Y461000D01*
X211700Y473700D01*
X250000Y428800D02*
Y461200D01*
X262500Y473700D01*
X275000Y429200D02*
Y460800D01*
X287900Y473700D01*
X301000Y428600D02*
Y461400D01*
X313300Y473700D01*
X326000Y429000D02*
Y461000D01*
X338700Y473700D01*
X377000Y428800D02*
Y461200D01*
X389500Y473700D01*
X402000Y429200D02*
Y460800D01*
X428000Y428600D02*
Y461400D01*
X440300Y473700D01*
X478000Y429400D02*
Y460600D01*
X504000Y428800D02*
Y461200D01*
X516500Y473700D01*
X529000Y429200D02*
Y460800D01*
X541900Y473700D01*
X555000Y428600D02*
Y461400D01*
X567300Y473700D01*
X580000Y429000D02*
Y461000D01*
X592700Y473700D01*
X631000Y461200D02*
X643500Y473700D01*
X656000Y429200D02*
Y460800D01*
X668900Y473700D01*
X682000Y428600D02*
Y461400D01*
X694300Y473700D01*
X707000Y429000D02*
Y461000D01*
X719700Y473700D01*
X732000Y429400D02*
Y460600D01*
X745100Y473700D01*
X758000Y428800D02*
Y461200D01*
X770500Y473700D01*
X783000Y429200D02*
Y460800D01*
X795900Y473700D01*
X809000Y428600D02*
Y461400D01*
X821300Y473700D01*
X834000Y429000D02*
Y461000D01*
X846700Y473700D01*
X859000Y429400D02*
Y460600D01*
X872100Y473700D01*
X885000Y428800D02*
Y461200D01*
X897500Y473700D01*
X910000Y429200D02*
Y460800D01*
X922900Y473700D01*
X936000Y428600D02*
Y461400D01*
X948300Y473700D01*
X961000Y429000D02*
Y461000D01*
X973700Y473700D01*
Y673700D02*
Y794600D01*
X948300Y673700D02*
Y794600D01*
X922900Y673700D02*
Y794600D01*
X897500Y673700D02*
Y794600D01*
X872100Y673700D02*
Y794600D01*
X846700Y673700D02*
Y794600D01*
X821300Y673700D02*
Y794600D01*
X795900Y673700D02*
Y794600D01*
X770500Y673700D02*
Y794600D01*
X745100Y673700D02*
Y794600D01*
X491100Y673700D02*
Y794600D01*
X465700Y673700D02*
Y794600D01*
X440300Y673700D02*
Y794600D01*
X414900Y673700D02*
Y794600D01*
X389500Y673700D02*
Y794600D01*
X338700Y673700D02*
Y794600D01*
X313300Y673700D02*
Y794600D01*
X211700Y673700D02*
Y794600D01*
X186300Y673700D02*
Y794600D01*
Y460300D02*
X199000Y473000D01*
Y614000D01*
X186300Y626700D02*
X199000Y614000D01*
X186300Y661300D02*
X199000Y674000D01*
Y808600D01*
X186300Y821300D02*
X199000Y808600D01*
X211700Y821300D02*
X224000Y809000D01*
Y674000D02*
Y809000D01*
X211700Y661700D02*
X224000Y674000D01*
X211700Y626300D02*
X224000Y614000D01*
X211700Y460700D02*
X224000Y473000D01*
X237100Y461100D02*
X250000Y474000D01*
Y614000D01*
X237100Y661100D02*
X250000Y674000D01*
Y808400D01*
X237100Y821300D02*
X250000Y808400D01*
X262500Y821300D02*
X275000Y808800D01*
Y674000D02*
Y808800D01*
X262500Y661500D02*
X275000Y674000D01*
X262500Y626500D02*
X275000Y614000D01*
X262500Y461500D02*
X275000Y474000D01*
X250000Y626200D02*
Y661000D01*
X262500Y673500D01*
Y794600D01*
X275000Y626600D02*
Y661000D01*
X287900Y673900D01*
Y794600D01*
Y821300D02*
X301000Y808200D01*
Y674000D02*
Y808200D01*
X287900Y660900D02*
X301000Y674000D01*
X287900Y460900D02*
X301000Y474000D01*
X287900Y627100D02*
X301000Y614000D01*
X326000Y474000D02*
Y614000D01*
X313300Y626700D02*
X326000Y614000D01*
X313300Y661300D02*
X326000Y674000D01*
Y808600D01*
X313300Y821300D02*
X326000Y808600D01*
X338700Y821300D02*
X351000Y809000D01*
Y674000D02*
Y809000D01*
X338700Y661700D02*
X351000Y674000D01*
X338700Y626300D02*
X351000Y614000D01*
Y474000D02*
Y614000D01*
X338700Y461700D02*
X351000Y474000D01*
X364100Y626900D02*
X377000Y614000D01*
X364100Y661100D02*
X377000Y674000D01*
Y808400D01*
X364100Y821300D02*
X377000Y808400D01*
X389500Y821300D02*
X402000Y808800D01*
Y674000D02*
Y808800D01*
X389500Y661500D02*
X402000Y674000D01*
X389500Y626500D02*
X402000Y614000D01*
Y474000D02*
Y614000D01*
X389500Y461500D02*
X402000Y474000D01*
X414900Y627100D02*
X428000Y614000D01*
X414900Y660900D02*
X428000Y674000D01*
Y808200D01*
X414900Y821300D02*
X428000Y808200D01*
X440300Y821300D02*
X453000Y808600D01*
Y674000D02*
Y808600D01*
X440300Y661300D02*
X453000Y674000D01*
X440300Y626700D02*
X453000Y614000D01*
X465700Y460700D02*
X478000Y473000D01*
X465700Y626300D02*
X478000Y614000D01*
X465700Y660700D02*
X478000Y673000D01*
X465700Y821300D02*
X478000Y809000D01*
X491100Y821300D02*
X504000Y808400D01*
Y674000D02*
Y808400D01*
X491100Y661100D02*
X504000Y674000D01*
Y474000D02*
Y614000D01*
X491100Y461100D02*
X504000Y474000D01*
X516500Y460500D02*
X529000Y473000D01*
Y614000D01*
X516500Y626500D02*
X529000Y614000D01*
X516500Y661500D02*
X529000Y674000D01*
Y808800D01*
X516500Y821300D02*
X529000Y808800D01*
X541900Y821300D02*
X555000Y808200D01*
Y674000D02*
Y808200D01*
X541900Y660900D02*
X555000Y674000D01*
X541900Y627100D02*
X555000Y614000D01*
Y474000D02*
Y614000D01*
X541900Y460900D02*
X555000Y474000D01*
X567300Y461300D02*
X580000Y474000D01*
Y614000D01*
X567300Y626700D02*
X580000Y614000D01*
X567300Y661300D02*
X580000Y674000D01*
Y808600D01*
X567300Y821300D02*
X580000Y808600D01*
X592700Y821300D02*
X605000Y809000D01*
Y674000D02*
Y809000D01*
X592700Y661700D02*
X605000Y674000D01*
X592700Y627300D02*
X605000Y615000D01*
X592700Y461700D02*
X605000Y474000D01*
X618100Y461100D02*
X631000Y474000D01*
Y614000D01*
X618100Y661100D02*
X631000Y674000D01*
Y808400D01*
X618100Y821300D02*
X631000Y808400D01*
X643500Y821300D02*
X656000Y808800D01*
Y674000D02*
Y808800D01*
X643500Y661500D02*
X656000Y674000D01*
X643500Y461500D02*
X656000Y474000D01*
X643500Y626500D02*
X656000Y614000D01*
Y474000D02*
Y614000D01*
X668900Y460900D02*
X682000Y474000D01*
Y614000D01*
X668900Y627100D02*
X682000Y614000D01*
X668900Y660900D02*
X682000Y674000D01*
Y808200D01*
X668900Y821300D02*
X682000Y808200D01*
X694300Y821300D02*
X707000Y808600D01*
Y674000D02*
Y808600D01*
X694300Y661300D02*
X707000Y674000D01*
X694300Y626700D02*
X707000Y614000D01*
Y474000D02*
Y614000D01*
X694300Y461300D02*
X707000Y474000D01*
X745100Y821300D02*
X758000Y808400D01*
Y674000D02*
Y808400D01*
X745100Y661100D02*
X758000Y674000D01*
Y474000D02*
Y614000D01*
X770500Y626500D02*
X783000Y614000D01*
X770500Y661500D02*
X783000Y674000D01*
Y808800D01*
X770500Y821300D02*
X783000Y808800D01*
X795900Y821300D02*
X809000Y808200D01*
Y674000D02*
Y808200D01*
X795900Y660900D02*
X809000Y674000D01*
Y474000D02*
Y614000D01*
X770500Y461500D02*
X783000Y474000D01*
Y614000D01*
X821300Y461300D02*
X834000Y474000D01*
Y614000D01*
X821300Y626700D02*
X834000Y614000D01*
X821300Y661300D02*
X834000Y674000D01*
Y808600D01*
X821300Y821300D02*
X834000Y808600D01*
X846700Y821300D02*
X859000Y809000D01*
Y674000D02*
Y809000D01*
X846700Y661700D02*
X859000Y674000D01*
X846700Y627300D02*
X859000Y615000D01*
Y474000D02*
Y615000D01*
X846700Y461700D02*
X859000Y474000D01*
X872100Y461100D02*
X885000Y474000D01*
Y614000D01*
X872100Y626900D02*
X885000Y614000D01*
X872100Y661100D02*
X885000Y674000D01*
Y808400D01*
X872100Y821300D02*
X885000Y808400D01*
X897500Y821300D02*
X910000Y808800D01*
Y674000D02*
Y808800D01*
X897500Y661500D02*
X910000Y674000D01*
X897500Y627500D02*
X910000Y615000D01*
Y474000D02*
Y615000D01*
X897500Y461500D02*
X910000Y474000D01*
X922900Y460900D02*
X936000Y474000D01*
Y614000D01*
X922900Y627100D02*
X936000Y614000D01*
X922900Y660900D02*
X936000Y674000D01*
Y808200D01*
X922900Y821300D02*
X936000Y808200D01*
X948300Y821300D02*
X961000Y808600D01*
Y674000D02*
Y808600D01*
X948300Y661300D02*
X961000Y674000D01*
X948300Y626700D02*
X961000Y614000D01*
Y474000D02*
Y614000D01*
X948300Y461300D02*
X961000Y474000D01*
X973700Y821300D02*
X986000Y809000D01*
Y674000D02*
Y809000D01*
X973700Y661700D02*
X986000Y674000D01*
X973700Y626300D02*
X986000Y614000D01*
Y474000D02*
Y614000D01*
X973700Y461700D02*
X986000Y474000D01*
X973700Y394600D02*
Y416300D01*
X186300Y394600D02*
Y416300D01*
X211700Y394600D02*
Y416300D01*
X262500Y394600D02*
Y416300D01*
X287900Y394600D02*
Y416300D01*
X313300Y394600D02*
Y416300D01*
X338700Y394600D02*
Y416300D01*
X389500Y394600D02*
Y416300D01*
X414900Y394600D02*
Y416300D01*
X440300Y394600D02*
Y416300D01*
X465700Y394600D02*
Y416300D01*
X491100Y394600D02*
Y416300D01*
X516500Y394600D02*
Y416300D01*
X541900Y394600D02*
Y416300D01*
X567300Y394600D02*
Y416300D01*
X643500Y394600D02*
Y416300D01*
X668900Y394600D02*
Y416300D01*
X694300Y394600D02*
Y416300D01*
X719700Y394600D02*
Y416300D01*
X795900Y394600D02*
Y416300D01*
X821300Y394600D02*
Y416300D01*
X846700Y394600D02*
Y416300D01*
X872100Y394600D02*
Y416300D01*
X897500Y394600D02*
Y416300D01*
X922900Y394600D02*
Y416300D01*
X948300Y394600D02*
Y416300D01*
Y821300D02*
Y845400D01*
X186300Y821300D02*
Y845400D01*
X211700Y821300D02*
Y845400D01*
X237100Y821300D02*
Y845400D01*
X262500Y821300D02*
Y845400D01*
X287900Y821300D02*
Y845400D01*
X313300Y821300D02*
Y845400D01*
X338700Y821300D02*
Y845400D01*
X364100Y821300D02*
Y845400D01*
X389500Y821300D02*
Y845400D01*
X414900Y821300D02*
Y845400D01*
X440300Y821300D02*
Y845400D01*
X465700Y821300D02*
Y845400D01*
X491100Y821300D02*
Y845400D01*
X795900Y821300D02*
Y845400D01*
X821300Y821300D02*
Y845400D01*
X846700Y821300D02*
Y845400D01*
X872100Y821300D02*
Y845400D01*
X897500Y821300D02*
Y845400D01*
X922900Y821300D02*
Y845400D01*
X973700Y821300D02*
Y845400D01*
X892622Y1020042D02*
Y1027378D01*
X897622Y1020042D02*
Y1028742D01*
X902622Y1020042D02*
Y1030106D01*
X907622Y1020042D02*
Y1031470D01*
X890000Y1061250D02*
X912622Y1038628D01*
Y1020042D02*
Y1038628D01*
X910000Y1061250D02*
X917622Y1053628D01*
Y1020042D02*
Y1053628D01*
X922622Y1020042D02*
Y1053872D01*
X930000Y1061250D01*
X927622Y1020042D02*
Y1038872D01*
X950000Y1061250D01*
X932622Y1023872D02*
X970000Y1061250D01*
X940122Y1007542D02*
X947542D01*
X990000Y1050000D01*
Y1061250D01*
X932622Y1020042D02*
Y1023872D01*
X940122Y1002542D02*
X948906D01*
X1007614Y1061250D01*
X1010000D01*
X940122Y997542D02*
X950270D01*
X940122Y992542D02*
X951634D01*
X940122Y987542D02*
X952998D01*
X940122Y982542D02*
X954362D01*
X810000Y1061250D02*
X820250Y1051000D01*
X833000D01*
X881864Y1044500D02*
X897622Y1028742D01*
X883728Y1049000D02*
X902622Y1030106D01*
X885592Y1053500D02*
X907622Y1031470D01*
X880000Y1040000D02*
X892622Y1027378D01*
X870000Y1061250D02*
X877750Y1053500D01*
X885592D01*
X870000Y1054000D02*
X875000Y1049000D01*
X883728D01*
X850000Y1061250D02*
X857250Y1054000D01*
X870000D01*
X833000Y1051000D02*
X839000Y1045000D01*
X830000Y1061250D02*
X841750Y1049500D01*
X839000Y1045000D02*
X866000D01*
X871000Y1040000D01*
X880000D01*
X867864Y1049500D02*
X872864Y1044500D01*
X881864D01*
X841750Y1049500D02*
X867864D01*
X887622Y1020042D02*
Y1026014D01*
X878136Y1035500D02*
X887622Y1026014D01*
X869136Y1035500D02*
X878136D01*
X864136Y1040500D02*
X869136Y1035500D01*
X837136Y1040500D02*
X864136D01*
X831136Y1046500D02*
X837136Y1040500D01*
X799000Y1055000D02*
Y1085000D01*
X819000Y1105000D01*
X831250D01*
X882622Y1020042D02*
Y1024650D01*
X876272Y1031000D02*
X882622Y1024650D01*
X867272Y1031000D02*
X876272D01*
X862272Y1036000D02*
X867272Y1031000D01*
X835272Y1036000D02*
X862272D01*
X829272Y1042000D02*
X835272Y1036000D01*
X794500Y1053136D02*
Y1088250D01*
X831250Y1125000D01*
X877622Y1020042D02*
Y1023286D01*
X874408Y1026500D02*
X877622Y1023286D01*
X865408Y1026500D02*
X874408D01*
X860408Y1031500D02*
X865408Y1026500D01*
X833408Y1031500D02*
X860408D01*
X827408Y1037500D02*
X833408Y1031500D01*
X803772Y1037500D02*
X827408D01*
X790000Y1051272D02*
X803772Y1037500D01*
X790000Y1051272D02*
Y1103750D01*
X831250Y1145000D01*
X794500Y1053136D02*
X805636Y1042000D01*
X799000Y1055000D02*
X807500Y1046500D01*
X831136D01*
X805636Y1042000D02*
X829272D01*
X954362Y982542D02*
X1011820Y1040000D01*
X1068750D01*
X1090000Y1061250D01*
X1009956Y1044500D02*
X1053250D01*
X1070000Y1061250D01*
X1008092Y1049000D02*
X1037750D01*
X1050000Y1061250D01*
X1006228Y1053500D02*
X1022250D01*
X1030000Y1061250D01*
X952998Y987542D02*
X1009956Y1044500D01*
X951634Y992542D02*
X1008092Y1049000D01*
X950270Y997542D02*
X1006228Y1053500D01*
X940122Y967542D02*
X968792D01*
X971250Y970000D01*
X940122Y962542D02*
X958708D01*
X971250Y950000D01*
X940122Y977542D02*
X955726D01*
X965184Y987000D01*
X1044300D01*
X1057700Y1000400D01*
X940122Y972542D02*
X957090D01*
X967048Y982500D01*
X1024800D01*
X1032300Y975000D01*
X940122Y957542D02*
X943458D01*
X963000Y938000D01*
X1000000D01*
X1024000Y962000D01*
X1044700D01*
X1057700Y975000D01*
X927622Y950042D02*
Y962542D01*
X905122Y985042D02*
X927622Y962542D01*
X887622Y950042D02*
Y967542D01*
X905122Y985042D01*
X870122Y967542D02*
X887622D01*
X870122Y1007542D02*
X882622D01*
X905122Y985042D01*
X932622Y1012542D02*
X940122D01*
X905122Y985042D02*
X932622Y1012542D01*
X922622Y945378D02*
Y950042D01*
Y945378D02*
X926000Y942000D01*
X917622Y944014D02*
Y950042D01*
Y944014D02*
X924136Y937500D01*
X912622Y942650D02*
Y950042D01*
Y942650D02*
X922272Y933000D01*
X907622Y941286D02*
Y950042D01*
Y941286D02*
X920408Y928500D01*
X902622Y930128D02*
X909000Y923750D01*
X897622Y932372D02*
Y950042D01*
X889000Y923750D02*
X897622Y932372D01*
X892622Y944622D02*
Y950042D01*
X871750Y923750D02*
X892622Y944622D01*
X869000Y923750D02*
X871750D01*
X882622Y942622D02*
Y950042D01*
X872000Y932000D02*
X882622Y942622D01*
X853750Y932000D02*
X872000D01*
X840000Y918250D02*
X853750Y932000D01*
X800000Y1004500D02*
Y1021750D01*
X808750Y918250D02*
X840000D01*
X800000Y909500D02*
X808750Y918250D01*
X846292Y967542D02*
X870122D01*
X840000Y961250D02*
X846292Y967542D01*
X840000Y978750D02*
X846208Y972542D01*
X843292Y1007542D02*
X870122D01*
X840000Y1004250D02*
X843292Y1007542D01*
X345000Y1033750D02*
Y1047000D01*
X407398Y1109398D02*
X416000D01*
X365000Y1060636D02*
X401062Y1096698D01*
X416000D01*
X1389000Y205000D02*
X1421250D01*
X1389000Y275000D02*
X1421250D01*
X1198750Y265000D02*
X1231000D01*
X1260000Y160750D02*
X1260000Y160750D01*
X1330000Y160750D02*
X1330000Y160750D01*
X186300Y428700D02*
X199000Y416000D01*
X211700Y394600D02*
X212000Y394300D01*
Y333000D02*
Y394300D01*
X225000Y338000D02*
Y415000D01*
X211700Y428300D02*
X225000Y415000D01*
X338700Y428300D02*
X351000Y416000D01*
Y387000D02*
Y416000D01*
X364100Y428900D02*
X377000Y416000D01*
X389500Y428500D02*
X402000Y416000D01*
Y388000D02*
Y416000D01*
X414900Y428100D02*
X428000Y415000D01*
Y388000D02*
Y415000D01*
X440300Y428700D02*
X453000Y416000D01*
X465700Y429300D02*
X478000Y417000D01*
X486000Y389500D02*
X491100Y394600D01*
Y428900D02*
X504000Y416000D01*
Y388000D02*
Y416000D01*
X491000Y375000D02*
X504000Y388000D01*
X491000Y234000D02*
Y375000D01*
X496000Y374100D02*
X516500Y394600D01*
Y428500D02*
X529000Y416000D01*
X541900Y428100D02*
X554000Y416000D01*
Y387000D02*
Y416000D01*
X518000Y351000D02*
X554000Y387000D01*
X567300Y428700D02*
X580000Y416000D01*
X592700Y428300D02*
X605000Y416000D01*
X973700Y394600D02*
X974000Y394300D01*
Y326000D02*
Y394300D01*
X948000Y394300D02*
X948300Y394600D01*
X948000Y330000D02*
Y394300D01*
X922900Y394600D02*
X923000Y394500D01*
Y362000D02*
Y394500D01*
X897000Y394100D02*
X897500Y394600D01*
X897000Y358000D02*
Y394100D01*
X872000Y394500D02*
X872100Y394600D01*
X872000Y334000D02*
Y394500D01*
X846700Y394600D02*
X847000Y394300D01*
Y338000D02*
Y394300D01*
X821000Y394300D02*
X821300Y394600D01*
X821000Y350000D02*
Y394300D01*
X795900Y394600D02*
X796000Y394500D01*
Y354000D02*
Y394500D01*
X795900Y428100D02*
X809000Y415000D01*
Y357000D02*
Y415000D01*
X778000Y326000D02*
X809000Y357000D01*
X778000Y282000D02*
Y326000D01*
X821300Y428700D02*
X834000Y416000D01*
Y299000D02*
Y416000D01*
Y299000D02*
X843000Y290000D01*
X846700Y429300D02*
X860000Y416000D01*
Y286000D02*
Y416000D01*
X872100Y428900D02*
X885000Y416000D01*
Y294000D02*
Y416000D01*
X897500Y428500D02*
X910000Y416000D01*
X922900Y429100D02*
X936000Y416000D01*
X948300Y428700D02*
X961000Y416000D01*
Y335000D02*
Y416000D01*
X887000Y261000D02*
X961000Y335000D01*
X887000Y158000D02*
Y261000D01*
X882000Y162000D02*
Y263000D01*
X936000Y317000D01*
Y416000D01*
X877000Y154000D02*
Y265000D01*
X910000Y298000D01*
Y416000D01*
X973700Y429300D02*
X986000Y417000D01*
Y330000D02*
Y417000D01*
X974000Y318000D02*
X986000Y330000D01*
X951000Y318000D02*
X974000D01*
X1269000Y344000D02*
Y369750D01*
X1821000Y94000D02*
Y282000D01*
X1826000Y97000D02*
Y286000D01*
X1379000Y275000D02*
X1389000D01*
X1373000Y269000D02*
X1379000Y275000D01*
X1362000Y269000D02*
X1373000D01*
X1344000Y251000D02*
X1362000Y269000D01*
X1344000Y239000D02*
Y251000D01*
X1640000Y415000D02*
X1641250D01*
X1613592Y424450D02*
X1627550D01*
X1628000Y424000D01*
X1641250Y415000D02*
X1646250Y410000D01*
Y380000D02*
Y410000D01*
X1585000Y348750D02*
X1593750Y340000D01*
X1557500Y450000D02*
X1576250D01*
X1527000Y386000D02*
Y442000D01*
X1532500Y447500D01*
Y450000D01*
X1519750Y361750D02*
X1534000Y376000D01*
X225400Y1010000D02*
X274000D01*
X301000Y983000D01*
X369250D01*
X381000Y971250D01*
X1051000Y351000D02*
Y850000D01*
X1046000Y349000D02*
Y863000D01*
X1225000Y426000D02*
Y1123000D01*
X1218000Y1119000D02*
X1220000Y1117000D01*
X1218000Y1119000D02*
Y1130000D01*
X1488750Y1140000D02*
Y1143250D01*
X1478000Y1154000D02*
X1488750Y1143250D01*
X1462000Y1154000D02*
X1478000D01*
X1452000Y1144000D02*
X1462000Y1154000D01*
X500000Y901250D02*
X513250Y888000D01*
X516500Y884750D01*
X520000Y901250D02*
X533250Y888000D01*
X541900Y879350D01*
X666000Y1123000D02*
X679000Y1110000D01*
X634050Y1123000D02*
X666000D01*
X658000Y1138000D02*
X684000Y1112000D01*
X629000Y1138000D02*
X658000D01*
X621350Y1130350D02*
X629000Y1138000D01*
X621350Y1123000D02*
Y1130350D01*
X664000Y929000D02*
Y983000D01*
X702000Y1013000D02*
Y1056000D01*
X680000Y929000D02*
Y984000D01*
X707000Y1011000D02*
Y1054000D01*
X656000Y929000D02*
Y982000D01*
X684000Y1010000D02*
Y1112000D01*
X648000Y929000D02*
Y981000D01*
X679000Y1012000D02*
Y1110000D01*
X696000Y956000D02*
Y971250D01*
X1150000Y146000D02*
Y916000D01*
X1145000Y150000D02*
Y885000D01*
X397000Y1083000D02*
X415003D01*
X416000Y1083998D01*
X397000Y1072000D02*
X415298D01*
X416000Y1071298D01*
X1275000Y307000D02*
Y319000D01*
Y307000D02*
X1278000Y304000D01*
X800000Y1021750D02*
X840000D01*
X720000Y971250D02*
X741250Y950001D01*
X480000Y1109398D02*
Y1134250D01*
X365000Y1033750D02*
Y1060636D01*
X440300Y473700D02*
Y613700D01*
X211700Y428300D02*
Y460700D01*
Y626300D02*
Y661700D01*
X364100Y474100D02*
Y613900D01*
X1472250Y313500D02*
X1478000Y319250D01*
Y329000D01*
X694300Y821300D02*
Y895550D01*
Y626700D02*
Y661300D01*
Y428700D02*
Y461300D01*
X1499750Y313500D02*
X1500000Y313750D01*
Y325000D01*
X872100Y428900D02*
Y461100D01*
Y626900D02*
Y661100D01*
X186300Y428700D02*
Y460300D01*
Y626700D02*
Y661300D01*
X719700Y429300D02*
Y461700D01*
Y820300D02*
Y900950D01*
Y626300D02*
Y661700D01*
X287900Y473700D02*
Y613700D01*
X389500Y428500D02*
Y461500D01*
Y626500D02*
Y661500D01*
X897500Y428500D02*
Y461500D01*
Y627500D02*
Y661500D01*
X922900Y429100D02*
Y460900D01*
Y627100D02*
Y660900D01*
X948300Y428700D02*
Y461300D01*
Y626700D02*
Y661300D01*
X973700Y429300D02*
Y461700D01*
Y626300D02*
Y661700D01*
X465700Y429300D02*
Y460700D01*
Y626300D02*
Y660700D01*
X491100Y428900D02*
Y461100D01*
Y626900D02*
Y661100D01*
D47*
X758750Y945000D02*
X818000D01*
X1471250Y1016000D02*
Y1120000D01*
X1556592Y379658D02*
X1576250Y360000D01*
X702750Y918750D02*
Y976750D01*
X2160000Y970000D02*
X2175000D01*
X2160000D02*
Y985000D01*
X2145000Y970000D02*
X2160000D01*
Y955000D02*
Y970000D01*
X1720000Y1143000D02*
X1740500D01*
X1720000D02*
Y1158500D01*
Y1127500D02*
Y1143000D01*
X1699500D02*
X1720000D01*
X1605000Y326000D02*
Y348750D01*
Y306000D02*
Y326000D01*
X1715750Y244000D02*
Y306000D01*
X1662700Y346000D02*
X1698250Y310450D01*
Y244000D02*
Y310450D01*
X1578750Y25000D02*
Y50000D01*
X775000Y945000D02*
Y962000D01*
X839250D02*
X840000Y961250D01*
X826000Y962000D02*
X839250D01*
X827250Y935750D02*
X840000D01*
X818000Y945000D02*
X827250Y935750D01*
X1894000Y25000D02*
X1900000Y31000D01*
X1858750Y25000D02*
X1894000D01*
X530000Y982000D02*
X535000Y987000D01*
Y1056250D01*
X1038250Y148000D02*
X1045000D01*
X1029750Y156500D02*
X1038250Y148000D01*
X1293000Y74000D02*
X1294000D01*
X1306000Y86000D01*
X1289000Y78000D02*
Y148000D01*
X935000Y138000D02*
X952750Y155750D01*
X935000Y79000D02*
Y138000D01*
Y79000D02*
X938000Y76000D01*
X925000Y162000D02*
X933250Y170250D01*
X1026701Y1006000D02*
X1032300Y1000400D01*
X992000Y1006000D02*
X1026701D01*
X835750Y983000D02*
X840000Y978750D01*
X826000Y983000D02*
X835750D01*
X709000D02*
X714750Y988750D01*
X702750Y976750D02*
X709000Y983000D01*
X854000Y867000D02*
Y915000D01*
X862750Y923750D01*
X869000D01*
X714750Y988750D02*
X720000D01*
X700000Y918750D02*
X702750D01*
X908750Y923750D02*
X909000D01*
X900000Y915000D02*
X908750Y923750D01*
X877750Y915000D02*
X900000D01*
X869000Y923750D02*
X877750Y915000D01*
X385000Y1016250D02*
X393000Y1008250D01*
Y1001000D02*
Y1008250D01*
X49000Y1018000D02*
X49250Y1018250D01*
Y1034000D01*
X1223000Y372000D02*
X1232000Y381000D01*
X1965000Y85000D02*
X1990000Y60000D01*
X1964000Y86000D02*
X1965000Y85000D01*
X1893750D02*
X1965000D01*
X1858750Y50000D02*
X1893750Y85000D01*
X1964000Y86000D02*
Y184000D01*
X589500Y1149000D02*
X595950Y1142550D01*
Y1123000D02*
Y1142550D01*
X608650Y1143150D02*
X614500Y1149000D01*
X608650Y1123000D02*
Y1143150D01*
X638000Y1095000D02*
X662000D01*
X631000Y1102000D02*
X638000Y1095000D01*
X614000Y1102000D02*
X631000D01*
X608650Y1107350D02*
X614000Y1102000D01*
X608650Y1107350D02*
Y1123000D01*
X560000Y1091250D02*
X570000Y1101250D01*
X626000Y1092000D02*
X634050Y1083950D01*
X579250Y1092000D02*
X626000D01*
X570000Y1101250D02*
X579250Y1092000D01*
X591700Y1118750D02*
X595950Y1123000D01*
X570000Y1118750D02*
X591700D01*
X634050Y1067000D02*
Y1083950D01*
X621000Y1004000D02*
X637500D01*
X595950Y1029050D02*
X621000Y1004000D01*
X595950Y1029050D02*
Y1067000D01*
X622000Y1036000D02*
X637500D01*
X608650Y1049350D02*
X622000Y1036000D01*
X608650Y1049350D02*
Y1067000D01*
X740000Y988750D02*
X741250Y989999D01*
Y1015000D01*
X740000Y988750D02*
X760000D01*
X720000D02*
X740000D01*
X560000Y214000D02*
Y291250D01*
Y76000D02*
Y214000D01*
X324000D02*
Y309799D01*
Y76000D02*
Y214000D01*
X150000Y308750D02*
X170000D01*
X143750D02*
X150000D01*
X1293000Y30000D02*
X1294000Y29000D01*
X1293000Y30000D02*
Y74000D01*
X1289000Y78000D02*
X1293000Y74000D01*
X1605000Y306000D02*
Y306000D01*
X1595750Y244000D02*
Y306000D01*
X1698250Y79000D02*
Y144000D01*
X1578000Y79000D02*
X1578250Y79250D01*
Y144000D01*
X1223000Y320000D02*
Y372000D01*
X99000Y190000D02*
Y264000D01*
X143750Y308750D01*
X909000Y214000D02*
Y220250D01*
Y79000D02*
Y214000D01*
X906000Y76000D02*
X909000Y79000D01*
Y220250D02*
X920000Y231250D01*
X714000Y76000D02*
Y309800D01*
X713800Y310000D02*
X714000Y309800D01*
X560000Y291250D02*
X560000Y291250D01*
X540000Y291250D02*
X560000D01*
X323800Y310000D02*
X324000Y309799D01*
X99000Y174550D02*
X99050Y174500D01*
X99000Y174550D02*
Y190000D01*
X952750Y155750D02*
X959000D01*
X999100Y324100D02*
Y394600D01*
X991300Y316300D02*
X999100Y324100D01*
X991300Y261300D02*
Y316300D01*
X1289000Y148000D02*
X1290000Y149000D01*
X1244750Y369750D02*
X1250000D01*
X1231000Y356000D02*
X1244750Y369750D01*
X1231000Y302000D02*
Y356000D01*
X1389000Y302000D02*
Y322000D01*
X1369000Y342000D02*
X1389000Y322000D01*
X1369000Y342000D02*
Y360000D01*
X1354000Y369750D02*
X1359250D01*
X1369000Y360000D01*
X915750Y245000D02*
X919750Y249000D01*
X908000Y245000D02*
X915750D01*
X1017516Y274000D02*
X1026000D01*
X1037000Y263000D01*
Y244500D02*
Y263000D01*
X1593750Y360000D02*
X1605000Y348750D01*
X933250Y170250D02*
Y182000D01*
X935100Y235900D02*
X952516D01*
X932000Y239000D02*
X935100Y235900D01*
X924250Y231250D02*
X932000Y239000D01*
X920000Y231250D02*
X924250D01*
X1181250Y240000D02*
Y265000D01*
X1438750Y205000D02*
Y215250D01*
X1001000Y170000D02*
X1014500Y156500D01*
X389248Y1020498D02*
X416000D01*
X1334000Y369750D02*
Y381000D01*
X1342750Y361000D02*
X1347000D01*
X1841250Y25000D02*
Y50000D01*
X1852000Y12000D02*
X1858750Y18750D01*
Y25000D01*
X1771250D02*
Y50000D01*
X1718750Y25000D02*
Y50000D01*
X1648750Y25000D02*
Y50000D01*
X1508750Y25000D02*
Y50000D01*
X1438750Y25000D02*
Y50000D01*
X1492000Y12000D02*
X1561000D01*
X1428000D02*
X1492000D01*
X1491250Y12750D02*
X1492000Y12000D01*
X1491250Y12750D02*
Y25000D01*
X1561000Y12000D02*
X1631000D01*
X1561000D02*
X1561250Y12250D01*
Y25000D01*
X1631000Y12000D02*
X1631250Y12250D01*
Y25000D01*
X1688250Y12000D02*
X1701250Y25000D01*
X1421250Y18750D02*
X1428000Y12000D01*
X1421250Y18750D02*
Y25000D01*
X2014650Y60000D02*
X2018600Y56050D01*
X958750Y156000D02*
X959000Y155750D01*
X933250Y170000D02*
X970000D01*
X919750Y231000D02*
X920000Y231250D01*
X919750Y249000D02*
X920000Y248750D01*
X991300Y261300D02*
X1017516D01*
X978600Y248600D02*
X991300Y261300D01*
X952516Y248600D02*
X978600D01*
X952516Y235900D02*
Y248600D01*
X1115000Y143000D02*
X1136000Y122000D01*
X1115000Y143000D02*
Y179000D01*
X1110750Y183250D02*
X1115000Y179000D01*
X1045000Y183250D02*
X1110750D01*
X1039000Y116000D02*
X1045000Y110000D01*
X1031000Y116000D02*
X1039000D01*
X1002250Y144750D02*
X1031000Y116000D01*
X1045000Y81000D02*
Y110000D01*
X1028000Y64000D02*
X1045000Y81000D01*
X1028000Y31532D02*
Y64000D01*
X1056000Y75000D02*
Y137500D01*
X1043000Y62000D02*
X1056000Y75000D01*
X1043000Y35000D02*
Y62000D01*
Y35000D02*
X1057000Y21000D01*
X1056000Y137500D02*
X1067500D01*
X1029750D02*
X1056000D01*
X1057000Y21000D02*
X1064000D01*
X1023234Y26766D02*
X1028000Y31532D01*
X1002250Y144750D02*
Y147000D01*
X1014500Y156500D02*
X1029750D01*
X970000Y170000D02*
X1001000D01*
X970000D02*
X970250Y170250D01*
Y182000D01*
X1001000Y170000D02*
X1007250Y176250D01*
Y182000D01*
X950750D02*
Y202000D01*
X970250D01*
X987750Y182000D02*
Y202000D01*
X1007250D01*
X1024750Y182000D02*
Y202000D01*
X1026000Y200750D01*
X1045000D01*
X1067500Y137500D02*
X1093000Y163000D01*
X981968Y134500D02*
X1023234Y93234D01*
X979000Y134500D02*
X981968D01*
X989750Y159500D02*
X1002250Y147000D01*
X979000Y159500D02*
X989750D01*
X962750Y134500D02*
X979000D01*
X959000Y138250D02*
X962750Y134500D01*
X1354000Y369750D02*
Y381000D01*
Y352250D02*
Y354000D01*
X1347000Y361000D02*
X1354000Y354000D01*
X1334000Y369750D02*
X1342750Y361000D01*
X83000Y1084000D02*
X130000D01*
X83000Y1068000D02*
Y1084000D01*
X71750D02*
X83000D01*
X69000Y1054000D02*
X83000Y1068000D01*
X66750Y1054000D02*
X69000D01*
X44250Y1074500D02*
X49250Y1069500D01*
Y1054000D02*
Y1069500D01*
Y1034000D02*
Y1054000D01*
X77000Y148500D02*
X77050Y148550D01*
Y174500D01*
X1471250Y1120000D02*
Y1140000D01*
X990000Y1078750D02*
X1010000D01*
X1030000D01*
X1050000D01*
X1070000D01*
X1090000D01*
X870000D02*
X890000D01*
X910000D01*
X930000D01*
X950000D01*
X970000D01*
X810000D02*
X830000D01*
X850000D01*
X848750Y1080000D02*
X850000Y1078750D01*
X848750Y1080000D02*
Y1105000D01*
Y1125000D01*
Y1145000D01*
X961250Y1105500D02*
X963250D01*
X990000Y1078750D01*
X948750Y1115000D02*
X961250D01*
X938750Y1125000D02*
X948750Y1115000D01*
X939250Y1105500D02*
X961250D01*
X938750Y1105000D02*
X939250Y1105500D01*
X959250Y1124500D02*
X961250D01*
X938750Y1145000D02*
X959250Y1124500D01*
X848750Y1145000D02*
X893000D01*
X961250Y1115000D02*
X970000D01*
X975000Y1120000D01*
Y1133000D01*
X979400Y1137400D01*
Y1184600D01*
X1010000Y1078750D02*
Y1130000D01*
X1002400Y1137600D02*
X1010000Y1130000D01*
X1002400Y1137600D02*
Y1184600D01*
X937000Y1125000D02*
X938750D01*
X930000Y1118000D02*
X937000Y1125000D01*
X930000Y1078750D02*
Y1118000D01*
X921250Y1105000D02*
Y1125000D01*
X988750Y1105500D02*
Y1115000D01*
Y1124500D01*
X938750Y1145000D02*
Y1149750D01*
X956400Y1167400D01*
Y1184600D01*
X931000Y1159000D02*
X938750Y1151250D01*
X907000Y1159000D02*
X931000D01*
X893000Y1145000D02*
X907000Y1159000D01*
X938750Y1149750D02*
Y1151250D01*
X988750Y970000D02*
X1003000D01*
X997000Y950000D02*
X1003000Y956000D01*
X988750Y950000D02*
X997000D01*
X921250Y1125000D02*
Y1145000D01*
X909000D02*
X921250D01*
X991000Y1126750D02*
Y1137000D01*
X988750Y1124500D02*
X991000Y1126750D01*
X493970Y1209969D02*
Y1244200D01*
X460000Y1176000D02*
X493970Y1209969D01*
X460000Y1151750D02*
Y1176000D01*
X471750Y1143500D02*
X480000Y1151750D01*
X410500Y1143500D02*
X471750D01*
X408000Y1146000D02*
X410500Y1143500D01*
X438000Y1222000D02*
X460200Y1244200D01*
X466030D01*
X440000Y1151750D02*
Y1169000D01*
X480000Y1209000D01*
Y1215800D01*
X420000Y1151750D02*
Y1162000D01*
X466000Y1208000D01*
Y1223000D01*
X480000Y1237000D01*
Y1251000D01*
X488000Y1259000D01*
X500000D01*
X508000Y1251000D01*
Y1215860D02*
Y1251000D01*
X507940Y1215800D02*
X508000Y1215860D01*
X408000Y1146000D02*
Y1163000D01*
X438000Y1193000D01*
Y1222000D01*
X345000Y1016250D02*
X353750Y1025000D01*
X376250D01*
X385000Y1033750D01*
X385552Y1033198D02*
X416000D01*
X385000Y1033750D02*
X385552Y1033198D01*
X385000Y1016250D02*
X389248Y1020498D01*
X365000Y1016250D02*
X385000D01*
X484000Y1071298D02*
X512548D01*
X515000Y1073750D01*
X484000Y1058598D02*
X512652D01*
X515000Y1056250D01*
X484000Y1045898D02*
X507852D01*
X515000Y1038750D01*
X484000Y1083998D02*
X524752D01*
X535000Y1073750D01*
X484000Y1020498D02*
X514248D01*
X515000Y1021250D01*
X473198Y1033198D02*
X484000D01*
X458750Y1018750D02*
X473198Y1033198D01*
X458750Y995000D02*
Y1018750D01*
X1668000Y12000D02*
Y57000D01*
X1631000Y12000D02*
X1668000D01*
X1688250D01*
X1788750D02*
Y25000D01*
Y12000D02*
X1852000D01*
X1761000Y77000D02*
X1763000Y79000D01*
X1764000Y12000D02*
X1788750D01*
X1761000Y15000D02*
X1764000Y12000D01*
X1761000Y15000D02*
Y77000D01*
X1990000Y60000D02*
X2014650D01*
X1852000Y220000D02*
X1860000D01*
X1992000D02*
X2000000D01*
X1788750Y50000D02*
X1832000Y93250D01*
Y200000D01*
X1852000Y220000D01*
X1347000Y274000D02*
Y304000D01*
X1321000Y248000D02*
X1347000Y274000D01*
X1321000Y239000D02*
Y248000D01*
X1556592Y379658D02*
Y385450D01*
X1628000Y424000D02*
X1668250D01*
X1668750Y424500D01*
X1664000Y368000D02*
Y379750D01*
X1663750Y380000D02*
X1664000Y379750D01*
X554000Y1118000D02*
X569250D01*
X570000Y1118750D01*
X535000Y1056250D02*
X550250D01*
X560000Y1066000D01*
Y1091250D01*
X889000Y906250D02*
X909000D01*
X869000D02*
X889000D01*
X889000Y895000D02*
Y906250D01*
X889000Y906250D01*
X416000Y1033198D02*
X441250D01*
Y995000D02*
Y1033198D01*
X1384000Y1123000D02*
X1394250D01*
X1397250Y1120000D01*
X1210000Y403000D02*
X1232000Y381000D01*
X1210000Y403000D02*
Y560000D01*
X1499750Y304000D02*
X1499750Y304000D01*
X1472250Y294500D02*
Y304000D01*
X1438750Y272000D02*
Y275000D01*
X1463000Y243750D02*
Y250750D01*
X1438750Y275000D02*
X1463000Y250750D01*
X1473000Y243750D02*
Y293750D01*
X1472250Y294500D02*
X1473000Y293750D01*
X1427000Y227000D02*
X1438750Y215250D01*
X1463000Y239000D02*
Y243750D01*
Y239000D02*
X1470000Y232000D01*
Y227000D02*
Y232000D01*
X1499750Y304000D02*
X1510250D01*
X1519000Y312750D01*
Y295250D02*
X1520750D01*
X1532000Y284000D01*
X1491000Y304000D02*
X1499750D01*
X1491000Y304000D02*
X1491000Y304000D01*
X1519000Y312750D02*
Y327000D01*
X1519000Y327000D02*
X1519000Y327000D01*
X2240000Y-0D02*
Y1320000D01*
X0Y-0D02*
X2240000D01*
X0D02*
Y1320000D01*
X1515000Y1280000D02*
Y1320000D01*
Y1280000D02*
X1925000D01*
Y1320000D01*
X2240000D01*
X0D02*
X1515000D01*
X0Y1320000D02*
X0Y1320000D01*
D48*
X160900Y394600D02*
Y845400D01*
X148200Y407300D02*
Y845400D01*
X135500Y394600D02*
Y845400D01*
Y394600D02*
X160900D01*
X148200Y845400D02*
X160900D01*
X135500D02*
X148200D01*
X135500Y394600D02*
X148200Y407300D01*
D49*
X999100Y394600D02*
Y845400D01*
X1024500Y394600D02*
Y845400D01*
D50*
X1553000Y51000D02*
X1560250D01*
X1561250Y50000D01*
X859000Y978000D02*
Y984000D01*
X869664Y1013000D02*
X870122Y1012542D01*
X859000Y1013000D02*
X869664D01*
X1147000Y63000D02*
X1154000Y56000D01*
X1142000Y60000D02*
X1146000Y56000D01*
X1082000Y39000D02*
X1100000Y57000D01*
X1082000Y45000D02*
X1097000Y60000D01*
X1082000Y51000D02*
X1094000Y63000D01*
X1137000Y57000D02*
X1138000Y56000D01*
X1100000Y57000D02*
X1137000D01*
X1094000Y63000D02*
X1147000D01*
X1097000Y60000D02*
X1142000D01*
X1165000Y114000D02*
Y274000D01*
X1169000Y130000D02*
Y272000D01*
X859542Y962542D02*
X870122D01*
X859000Y962000D02*
X859542Y962542D01*
X862542Y987542D02*
X870122D01*
X859000Y984000D02*
X862542Y987542D01*
X861542Y992542D02*
X870122D01*
X859000Y990000D02*
X861542Y992542D01*
X860542Y997542D02*
X870122D01*
X859000Y996000D02*
X860542Y997542D01*
X859542Y1002542D02*
X870122D01*
X859000Y1002000D02*
X859542Y1002542D01*
X1194000Y293000D02*
Y388000D01*
X1385000Y97000D02*
Y125000D01*
X1370000Y140000D02*
X1385000Y125000D01*
X1370000Y140000D02*
Y160750D01*
X1379000Y97000D02*
Y126000D01*
X1365000Y140000D02*
X1379000Y126000D01*
X1365000Y140000D02*
Y160750D01*
X1373000Y97000D02*
Y127000D01*
X1340000Y94000D02*
X1343000Y91000D01*
X1355000Y140000D02*
X1368000Y127000D01*
Y101000D02*
Y127000D01*
X1360000Y140000D02*
X1373000Y127000D01*
X1360000Y140000D02*
Y160750D01*
X1202000Y296000D02*
Y366000D01*
Y296000D02*
X1213000Y285000D01*
X1231000D01*
X1198000Y294000D02*
Y370000D01*
Y294000D02*
X1212000Y280000D01*
X1231000D01*
X1194000Y293000D02*
X1212000Y275000D01*
X1231000D01*
X1355000Y140000D02*
Y160750D01*
X1340000Y94000D02*
Y160750D01*
X1287000Y57000D02*
Y71889D01*
X1284000Y74889D02*
X1287000Y71889D01*
X1284000Y74889D02*
Y150000D01*
X1285000Y151000D01*
Y160750D01*
X1283000Y61000D02*
Y72000D01*
X1281000Y74000D02*
X1283000Y72000D01*
X1281000Y74000D02*
Y139000D01*
X1280000Y140000D02*
X1281000Y139000D01*
X1280000Y140000D02*
Y160750D01*
X1279000Y65000D02*
Y72000D01*
X1278000Y73000D02*
X1279000Y72000D01*
X1278000Y73000D02*
Y137000D01*
X1275000Y140000D02*
X1278000Y137000D01*
X1275000Y140000D02*
Y160750D01*
X1275000Y69000D02*
Y135000D01*
X1270000Y140000D02*
X1275000Y135000D01*
X1270000Y140000D02*
Y160750D01*
X1367000Y194000D02*
X1374000D01*
X1358000Y203000D02*
X1367000Y194000D01*
X1374000D02*
X1380000Y200000D01*
X1358000Y203000D02*
Y222000D01*
X1380000Y200000D02*
X1389000D01*
X1277000Y230000D02*
X1284000D01*
X1252000Y205000D02*
X1277000Y230000D01*
X1231000Y205000D02*
X1252000D01*
X1284000Y230000D02*
X1288000Y226000D01*
X1219000Y220000D02*
X1231000D01*
X1196000Y197000D02*
X1219000Y220000D01*
X1196000Y134000D02*
Y197000D01*
X1219000Y215000D02*
X1231000D01*
X1200000Y196000D02*
X1219000Y215000D01*
X1200000Y126000D02*
Y196000D01*
X1210000Y142000D02*
Y194000D01*
X1221000Y205000D01*
X1231000D01*
X1401000Y185000D02*
X1404000Y182000D01*
Y139000D02*
Y182000D01*
X1169000Y272000D02*
X1175000Y278000D01*
X1188000D01*
X1190000Y276000D01*
Y257000D02*
Y276000D01*
Y257000D02*
X1192000Y255000D01*
X1231000D01*
X1173000Y282000D02*
X1200000D01*
X1165000Y274000D02*
X1173000Y282000D01*
X1200000D02*
X1212000Y270000D01*
X1401000Y225000D02*
X1404000Y222000D01*
X1389000Y225000D02*
X1401000D01*
X1331000Y270000D02*
X1340000Y279000D01*
Y319000D01*
X1335000Y281000D02*
Y319000D01*
X1316000Y262000D02*
X1335000Y281000D01*
X1316000Y182000D02*
Y262000D01*
X1327000Y247000D02*
X1355000Y275000D01*
X1327000Y178000D02*
Y247000D01*
X1335000Y246889D02*
X1365000Y276889D01*
X1335000Y210000D02*
Y246889D01*
X1389000Y106000D02*
Y180000D01*
X1350000Y193000D02*
Y230000D01*
X1345000Y188000D02*
X1350000Y193000D01*
X1345000Y160750D02*
Y188000D01*
X1365000Y276889D02*
Y319000D01*
X1355000Y275000D02*
Y319000D01*
X1216000Y298000D02*
Y322000D01*
Y298000D02*
X1219000Y295000D01*
X1231000D01*
X1212000Y296000D02*
Y318000D01*
Y296000D02*
X1218000Y290000D01*
X1231000D01*
X1270000Y306000D02*
X1270000Y306000D01*
Y319000D01*
X1265000Y302000D02*
X1265000Y302000D01*
X1265000Y302000D02*
Y319000D01*
X1370000Y298000D02*
X1370000Y298000D01*
X1370000Y298000D02*
Y319000D01*
X1260000Y306000D02*
X1260000Y306000D01*
Y319000D01*
X1255000Y302000D02*
X1255000Y302000D01*
X1255000Y302000D02*
Y319000D01*
X1408000Y110000D02*
X1408000Y110000D01*
Y184000D01*
X1402000Y190000D02*
X1408000Y184000D01*
X1389000Y190000D02*
X1402000D01*
X1335000Y102000D02*
Y160750D01*
X1241000Y98000D02*
Y106111D01*
X1214250Y132861D02*
X1241000Y106111D01*
X1214250Y132861D02*
Y188250D01*
X1221000Y195000D01*
X1231000D01*
X1249000Y98000D02*
Y108000D01*
X1231000Y126000D02*
X1249000Y108000D01*
X1231000Y126000D02*
Y180000D01*
X1295000Y102000D02*
Y160750D01*
X1217000Y134000D02*
X1245000Y106000D01*
X1217000Y134000D02*
Y181000D01*
X1221000Y185000D01*
X1231000D01*
X1312000Y110000D02*
Y146000D01*
X1315000Y149000D01*
Y160750D01*
X1245000Y245000D02*
X1258000Y258000D01*
X1231000Y245000D02*
X1245000D01*
X1242000Y250000D02*
X1258000Y266000D01*
X1231000Y250000D02*
X1242000D01*
X1242000Y260000D02*
X1244000Y262000D01*
X1231000Y260000D02*
X1242000D01*
X1377000Y220000D02*
X1389000D01*
X1367000Y210000D02*
X1377000Y220000D01*
X1367000Y206000D02*
Y210000D01*
X1212000Y270000D02*
X1231000D01*
X1310000Y160750D02*
Y278000D01*
X1371000Y202000D02*
X1379000Y210000D01*
X1389000D01*
X1294000Y224000D02*
Y254000D01*
X1260000Y190000D02*
X1294000Y224000D01*
X1231000Y190000D02*
X1260000D01*
X1416000Y170000D02*
Y183000D01*
X1404000Y195000D02*
X1416000Y183000D01*
X1389000Y195000D02*
X1404000D01*
X1305000Y160750D02*
Y194000D01*
X1320000Y218000D02*
X1320000Y218000D01*
X1320000Y160750D02*
Y218000D01*
X1300000Y118000D02*
Y160750D01*
X1254000Y200000D02*
X1280000Y226000D01*
X1231000Y200000D02*
X1254000D01*
X1377000Y280000D02*
X1389000D01*
X1371000Y274000D02*
X1377000Y280000D01*
X1389000Y185000D02*
X1401000D01*
X1660000Y214000D02*
X1679354D01*
X1680726Y212628D01*
X1559354Y214000D02*
X1560726Y212628D01*
X1540000Y214000D02*
X1559354D01*
X1648000Y220000D02*
X1658000Y210000D01*
X1648000Y220000D02*
Y284000D01*
X1634000Y298000D02*
X1648000Y284000D01*
X1528250Y158000D02*
Y226000D01*
X1231000Y235000D02*
X1243000D01*
X1262000Y254000D01*
Y282000D01*
X1231000Y230000D02*
X1244000D01*
X1266000Y252000D01*
Y290000D01*
X1250000Y150000D02*
Y160750D01*
X1250000Y150000D02*
X1250000Y150000D01*
X1255000Y146000D02*
Y160750D01*
Y146000D02*
X1255000Y146000D01*
X1330000Y319000D02*
Y331000D01*
X1330000Y331000D01*
X1325000Y319000D02*
Y335000D01*
X1325000Y335000D02*
X1325000Y335000D01*
X1320000Y319000D02*
Y339000D01*
X1320000Y339000D01*
X1315000Y319000D02*
Y343000D01*
X1315000Y343000D02*
X1315000Y343000D01*
X1303000Y355000D02*
X1303750Y354250D01*
X1299000Y353000D02*
Y359000D01*
Y353000D02*
X1301000Y351000D01*
X1305000Y319000D02*
Y339000D01*
X1310000Y319000D02*
Y339000D01*
X1303750Y345250D02*
Y354250D01*
Y345250D02*
X1310000Y339000D01*
X1301000Y343000D02*
Y351000D01*
Y343000D02*
X1305000Y339000D01*
X1300000Y319000D02*
Y339000D01*
X1298250Y340750D02*
X1300000Y339000D01*
X1298250Y340750D02*
Y349861D01*
X1295000Y353111D02*
X1298250Y349861D01*
X1295000Y353111D02*
Y363000D01*
X1295000Y319000D02*
Y349222D01*
X1291000Y353222D02*
Y367000D01*
Y353222D02*
X1295000Y349222D01*
X1285000Y319000D02*
X1285000Y319000D01*
Y342000D01*
X1290000Y319000D02*
Y346000D01*
X1319000Y73000D02*
Y87000D01*
X1315000Y77000D02*
Y91000D01*
X1331000Y61000D02*
Y75000D01*
X1323000Y69000D02*
Y83000D01*
X1327000Y65000D02*
Y79000D01*
X1421000Y50250D02*
Y61000D01*
Y50250D02*
X1421250Y50000D01*
X1491000Y50250D02*
Y61000D01*
Y50250D02*
X1491250Y50000D01*
X1302000Y64000D02*
X1315000Y77000D01*
X1306000Y60000D02*
X1319000Y73000D01*
X1310000Y56000D02*
X1323000Y69000D01*
X1314000Y52000D02*
X1327000Y65000D01*
X1318000Y48000D02*
X1331000Y61000D01*
X1623000Y48000D02*
X1629250D01*
X1631250Y50000D01*
X1693000Y44000D02*
X1698000D01*
X1701250Y47250D01*
Y50000D01*
X1784000Y64000D02*
X1812000Y92000D01*
X1790000Y64000D02*
X1816000Y90000D01*
Y278000D01*
X1812000Y92000D02*
Y274000D01*
X1358000Y222000D02*
Y232000D01*
X1354000Y236000D02*
X1358000Y232000D01*
X1354000Y236000D02*
Y242000D01*
X1358000Y246000D01*
Y253000D01*
X1351000Y246000D02*
X1354000Y249000D01*
X1351000Y235000D02*
Y246000D01*
Y235000D02*
X1354000Y232000D01*
Y226000D02*
Y232000D01*
X1339000Y198000D02*
Y227000D01*
X1348000Y236000D01*
Y250000D01*
X1358000Y260000D01*
X1389000D01*
Y265000D02*
X1407000D01*
X1414000Y258000D01*
X1389000Y270000D02*
X1408000D01*
X1416000Y262000D01*
X853000Y956000D02*
X854542Y957542D01*
X870122D01*
X1484000Y301000D02*
Y316000D01*
Y301000D02*
X1486000Y299000D01*
X1355000Y319000D02*
Y332000D01*
X1355000Y332000D02*
X1355000Y332000D01*
X1360000Y319000D02*
Y330000D01*
X1362000Y332000D01*
X1389000Y285000D02*
X1444000D01*
X1468000Y261000D01*
X1477000Y122000D02*
Y217000D01*
X1475000Y219000D02*
X1477000Y217000D01*
X1479000Y222000D02*
Y287000D01*
X1481000Y289000D01*
Y294000D01*
X1483000Y253000D02*
Y285000D01*
X1486000Y288000D01*
Y299000D01*
X1488000Y282750D02*
X1499750Y294500D01*
X1488000Y252000D02*
Y282750D01*
X1483000Y247000D02*
X1488000Y252000D01*
X1483000Y174000D02*
Y247000D01*
X1468000Y241000D02*
Y261000D01*
Y241000D02*
X1475000Y234000D01*
Y219000D02*
Y234000D01*
X1389000Y215000D02*
X1406000D01*
X1423000Y232000D01*
X1389000Y230000D02*
X1416000D01*
X1422000Y236000D01*
X1423000Y232000D02*
X1430000D01*
X1452000Y210000D01*
Y186000D02*
Y210000D01*
X1422000Y236000D02*
X1431000D01*
X1456000Y211000D01*
Y154000D02*
Y211000D01*
X1389000Y240000D02*
X1432000D01*
X1460000Y212000D01*
Y162000D02*
Y212000D01*
X1389000Y245000D02*
X1432000D01*
X1464000Y213000D01*
Y158000D02*
Y213000D01*
X1389000Y250000D02*
X1432000D01*
X1468000Y214000D01*
Y166000D02*
Y214000D01*
X1414000Y258000D02*
X1429000D01*
X1473000Y214000D01*
Y190000D02*
Y214000D01*
X1431000Y262000D02*
X1460000Y233000D01*
X1416000Y262000D02*
X1431000D01*
D51*
X1753875Y281875D02*
X1758000Y277750D01*
X1728500Y118485D02*
X1748985Y98000D01*
X1748395Y102125D02*
X1753875D01*
X1731000Y119520D02*
X1748395Y102125D01*
X1731000Y119520D02*
Y161192D01*
X1738500Y124485D02*
X1748985Y114000D01*
X1738500Y124485D02*
Y164500D01*
X1728500Y118485D02*
Y159727D01*
X1733500Y121484D02*
Y162228D01*
X1722000Y173727D02*
X1733500Y162228D01*
X1722000Y173727D02*
Y177692D01*
X1736000Y122520D02*
Y163465D01*
X1729351Y173649D02*
X1738500Y164500D01*
X1741000Y125520D02*
Y167354D01*
Y125520D02*
X1748520Y118000D01*
X1754000D01*
X1714351Y173876D02*
X1728500Y159727D01*
X1705000Y140000D02*
X1707000Y138000D01*
X1585000Y140000D02*
X1587000Y138000D01*
X1705000Y140000D02*
Y146000D01*
X1585000Y140000D02*
Y146000D01*
Y247000D02*
X1587000Y249000D01*
X1585000Y242520D02*
Y247000D01*
X1705000D02*
X1707000Y249000D01*
X1705000Y242520D02*
Y247000D01*
Y242520D02*
X1707000Y240520D01*
X1699354Y194000D02*
X1703226Y190128D01*
X1664000Y194000D02*
X1699354D01*
X1660000Y198000D02*
X1680354D01*
X1680726Y197628D01*
X1660000Y190000D02*
X1680598D01*
X1680726Y190128D01*
X1664000Y186000D02*
X1678972D01*
X1679225Y186253D01*
X1684351D01*
X1688226Y190128D01*
X1664000Y202000D02*
X1678727D01*
X1679225Y201503D01*
X1684351D01*
X1688226Y197628D01*
X1660000Y206000D02*
X1679854D01*
X1680726Y205128D01*
X1660000Y182000D02*
X1680098D01*
X1680726Y182628D01*
X1660000Y174000D02*
X1679598D01*
X1680726Y175128D01*
X1691851Y186253D02*
X1695726Y190128D01*
X1691851Y181126D02*
Y186253D01*
X1689727Y179003D02*
X1691851Y181126D01*
X1686975Y179003D02*
X1689727D01*
X1684351Y176380D02*
X1686975Y179003D01*
X1684351Y173627D02*
Y176380D01*
X1682225Y171500D02*
X1684351Y173627D01*
X1665500Y171500D02*
X1682225D01*
X1664000Y170000D02*
X1665500Y171500D01*
X1692000Y201354D02*
X1695726Y197628D01*
X1692000Y201354D02*
Y206481D01*
X1689727Y208753D02*
X1692000Y206481D01*
X1686975Y208753D02*
X1689727D01*
X1684351Y211376D02*
X1686975Y208753D01*
X1664000Y218000D02*
X1665375Y216625D01*
X1664000Y210000D02*
X1664997Y209003D01*
X1681977D01*
X1685852Y205128D01*
X1688226D01*
X1664000Y178000D02*
X1665003Y179003D01*
X1682227D01*
X1685852Y182628D01*
X1688226D01*
Y173966D02*
Y175128D01*
X1660000Y166000D02*
X1680260D01*
X1688226Y173966D01*
X1695726Y205128D02*
Y206290D01*
X1692000Y210016D02*
X1695726Y206290D01*
Y181466D02*
Y182628D01*
X1692000Y177740D02*
X1695726Y181466D01*
X1692000Y173000D02*
Y177740D01*
X1681000Y162000D02*
X1692000Y173000D01*
X1664000Y162000D02*
X1681000D01*
X1695726Y173190D02*
Y175128D01*
X1660000Y158000D02*
X1680536D01*
X1695726Y173190D01*
X1665375Y216625D02*
X1681855D01*
X1684351Y214130D01*
Y211376D02*
Y214130D01*
X1660000Y222000D02*
X1680016D01*
X1688226Y213790D01*
Y212628D02*
Y213790D01*
X1664000Y226000D02*
X1680000D01*
X1692000Y214000D01*
Y210016D02*
Y214000D01*
X1695726Y212628D02*
Y213810D01*
X1660000Y230000D02*
X1679535D01*
X1695726Y213810D01*
X1664000Y234000D02*
X1679481D01*
X1699351Y214130D01*
Y209003D02*
Y214130D01*
Y209003D02*
X1703226Y205128D01*
X1664000Y154000D02*
X1680071D01*
X1699351Y173280D01*
Y178753D01*
X1703226Y182628D01*
Y197628D02*
X1707000Y201402D01*
Y240520D01*
Y148000D02*
Y186402D01*
X1705000Y146000D02*
X1707000Y148000D01*
Y186402D02*
X1710726Y190128D01*
Y197628D02*
X1714354Y194000D01*
X1746125Y255605D02*
X1748520Y258000D01*
X1754000D01*
X1748985Y262000D02*
X1750000D01*
X1743625Y256640D02*
X1748985Y262000D01*
X1725726Y197628D02*
X1729351Y201253D01*
X1741125Y258605D02*
X1748520Y266000D01*
X1754000D01*
X1748984Y270000D02*
X1750000D01*
X1738625Y259641D02*
X1748984Y270000D01*
X1733226Y212628D02*
X1736125Y215527D01*
Y261605D01*
X1748395Y273875D01*
X1753875D01*
X1754000Y274000D01*
X1733226Y205128D02*
X1734521D01*
X1738625Y212767D02*
Y259641D01*
X1741125Y211732D02*
Y258605D01*
X1750000Y208000D02*
Y254000D01*
X1734521Y205128D02*
X1741125Y211732D01*
X1734858Y209000D02*
X1738625Y212767D01*
X1748985Y278000D02*
X1750000D01*
X1733625Y262640D02*
X1748985Y278000D01*
X1733625Y218153D02*
Y262640D01*
X1729351Y213880D02*
X1733625Y218153D01*
X1729351Y211126D02*
Y213880D01*
X1727224Y209000D02*
X1729351Y211126D01*
X1724472Y209000D02*
X1727224D01*
X1722000Y206528D02*
X1724472Y209000D01*
X1722000Y201402D02*
Y206528D01*
X1718226Y197628D02*
X1722000Y201402D01*
X1730760Y209000D02*
X1734858D01*
X1726888Y205128D02*
X1730760Y209000D01*
X1725726Y205128D02*
X1726888D01*
X1753875Y281875D02*
X1754000Y282000D01*
X1725726Y213790D02*
X1731125Y219189D01*
X1725726Y212628D02*
Y213790D01*
X1722000Y214028D02*
X1728625Y220653D01*
X1722000Y210064D02*
Y214028D01*
X1718226Y206290D02*
X1722000Y210064D01*
X1718226Y205128D02*
Y206290D01*
X1748000Y290000D02*
X1754000D01*
X1726125Y268125D02*
X1748000Y290000D01*
X1726125Y221689D02*
Y268125D01*
X1718226Y213790D02*
X1726125Y221689D01*
X1718226Y212628D02*
Y213790D01*
X1748464Y294000D02*
X1750000D01*
X1723625Y269160D02*
X1748464Y294000D01*
X1714601Y209003D02*
Y214130D01*
X1710726Y205128D02*
X1714601Y209003D01*
Y214130D02*
X1723625Y223153D01*
Y269160D01*
X1731125Y219189D02*
Y264605D01*
X1748395Y281875D01*
X1753875D01*
X1748985Y286000D02*
X1750000D01*
X1728625Y220653D02*
Y265640D01*
X1748985Y286000D01*
X1725726Y190128D02*
X1729601Y186253D01*
X1748520Y126000D02*
X1754000D01*
X1746000Y128520D02*
X1748520Y126000D01*
X1743500Y127485D02*
X1748984Y122000D01*
X1750000D01*
X1733226Y175128D02*
X1741000Y167354D01*
X1734478Y179003D02*
X1743500Y169981D01*
Y127485D02*
Y169981D01*
X1746000Y128520D02*
Y171016D01*
X1729601Y186253D02*
X1734747D01*
X1750000Y171000D01*
Y130000D02*
Y171000D01*
X1754000Y134000D02*
Y170536D01*
X1734408Y190128D02*
X1754000Y170536D01*
X1733226Y190128D02*
X1734408D01*
X1734388Y182628D02*
X1746000Y171016D01*
X1733226Y182628D02*
X1734388D01*
X1718226Y190128D02*
X1722000Y186354D01*
Y181227D02*
Y186354D01*
Y181227D02*
X1724227Y179000D01*
X1726981D01*
X1729351Y176630D01*
Y173649D02*
Y176630D01*
X1748985Y114000D02*
X1750000D01*
X1730513Y179003D02*
X1734478D01*
X1726888Y182628D02*
X1730513Y179003D01*
X1725726Y182628D02*
X1726888D01*
X1725726Y173738D02*
Y175128D01*
Y173738D02*
X1736000Y163465D01*
Y122520D02*
X1748520Y110000D01*
X1754000D01*
X1748985Y106000D02*
X1750000D01*
X1733500Y121484D02*
X1748985Y106000D01*
X1718226Y181466D02*
X1722000Y177692D01*
X1718226Y181466D02*
Y182628D01*
Y173966D02*
Y175128D01*
Y173966D02*
X1731000Y161192D01*
X1753875Y102125D02*
X1754000Y102000D01*
X1748985Y98000D02*
X1750000D01*
X1714351Y173876D02*
Y179003D01*
X1710726Y182628D02*
X1714351Y179003D01*
X1590726Y182628D02*
X1594351Y179003D01*
Y173876D02*
Y179003D01*
Y173876D02*
X1608500Y159727D01*
Y118485D02*
Y159727D01*
Y118485D02*
X1628984Y98000D01*
X1630000D01*
X1633875Y102125D02*
X1634000Y102000D01*
X1628395Y102125D02*
X1633875D01*
X1611000Y119520D02*
X1628395Y102125D01*
X1611000Y119520D02*
Y161192D01*
X1598226Y173966D02*
X1611000Y161192D01*
X1598226Y173966D02*
Y175128D01*
X1613500Y121484D02*
Y162228D01*
X1602000Y173727D02*
X1613500Y162228D01*
X1598226Y181466D02*
Y182628D01*
Y181466D02*
X1602000Y177692D01*
Y173727D02*
Y177692D01*
X1613500Y121484D02*
X1628984Y106000D01*
X1630000D01*
X1628520Y110000D02*
X1634000D01*
X1616000Y122520D02*
X1628520Y110000D01*
X1616000Y122520D02*
Y163465D01*
X1605726Y173738D02*
X1616000Y163465D01*
X1605726Y173738D02*
Y175128D01*
Y182628D02*
X1606888D01*
X1610513Y179003D01*
X1614477D01*
X1628984Y114000D02*
X1630000D01*
X1618500Y124485D02*
X1628984Y114000D01*
X1618500Y124485D02*
Y164500D01*
X1609351Y173649D02*
X1618500Y164500D01*
X1609351Y173649D02*
Y176630D01*
X1606980Y179000D02*
X1609351Y176630D01*
X1604227Y179000D02*
X1606980D01*
X1602000Y181227D02*
X1604227Y179000D01*
X1602000Y181227D02*
Y186354D01*
X1598226Y190128D02*
X1602000Y186354D01*
X1613226Y182628D02*
X1614388D01*
X1626000Y171016D01*
X1613226Y190128D02*
X1614408D01*
X1634000Y170536D01*
Y134000D02*
Y170536D01*
X1630000Y130000D02*
Y171000D01*
X1614747Y186253D02*
X1630000Y171000D01*
X1609601Y186253D02*
X1614747D01*
X1626000Y128520D02*
Y171016D01*
X1623500Y127485D02*
Y169981D01*
X1614477Y179003D02*
X1623500Y169981D01*
X1628520Y118000D02*
X1634000D01*
X1621000Y125520D02*
X1628520Y118000D01*
X1621000Y125520D02*
Y167354D01*
X1613226Y175128D02*
X1621000Y167354D01*
X1628984Y122000D02*
X1630000D01*
X1623500Y127485D02*
X1628984Y122000D01*
X1626000Y128520D02*
X1628520Y126000D01*
X1634000D01*
X1605726Y190128D02*
X1609601Y186253D01*
X1608625Y265640D02*
X1628984Y286000D01*
X1608625Y220653D02*
Y265640D01*
X1628984Y286000D02*
X1630000D01*
X1628395Y281875D02*
X1633875D01*
X1611125Y264605D02*
X1628395Y281875D01*
X1611125Y219189D02*
Y264605D01*
X1603625Y223153D02*
Y269160D01*
X1594601Y214130D02*
X1603625Y223153D01*
X1590726Y205128D02*
X1594601Y209003D01*
Y214130D01*
X1603625Y269160D02*
X1628464Y294000D01*
X1630000D01*
X1598226Y212628D02*
Y213790D01*
X1606125Y221689D01*
Y268125D01*
X1628000Y290000D01*
X1634000D01*
X1598226Y205128D02*
Y206290D01*
X1602000Y210064D01*
Y214028D01*
X1608625Y220653D01*
X1605726Y212628D02*
Y213790D01*
X1611125Y219189D01*
X1633875Y281875D02*
X1634000Y282000D01*
X1605726Y205128D02*
X1606888D01*
X1610760Y209000D01*
X1614858D01*
X1598226Y197628D02*
X1602000Y201402D01*
Y206528D01*
X1604471Y209000D01*
X1607225D01*
X1609351Y211126D01*
Y213880D01*
X1613625Y218153D01*
Y262640D01*
X1628984Y278000D01*
X1630000D01*
X1614858Y209000D02*
X1618625Y212767D01*
X1614521Y205128D02*
X1621125Y211732D01*
X1618625Y212767D02*
Y259641D01*
X1613226Y205128D02*
X1614521D01*
X1633875Y273875D02*
X1634000Y274000D01*
X1628395Y273875D02*
X1633875D01*
X1616125Y261605D02*
X1628395Y273875D01*
X1616125Y215527D02*
Y261605D01*
X1613226Y212628D02*
X1616125Y215527D01*
X1618625Y259641D02*
X1628984Y270000D01*
X1630000D01*
X1628520Y266000D02*
X1634000D01*
X1621125Y258605D02*
X1628520Y266000D01*
X1605726Y197628D02*
X1609351Y201253D01*
X1628984Y262000D02*
X1630000D01*
X1628520Y258000D02*
X1634000D01*
X1626125Y255605D02*
X1628520Y258000D01*
X1590726Y197628D02*
X1594354Y194000D01*
X1587000Y186402D02*
X1590726Y190128D01*
X1585000Y146000D02*
X1587000Y148000D01*
Y186402D01*
X1585000Y242520D02*
X1587000Y240520D01*
Y201402D02*
Y240520D01*
X1583226Y197628D02*
X1587000Y201402D01*
X1579351Y178753D02*
X1583226Y182628D01*
X1579351Y173280D02*
Y178753D01*
X1560071Y154000D02*
X1579351Y173280D01*
X1544000Y154000D02*
X1560071D01*
X1579351Y209003D02*
X1583226Y205128D01*
X1579351Y209003D02*
Y214130D01*
X1559481Y234000D02*
X1579351Y214130D01*
X1544000Y234000D02*
X1559481D01*
X1559536Y230000D02*
X1575726Y213810D01*
X1540000Y230000D02*
X1559536D01*
X1575726Y212628D02*
Y213810D01*
X1572000Y210016D02*
Y214000D01*
X1560000Y226000D02*
X1572000Y214000D01*
X1544000Y226000D02*
X1560000D01*
X1568226Y212628D02*
Y213790D01*
X1560016Y222000D02*
X1568226Y213790D01*
X1540000Y222000D02*
X1560016D01*
X1564351Y211376D02*
Y214130D01*
X1561856Y216625D02*
X1564351Y214130D01*
X1545375Y216625D02*
X1561856D01*
X1560535Y158000D02*
X1575726Y173190D01*
X1540000Y158000D02*
X1560535D01*
X1575726Y173190D02*
Y175128D01*
X1544000Y162000D02*
X1561000D01*
X1572000Y173000D01*
Y177740D01*
X1575726Y181466D01*
Y182628D01*
X1572000Y210016D02*
X1575726Y206290D01*
Y205128D02*
Y206290D01*
X1560260Y166000D02*
X1568226Y173966D01*
X1540000Y166000D02*
X1560260D01*
X1568226Y173966D02*
Y175128D01*
X1565853Y182628D02*
X1568226D01*
X1562228Y179003D02*
X1565853Y182628D01*
X1545003Y179003D02*
X1562228D01*
X1544000Y178000D02*
X1545003Y179003D01*
X1565853Y205128D02*
X1568226D01*
X1561978Y209003D02*
X1565853Y205128D01*
X1544997Y209003D02*
X1561978D01*
X1544000Y210000D02*
X1544997Y209003D01*
X1544000Y218000D02*
X1545375Y216625D01*
X1564351Y211376D02*
X1566974Y208753D01*
X1569728D01*
X1572000Y206481D01*
Y201354D02*
Y206481D01*
Y201354D02*
X1575726Y197628D01*
X1544000Y170000D02*
X1545500Y171500D01*
X1562224D01*
X1564351Y173627D01*
Y176380D01*
X1566974Y179003D01*
X1569728D01*
X1571851Y181126D01*
Y186253D01*
X1575726Y190128D01*
X1559598Y174000D02*
X1560726Y175128D01*
X1560098Y182000D02*
X1560726Y182628D01*
X1540000Y182000D02*
X1560098D01*
X1559854Y206000D02*
X1560726Y205128D01*
X1540000Y206000D02*
X1559854D01*
X1564351Y201503D02*
X1568226Y197628D01*
X1559224Y201503D02*
X1564351D01*
X1558727Y202000D02*
X1559224Y201503D01*
X1544000Y202000D02*
X1558727D01*
X1564351Y186253D02*
X1568226Y190128D01*
X1559224Y186253D02*
X1564351D01*
X1558971Y186000D02*
X1559224Y186253D01*
X1544000Y186000D02*
X1558971D01*
X1560598Y190000D02*
X1560726Y190128D01*
X1540000Y190000D02*
X1560598D01*
X1560354Y198000D02*
X1560726Y197628D01*
X1540000Y198000D02*
X1560354D01*
X1544000Y194000D02*
X1579354D01*
X1583226Y190128D01*
X1621125Y211732D02*
Y258605D01*
X1609351Y201253D02*
X1614503D01*
X1623625Y210375D01*
Y256640D01*
X1628984Y262000D01*
X1613226Y197628D02*
X1614628D01*
X1626125Y209125D01*
Y255605D01*
X1594354Y194000D02*
X1615000D01*
X1630000Y209000D01*
Y254000D01*
X1746125Y208125D02*
Y255605D01*
X1743625Y209625D02*
Y256640D01*
X1735253Y201253D02*
X1743625Y209625D01*
X1729351Y201253D02*
X1735253D01*
X1735628Y197628D02*
X1746125Y208125D01*
X1733226Y197628D02*
X1735628D01*
X1714354Y194000D02*
X1736000D01*
X1750000Y208000D01*
X1658000Y210000D02*
X1664000D01*
X1754000Y110000D02*
X1758000Y114000D01*
Y277750D01*
X1750000Y286000D02*
X1755480D01*
X1760500Y280980D01*
Y110500D02*
Y280980D01*
X1756000Y106000D02*
X1760500Y110500D01*
X1750000Y106000D02*
X1756000D01*
X1754000Y102000D02*
X1755536D01*
X1763000Y109465D01*
Y282016D01*
X1755016Y290000D02*
X1763000Y282016D01*
X1754000Y290000D02*
X1755016D01*
X1750000Y294000D02*
X1756000D01*
X1765500Y284500D01*
Y108020D02*
Y284500D01*
X1755480Y98000D02*
X1765500Y108020D01*
X1750000Y98000D02*
X1755480D01*
X1538000Y162000D02*
X1544000D01*
X1538000Y234000D02*
X1544000D01*
X1531000Y161520D02*
X1538520Y154000D01*
X1544000D01*
X1540000Y174000D02*
X1559598D01*
X1536000Y170000D02*
X1540000Y166000D01*
X1533500Y166500D02*
X1538000Y162000D01*
X1535000Y225000D02*
X1540000Y230000D01*
X1532500Y228500D02*
X1538000Y234000D01*
X1531000Y161520D02*
Y220000D01*
X1532500Y221500D01*
Y228500D01*
X1533500Y166500D02*
Y218964D01*
X1535000Y220464D01*
X1536000Y170000D02*
Y217929D01*
X1540000Y221929D02*
Y222000D01*
X1536000Y217929D02*
X1540000Y221929D01*
X1535000Y220464D02*
Y225000D01*
X1231000Y225000D02*
X1245000D01*
X1270000Y250000D01*
Y286000D01*
D52*
X135500Y794600D02*
D03*
Y845400D02*
D03*
X160900Y794600D02*
D03*
Y845400D02*
D03*
X186300Y794600D02*
D03*
Y845400D02*
D03*
X211700Y794600D02*
D03*
Y845400D02*
D03*
X237100Y794600D02*
D03*
Y845400D02*
D03*
X262500Y794600D02*
D03*
Y845400D02*
D03*
X287900Y794600D02*
D03*
Y845400D02*
D03*
X313300Y794600D02*
D03*
Y845400D02*
D03*
X338700Y794600D02*
D03*
Y845400D02*
D03*
X364100Y794600D02*
D03*
Y845400D02*
D03*
X389500Y794600D02*
D03*
Y845400D02*
D03*
X414900Y794600D02*
D03*
Y845400D02*
D03*
X440300Y794600D02*
D03*
Y845400D02*
D03*
X465700Y794600D02*
D03*
Y845400D02*
D03*
X491100Y794600D02*
D03*
Y845400D02*
D03*
X516500Y794600D02*
D03*
Y845400D02*
D03*
X541900Y794600D02*
D03*
Y845400D02*
D03*
X567300Y794600D02*
D03*
Y845400D02*
D03*
X592700Y794600D02*
D03*
Y845400D02*
D03*
X618100Y794600D02*
D03*
Y845400D02*
D03*
X643500Y794600D02*
D03*
Y845400D02*
D03*
X668900Y794600D02*
D03*
Y845400D02*
D03*
X694300Y794600D02*
D03*
Y845400D02*
D03*
X719700Y794600D02*
D03*
Y845400D02*
D03*
X745100Y794600D02*
D03*
Y845400D02*
D03*
X770500Y794600D02*
D03*
Y845400D02*
D03*
X795900Y794600D02*
D03*
Y845400D02*
D03*
X821300Y794600D02*
D03*
Y845400D02*
D03*
X846700Y794600D02*
D03*
Y845400D02*
D03*
X872100Y794600D02*
D03*
Y845400D02*
D03*
X897500Y794600D02*
D03*
Y845400D02*
D03*
X922900Y794600D02*
D03*
Y845400D02*
D03*
X948300Y794600D02*
D03*
Y845400D02*
D03*
X973700Y794600D02*
D03*
Y845400D02*
D03*
X999100Y794600D02*
D03*
Y845400D02*
D03*
X1024500Y794600D02*
D03*
X979400Y1184600D02*
D03*
X1002400D02*
D03*
X1025400D02*
D03*
X1048400D02*
D03*
X1037000Y1210000D02*
D03*
X1013999D02*
D03*
X991000D02*
D03*
X968000D02*
D03*
X945000D02*
D03*
X1048400Y1235400D02*
D03*
X1025400D02*
D03*
X1002400D02*
D03*
X979400D02*
D03*
X956400D02*
D03*
X135500Y394600D02*
D03*
Y445400D02*
D03*
X160900Y394600D02*
D03*
Y445400D02*
D03*
X186300Y394600D02*
D03*
Y445400D02*
D03*
X211700Y394600D02*
D03*
Y445400D02*
D03*
X237100Y394600D02*
D03*
Y445400D02*
D03*
X262500Y394600D02*
D03*
Y445400D02*
D03*
X287900Y394600D02*
D03*
Y445400D02*
D03*
X313300Y394600D02*
D03*
Y445400D02*
D03*
X338700Y394600D02*
D03*
Y445400D02*
D03*
X364100Y394600D02*
D03*
Y445400D02*
D03*
X389500Y394600D02*
D03*
Y445400D02*
D03*
X414900Y394600D02*
D03*
Y445400D02*
D03*
X440300Y394600D02*
D03*
Y445400D02*
D03*
X465700Y394600D02*
D03*
Y445400D02*
D03*
X491100Y394600D02*
D03*
Y445400D02*
D03*
X516500Y394600D02*
D03*
Y445400D02*
D03*
X541900Y394600D02*
D03*
Y445400D02*
D03*
X567300Y394600D02*
D03*
Y445400D02*
D03*
X592700Y394600D02*
D03*
Y445400D02*
D03*
X618100Y394600D02*
D03*
Y445400D02*
D03*
X643500Y394600D02*
D03*
Y445400D02*
D03*
X668900Y394600D02*
D03*
Y445400D02*
D03*
X694300Y394600D02*
D03*
Y445400D02*
D03*
X719700Y394600D02*
D03*
Y445400D02*
D03*
X745100Y394600D02*
D03*
Y445400D02*
D03*
X770500Y394600D02*
D03*
Y445400D02*
D03*
X795900Y394600D02*
D03*
Y445400D02*
D03*
X821300Y394600D02*
D03*
Y445400D02*
D03*
X846700Y394600D02*
D03*
Y445400D02*
D03*
X872100Y394600D02*
D03*
Y445400D02*
D03*
X897500Y394600D02*
D03*
Y445400D02*
D03*
X922900Y394600D02*
D03*
Y445400D02*
D03*
X948300Y394600D02*
D03*
Y445400D02*
D03*
X973700Y394600D02*
D03*
Y445400D02*
D03*
X999100Y394600D02*
D03*
Y445400D02*
D03*
X1024500Y394600D02*
D03*
X135500Y594600D02*
D03*
Y645400D02*
D03*
X160900Y594600D02*
D03*
Y645400D02*
D03*
X186300Y594600D02*
D03*
Y645400D02*
D03*
X211700Y594600D02*
D03*
Y645400D02*
D03*
X237100Y594600D02*
D03*
Y645400D02*
D03*
X262500Y594600D02*
D03*
Y645400D02*
D03*
X287900Y594600D02*
D03*
Y645400D02*
D03*
X313300Y594600D02*
D03*
Y645400D02*
D03*
X338700Y594600D02*
D03*
Y645400D02*
D03*
X364100Y594600D02*
D03*
Y645400D02*
D03*
X389500Y594600D02*
D03*
Y645400D02*
D03*
X414900Y594600D02*
D03*
Y645400D02*
D03*
X440300Y594600D02*
D03*
Y645400D02*
D03*
X465700Y594600D02*
D03*
Y645400D02*
D03*
X491100Y594600D02*
D03*
Y645400D02*
D03*
X516500Y594600D02*
D03*
Y645400D02*
D03*
X541900Y594600D02*
D03*
Y645400D02*
D03*
X567300Y594600D02*
D03*
Y645400D02*
D03*
X592700Y594600D02*
D03*
Y645400D02*
D03*
X618100Y594600D02*
D03*
Y645400D02*
D03*
X643500Y594600D02*
D03*
Y645400D02*
D03*
X668900Y594600D02*
D03*
Y645400D02*
D03*
X694300Y594600D02*
D03*
Y645400D02*
D03*
X719700Y594600D02*
D03*
Y645400D02*
D03*
X745100Y594600D02*
D03*
Y645400D02*
D03*
X770500Y594600D02*
D03*
Y645400D02*
D03*
X795900Y594600D02*
D03*
Y645400D02*
D03*
X821300Y594600D02*
D03*
Y645400D02*
D03*
X846700Y594600D02*
D03*
Y645400D02*
D03*
X872100Y594600D02*
D03*
Y645400D02*
D03*
X897500Y594600D02*
D03*
Y645400D02*
D03*
X922900Y594600D02*
D03*
Y645400D02*
D03*
X948300Y594600D02*
D03*
Y645400D02*
D03*
X973700Y594600D02*
D03*
Y645400D02*
D03*
X999100Y594600D02*
D03*
Y645400D02*
D03*
X1024500Y594600D02*
D03*
D53*
Y845400D02*
D03*
X956400Y1184600D02*
D03*
X1024500Y445400D02*
D03*
Y645400D02*
D03*
D54*
X1432000Y1250000D02*
D03*
D55*
X1385000Y1220000D02*
D03*
D56*
X1432000Y1188000D02*
D03*
D57*
X1720000Y1143000D02*
D03*
X1789000D02*
D03*
X1651000D02*
D03*
D58*
X30000Y1190000D02*
D03*
Y1145000D02*
D03*
X424120Y1215800D02*
D03*
X452060D02*
D03*
X480000D02*
D03*
X507940D02*
D03*
D59*
X55000Y1202500D02*
D03*
Y1132500D02*
D03*
D60*
X2126990Y1110900D02*
D03*
X2080000D02*
D03*
X2033010D02*
D03*
X2126990Y1149000D02*
D03*
X2080000D02*
D03*
X2033010D02*
D03*
X2054600Y1276000D02*
D03*
X2105400D02*
D03*
D61*
X2160000Y970000D02*
D03*
D62*
X1960000D02*
D03*
X1760000D02*
D03*
X1845000Y350000D02*
D03*
X1902500D02*
D03*
X1960000D02*
D03*
X2017500D02*
D03*
X2075000D02*
D03*
X1856000Y181000D02*
D03*
X1338000Y404000D02*
D03*
X843000Y20500D02*
D03*
X1181250Y29000D02*
D03*
X1793000Y306000D02*
D03*
D63*
X605000Y1229700D02*
D03*
X355000D02*
D03*
D64*
X438090Y1244200D02*
D03*
X466030D02*
D03*
X493970D02*
D03*
X521910D02*
D03*
D65*
X535880Y1215800D02*
D03*
D66*
X875000Y1210000D02*
D03*
X1125000D02*
D03*
D67*
X740000Y1280000D02*
D03*
D68*
X672500Y1272000D02*
D03*
X807500D02*
D03*
D69*
X727000Y1242000D02*
D03*
X753000D02*
D03*
X706000D02*
D03*
X773999D02*
D03*
X706000Y1217000D02*
D03*
X773999D02*
D03*
D70*
X1746600Y1068000D02*
D03*
X1797400D02*
D03*
D71*
X1920000Y1205000D02*
D03*
Y1055000D02*
D03*
D72*
X1384600Y1068600D02*
D03*
D73*
X1359200Y611400D02*
D03*
X1435400Y1068600D02*
D03*
X1537000D02*
D03*
X1257600Y611400D02*
D03*
X1460800D02*
D03*
X1562400D02*
D03*
D74*
X718000Y1095000D02*
D03*
D75*
X662000D02*
D03*
D76*
X956900Y900000D02*
D03*
X982300D02*
D03*
X1007700D02*
D03*
X1990000Y34600D02*
D03*
X1964600Y60000D02*
D03*
Y34600D02*
D03*
X1939200Y60000D02*
D03*
Y34600D02*
D03*
X1662700Y346000D02*
D03*
X1637300D02*
D03*
X1057700Y1000400D02*
D03*
X1032300Y975000D02*
D03*
X1057700D02*
D03*
X1032300Y949600D02*
D03*
X1057700D02*
D03*
D77*
X1033100Y900000D02*
D03*
X1990000Y60000D02*
D03*
D78*
X1200000Y1270000D02*
D03*
X1100000Y550000D02*
D03*
Y750000D02*
D03*
X50000Y1270000D02*
D03*
X2190000D02*
D03*
Y50000D02*
D03*
X50000D02*
D03*
Y690000D02*
D03*
Y490000D02*
D03*
D79*
X1032300Y1000400D02*
D03*
D80*
X1605000Y326000D02*
D03*
X1369000Y342000D02*
D03*
X775000Y962000D02*
D03*
X826000D02*
D03*
X1045000Y148000D02*
D03*
X709000Y983000D02*
D03*
X826000D02*
D03*
X1519000Y327000D02*
D03*
X1223000Y320000D02*
D03*
X906000Y76000D02*
D03*
X714000D02*
D03*
X560000D02*
D03*
X324000D02*
D03*
X99000Y190000D02*
D03*
X938000Y76000D02*
D03*
X1347000Y304000D02*
D03*
X1243000Y320000D02*
D03*
X1463000Y243750D02*
D03*
X739000Y245000D02*
D03*
X1037000Y244500D02*
D03*
X908000Y245000D02*
D03*
X932000Y239000D02*
D03*
X1470000Y227000D02*
D03*
X1492000Y244000D02*
D03*
X1427000Y227000D02*
D03*
X1369000Y226000D02*
D03*
X1334000Y381000D02*
D03*
X1232000D02*
D03*
X1321000Y239000D02*
D03*
X1628000Y424000D02*
D03*
X1664000Y368000D02*
D03*
X1564000Y372000D02*
D03*
X1225000Y1123000D02*
D03*
X1218000Y1130000D02*
D03*
X1452000Y1144000D02*
D03*
X397000Y1083000D02*
D03*
Y1072000D02*
D03*
X1278000Y304000D02*
D03*
X1384000Y1123000D02*
D03*
X1210000Y560000D02*
D03*
X1473000Y243750D02*
D03*
X1491000Y304000D02*
D03*
D81*
X1695875Y327875D02*
D03*
X1666000Y328000D02*
D03*
X775000Y945000D02*
D03*
X530000Y938000D02*
D03*
X1306000Y86000D02*
D03*
X1900000Y31000D02*
D03*
X530000Y982000D02*
D03*
X1471000Y1016000D02*
D03*
X992000Y1006000D02*
D03*
X854000Y867000D02*
D03*
X780000D02*
D03*
X393000Y1001000D02*
D03*
X49000Y1018000D02*
D03*
X174000Y988000D02*
D03*
X634050Y1083950D02*
D03*
X1492000Y229000D02*
D03*
X1354000Y381000D02*
D03*
X1003000Y970000D02*
D03*
Y956000D02*
D03*
X991000Y1137000D02*
D03*
X909000Y1145000D02*
D03*
X916000Y1210000D02*
D03*
X1668000Y57000D02*
D03*
X1793000Y109000D02*
D03*
X554000Y1118000D02*
D03*
X550250Y1056250D02*
D03*
X1109000Y1123000D02*
D03*
X475250Y918750D02*
D03*
X818000Y945000D02*
D03*
X889000Y895000D02*
D03*
X905122Y985042D02*
D03*
X441250Y1033198D02*
D03*
X1492000Y79000D02*
D03*
X1438750D02*
D03*
X1578000D02*
D03*
X1698250D02*
D03*
X1424750Y1138750D02*
D03*
D82*
X1638000Y239000D02*
D03*
Y144000D02*
D03*
X1570000Y239000D02*
D03*
X1690000D02*
D03*
X1723000Y144000D02*
D03*
X1603000D02*
D03*
X1254000Y75500D02*
D03*
X1250000Y142000D02*
D03*
X1600000Y387000D02*
D03*
X1553000Y51000D02*
D03*
X758000Y886000D02*
D03*
X727000D02*
D03*
X696000Y929000D02*
D03*
X688000D02*
D03*
X137000Y862000D02*
D03*
X859000Y1013000D02*
D03*
X694000D02*
D03*
X664000Y929000D02*
D03*
X1046000Y863000D02*
D03*
X1051000Y850000D02*
D03*
X509000Y877000D02*
D03*
X1225000Y426000D02*
D03*
X1682000Y430000D02*
D03*
X1220000Y421000D02*
D03*
X1145000Y150000D02*
D03*
X1150000Y146000D02*
D03*
X1155000Y374000D02*
D03*
X1162000Y56000D02*
D03*
X1056000Y346000D02*
D03*
X386364Y979000D02*
D03*
X375000Y984000D02*
D03*
X383000Y988728D02*
D03*
X775000Y975000D02*
D03*
X735000Y956000D02*
D03*
X750000Y971250D02*
D03*
X853000Y956000D02*
D03*
X859000Y962000D02*
D03*
Y1002000D02*
D03*
Y996000D02*
D03*
Y990000D02*
D03*
Y978000D02*
D03*
X1548000Y371000D02*
D03*
X707000Y886000D02*
D03*
X672000Y929000D02*
D03*
X682000Y886000D02*
D03*
X121000Y196000D02*
D03*
X206000D02*
D03*
X221000Y70000D02*
D03*
X250000Y262000D02*
D03*
X66000D02*
D03*
X299000Y254000D02*
D03*
X88000D02*
D03*
X374000Y249000D02*
D03*
X110000D02*
D03*
X250000Y110000D02*
D03*
X560000Y214000D02*
D03*
X324000D02*
D03*
X299000Y98000D02*
D03*
X374000Y102000D02*
D03*
X399000Y58000D02*
D03*
X640000Y110000D02*
D03*
X689000Y98000D02*
D03*
X788800Y38000D02*
D03*
X764000Y102000D02*
D03*
X569000Y87000D02*
D03*
X163000Y94000D02*
D03*
Y46000D02*
D03*
X528000Y83000D02*
D03*
X168000Y90000D02*
D03*
Y42000D02*
D03*
X540000Y327000D02*
D03*
X560000Y323000D02*
D03*
X609000Y327000D02*
D03*
X598000Y323000D02*
D03*
X211000Y66000D02*
D03*
X216000Y62000D02*
D03*
X219000Y297000D02*
D03*
X208000Y297000D02*
D03*
X170000Y282000D02*
D03*
X150000D02*
D03*
X1082000Y39000D02*
D03*
X1138000Y56000D02*
D03*
X1082000Y45000D02*
D03*
X1146000Y56000D02*
D03*
X1318000Y48000D02*
D03*
X1314000Y52000D02*
D03*
X1331000Y75000D02*
D03*
X1385000Y97000D02*
D03*
X1327000Y79000D02*
D03*
X1379000Y97000D02*
D03*
X1310000Y56000D02*
D03*
X1323000Y83000D02*
D03*
X1373000Y97000D02*
D03*
X1154000Y56000D02*
D03*
X1082000Y51000D02*
D03*
X1202000Y366000D02*
D03*
X1198000Y370000D02*
D03*
X1194000Y388000D02*
D03*
X1170000Y56000D02*
D03*
X1306000Y60000D02*
D03*
X1319000Y87000D02*
D03*
X1368000Y101000D02*
D03*
X1302000Y64000D02*
D03*
X1315000Y91000D02*
D03*
X1343000D02*
D03*
X1287000Y57000D02*
D03*
X1283000Y61000D02*
D03*
X1279000Y65000D02*
D03*
X1275000Y69000D02*
D03*
X909000Y214000D02*
D03*
X1358000Y239000D02*
D03*
X1208000D02*
D03*
X1354000Y249000D02*
D03*
Y226000D02*
D03*
X1288000D02*
D03*
X308000Y142000D02*
D03*
X1046000Y342000D02*
D03*
X915000Y110000D02*
D03*
X902000Y98000D02*
D03*
X897000Y102000D02*
D03*
X1173000Y244000D02*
D03*
X1270000D02*
D03*
X1373000D02*
D03*
X1439000Y149000D02*
D03*
X773000Y270000D02*
D03*
X752000Y82000D02*
D03*
X747000Y182000D02*
D03*
X730000Y230000D02*
D03*
X725000Y174000D02*
D03*
X283000Y126000D02*
D03*
X313000Y118000D02*
D03*
X334000Y218000D02*
D03*
X339000Y194000D02*
D03*
X359000Y170000D02*
D03*
X364000Y254000D02*
D03*
X384000Y202000D02*
D03*
X408000Y293500D02*
D03*
X413000Y186000D02*
D03*
X584000Y302000D02*
D03*
X589000Y306000D02*
D03*
X649000Y298000D02*
D03*
X654000Y310000D02*
D03*
X674000Y210000D02*
D03*
X679000Y314000D02*
D03*
X700000Y318000D02*
D03*
X705000Y178000D02*
D03*
X720000Y322000D02*
D03*
X1593750Y438000D02*
D03*
X1331000Y270000D02*
D03*
X1389000Y106000D02*
D03*
X1316000Y182000D02*
D03*
X1350000Y230000D02*
D03*
X1216000Y322000D02*
D03*
X1327000Y178000D02*
D03*
X1212000Y318000D02*
D03*
X1270000Y306000D02*
D03*
X1335000Y210000D02*
D03*
X1265000Y302000D02*
D03*
X1370000Y298000D02*
D03*
X1260000Y306000D02*
D03*
X1255000Y302000D02*
D03*
X1408000Y110000D02*
D03*
X1335000Y102000D02*
D03*
X1241000Y98000D02*
D03*
X1249000D02*
D03*
X1295000Y102000D02*
D03*
X1245000Y106000D02*
D03*
X1312000Y110000D02*
D03*
X1460000Y233000D02*
D03*
X1258000Y266000D02*
D03*
X1473000Y190000D02*
D03*
X1169000Y130000D02*
D03*
X1339000Y198000D02*
D03*
X1244000Y262000D02*
D03*
X1367000Y206000D02*
D03*
X1165000Y114000D02*
D03*
X1452000Y186000D02*
D03*
X1310000Y278000D02*
D03*
X1371000Y202000D02*
D03*
X1294000Y254000D02*
D03*
X1416000Y170000D02*
D03*
X1305000Y194000D02*
D03*
X1320000Y218000D02*
D03*
X1300000Y118000D02*
D03*
X1210000Y142000D02*
D03*
X1280000Y226000D02*
D03*
X288000Y122000D02*
D03*
X1477000D02*
D03*
X1200000Y126000D02*
D03*
X263000Y266000D02*
D03*
X1371000Y274000D02*
D03*
X258000Y134000D02*
D03*
X1196000D02*
D03*
X241000Y138000D02*
D03*
X1404000D02*
D03*
X1258000Y258000D02*
D03*
X1664000Y234000D02*
D03*
X1660000Y230000D02*
D03*
X1664000Y194000D02*
D03*
X1660000Y198000D02*
D03*
Y190000D02*
D03*
X1664000Y202000D02*
D03*
X1660000Y206000D02*
D03*
X1634000Y298000D02*
D03*
X1660000Y214000D02*
D03*
X1664000Y218000D02*
D03*
X1660000Y222000D02*
D03*
X1664000Y186000D02*
D03*
X1660000Y182000D02*
D03*
X1664000Y178000D02*
D03*
X1660000Y174000D02*
D03*
X1664000Y170000D02*
D03*
X1660000Y166000D02*
D03*
X1660000Y158000D02*
D03*
X1664000Y154000D02*
D03*
Y162000D02*
D03*
Y226000D02*
D03*
X1690000Y149000D02*
D03*
X1709000Y244000D02*
D03*
X1707000Y249000D02*
D03*
Y138000D02*
D03*
X1750000Y106000D02*
D03*
Y286000D02*
D03*
Y294000D02*
D03*
X1754000Y290000D02*
D03*
Y282000D02*
D03*
X1750000Y278000D02*
D03*
X1754000Y274000D02*
D03*
X1750000Y270000D02*
D03*
X1754000Y266000D02*
D03*
X1750000Y262000D02*
D03*
X1754000Y110000D02*
D03*
X1750000Y114000D02*
D03*
X1754000Y118000D02*
D03*
X1750000Y122000D02*
D03*
X1754000Y126000D02*
D03*
X1750000Y130000D02*
D03*
X1754000Y258000D02*
D03*
Y134000D02*
D03*
X1750000Y254000D02*
D03*
X1754000Y102000D02*
D03*
X1750000Y98000D02*
D03*
X1630000D02*
D03*
X1634000Y102000D02*
D03*
X1630000Y254000D02*
D03*
X1634000Y134000D02*
D03*
Y258000D02*
D03*
X1630000Y130000D02*
D03*
X1634000Y126000D02*
D03*
X1630000Y122000D02*
D03*
X1634000Y118000D02*
D03*
X1630000Y114000D02*
D03*
X1634000Y110000D02*
D03*
X1630000Y262000D02*
D03*
X1634000Y266000D02*
D03*
X1630000Y270000D02*
D03*
X1634000Y274000D02*
D03*
X1630000Y278000D02*
D03*
X1634000Y282000D02*
D03*
Y290000D02*
D03*
X1630000Y294000D02*
D03*
Y286000D02*
D03*
Y106000D02*
D03*
X1587000Y138000D02*
D03*
Y249000D02*
D03*
X1589000Y244000D02*
D03*
X1570000Y149000D02*
D03*
X1544000Y226000D02*
D03*
Y162000D02*
D03*
Y154000D02*
D03*
X1540000Y158000D02*
D03*
Y166000D02*
D03*
X1544000Y170000D02*
D03*
X1540000Y174000D02*
D03*
X1544000Y178000D02*
D03*
X1540000Y182000D02*
D03*
X1544000Y186000D02*
D03*
X1540000Y222000D02*
D03*
X1544000Y218000D02*
D03*
X1540000Y214000D02*
D03*
X1544000Y210000D02*
D03*
X1540000Y206000D02*
D03*
X1544000Y202000D02*
D03*
X1540000Y190000D02*
D03*
Y198000D02*
D03*
X1544000Y194000D02*
D03*
X1540000Y230000D02*
D03*
X1544000Y234000D02*
D03*
X555000Y869000D02*
D03*
X509000Y861000D02*
D03*
X529000D02*
D03*
X509000Y869000D02*
D03*
X1350000Y144000D02*
D03*
X1330000Y149000D02*
D03*
X1260000D02*
D03*
X1290000Y149000D02*
D03*
X1265000Y144000D02*
D03*
X1325000Y144000D02*
D03*
X1528250Y158000D02*
D03*
Y226000D02*
D03*
X1358000Y222000D02*
D03*
X211000D02*
D03*
X206000Y226000D02*
D03*
X194000Y333000D02*
D03*
X212000D02*
D03*
X189000Y258000D02*
D03*
Y338000D02*
D03*
X225000D02*
D03*
X1262000Y282000D02*
D03*
X1266000Y290000D02*
D03*
X1270000Y286000D02*
D03*
X1404000Y222000D02*
D03*
X1479000Y222000D02*
D03*
X1481000Y294000D02*
D03*
X1456000Y154000D02*
D03*
X1460000Y162000D02*
D03*
X1464000Y158000D02*
D03*
X1468000Y166000D02*
D03*
X1250000Y150000D02*
D03*
X1255000Y146000D02*
D03*
X438000Y114000D02*
D03*
X443000Y206000D02*
D03*
X448000Y262000D02*
D03*
X453000Y198000D02*
D03*
X466000Y130000D02*
D03*
X478000Y190000D02*
D03*
X486000Y266000D02*
D03*
X491000Y234000D02*
D03*
X496000Y110000D02*
D03*
X508000Y106000D02*
D03*
X513000Y102000D02*
D03*
X518000Y94000D02*
D03*
X523000Y98000D02*
D03*
X574000Y90000D02*
D03*
X579000Y86000D02*
D03*
X1533000Y434000D02*
D03*
X1291000Y367000D02*
D03*
X1295000Y363000D02*
D03*
X1299000Y359000D02*
D03*
X1303000Y355000D02*
D03*
X1315000Y343000D02*
D03*
X1320000Y339000D02*
D03*
X1325000Y335000D02*
D03*
X1330000Y331000D02*
D03*
X1290000Y346000D02*
D03*
X1285000Y342000D02*
D03*
X974000Y326000D02*
D03*
X948000Y330000D02*
D03*
X923000Y362000D02*
D03*
X897000Y358000D02*
D03*
X872000Y334000D02*
D03*
X847000Y338000D02*
D03*
X821000Y350000D02*
D03*
X796000Y354000D02*
D03*
X778000Y282000D02*
D03*
X843000Y290000D02*
D03*
X860000Y286000D02*
D03*
X885000Y294000D02*
D03*
X877000Y154000D02*
D03*
X882000Y162000D02*
D03*
X887000Y158000D02*
D03*
X892000Y166000D02*
D03*
X1421000Y61000D02*
D03*
X1491000D02*
D03*
X1623000Y48000D02*
D03*
X1784000Y64000D02*
D03*
X1812000Y274000D02*
D03*
X1816000Y278000D02*
D03*
X1790000Y64000D02*
D03*
X1693000Y44000D02*
D03*
X1358000Y253000D02*
D03*
X1483000D02*
D03*
X1484000Y316000D02*
D03*
X1821000Y282000D02*
D03*
Y94000D02*
D03*
X1826000Y286000D02*
D03*
Y97000D02*
D03*
X1344000Y239000D02*
D03*
X1585000Y387000D02*
D03*
X1587000Y421000D02*
D03*
X1527000Y386000D02*
D03*
X381000Y971250D02*
D03*
X513250Y888000D02*
D03*
X533250D02*
D03*
X648000Y929000D02*
D03*
X656000D02*
D03*
X680000D02*
D03*
X1160000Y936000D02*
D03*
X345000Y1047000D02*
D03*
X365000Y1047000D02*
D03*
X1165000Y931000D02*
D03*
X1170000Y926000D02*
D03*
X1155000Y921000D02*
D03*
X1145000Y885000D02*
D03*
X1150000Y916000D02*
D03*
X696000Y956000D02*
D03*
Y971250D02*
D03*
X1355000Y332000D02*
D03*
X1362000D02*
D03*
X1478000Y329000D02*
D03*
X1500000Y325000D02*
D03*
X1483000Y174000D02*
D03*
M02*
