%FSLAX44Y44*%
%MOMM*%
G71*
G01*
G75*
G04 Layer_Color=32896*
%ADD10C,0.2000*%
%ADD11R,0.7500X1.3000*%
%ADD12R,3.5000X1.2000*%
%ADD13R,1.3000X0.7500*%
%ADD14R,0.9900X0.6900*%
%ADD15O,0.8000X0.3000*%
%ADD16O,0.3000X0.8000*%
%ADD17R,5.3000X5.3000*%
%ADD18R,2.0000X5.5000*%
%ADD19O,2.1000X0.6000*%
%ADD20R,2.0000X0.6000*%
%ADD21R,0.9500X1.6500*%
%ADD22R,0.2500X1.5500*%
%ADD23R,1.5500X0.2500*%
%ADD24R,1.0000X1.5000*%
%ADD25R,0.7000X1.5000*%
%ADD26R,2.0000X3.0000*%
%ADD27R,0.8000X1.5000*%
%ADD28R,1.4500X2.0000*%
%ADD29R,1.0000X2.2000*%
%ADD30R,5.5000X2.0000*%
%ADD31C,0.3500*%
%ADD32R,2.6000X2.2000*%
%ADD33R,2.4000X2.5000*%
%ADD34R,2.6000X1.8000*%
%ADD35R,6.8000X6.9000*%
%ADD36R,1.0000X1.9000*%
%ADD37P,1.4142X4X270.0*%
%ADD38P,1.4142X4X360.0*%
%ADD39R,2.0320X0.8890*%
%ADD40O,2.0320X0.8890*%
%ADD41O,1.7000X0.4500*%
%ADD42R,0.6500X1.7500*%
%ADD43R,1.3000X1.9000*%
%ADD44C,2.5000*%
%ADD45C,0.5000*%
%ADD46C,0.2500*%
%ADD47C,1.8000*%
%ADD48C,1.0000*%
%ADD49C,1.5000*%
%ADD50C,0.1500*%
%ADD51C,0.1250*%
%ADD52C,2.0320*%
%ADD53R,2.0320X2.0320*%
%ADD54C,2.4000*%
%ADD55C,1.8000*%
%ADD56C,1.6510*%
%ADD57R,1.6510X1.6510*%
%ADD58R,1.6510X1.6510*%
%ADD59C,7.0000*%
%ADD60C,4.6000*%
%ADD61C,1.9000*%
%ADD62R,1.9000X1.9000*%
%ADD63R,1.8000X1.8000*%
%ADD64C,1.8000*%
%ADD65C,5.0000*%
%ADD66C,1.7000*%
%ADD67O,1.4000X3.0000*%
%ADD68O,3.0000X1.4000*%
%ADD69O,3.7000X1.4000*%
%ADD70O,1.3000X3.5000*%
%ADD71O,3.2000X1.4000*%
%ADD72R,3.6000X2.6000*%
%ADD73C,3.0000*%
%ADD74O,1.4000X2.0000*%
%ADD75C,2.5000*%
%ADD76R,2.5000X2.5000*%
%ADD77C,2.5400*%
%ADD78R,1.5000X1.5000*%
%ADD79C,1.5000*%
%ADD80C,0.6000*%
%ADD81C,1.0000*%
%ADD82C,0.4000*%
%ADD83C,0.2540*%
%ADD84C,0.1778*%
%ADD85C,0.6000*%
%ADD86C,0.1250*%
%ADD87C,0.0100*%
%ADD88C,0.2032*%
%ADD89C,0.1270*%
%ADD90C,0.0800*%
%ADD91R,1.0000X3.2500*%
%ADD92R,1.0000X3.2500*%
%ADD93R,0.9000X1.4500*%
%ADD94R,1.0001X3.2500*%
%ADD95R,1.1000X0.2000*%
%ADD96R,0.9532X1.5032*%
%ADD97R,3.7032X1.4032*%
%ADD98R,1.5032X0.9532*%
%ADD99R,1.1932X0.8932*%
%ADD100O,1.0032X0.5032*%
%ADD101O,0.5032X1.0032*%
%ADD102R,5.5032X5.5032*%
%ADD103R,2.2032X5.7032*%
%ADD104O,2.3032X0.8032*%
%ADD105R,2.2032X0.8032*%
%ADD106R,1.1532X1.8532*%
%ADD107R,0.4532X1.7532*%
%ADD108R,1.7532X0.4532*%
%ADD109R,1.2032X1.7032*%
%ADD110R,0.9032X1.7032*%
%ADD111R,2.2032X3.2032*%
%ADD112R,1.0032X1.7032*%
%ADD113R,1.6532X2.2032*%
%ADD114R,1.2032X2.4032*%
%ADD115R,5.7032X2.2032*%
%ADD116C,0.5532*%
%ADD117R,2.8032X2.4032*%
%ADD118R,2.6032X2.7032*%
%ADD119R,2.8032X2.0032*%
%ADD120R,7.0032X7.1032*%
%ADD121R,1.2032X2.1032*%
%ADD122P,1.7016X4X270.0*%
%ADD123P,1.7016X4X360.0*%
%ADD124R,2.2352X1.0922*%
%ADD125O,2.2352X1.0922*%
%ADD126O,1.9032X0.6532*%
%ADD127R,0.8532X1.9532*%
%ADD128R,1.5032X2.1032*%
%ADD129C,2.2352*%
%ADD130R,2.2352X2.2352*%
%ADD131C,2.6032*%
%ADD132C,2.0032*%
%ADD133C,1.8542*%
%ADD134R,1.8542X1.8542*%
%ADD135R,1.8542X1.8542*%
%ADD136C,7.2032*%
%ADD137C,4.8032*%
%ADD138C,2.1032*%
%ADD139R,2.1032X2.1032*%
%ADD140R,0.2032X0.2032*%
%ADD141R,2.0032X2.0032*%
%ADD142C,2.0032*%
%ADD143C,5.2032*%
%ADD144C,1.9032*%
%ADD145O,1.6032X3.2032*%
%ADD146O,3.2032X1.6032*%
%ADD147O,3.9032X1.6032*%
%ADD148O,1.5032X3.7032*%
%ADD149O,3.4032X1.6032*%
%ADD150R,3.8032X2.8032*%
%ADD151C,3.2032*%
%ADD152O,1.6032X2.2032*%
%ADD153C,2.7032*%
%ADD154R,2.7032X2.7032*%
%ADD155C,2.7432*%
%ADD156R,1.7032X1.7032*%
%ADD157C,1.7032*%
%ADD158C,1.2032*%
D10*
X287730Y1241994D02*
Y1222000D01*
X297727D01*
X301059Y1225332D01*
Y1238661D01*
X297727Y1241994D01*
X287730D01*
X307724Y1222000D02*
Y1235329D01*
X314388Y1241994D01*
X321053Y1235329D01*
Y1222000D01*
Y1231997D01*
X307724D01*
X327717Y1222000D02*
Y1241994D01*
X341046Y1222000D01*
Y1241994D01*
X361040Y1238661D02*
X357707Y1241994D01*
X351043D01*
X347711Y1238661D01*
Y1225332D01*
X351043Y1222000D01*
X357707D01*
X361040Y1225332D01*
Y1231997D01*
X354375D01*
X381033Y1241994D02*
X367704D01*
Y1222000D01*
X381033D01*
X367704Y1231997D02*
X374369D01*
X387698Y1222000D02*
Y1241994D01*
X397695D01*
X401027Y1238661D01*
Y1231997D01*
X397695Y1228664D01*
X387698D01*
X394362D02*
X401027Y1222000D01*
X437682Y1241994D02*
X431017D01*
X427685Y1238661D01*
Y1225332D01*
X431017Y1222000D01*
X437682D01*
X441014Y1225332D01*
Y1238661D01*
X437682Y1241994D01*
X461007D02*
X447678D01*
Y1231997D01*
X454343D01*
X447678D01*
Y1222000D01*
X487666Y1241994D02*
Y1222000D01*
X497662D01*
X500995Y1225332D01*
Y1238661D01*
X497662Y1241994D01*
X487666D01*
X520988D02*
X507659D01*
Y1222000D01*
X520988D01*
X507659Y1231997D02*
X514324D01*
X527653Y1222000D02*
Y1235329D01*
X534317Y1241994D01*
X540982Y1235329D01*
Y1222000D01*
Y1231997D01*
X527653D01*
X547646Y1241994D02*
X560975D01*
X554311D01*
Y1222000D01*
X567640Y1241994D02*
Y1222000D01*
Y1231997D01*
X580969D01*
Y1241994D01*
Y1222000D01*
X587633Y1228664D02*
Y1245326D01*
Y1225332D02*
Y1222000D01*
X207730Y1271994D02*
X221059D01*
X214394D01*
Y1252000D01*
X237720Y1271994D02*
X231056D01*
X227724Y1268661D01*
Y1255332D01*
X231056Y1252000D01*
X237720D01*
X241053Y1255332D01*
Y1268661D01*
X237720Y1271994D01*
X247717D02*
Y1255332D01*
X251049Y1252000D01*
X257714D01*
X261046Y1255332D01*
Y1271994D01*
X281040Y1268661D02*
X277708Y1271994D01*
X271043D01*
X267711Y1268661D01*
Y1255332D01*
X271043Y1252000D01*
X277708D01*
X281040Y1255332D01*
X287704Y1271994D02*
Y1252000D01*
Y1261997D01*
X301033D01*
Y1271994D01*
Y1252000D01*
X307698Y1271994D02*
X314362D01*
X311030D01*
Y1252000D01*
X307698D01*
X314362D01*
X324359D02*
Y1271994D01*
X337688Y1252000D01*
Y1271994D01*
X357682Y1268661D02*
X354349Y1271994D01*
X347685D01*
X344353Y1268661D01*
Y1255332D01*
X347685Y1252000D01*
X354349D01*
X357682Y1255332D01*
Y1261997D01*
X351017D01*
X384340Y1271994D02*
X397669D01*
X391004D01*
Y1252000D01*
X404333Y1271994D02*
Y1252000D01*
Y1261997D01*
X417662D01*
Y1271994D01*
Y1252000D01*
X437656Y1271994D02*
X424327D01*
Y1252000D01*
X437656D01*
X424327Y1261997D02*
X430991D01*
X464314Y1252000D02*
Y1271994D01*
X474311D01*
X477643Y1268661D01*
Y1261997D01*
X474311Y1258664D01*
X464314D01*
X484308Y1252000D02*
Y1265329D01*
X490972Y1271994D01*
X497637Y1265329D01*
Y1252000D01*
Y1261997D01*
X484308D01*
X504301Y1271994D02*
Y1252000D01*
X514298D01*
X517630Y1255332D01*
Y1268661D01*
X514298Y1271994D01*
X504301D01*
X537624Y1268661D02*
X534291Y1271994D01*
X527627D01*
X524295Y1268661D01*
Y1265329D01*
X527627Y1261997D01*
X534291D01*
X537624Y1258664D01*
Y1255332D01*
X534291Y1252000D01*
X527627D01*
X524295Y1255332D01*
X564282Y1252000D02*
Y1271994D01*
X574279D01*
X577611Y1268661D01*
Y1261997D01*
X574279Y1258664D01*
X564282D01*
X594272Y1271994D02*
X587608D01*
X584275Y1268661D01*
Y1255332D01*
X587608Y1252000D01*
X594272D01*
X597604Y1255332D01*
Y1268661D01*
X594272Y1271994D01*
X617598Y1268661D02*
X614266Y1271994D01*
X607601D01*
X604269Y1268661D01*
Y1265329D01*
X607601Y1261997D01*
X614266D01*
X617598Y1258664D01*
Y1255332D01*
X614266Y1252000D01*
X607601D01*
X604269Y1255332D01*
X637592Y1271994D02*
X624263D01*
Y1252000D01*
X637592D01*
X624263Y1261997D02*
X630927D01*
X657585Y1268661D02*
X654253Y1271994D01*
X647588D01*
X644256Y1268661D01*
Y1265329D01*
X647588Y1261997D01*
X654253D01*
X657585Y1258664D01*
Y1255332D01*
X654253Y1252000D01*
X647588D01*
X644256Y1255332D01*
X19730Y1041996D02*
Y1030000D01*
Y1035998D01*
X27727D01*
Y1041996D01*
Y1030000D01*
X31726Y1041996D02*
X35725D01*
X33726D01*
Y1030000D01*
X31726D01*
X35725D01*
X49720Y1039997D02*
X47721Y1041996D01*
X43722D01*
X41723Y1039997D01*
Y1031999D01*
X43722Y1030000D01*
X47721D01*
X49720Y1031999D01*
Y1035998D01*
X45722D01*
X53719Y1041996D02*
Y1030000D01*
Y1035998D01*
X61716D01*
Y1041996D01*
Y1030000D01*
X77711Y1041996D02*
Y1033999D01*
X81710Y1030000D01*
X85709Y1033999D01*
Y1041996D01*
X95705D02*
X91707D01*
X89707Y1039997D01*
Y1031999D01*
X91707Y1030000D01*
X95705D01*
X97705Y1031999D01*
Y1039997D01*
X95705Y1041996D01*
X101704D02*
Y1030000D01*
X109701D01*
X113700Y1041996D02*
X121697D01*
X117698D01*
Y1030000D01*
X125696D02*
Y1037997D01*
X129694Y1041996D01*
X133693Y1037997D01*
Y1030000D01*
Y1035998D01*
X125696D01*
X145689Y1039997D02*
X143690Y1041996D01*
X139691D01*
X137692Y1039997D01*
Y1031999D01*
X139691Y1030000D01*
X143690D01*
X145689Y1031999D01*
Y1035998D01*
X141691D01*
X157685Y1041996D02*
X149688D01*
Y1030000D01*
X157685D01*
X149688Y1035998D02*
X153687D01*
X173680Y1030000D02*
Y1037997D01*
X177679Y1041996D01*
X181678Y1037997D01*
Y1030000D01*
Y1035998D01*
X173680D01*
X185676Y1030000D02*
Y1041996D01*
X191674D01*
X193674Y1039997D01*
Y1035998D01*
X191674Y1033999D01*
X185676D01*
X189675D02*
X193674Y1030000D01*
X205670Y1041996D02*
X197672D01*
Y1030000D01*
X205670D01*
X197672Y1035998D02*
X201671D01*
X209669Y1030000D02*
Y1037997D01*
X213667Y1041996D01*
X217666Y1037997D01*
Y1030000D01*
Y1035998D01*
X209669D01*
X19730Y1074995D02*
Y1060000D01*
X24728Y1064998D01*
X29727Y1060000D01*
Y1074995D01*
X34725Y1060000D02*
Y1069997D01*
X39724Y1074995D01*
X44722Y1069997D01*
Y1060000D01*
Y1067498D01*
X34725D01*
X49720Y1060000D02*
Y1074995D01*
X57218D01*
X59717Y1072496D01*
Y1067498D01*
X57218Y1064998D01*
X49720D01*
X54719D02*
X59717Y1060000D01*
X64715D02*
Y1074995D01*
X74712Y1060000D01*
Y1074995D01*
X79711D02*
X84709D01*
X82210D01*
Y1060000D01*
X79711D01*
X84709D01*
X92207D02*
Y1074995D01*
X102203Y1060000D01*
Y1074995D01*
X117198Y1072496D02*
X114699Y1074995D01*
X109701D01*
X107202Y1072496D01*
Y1062499D01*
X109701Y1060000D01*
X114699D01*
X117198Y1062499D01*
Y1067498D01*
X112200D01*
X122197Y1064998D02*
Y1077494D01*
Y1062499D02*
Y1060000D01*
D45*
X679730Y890000D02*
Y1280000D01*
Y890000D02*
X-270D01*
X2239730Y1320000D02*
X2239730Y1320000D01*
X724730D01*
X314730D02*
X-270D01*
X314730Y1280000D02*
Y1320000D01*
X724730Y1280000D02*
X314730D01*
X724730D02*
Y1320000D01*
X2239730Y-0D02*
Y1320000D01*
Y-0D02*
X-270D01*
Y1320000D01*
M02*
