%FSLAX44Y44*%
%MOMM*%
G71*
G01*
G75*
G04 Layer_Color=2172695*
%ADD10C,0.2000*%
%ADD11R,2.0000X3.0000*%
%ADD12R,1.0000X1.5000*%
%ADD13R,0.7000X1.5000*%
%ADD14R,1.0000X2.2000*%
%ADD15R,2.6000X1.8000*%
%ADD16R,2.4000X2.5000*%
%ADD17R,2.6000X2.2000*%
%ADD18R,3.5000X1.2000*%
%ADD19R,0.9500X1.6500*%
%ADD20R,0.9900X0.6900*%
%ADD21R,0.7500X1.3000*%
%ADD22R,1.0000X1.9000*%
%ADD23R,6.8000X6.9000*%
%ADD24P,1.4142X4X180.0*%
%ADD25P,1.4142X4X90.0*%
%ADD26O,0.4500X1.7000*%
%ADD27R,5.3000X5.3000*%
%ADD28O,0.3000X0.8000*%
%ADD29O,0.8000X0.3000*%
%ADD30R,2.0000X0.6000*%
%ADD31O,2.1000X0.6000*%
%ADD32R,1.5500X0.2500*%
%ADD33R,0.2500X1.5500*%
%ADD34R,0.6500X1.7500*%
%ADD35O,2.0320X0.8890*%
%ADD36R,2.0320X0.8890*%
%ADD37R,1.4500X2.0000*%
%ADD38R,0.8000X1.5000*%
%ADD39R,5.5000X2.0000*%
%ADD40R,1.3000X1.9000*%
%ADD41C,0.3500*%
%ADD42R,1.3000X0.7500*%
%ADD43R,2.0000X5.5000*%
%ADD44R,0.6900X0.9900*%
%ADD45R,1.2000X3.5000*%
%ADD46C,2.5000*%
%ADD47C,0.1500*%
%ADD48C,1.0000*%
%ADD49C,0.5000*%
%ADD50C,0.1250*%
%ADD51C,0.2500*%
%ADD52C,1.5000*%
%ADD53C,1.8000*%
%ADD54R,1.6510X1.6510*%
%ADD55C,1.6510*%
%ADD56C,1.9000*%
%ADD57R,1.9000X1.9000*%
%ADD58O,3.2000X1.4000*%
%ADD59O,1.3000X3.5000*%
%ADD60O,3.7000X1.4000*%
%ADD61R,3.6000X2.6000*%
%ADD62C,1.8000*%
%ADD63C,2.4000*%
%ADD64C,3.0000*%
%ADD65R,2.5000X2.5000*%
%ADD66C,2.5000*%
%ADD67C,5.0000*%
%ADD68C,1.8000*%
%ADD69R,1.8000X1.8000*%
%ADD70C,4.6000*%
%ADD71O,3.0000X1.4000*%
%ADD72O,1.4000X3.0000*%
%ADD73C,1.7000*%
%ADD74O,1.4000X2.0000*%
%ADD75C,2.5400*%
%ADD76R,2.0320X2.0320*%
%ADD77C,2.0320*%
%ADD78C,1.5000*%
%ADD79R,1.5000X1.5000*%
%ADD80R,1.6510X1.6510*%
%ADD81C,1.2000*%
%ADD82R,1.2000X1.2000*%
%ADD83C,7.0000*%
%ADD84C,0.6000*%
%ADD85C,0.4000*%
%ADD86C,1.0000*%
%ADD87C,0.2540*%
%ADD88C,0.1778*%
%ADD89C,0.6000*%
%ADD90C,0.1250*%
%ADD91C,0.2032*%
%ADD92C,0.0100*%
%ADD93C,0.0800*%
%ADD94C,0.1270*%
%ADD95R,1.0000X3.2500*%
%ADD96R,0.9000X1.4500*%
%ADD97R,1.1000X0.2000*%
%ADD98R,1.0000X1.0000*%
%ADD99R,1.0001X3.2500*%
%ADD100R,1.0000X3.2500*%
%ADD101R,3.2500X1.0000*%
%ADD102R,2.2032X3.2032*%
%ADD103R,1.2032X1.7032*%
%ADD104R,0.9032X1.7032*%
%ADD105R,1.2032X2.4032*%
%ADD106R,2.8032X2.0032*%
%ADD107R,2.6032X2.7032*%
%ADD108R,2.8032X2.4032*%
%ADD109R,3.7032X1.4032*%
%ADD110R,1.1532X1.8532*%
%ADD111R,1.1932X0.8932*%
%ADD112R,0.9532X1.5032*%
%ADD113R,1.2032X2.1032*%
%ADD114R,7.0032X7.1032*%
%ADD115P,1.7016X4X180.0*%
%ADD116P,1.7016X4X90.0*%
%ADD117O,0.6532X1.9032*%
%ADD118R,5.5032X5.5032*%
%ADD119O,0.5032X1.0032*%
%ADD120O,1.0032X0.5032*%
%ADD121R,2.2032X0.8032*%
%ADD122O,2.3032X0.8032*%
%ADD123R,1.7532X0.4532*%
%ADD124R,0.4532X1.7532*%
%ADD125R,0.8532X1.9532*%
%ADD126O,2.2352X1.0922*%
%ADD127R,2.2352X1.0922*%
%ADD128R,1.6532X2.2032*%
%ADD129R,1.0032X1.7032*%
%ADD130R,5.7032X2.2032*%
%ADD131R,1.5032X2.1032*%
%ADD132C,0.5532*%
%ADD133R,1.5032X0.9532*%
%ADD134R,2.2032X5.7032*%
%ADD135R,0.8932X1.1932*%
%ADD136R,1.4032X3.7032*%
%ADD137R,1.8542X1.8542*%
%ADD138C,1.8542*%
%ADD139R,0.2032X0.2032*%
%ADD140C,2.1032*%
%ADD141R,2.1032X2.1032*%
%ADD142O,3.4032X1.6032*%
%ADD143O,1.5032X3.7032*%
%ADD144O,3.9032X1.6032*%
%ADD145R,3.8032X2.8032*%
%ADD146C,2.0032*%
%ADD147C,2.6032*%
%ADD148C,3.2032*%
%ADD149R,2.7032X2.7032*%
%ADD150C,2.7032*%
%ADD151C,5.2032*%
%ADD152C,2.0032*%
%ADD153R,2.0032X2.0032*%
%ADD154C,4.8032*%
%ADD155O,3.2032X1.6032*%
%ADD156O,1.6032X3.2032*%
%ADD157C,1.9032*%
%ADD158O,1.6032X2.2032*%
%ADD159C,2.7432*%
%ADD160R,2.2352X2.2352*%
%ADD161C,2.2352*%
%ADD162C,1.7032*%
%ADD163R,1.7032X1.7032*%
%ADD164R,1.8542X1.8542*%
%ADD165C,1.4032*%
%ADD166R,1.4032X1.4032*%
%ADD167C,7.2032*%
%ADD168C,1.2032*%
D49*
X-270Y-0D02*
Y1320000D01*
X2239730Y-0D02*
X-270D01*
X2239730D02*
Y1320000D01*
X724730Y1280000D02*
Y1320000D01*
Y1280000D02*
X314730D01*
Y1320000D01*
X-270D01*
X2239730D02*
X724730D01*
X2239730Y1320000D02*
X2239730Y1320000D01*
D137*
X996730Y515400D02*
D03*
X1207430Y1000400D02*
D03*
D138*
X996730Y490000D02*
D03*
Y464600D02*
D03*
X1282830Y900000D02*
D03*
X1257430D02*
D03*
X1232030D02*
D03*
X249730Y34600D02*
D03*
X275130Y60000D02*
D03*
Y34600D02*
D03*
X300530Y60000D02*
D03*
Y34600D02*
D03*
X633730Y340300D02*
D03*
Y365700D02*
D03*
X1182030Y1000400D02*
D03*
X1207430Y975000D02*
D03*
X1182030D02*
D03*
X1207430Y949600D02*
D03*
X1182030D02*
D03*
D139*
X1814730Y282000D02*
D03*
X2024730D02*
D03*
X1139730Y110000D02*
D03*
Y40000D02*
D03*
X1424730Y282000D02*
D03*
X1634730D02*
D03*
D140*
X2104230Y794600D02*
D03*
Y845400D02*
D03*
X2078830Y794600D02*
D03*
Y845400D02*
D03*
X2053430Y794600D02*
D03*
Y845400D02*
D03*
X2028030Y794600D02*
D03*
Y845400D02*
D03*
X2002630Y794600D02*
D03*
Y845400D02*
D03*
X1977230Y794600D02*
D03*
Y845400D02*
D03*
X1951830Y794600D02*
D03*
Y845400D02*
D03*
X1926430Y794600D02*
D03*
Y845400D02*
D03*
X1901030Y794600D02*
D03*
Y845400D02*
D03*
X1875630Y794600D02*
D03*
Y845400D02*
D03*
X1850230Y794600D02*
D03*
Y845400D02*
D03*
X1824830Y794600D02*
D03*
Y845400D02*
D03*
X1799430Y794600D02*
D03*
Y845400D02*
D03*
X1774030Y794600D02*
D03*
Y845400D02*
D03*
X1748630Y794600D02*
D03*
Y845400D02*
D03*
X1723230Y794600D02*
D03*
Y845400D02*
D03*
X1697830Y794600D02*
D03*
Y845400D02*
D03*
X1672430Y794600D02*
D03*
Y845400D02*
D03*
X1647030Y794600D02*
D03*
Y845400D02*
D03*
X1621630Y794600D02*
D03*
Y845400D02*
D03*
X1596230Y794600D02*
D03*
Y845400D02*
D03*
X1570830Y794600D02*
D03*
Y845400D02*
D03*
X1545430Y794600D02*
D03*
Y845400D02*
D03*
X1520030Y794600D02*
D03*
Y845400D02*
D03*
X1494630Y794600D02*
D03*
Y845400D02*
D03*
X1469230Y794600D02*
D03*
Y845400D02*
D03*
X1443830Y794600D02*
D03*
Y845400D02*
D03*
X1418430Y794600D02*
D03*
Y845400D02*
D03*
X1393030Y794600D02*
D03*
Y845400D02*
D03*
X1367630Y794600D02*
D03*
Y845400D02*
D03*
X1342230Y794600D02*
D03*
Y845400D02*
D03*
X1316830Y794600D02*
D03*
Y845400D02*
D03*
X1291430Y794600D02*
D03*
Y845400D02*
D03*
X1266030Y794600D02*
D03*
Y845400D02*
D03*
X1240630Y794600D02*
D03*
Y845400D02*
D03*
X1215230Y794600D02*
D03*
X1260330Y1184600D02*
D03*
X1237330D02*
D03*
X1214331D02*
D03*
X1191330D02*
D03*
X1202730Y1210000D02*
D03*
X1225731D02*
D03*
X1248730D02*
D03*
X1271730D02*
D03*
X1294730D02*
D03*
X1191330Y1235400D02*
D03*
X1214331D02*
D03*
X1237330D02*
D03*
X1260330D02*
D03*
X1283331D02*
D03*
X2104230Y394600D02*
D03*
Y445400D02*
D03*
X2078830Y394600D02*
D03*
Y445400D02*
D03*
X2053430Y394600D02*
D03*
Y445400D02*
D03*
X2028030Y394600D02*
D03*
Y445400D02*
D03*
X2002630Y394600D02*
D03*
Y445400D02*
D03*
X1977230Y394600D02*
D03*
Y445400D02*
D03*
X1951830Y394600D02*
D03*
Y445400D02*
D03*
X1926430Y394600D02*
D03*
Y445400D02*
D03*
X1901030Y394600D02*
D03*
Y445400D02*
D03*
X1875630Y394600D02*
D03*
Y445400D02*
D03*
X1850230Y394600D02*
D03*
Y445400D02*
D03*
X1824830Y394600D02*
D03*
Y445400D02*
D03*
X1799430Y394600D02*
D03*
Y445400D02*
D03*
X1774030Y394600D02*
D03*
Y445400D02*
D03*
X1748630Y394600D02*
D03*
Y445400D02*
D03*
X1723230Y394600D02*
D03*
Y445400D02*
D03*
X1697830Y394600D02*
D03*
Y445400D02*
D03*
X1672430Y394600D02*
D03*
Y445400D02*
D03*
X1647030Y394600D02*
D03*
Y445400D02*
D03*
X1621630Y394600D02*
D03*
Y445400D02*
D03*
X1596230Y394600D02*
D03*
Y445400D02*
D03*
X1570830Y394600D02*
D03*
Y445400D02*
D03*
X1545430Y394600D02*
D03*
Y445400D02*
D03*
X1520030Y394600D02*
D03*
Y445400D02*
D03*
X1494630Y394600D02*
D03*
Y445400D02*
D03*
X1469230Y394600D02*
D03*
Y445400D02*
D03*
X1443830Y394600D02*
D03*
Y445400D02*
D03*
X1418430Y394600D02*
D03*
Y445400D02*
D03*
X1393030Y394600D02*
D03*
Y445400D02*
D03*
X1367630Y394600D02*
D03*
Y445400D02*
D03*
X1342230Y394600D02*
D03*
Y445400D02*
D03*
X1316830Y394600D02*
D03*
Y445400D02*
D03*
X1291430Y394600D02*
D03*
Y445400D02*
D03*
X1266030Y394600D02*
D03*
Y445400D02*
D03*
X1240630Y394600D02*
D03*
Y445400D02*
D03*
X1215230Y394600D02*
D03*
X2104230Y594600D02*
D03*
Y645400D02*
D03*
X2078830Y594600D02*
D03*
Y645400D02*
D03*
X2053430Y594600D02*
D03*
Y645400D02*
D03*
X2028030Y594600D02*
D03*
Y645400D02*
D03*
X2002630Y594600D02*
D03*
Y645400D02*
D03*
X1977230Y594600D02*
D03*
Y645400D02*
D03*
X1951830Y594600D02*
D03*
Y645400D02*
D03*
X1926430Y594600D02*
D03*
Y645400D02*
D03*
X1901030Y594600D02*
D03*
Y645400D02*
D03*
X1875630Y594600D02*
D03*
Y645400D02*
D03*
X1850230Y594600D02*
D03*
Y645400D02*
D03*
X1824830Y594600D02*
D03*
Y645400D02*
D03*
X1799430Y594600D02*
D03*
Y645400D02*
D03*
X1774030Y594600D02*
D03*
Y645400D02*
D03*
X1748630Y594600D02*
D03*
Y645400D02*
D03*
X1723230Y594600D02*
D03*
Y645400D02*
D03*
X1697830Y594600D02*
D03*
Y645400D02*
D03*
X1672430Y594600D02*
D03*
Y645400D02*
D03*
X1647030Y594600D02*
D03*
Y645400D02*
D03*
X1621630Y594600D02*
D03*
Y645400D02*
D03*
X1596230Y594600D02*
D03*
Y645400D02*
D03*
X1570830Y594600D02*
D03*
Y645400D02*
D03*
X1545430Y594600D02*
D03*
Y645400D02*
D03*
X1520030Y594600D02*
D03*
Y645400D02*
D03*
X1494630Y594600D02*
D03*
Y645400D02*
D03*
X1469230Y594600D02*
D03*
Y645400D02*
D03*
X1443830Y594600D02*
D03*
Y645400D02*
D03*
X1418430Y594600D02*
D03*
Y645400D02*
D03*
X1393030Y594600D02*
D03*
Y645400D02*
D03*
X1367630Y594600D02*
D03*
Y645400D02*
D03*
X1342230Y594600D02*
D03*
Y645400D02*
D03*
X1316830Y594600D02*
D03*
Y645400D02*
D03*
X1291430Y594600D02*
D03*
Y645400D02*
D03*
X1266030Y594600D02*
D03*
Y645400D02*
D03*
X1240630Y594600D02*
D03*
Y645400D02*
D03*
X1215230Y594600D02*
D03*
D141*
Y845400D02*
D03*
X1283331Y1184600D02*
D03*
X1215230Y445400D02*
D03*
Y645400D02*
D03*
D142*
X807730Y1250000D02*
D03*
D143*
X854731Y1220000D02*
D03*
D144*
X807730Y1188000D02*
D03*
D145*
X519730Y1143000D02*
D03*
X450730D02*
D03*
X588730D02*
D03*
D146*
X2209730Y1190000D02*
D03*
Y1145000D02*
D03*
X1815610Y1215800D02*
D03*
X1787670D02*
D03*
X1759730D02*
D03*
X1731790D02*
D03*
D147*
X2184730Y1202500D02*
D03*
Y1132500D02*
D03*
D148*
X112740Y1110900D02*
D03*
X159730D02*
D03*
X206720D02*
D03*
X112740Y1149000D02*
D03*
X159730D02*
D03*
X206720D02*
D03*
X185130Y1276000D02*
D03*
X134330D02*
D03*
D149*
X79730Y970000D02*
D03*
D150*
X279730D02*
D03*
X479730D02*
D03*
X394730Y350000D02*
D03*
X337230D02*
D03*
X279730D02*
D03*
X222230D02*
D03*
X164730D02*
D03*
D151*
X1634730Y1229700D02*
D03*
X1884730D02*
D03*
D152*
X1801640Y1244200D02*
D03*
X1773700D02*
D03*
X1745760D02*
D03*
X1717820D02*
D03*
D153*
X1703850Y1215800D02*
D03*
D154*
X1364731Y1210000D02*
D03*
X1114731D02*
D03*
D155*
X1499731Y1280000D02*
D03*
D156*
X1567230Y1272000D02*
D03*
X1432231D02*
D03*
D157*
X1512730Y1242000D02*
D03*
X1486730D02*
D03*
X1533730D02*
D03*
X1465730D02*
D03*
X1533730Y1217000D02*
D03*
X1465730D02*
D03*
D158*
X493130Y1068000D02*
D03*
X442330D02*
D03*
D159*
X319730Y1205000D02*
D03*
Y1055000D02*
D03*
D160*
X855130Y1068600D02*
D03*
D161*
X880530Y611400D02*
D03*
X804330Y1068600D02*
D03*
X702730D02*
D03*
X982130Y611400D02*
D03*
X778930D02*
D03*
X677330D02*
D03*
D162*
X1521730Y1095000D02*
D03*
D163*
X1577730D02*
D03*
D164*
X1206630Y900000D02*
D03*
X249730Y60000D02*
D03*
D165*
X633430Y420500D02*
D03*
X658830Y445900D02*
D03*
Y420500D02*
D03*
X684230Y445900D02*
D03*
X658830Y471300D02*
D03*
X684230D02*
D03*
X658830Y496700D02*
D03*
X684230D02*
D03*
X658830Y522100D02*
D03*
X684230D02*
D03*
X658830Y547500D02*
D03*
X633430Y522100D02*
D03*
Y547500D02*
D03*
X608030Y522100D02*
D03*
Y547500D02*
D03*
X582630Y522100D02*
D03*
Y547500D02*
D03*
X557230Y522100D02*
D03*
X582630Y496700D02*
D03*
X557230D02*
D03*
X582630Y471300D02*
D03*
X557230D02*
D03*
X582630Y445900D02*
D03*
X557230D02*
D03*
X582630Y420500D02*
D03*
X608030Y445900D02*
D03*
Y420500D02*
D03*
D166*
X633430Y445900D02*
D03*
D167*
X1039730Y1270000D02*
D03*
X1139730Y550000D02*
D03*
Y750000D02*
D03*
X2189730Y1270000D02*
D03*
X49730D02*
D03*
Y50000D02*
D03*
X2189730D02*
D03*
Y690000D02*
D03*
Y490000D02*
D03*
M02*
