%FSLAX44Y44*%
%MOMM*%
G71*
G01*
G75*
G04 Layer_Color=4989720*
%ADD10C,0.2000*%
%ADD11R,2.0000X3.0000*%
%ADD12R,1.0000X1.5000*%
%ADD13R,0.7000X1.5000*%
%ADD14R,1.0000X2.2000*%
%ADD15R,2.6000X1.8000*%
%ADD16R,2.4000X2.5000*%
%ADD17R,2.6000X2.2000*%
%ADD18R,3.5000X1.2000*%
%ADD19R,0.9500X1.6500*%
%ADD20R,0.9900X0.6900*%
%ADD21R,0.7500X1.3000*%
%ADD22R,1.0000X1.9000*%
%ADD23R,6.8000X6.9000*%
%ADD24P,1.4142X4X180.0*%
%ADD25P,1.4142X4X90.0*%
%ADD26O,1.7000X0.4500*%
%ADD27R,5.3000X5.3000*%
%ADD28O,0.3000X0.8000*%
%ADD29O,0.8000X0.3000*%
%ADD30R,2.0000X0.6000*%
%ADD31O,2.1000X0.6000*%
%ADD32R,1.5500X0.2500*%
%ADD33R,0.2500X1.5500*%
%ADD34R,0.6500X1.7500*%
%ADD35O,2.0320X0.8890*%
%ADD36R,2.0320X0.8890*%
%ADD37R,1.4500X2.0000*%
%ADD38R,0.8000X1.5000*%
%ADD39R,5.5000X2.0000*%
%ADD40R,1.3000X1.9000*%
%ADD41C,0.3500*%
%ADD42R,1.3000X0.7500*%
%ADD43R,2.0000X5.5000*%
%ADD44C,1.0000*%
%ADD45C,2.5000*%
%ADD46C,0.2500*%
%ADD47C,0.5000*%
%ADD48C,1.5000*%
%ADD49C,1.8000*%
%ADD50C,0.1500*%
%ADD51C,0.1250*%
%ADD52C,1.9000*%
%ADD53R,1.9000X1.9000*%
%ADD54O,3.2000X1.4000*%
%ADD55O,1.3000X3.5000*%
%ADD56O,3.7000X1.4000*%
%ADD57R,3.6000X2.6000*%
%ADD58C,1.8000*%
%ADD59C,2.4000*%
%ADD60C,3.0000*%
%ADD61R,2.5000X2.5000*%
%ADD62C,2.5000*%
%ADD63C,5.0000*%
%ADD64C,1.8000*%
%ADD65R,1.8000X1.8000*%
%ADD66C,4.6000*%
%ADD67O,3.0000X1.4000*%
%ADD68O,1.4000X3.0000*%
%ADD69C,1.7000*%
%ADD70O,1.4000X2.0000*%
%ADD71C,2.5400*%
%ADD72R,2.0320X2.0320*%
%ADD73C,2.0320*%
%ADD74C,1.5000*%
%ADD75R,1.5000X1.5000*%
%ADD76C,1.6510*%
%ADD77R,1.6510X1.6510*%
%ADD78C,7.0000*%
%ADD79R,1.6510X1.6510*%
%ADD80C,0.6000*%
%ADD81C,1.0000*%
%ADD82C,0.4000*%
%ADD83C,0.2540*%
%ADD84C,0.1778*%
%ADD85C,0.6000*%
%ADD86C,0.1250*%
%ADD87C,0.2032*%
%ADD88C,0.0100*%
%ADD89C,0.0800*%
%ADD90C,0.1270*%
%ADD91R,1.0000X3.2500*%
%ADD92R,0.9000X1.4500*%
%ADD93R,1.1000X0.2000*%
%ADD94R,1.0001X3.2500*%
%ADD95R,1.0000X3.2500*%
%ADD96R,2.2032X3.2032*%
%ADD97R,1.2032X1.7032*%
%ADD98R,0.9032X1.7032*%
%ADD99R,1.2032X2.4032*%
%ADD100R,2.8032X2.0032*%
%ADD101R,2.6032X2.7032*%
%ADD102R,2.8032X2.4032*%
%ADD103R,3.7032X1.4032*%
%ADD104R,1.1532X1.8532*%
%ADD105R,1.1932X0.8932*%
%ADD106R,0.9532X1.5032*%
%ADD107R,1.2032X2.1032*%
%ADD108R,7.0032X7.1032*%
%ADD109P,1.7016X4X180.0*%
%ADD110P,1.7016X4X90.0*%
%ADD111O,1.9032X0.6532*%
%ADD112R,5.5032X5.5032*%
%ADD113O,0.5032X1.0032*%
%ADD114O,1.0032X0.5032*%
%ADD115R,2.2032X0.8032*%
%ADD116O,2.3032X0.8032*%
%ADD117R,1.7532X0.4532*%
%ADD118R,0.4532X1.7532*%
%ADD119R,0.8532X1.9532*%
%ADD120O,2.2352X1.0922*%
%ADD121R,2.2352X1.0922*%
%ADD122R,1.6532X2.2032*%
%ADD123R,1.0032X1.7032*%
%ADD124R,5.7032X2.2032*%
%ADD125R,1.5032X2.1032*%
%ADD126C,0.5532*%
%ADD127R,1.5032X0.9532*%
%ADD128R,2.2032X5.7032*%
%ADD129R,0.2032X0.2032*%
%ADD130C,2.1032*%
%ADD131R,2.1032X2.1032*%
%ADD132O,3.4032X1.6032*%
%ADD133O,1.5032X3.7032*%
%ADD134O,3.9032X1.6032*%
%ADD135R,3.8032X2.8032*%
%ADD136C,2.0032*%
%ADD137C,2.6032*%
%ADD138C,3.2032*%
%ADD139R,2.7032X2.7032*%
%ADD140C,2.7032*%
%ADD141C,5.2032*%
%ADD142C,2.0032*%
%ADD143R,2.0032X2.0032*%
%ADD144C,4.8032*%
%ADD145O,3.2032X1.6032*%
%ADD146O,1.6032X3.2032*%
%ADD147C,1.9032*%
%ADD148O,1.6032X2.2032*%
%ADD149C,2.7432*%
%ADD150R,2.2352X2.2352*%
%ADD151C,2.2352*%
%ADD152C,1.7032*%
%ADD153R,1.7032X1.7032*%
%ADD154C,1.8542*%
%ADD155R,1.8542X1.8542*%
%ADD156C,7.2032*%
%ADD157R,1.8542X1.8542*%
%ADD158C,1.2032*%
D47*
X-270Y-0D02*
Y1320000D01*
X2239730Y-0D02*
X-270D01*
X2239730D02*
Y1320000D01*
X724730Y1280000D02*
Y1320000D01*
Y1280000D02*
X314730D01*
Y1320000D01*
X-270D01*
X2239730D02*
X724730D01*
X2239730Y1320000D02*
X2239730Y1320000D01*
D129*
X1814730Y282000D02*
D03*
X2024730D02*
D03*
X1139730Y110000D02*
D03*
Y40000D02*
D03*
X1424730Y282000D02*
D03*
X1634730D02*
D03*
D130*
X2104230Y794600D02*
D03*
Y845400D02*
D03*
X2078830Y794600D02*
D03*
Y845400D02*
D03*
X2053430Y794600D02*
D03*
Y845400D02*
D03*
X2028030Y794600D02*
D03*
Y845400D02*
D03*
X2002630Y794600D02*
D03*
Y845400D02*
D03*
X1977230Y794600D02*
D03*
Y845400D02*
D03*
X1951830Y794600D02*
D03*
Y845400D02*
D03*
X1926430Y794600D02*
D03*
Y845400D02*
D03*
X1901030Y794600D02*
D03*
Y845400D02*
D03*
X1875630Y794600D02*
D03*
Y845400D02*
D03*
X1850230Y794600D02*
D03*
Y845400D02*
D03*
X1824830Y794600D02*
D03*
Y845400D02*
D03*
X1799430Y794600D02*
D03*
Y845400D02*
D03*
X1774030Y794600D02*
D03*
Y845400D02*
D03*
X1748630Y794600D02*
D03*
Y845400D02*
D03*
X1723230Y794600D02*
D03*
Y845400D02*
D03*
X1697830Y794600D02*
D03*
Y845400D02*
D03*
X1672430Y794600D02*
D03*
Y845400D02*
D03*
X1647030Y794600D02*
D03*
Y845400D02*
D03*
X1621630Y794600D02*
D03*
Y845400D02*
D03*
X1596230Y794600D02*
D03*
Y845400D02*
D03*
X1570830Y794600D02*
D03*
Y845400D02*
D03*
X1545430Y794600D02*
D03*
Y845400D02*
D03*
X1520030Y794600D02*
D03*
Y845400D02*
D03*
X1494630Y794600D02*
D03*
Y845400D02*
D03*
X1469230Y794600D02*
D03*
Y845400D02*
D03*
X1443830Y794600D02*
D03*
Y845400D02*
D03*
X1418430Y794600D02*
D03*
Y845400D02*
D03*
X1393030Y794600D02*
D03*
Y845400D02*
D03*
X1367630Y794600D02*
D03*
Y845400D02*
D03*
X1342230Y794600D02*
D03*
Y845400D02*
D03*
X1316830Y794600D02*
D03*
Y845400D02*
D03*
X1291430Y794600D02*
D03*
Y845400D02*
D03*
X1266030Y794600D02*
D03*
Y845400D02*
D03*
X1240630Y794600D02*
D03*
Y845400D02*
D03*
X1215230Y794600D02*
D03*
X1260330Y1184600D02*
D03*
X1237330D02*
D03*
X1214331D02*
D03*
X1191330D02*
D03*
X1202730Y1210000D02*
D03*
X1225731D02*
D03*
X1248730D02*
D03*
X1271730D02*
D03*
X1294730D02*
D03*
X1191330Y1235400D02*
D03*
X1214331D02*
D03*
X1237330D02*
D03*
X1260330D02*
D03*
X1283331D02*
D03*
X2104230Y394600D02*
D03*
Y445400D02*
D03*
X2078830Y394600D02*
D03*
Y445400D02*
D03*
X2053430Y394600D02*
D03*
Y445400D02*
D03*
X2028030Y394600D02*
D03*
Y445400D02*
D03*
X2002630Y394600D02*
D03*
Y445400D02*
D03*
X1977230Y394600D02*
D03*
Y445400D02*
D03*
X1951830Y394600D02*
D03*
Y445400D02*
D03*
X1926430Y394600D02*
D03*
Y445400D02*
D03*
X1901030Y394600D02*
D03*
Y445400D02*
D03*
X1875630Y394600D02*
D03*
Y445400D02*
D03*
X1850230Y394600D02*
D03*
Y445400D02*
D03*
X1824830Y394600D02*
D03*
Y445400D02*
D03*
X1799430Y394600D02*
D03*
Y445400D02*
D03*
X1774030Y394600D02*
D03*
Y445400D02*
D03*
X1748630Y394600D02*
D03*
Y445400D02*
D03*
X1723230Y394600D02*
D03*
Y445400D02*
D03*
X1697830Y394600D02*
D03*
Y445400D02*
D03*
X1672430Y394600D02*
D03*
Y445400D02*
D03*
X1647030Y394600D02*
D03*
Y445400D02*
D03*
X1621630Y394600D02*
D03*
Y445400D02*
D03*
X1596230Y394600D02*
D03*
Y445400D02*
D03*
X1570830Y394600D02*
D03*
Y445400D02*
D03*
X1545430Y394600D02*
D03*
Y445400D02*
D03*
X1520030Y394600D02*
D03*
Y445400D02*
D03*
X1494630Y394600D02*
D03*
Y445400D02*
D03*
X1469230Y394600D02*
D03*
Y445400D02*
D03*
X1443830Y394600D02*
D03*
Y445400D02*
D03*
X1418430Y394600D02*
D03*
Y445400D02*
D03*
X1393030Y394600D02*
D03*
Y445400D02*
D03*
X1367630Y394600D02*
D03*
Y445400D02*
D03*
X1342230Y394600D02*
D03*
Y445400D02*
D03*
X1316830Y394600D02*
D03*
Y445400D02*
D03*
X1291430Y394600D02*
D03*
Y445400D02*
D03*
X1266030Y394600D02*
D03*
Y445400D02*
D03*
X1240630Y394600D02*
D03*
Y445400D02*
D03*
X1215230Y394600D02*
D03*
X2104230Y594600D02*
D03*
Y645400D02*
D03*
X2078830Y594600D02*
D03*
Y645400D02*
D03*
X2053430Y594600D02*
D03*
Y645400D02*
D03*
X2028030Y594600D02*
D03*
Y645400D02*
D03*
X2002630Y594600D02*
D03*
Y645400D02*
D03*
X1977230Y594600D02*
D03*
Y645400D02*
D03*
X1951830Y594600D02*
D03*
Y645400D02*
D03*
X1926430Y594600D02*
D03*
Y645400D02*
D03*
X1901030Y594600D02*
D03*
Y645400D02*
D03*
X1875630Y594600D02*
D03*
Y645400D02*
D03*
X1850230Y594600D02*
D03*
Y645400D02*
D03*
X1824830Y594600D02*
D03*
Y645400D02*
D03*
X1799430Y594600D02*
D03*
Y645400D02*
D03*
X1774030Y594600D02*
D03*
Y645400D02*
D03*
X1748630Y594600D02*
D03*
Y645400D02*
D03*
X1723230Y594600D02*
D03*
Y645400D02*
D03*
X1697830Y594600D02*
D03*
Y645400D02*
D03*
X1672430Y594600D02*
D03*
Y645400D02*
D03*
X1647030Y594600D02*
D03*
Y645400D02*
D03*
X1621630Y594600D02*
D03*
Y645400D02*
D03*
X1596230Y594600D02*
D03*
Y645400D02*
D03*
X1570830Y594600D02*
D03*
Y645400D02*
D03*
X1545430Y594600D02*
D03*
Y645400D02*
D03*
X1520030Y594600D02*
D03*
Y645400D02*
D03*
X1494630Y594600D02*
D03*
Y645400D02*
D03*
X1469230Y594600D02*
D03*
Y645400D02*
D03*
X1443830Y594600D02*
D03*
Y645400D02*
D03*
X1418430Y594600D02*
D03*
Y645400D02*
D03*
X1393030Y594600D02*
D03*
Y645400D02*
D03*
X1367630Y594600D02*
D03*
Y645400D02*
D03*
X1342230Y594600D02*
D03*
Y645400D02*
D03*
X1316830Y594600D02*
D03*
Y645400D02*
D03*
X1291430Y594600D02*
D03*
Y645400D02*
D03*
X1266030Y594600D02*
D03*
Y645400D02*
D03*
X1240630Y594600D02*
D03*
Y645400D02*
D03*
X1215230Y594600D02*
D03*
D131*
Y845400D02*
D03*
X1283331Y1184600D02*
D03*
X1215230Y445400D02*
D03*
Y645400D02*
D03*
D132*
X807730Y1250000D02*
D03*
D133*
X854731Y1220000D02*
D03*
D134*
X807730Y1188000D02*
D03*
D135*
X519730Y1143000D02*
D03*
X450730D02*
D03*
X588730D02*
D03*
D136*
X2209730Y1190000D02*
D03*
Y1145000D02*
D03*
X1815610Y1215800D02*
D03*
X1787670D02*
D03*
X1759730D02*
D03*
X1731790D02*
D03*
D137*
X2184730Y1202500D02*
D03*
Y1132500D02*
D03*
D138*
X112740Y1110900D02*
D03*
X159730D02*
D03*
X206720D02*
D03*
X112740Y1149000D02*
D03*
X159730D02*
D03*
X206720D02*
D03*
X185130Y1276000D02*
D03*
X134330D02*
D03*
D139*
X79730Y970000D02*
D03*
D140*
X279730D02*
D03*
X479730D02*
D03*
X394730Y350000D02*
D03*
X337230D02*
D03*
X279730D02*
D03*
X222230D02*
D03*
X164730D02*
D03*
D141*
X1634730Y1229700D02*
D03*
X1884730D02*
D03*
D142*
X1801640Y1244200D02*
D03*
X1773700D02*
D03*
X1745760D02*
D03*
X1717820D02*
D03*
D143*
X1703850Y1215800D02*
D03*
D144*
X1364731Y1210000D02*
D03*
X1114731D02*
D03*
D145*
X1499731Y1280000D02*
D03*
D146*
X1567230Y1272000D02*
D03*
X1432231D02*
D03*
D147*
X1512730Y1242000D02*
D03*
X1486730D02*
D03*
X1533730D02*
D03*
X1465730D02*
D03*
X1533730Y1217000D02*
D03*
X1465730D02*
D03*
D148*
X493130Y1068000D02*
D03*
X442330D02*
D03*
D149*
X319730Y1205000D02*
D03*
Y1055000D02*
D03*
D150*
X855130Y1068600D02*
D03*
D151*
X880530Y611400D02*
D03*
X804330Y1068600D02*
D03*
X702730D02*
D03*
X982130Y611400D02*
D03*
X778930D02*
D03*
X677330D02*
D03*
D152*
X1521730Y1095000D02*
D03*
D153*
X1577730D02*
D03*
D154*
X1282830Y900000D02*
D03*
X1257430D02*
D03*
X1232030D02*
D03*
X249730Y34600D02*
D03*
X275130Y60000D02*
D03*
Y34600D02*
D03*
X300530Y60000D02*
D03*
Y34600D02*
D03*
X577030Y346000D02*
D03*
X602430D02*
D03*
X1182030Y1000400D02*
D03*
X1207430Y975000D02*
D03*
X1182030D02*
D03*
X1207430Y949600D02*
D03*
X1182030D02*
D03*
D155*
X1206630Y900000D02*
D03*
X249730Y60000D02*
D03*
D156*
X1039730Y1270000D02*
D03*
X1139730Y550000D02*
D03*
Y750000D02*
D03*
X2189730Y1270000D02*
D03*
X49730D02*
D03*
Y50000D02*
D03*
X2189730D02*
D03*
Y690000D02*
D03*
Y490000D02*
D03*
D157*
X1207430Y1000400D02*
D03*
M02*
