%FSLAX44Y44*%
%MOMM*%
G71*
G01*
G75*
G04 Layer_Color=8388736*
%ADD10C,0.2000*%
%ADD11R,0.7500X1.3000*%
%ADD12R,1.3000X0.7500*%
%ADD13R,0.9900X0.6900*%
%ADD14O,0.8000X0.3000*%
%ADD15O,0.3000X0.8000*%
%ADD16R,5.3000X5.3000*%
%ADD17R,2.0000X5.5000*%
%ADD18O,2.1000X0.6000*%
%ADD19R,2.0000X0.6000*%
%ADD20R,0.9500X1.6500*%
%ADD21R,0.2500X1.5500*%
%ADD22R,1.5500X0.2500*%
%ADD23R,1.0000X1.5000*%
%ADD24R,0.7000X1.5000*%
%ADD25R,2.0000X3.0000*%
%ADD26R,0.8000X1.5000*%
%ADD27R,1.4500X2.0000*%
%ADD28R,1.0000X2.2000*%
%ADD29R,3.5000X1.2000*%
%ADD30R,5.5000X2.0000*%
%ADD31C,0.3500*%
%ADD32R,2.6000X2.2000*%
%ADD33R,2.4000X2.5000*%
%ADD34R,2.6000X1.8000*%
%ADD35R,6.8000X6.9000*%
%ADD36R,1.0000X1.9000*%
%ADD37P,1.4142X4X270.0*%
%ADD38P,1.4142X4X360.0*%
%ADD39R,2.0320X0.8890*%
%ADD40O,2.0320X0.8890*%
%ADD41O,1.7000X0.4500*%
%ADD42R,0.6500X1.7500*%
%ADD43R,1.3000X1.9000*%
%ADD44C,2.5000*%
%ADD45C,1.0000*%
%ADD46C,0.2500*%
%ADD47C,1.5000*%
%ADD48C,0.5000*%
%ADD49C,0.1500*%
%ADD50C,0.1250*%
%ADD51C,1.8000*%
%ADD52C,2.4000*%
%ADD53C,1.8000*%
%ADD54C,1.6510*%
%ADD55R,1.6510X1.6510*%
%ADD56R,1.6510X1.6510*%
%ADD57C,7.0000*%
%ADD58C,4.6000*%
%ADD59C,1.9000*%
%ADD60R,1.9000X1.9000*%
%ADD61R,1.8000X1.8000*%
%ADD62C,1.8000*%
%ADD63C,5.0000*%
%ADD64C,1.7000*%
%ADD65O,1.4000X3.0000*%
%ADD66O,3.0000X1.4000*%
%ADD67O,3.7000X1.4000*%
%ADD68O,1.3000X3.5000*%
%ADD69O,3.2000X1.4000*%
%ADD70R,3.6000X2.6000*%
%ADD71C,3.0000*%
%ADD72O,1.4000X2.0000*%
%ADD73C,2.5000*%
%ADD74R,2.5000X2.5000*%
%ADD75C,2.0320*%
%ADD76R,2.0320X2.0320*%
%ADD77C,2.5400*%
%ADD78R,1.5000X1.5000*%
%ADD79C,1.5000*%
%ADD80C,0.6000*%
%ADD81C,1.0000*%
%ADD82C,0.4000*%
%ADD83C,0.1778*%
%ADD84C,0.6000*%
%ADD85C,0.2540*%
%ADD86C,0.1250*%
%ADD87C,0.0100*%
%ADD88C,0.2032*%
%ADD89C,0.1270*%
%ADD90C,0.0800*%
%ADD91R,0.9000X1.4500*%
%ADD92R,1.0000X3.2500*%
%ADD93R,1.0000X3.2500*%
%ADD94R,1.0001X3.2500*%
%ADD95R,1.1000X0.2000*%
%ADD96R,0.9532X1.5032*%
%ADD97R,1.5032X0.9532*%
%ADD98R,1.1932X0.8932*%
%ADD99O,1.0032X0.5032*%
%ADD100O,0.5032X1.0032*%
%ADD101R,5.5032X5.5032*%
%ADD102R,2.2032X5.7032*%
%ADD103O,2.3032X0.8032*%
%ADD104R,2.2032X0.8032*%
%ADD105R,1.1532X1.8532*%
%ADD106R,0.4532X1.7532*%
%ADD107R,1.7532X0.4532*%
%ADD108R,1.2032X1.7032*%
%ADD109R,0.9032X1.7032*%
%ADD110R,2.2032X3.2032*%
%ADD111R,1.0032X1.7032*%
%ADD112R,1.6532X2.2032*%
%ADD113R,1.2032X2.4032*%
%ADD114R,3.7032X1.4032*%
%ADD115R,5.7032X2.2032*%
%ADD116C,0.5532*%
%ADD117R,2.8032X2.4032*%
%ADD118R,2.6032X2.7032*%
%ADD119R,2.8032X2.0032*%
%ADD120R,7.0032X7.1032*%
%ADD121R,1.2032X2.1032*%
%ADD122P,1.7016X4X270.0*%
%ADD123P,1.7016X4X360.0*%
%ADD124R,2.2352X1.0922*%
%ADD125O,2.2352X1.0922*%
%ADD126O,1.9032X0.6532*%
%ADD127R,0.8532X1.9532*%
%ADD128R,1.5032X2.1032*%
%ADD129C,2.6032*%
%ADD130C,2.0032*%
%ADD131C,1.8542*%
%ADD132R,1.8542X1.8542*%
%ADD133R,1.8542X1.8542*%
%ADD134C,7.2032*%
%ADD135C,4.8032*%
%ADD136C,2.1032*%
%ADD137R,2.1032X2.1032*%
%ADD138R,0.2032X0.2032*%
%ADD139R,2.0032X2.0032*%
%ADD140C,2.0032*%
%ADD141C,5.2032*%
%ADD142C,1.9032*%
%ADD143O,1.6032X3.2032*%
%ADD144O,3.2032X1.6032*%
%ADD145O,3.9032X1.6032*%
%ADD146O,1.5032X3.7032*%
%ADD147O,3.4032X1.6032*%
%ADD148R,3.8032X2.8032*%
%ADD149C,3.2032*%
%ADD150O,1.6032X2.2032*%
%ADD151C,2.7032*%
%ADD152R,2.7032X2.7032*%
%ADD153C,2.2352*%
%ADD154R,2.2352X2.2352*%
%ADD155C,2.7432*%
%ADD156R,1.7032X1.7032*%
%ADD157C,1.7032*%
%ADD158C,1.2032*%
D48*
X0Y-0D02*
Y1320000D01*
Y-0D02*
X2240000D01*
Y1320000D01*
X0D02*
X2240000D01*
D96*
X1788750Y50000D02*
D03*
X1771250D02*
D03*
X1788750Y25000D02*
D03*
X1771250D02*
D03*
X1718750Y50000D02*
D03*
X1701250D02*
D03*
X1718750Y25000D02*
D03*
X1701250D02*
D03*
X1648750Y50000D02*
D03*
X1631250D02*
D03*
X1648750Y25000D02*
D03*
X1631250D02*
D03*
X1578750D02*
D03*
X1561250D02*
D03*
X1578750Y50000D02*
D03*
X1561250D02*
D03*
X1508750D02*
D03*
X1491250D02*
D03*
X1508750Y25000D02*
D03*
X1491250D02*
D03*
X1438750Y50000D02*
D03*
X1421250D02*
D03*
X1438750Y25000D02*
D03*
X1421250D02*
D03*
X741250Y1015000D02*
D03*
X758750D02*
D03*
X1471250Y1140000D02*
D03*
X1488750D02*
D03*
X1471250Y1120000D02*
D03*
X1488750D02*
D03*
X1646250Y380000D02*
D03*
X1663750D02*
D03*
X1576250Y450000D02*
D03*
X1593750D02*
D03*
X1532500D02*
D03*
X1557500D02*
D03*
X1576250Y340000D02*
D03*
X1593750D02*
D03*
X758750Y945000D02*
D03*
X741250D02*
D03*
X988750Y970000D02*
D03*
X971250D02*
D03*
X988750Y950000D02*
D03*
X971250D02*
D03*
X938750Y1145000D02*
D03*
X921250D02*
D03*
X938750Y1125000D02*
D03*
X921250D02*
D03*
X938750Y1105000D02*
D03*
X921250D02*
D03*
X848750D02*
D03*
X831250D02*
D03*
X848750Y1125000D02*
D03*
X831250D02*
D03*
X848750Y1145000D02*
D03*
X831250D02*
D03*
X49250Y1034000D02*
D03*
X66750D02*
D03*
Y1054000D02*
D03*
X49250D02*
D03*
X458750Y995000D02*
D03*
X441250D02*
D03*
X1421250Y275000D02*
D03*
X1438750D02*
D03*
X1421250Y205000D02*
D03*
X1438750D02*
D03*
X1198750Y265000D02*
D03*
X1181250D02*
D03*
X1198750Y240000D02*
D03*
X1181250D02*
D03*
X1318750Y560000D02*
D03*
X1301250D02*
D03*
X1418750D02*
D03*
X1401250D02*
D03*
X1878750Y290000D02*
D03*
X1861250D02*
D03*
X2041250D02*
D03*
X2058750D02*
D03*
X1438750Y295000D02*
D03*
X1421250D02*
D03*
X1423750Y401000D02*
D03*
X1406250D02*
D03*
X1483250D02*
D03*
X1500750D02*
D03*
X1715750Y244000D02*
D03*
X1698250D02*
D03*
Y144000D02*
D03*
X1715750D02*
D03*
X950750Y182000D02*
D03*
X933250D02*
D03*
X950750Y202000D02*
D03*
X933250D02*
D03*
X987750Y182000D02*
D03*
X970250D02*
D03*
X987750Y202000D02*
D03*
X970250D02*
D03*
X1024750D02*
D03*
X1007250D02*
D03*
X1024750Y182000D02*
D03*
X1007250D02*
D03*
X1593750Y360000D02*
D03*
X1576250D02*
D03*
X589500Y1149000D02*
D03*
X614500D02*
D03*
X1578250Y144000D02*
D03*
X1595750D02*
D03*
Y244000D02*
D03*
X1578250D02*
D03*
X1858750Y50000D02*
D03*
X1841250D02*
D03*
X1858750Y25000D02*
D03*
X1841250D02*
D03*
D97*
X170000Y308750D02*
D03*
Y291250D02*
D03*
X150000Y308750D02*
D03*
Y291250D02*
D03*
X540000D02*
D03*
Y308750D02*
D03*
X560000Y291250D02*
D03*
Y308750D02*
D03*
X740000Y988750D02*
D03*
Y971250D02*
D03*
X500000Y918750D02*
D03*
Y901250D02*
D03*
X520000Y918750D02*
D03*
Y901250D02*
D03*
X540000Y918750D02*
D03*
Y901250D02*
D03*
X560000Y918750D02*
D03*
Y901250D02*
D03*
X580000Y918750D02*
D03*
Y901250D02*
D03*
X600000Y918750D02*
D03*
Y901250D02*
D03*
X620000Y918750D02*
D03*
Y901250D02*
D03*
X640000Y918750D02*
D03*
Y901250D02*
D03*
X660000Y918750D02*
D03*
Y901250D02*
D03*
X680000Y918750D02*
D03*
Y901250D02*
D03*
X700000Y918750D02*
D03*
Y901250D02*
D03*
X720000Y918750D02*
D03*
Y901250D02*
D03*
X740000Y918750D02*
D03*
Y901250D02*
D03*
X760000Y918750D02*
D03*
Y901250D02*
D03*
Y988750D02*
D03*
Y971250D02*
D03*
X720000D02*
D03*
Y988750D02*
D03*
X840000Y961250D02*
D03*
Y978750D02*
D03*
X909000Y906250D02*
D03*
Y923750D02*
D03*
X889000Y906250D02*
D03*
Y923750D02*
D03*
X869000Y906250D02*
D03*
Y923750D02*
D03*
X840000Y1004250D02*
D03*
Y1021750D02*
D03*
Y935750D02*
D03*
Y918250D02*
D03*
X1090000Y1078750D02*
D03*
Y1061250D02*
D03*
X1070000Y1078750D02*
D03*
Y1061250D02*
D03*
X1050000Y1078750D02*
D03*
Y1061250D02*
D03*
X1030000Y1078750D02*
D03*
Y1061250D02*
D03*
X1010000Y1078750D02*
D03*
Y1061250D02*
D03*
X990000Y1078750D02*
D03*
Y1061250D02*
D03*
X970000Y1078750D02*
D03*
Y1061250D02*
D03*
X950000Y1078750D02*
D03*
Y1061250D02*
D03*
X930000Y1078750D02*
D03*
Y1061250D02*
D03*
X910000Y1078750D02*
D03*
Y1061250D02*
D03*
X890000Y1078750D02*
D03*
Y1061250D02*
D03*
X870000Y1078750D02*
D03*
Y1061250D02*
D03*
X850000Y1078750D02*
D03*
Y1061250D02*
D03*
X830000Y1078750D02*
D03*
Y1061250D02*
D03*
X810000Y1078750D02*
D03*
Y1061250D02*
D03*
X2018600Y38550D02*
D03*
Y56050D02*
D03*
X920000Y248750D02*
D03*
Y231250D02*
D03*
X345000Y1033750D02*
D03*
Y1016250D02*
D03*
X365000Y1033750D02*
D03*
Y1016250D02*
D03*
X480000Y1151750D02*
D03*
Y1134250D02*
D03*
X460000Y1151750D02*
D03*
Y1134250D02*
D03*
X440000Y1151750D02*
D03*
Y1134250D02*
D03*
X420000Y1151750D02*
D03*
Y1134250D02*
D03*
X535000Y1073750D02*
D03*
Y1056250D02*
D03*
X515000D02*
D03*
Y1073750D02*
D03*
Y1038750D02*
D03*
Y1021250D02*
D03*
X385000Y1033750D02*
D03*
Y1016250D02*
D03*
X1354000Y352250D02*
D03*
Y369750D02*
D03*
X1334000D02*
D03*
Y352250D02*
D03*
X1314000D02*
D03*
Y369750D02*
D03*
X1280000Y352250D02*
D03*
Y369750D02*
D03*
X1250000Y352250D02*
D03*
Y369750D02*
D03*
X1265000Y128750D02*
D03*
Y111250D02*
D03*
X1325000Y128750D02*
D03*
Y111250D02*
D03*
X1350000Y128750D02*
D03*
Y111250D02*
D03*
X1045000Y183250D02*
D03*
Y200750D02*
D03*
X979000Y159500D02*
D03*
Y134500D02*
D03*
X959000Y155750D02*
D03*
Y138250D02*
D03*
X1709000Y1075750D02*
D03*
Y1058250D02*
D03*
X570000Y1101250D02*
D03*
Y1118750D02*
D03*
D98*
X1641250Y415000D02*
D03*
X1668750Y424500D02*
D03*
Y405500D02*
D03*
X988750Y1105500D02*
D03*
Y1115000D02*
D03*
Y1124500D02*
D03*
X961250D02*
D03*
Y1105500D02*
D03*
Y1115000D02*
D03*
X71750Y1074500D02*
D03*
Y1084000D02*
D03*
Y1093500D02*
D03*
X44250D02*
D03*
Y1074500D02*
D03*
X1002250Y147000D02*
D03*
X1029750Y156500D02*
D03*
Y137500D02*
D03*
D99*
X870122Y1012542D02*
D03*
Y1007542D02*
D03*
Y1002542D02*
D03*
Y997542D02*
D03*
Y992542D02*
D03*
Y987542D02*
D03*
Y982542D02*
D03*
Y977542D02*
D03*
Y972542D02*
D03*
Y967542D02*
D03*
Y962542D02*
D03*
Y957542D02*
D03*
X940122D02*
D03*
Y962542D02*
D03*
Y967542D02*
D03*
Y972542D02*
D03*
Y977542D02*
D03*
Y982542D02*
D03*
Y987542D02*
D03*
Y992542D02*
D03*
Y997542D02*
D03*
Y1002542D02*
D03*
Y1007542D02*
D03*
Y1012542D02*
D03*
D100*
X877622Y950042D02*
D03*
X882622D02*
D03*
X887622D02*
D03*
X892622D02*
D03*
X897622D02*
D03*
X902622D02*
D03*
X907622D02*
D03*
X912622D02*
D03*
X917622D02*
D03*
X922622D02*
D03*
X927622D02*
D03*
X932622D02*
D03*
Y1020042D02*
D03*
X927622D02*
D03*
X922622D02*
D03*
X917622D02*
D03*
X912622D02*
D03*
X907622D02*
D03*
X902622D02*
D03*
X897622D02*
D03*
X892622D02*
D03*
X887622D02*
D03*
X882622D02*
D03*
X877622D02*
D03*
D101*
X905122Y985042D02*
D03*
D102*
X800000Y909500D02*
D03*
Y1004500D02*
D03*
D103*
X1017516Y235900D02*
D03*
Y248600D02*
D03*
Y261300D02*
D03*
Y274000D02*
D03*
X952516D02*
D03*
Y261300D02*
D03*
Y248600D02*
D03*
Y235900D02*
D03*
D104*
X484000Y1020498D02*
D03*
Y1033198D02*
D03*
Y1045898D02*
D03*
Y1058598D02*
D03*
Y1071298D02*
D03*
Y1083998D02*
D03*
Y1096698D02*
D03*
Y1109398D02*
D03*
X416000Y1020498D02*
D03*
Y1033198D02*
D03*
Y1045898D02*
D03*
Y1058598D02*
D03*
Y1071298D02*
D03*
Y1083998D02*
D03*
Y1096698D02*
D03*
Y1109398D02*
D03*
D105*
X1397250Y1120000D02*
D03*
X1424750D02*
D03*
D106*
X1370000Y160750D02*
D03*
X1365000D02*
D03*
X1360000D02*
D03*
X1355000D02*
D03*
X1350000D02*
D03*
X1345000D02*
D03*
X1340000D02*
D03*
X1335000D02*
D03*
X1330000D02*
D03*
X1325000D02*
D03*
X1320000D02*
D03*
X1315000D02*
D03*
X1310000D02*
D03*
X1305000D02*
D03*
X1300000D02*
D03*
X1295000D02*
D03*
X1290000D02*
D03*
X1285000D02*
D03*
X1280000D02*
D03*
X1275000D02*
D03*
X1270000D02*
D03*
X1265000D02*
D03*
X1260000D02*
D03*
X1255000D02*
D03*
X1250000D02*
D03*
Y319000D02*
D03*
X1255000D02*
D03*
X1260000D02*
D03*
X1265000D02*
D03*
X1270000D02*
D03*
X1275000D02*
D03*
X1280000D02*
D03*
X1285000D02*
D03*
X1290000D02*
D03*
X1295000D02*
D03*
X1300000D02*
D03*
X1305000D02*
D03*
X1310000D02*
D03*
X1315000D02*
D03*
X1320000D02*
D03*
X1325000D02*
D03*
X1330000D02*
D03*
X1335000D02*
D03*
X1340000D02*
D03*
X1345000D02*
D03*
X1350000D02*
D03*
X1355000D02*
D03*
X1360000D02*
D03*
X1365000D02*
D03*
X1370000D02*
D03*
D107*
X1231000Y180000D02*
D03*
Y185000D02*
D03*
Y190000D02*
D03*
Y195000D02*
D03*
Y200000D02*
D03*
Y205000D02*
D03*
Y210000D02*
D03*
Y215000D02*
D03*
Y220000D02*
D03*
Y225000D02*
D03*
Y230000D02*
D03*
Y235000D02*
D03*
Y240000D02*
D03*
Y245000D02*
D03*
Y250000D02*
D03*
Y255000D02*
D03*
Y260000D02*
D03*
Y265000D02*
D03*
Y270000D02*
D03*
Y275000D02*
D03*
Y280000D02*
D03*
Y285000D02*
D03*
Y290000D02*
D03*
Y295000D02*
D03*
Y300000D02*
D03*
X1389000D02*
D03*
Y295000D02*
D03*
Y290000D02*
D03*
Y285000D02*
D03*
Y280000D02*
D03*
Y275000D02*
D03*
Y270000D02*
D03*
Y265000D02*
D03*
Y260000D02*
D03*
Y255000D02*
D03*
Y250000D02*
D03*
Y245000D02*
D03*
Y240000D02*
D03*
Y235000D02*
D03*
Y230000D02*
D03*
Y225000D02*
D03*
Y220000D02*
D03*
Y215000D02*
D03*
Y210000D02*
D03*
Y205000D02*
D03*
Y200000D02*
D03*
Y195000D02*
D03*
Y190000D02*
D03*
Y185000D02*
D03*
Y180000D02*
D03*
D108*
X663800Y310000D02*
D03*
X688800D02*
D03*
X713800D02*
D03*
X738800D02*
D03*
X763800D02*
D03*
X788800D02*
D03*
X639500D02*
D03*
X622500D02*
D03*
X813800D02*
D03*
X273800D02*
D03*
X298800D02*
D03*
X323800D02*
D03*
X348800D02*
D03*
X373800D02*
D03*
X398800D02*
D03*
X249500D02*
D03*
X232500D02*
D03*
X423800D02*
D03*
D109*
X609500D02*
D03*
X597500D02*
D03*
X219500D02*
D03*
X207500D02*
D03*
D110*
X577200Y32500D02*
D03*
X878200D02*
D03*
X187200D02*
D03*
X488200D02*
D03*
D111*
X55050Y174500D02*
D03*
X66050D02*
D03*
X77050D02*
D03*
X88050D02*
D03*
X99050D02*
D03*
X110050D02*
D03*
X121050D02*
D03*
X132050D02*
D03*
D112*
X168750Y231500D02*
D03*
X31250D02*
D03*
X168750Y148500D02*
D03*
X31250D02*
D03*
D113*
X225400Y1110000D02*
D03*
X200000D02*
D03*
X174600D02*
D03*
X149200D02*
D03*
Y1010000D02*
D03*
X174600D02*
D03*
X200000D02*
D03*
X225400D02*
D03*
D114*
X1260000Y490000D02*
D03*
X1320000D02*
D03*
X1460000D02*
D03*
X1400000D02*
D03*
X1860000Y220000D02*
D03*
X1920000D02*
D03*
X2000000D02*
D03*
X2060000D02*
D03*
D115*
X1406500Y361000D02*
D03*
X1501500D02*
D03*
D116*
X1680726Y175128D02*
D03*
Y182628D02*
D03*
Y190128D02*
D03*
Y197628D02*
D03*
Y205128D02*
D03*
Y212628D02*
D03*
X1688226Y175128D02*
D03*
Y182628D02*
D03*
Y190128D02*
D03*
Y197628D02*
D03*
Y205128D02*
D03*
Y212628D02*
D03*
X1695726Y175128D02*
D03*
Y182628D02*
D03*
Y190128D02*
D03*
Y197628D02*
D03*
Y205128D02*
D03*
Y212628D02*
D03*
X1703226Y175128D02*
D03*
Y182628D02*
D03*
Y190128D02*
D03*
Y197628D02*
D03*
Y205128D02*
D03*
Y212628D02*
D03*
X1710726Y175128D02*
D03*
Y182628D02*
D03*
Y190128D02*
D03*
Y197628D02*
D03*
Y205128D02*
D03*
Y212628D02*
D03*
X1718226Y175128D02*
D03*
Y182628D02*
D03*
Y190128D02*
D03*
Y197628D02*
D03*
Y205128D02*
D03*
Y212628D02*
D03*
X1725726Y175128D02*
D03*
Y182628D02*
D03*
Y190128D02*
D03*
Y197628D02*
D03*
Y205128D02*
D03*
Y212628D02*
D03*
X1733226Y175128D02*
D03*
Y182628D02*
D03*
Y190128D02*
D03*
Y197628D02*
D03*
Y205128D02*
D03*
Y212628D02*
D03*
X1560726Y175128D02*
D03*
Y182628D02*
D03*
Y190128D02*
D03*
Y197628D02*
D03*
Y205128D02*
D03*
Y212628D02*
D03*
X1568226Y175128D02*
D03*
Y182628D02*
D03*
Y190128D02*
D03*
Y197628D02*
D03*
Y205128D02*
D03*
Y212628D02*
D03*
X1575726Y175128D02*
D03*
Y182628D02*
D03*
Y190128D02*
D03*
Y197628D02*
D03*
Y205128D02*
D03*
Y212628D02*
D03*
X1583226Y175128D02*
D03*
Y182628D02*
D03*
Y190128D02*
D03*
Y197628D02*
D03*
Y205128D02*
D03*
Y212628D02*
D03*
X1590726Y175128D02*
D03*
Y182628D02*
D03*
Y190128D02*
D03*
Y197628D02*
D03*
Y205128D02*
D03*
Y212628D02*
D03*
X1598226Y175128D02*
D03*
Y182628D02*
D03*
Y190128D02*
D03*
Y197628D02*
D03*
Y205128D02*
D03*
Y212628D02*
D03*
X1605726Y175128D02*
D03*
Y182628D02*
D03*
Y190128D02*
D03*
Y197628D02*
D03*
Y205128D02*
D03*
Y212628D02*
D03*
X1613226Y175128D02*
D03*
Y182628D02*
D03*
Y190128D02*
D03*
Y197628D02*
D03*
Y205128D02*
D03*
Y212628D02*
D03*
D117*
X1136000Y122000D02*
D03*
D118*
X1093000Y163000D02*
D03*
D119*
X1136000Y29000D02*
D03*
X1064000Y48000D02*
D03*
Y21000D02*
D03*
D120*
X1320052Y1214904D02*
D03*
D121*
X1342852Y1149904D02*
D03*
X1297252D02*
D03*
D122*
X956766Y93234D02*
D03*
X1023234Y26766D02*
D03*
D123*
X956766Y26766D02*
D03*
X1023234Y93234D02*
D03*
D124*
X1577750Y1118300D02*
D03*
D125*
X1514250Y1143700D02*
D03*
X1577750D02*
D03*
X1514250Y1118300D02*
D03*
D126*
X1613592Y385450D02*
D03*
Y391950D02*
D03*
Y398450D02*
D03*
Y404950D02*
D03*
Y411450D02*
D03*
Y417950D02*
D03*
Y424450D02*
D03*
X1556592D02*
D03*
Y417950D02*
D03*
Y411450D02*
D03*
Y404950D02*
D03*
Y398450D02*
D03*
Y391950D02*
D03*
Y385450D02*
D03*
D127*
X608650Y1067000D02*
D03*
X621350D02*
D03*
X634050D02*
D03*
X595950Y1123000D02*
D03*
X608650D02*
D03*
X621350D02*
D03*
X634050D02*
D03*
X595950Y1067000D02*
D03*
D128*
X637500Y1036000D02*
D03*
X582500D02*
D03*
Y1004000D02*
D03*
X637500D02*
D03*
D129*
X55000Y1132500D02*
D03*
Y1202500D02*
D03*
D130*
X30000Y1145000D02*
D03*
Y1190000D02*
D03*
X1024500Y394600D02*
D03*
X999100Y445400D02*
D03*
Y394600D02*
D03*
X973700Y445400D02*
D03*
Y394600D02*
D03*
X948300Y445400D02*
D03*
Y394600D02*
D03*
X922900Y445400D02*
D03*
Y394600D02*
D03*
X897500Y445400D02*
D03*
Y394600D02*
D03*
X872100Y445400D02*
D03*
Y394600D02*
D03*
X846700Y445400D02*
D03*
Y394600D02*
D03*
X821300Y445400D02*
D03*
Y394600D02*
D03*
X795900Y445400D02*
D03*
Y394600D02*
D03*
X770500Y445400D02*
D03*
Y394600D02*
D03*
X745100Y445400D02*
D03*
Y394600D02*
D03*
X719700Y445400D02*
D03*
Y394600D02*
D03*
X694300Y445400D02*
D03*
Y394600D02*
D03*
X668900Y445400D02*
D03*
Y394600D02*
D03*
X643500Y445400D02*
D03*
Y394600D02*
D03*
X618100Y445400D02*
D03*
Y394600D02*
D03*
X592700Y445400D02*
D03*
Y394600D02*
D03*
X567300Y445400D02*
D03*
Y394600D02*
D03*
X541900Y445400D02*
D03*
Y394600D02*
D03*
X516500Y445400D02*
D03*
Y394600D02*
D03*
X491100Y445400D02*
D03*
Y394600D02*
D03*
X465700Y445400D02*
D03*
Y394600D02*
D03*
X440300Y445400D02*
D03*
Y394600D02*
D03*
X414900Y445400D02*
D03*
Y394600D02*
D03*
X389500Y445400D02*
D03*
Y394600D02*
D03*
X364100Y445400D02*
D03*
Y394600D02*
D03*
X338700Y445400D02*
D03*
Y394600D02*
D03*
X313300Y445400D02*
D03*
Y394600D02*
D03*
X287900Y445400D02*
D03*
Y394600D02*
D03*
X262500Y445400D02*
D03*
Y394600D02*
D03*
X237100Y445400D02*
D03*
Y394600D02*
D03*
X211700Y445400D02*
D03*
Y394600D02*
D03*
X186300Y445400D02*
D03*
Y394600D02*
D03*
X160900Y445400D02*
D03*
Y394600D02*
D03*
X135500Y445400D02*
D03*
Y394600D02*
D03*
X1024500Y594600D02*
D03*
X999100Y645400D02*
D03*
Y594600D02*
D03*
X973700Y645400D02*
D03*
Y594600D02*
D03*
X948300Y645400D02*
D03*
Y594600D02*
D03*
X922900Y645400D02*
D03*
Y594600D02*
D03*
X897500Y645400D02*
D03*
Y594600D02*
D03*
X872100Y645400D02*
D03*
Y594600D02*
D03*
X846700Y645400D02*
D03*
Y594600D02*
D03*
X821300Y645400D02*
D03*
Y594600D02*
D03*
X795900Y645400D02*
D03*
Y594600D02*
D03*
X770500Y645400D02*
D03*
Y594600D02*
D03*
X745100Y645400D02*
D03*
Y594600D02*
D03*
X719700Y645400D02*
D03*
Y594600D02*
D03*
X694300Y645400D02*
D03*
Y594600D02*
D03*
X668900Y645400D02*
D03*
Y594600D02*
D03*
X643500Y645400D02*
D03*
Y594600D02*
D03*
X618100Y645400D02*
D03*
Y594600D02*
D03*
X592700Y645400D02*
D03*
Y594600D02*
D03*
X567300Y645400D02*
D03*
Y594600D02*
D03*
X541900Y645400D02*
D03*
Y594600D02*
D03*
X516500Y645400D02*
D03*
Y594600D02*
D03*
X491100Y645400D02*
D03*
Y594600D02*
D03*
X465700Y645400D02*
D03*
Y594600D02*
D03*
X440300Y645400D02*
D03*
Y594600D02*
D03*
X414900Y645400D02*
D03*
Y594600D02*
D03*
X389500Y645400D02*
D03*
Y594600D02*
D03*
X364100Y645400D02*
D03*
Y594600D02*
D03*
X338700Y645400D02*
D03*
Y594600D02*
D03*
X313300Y645400D02*
D03*
Y594600D02*
D03*
X287900Y645400D02*
D03*
Y594600D02*
D03*
X262500Y645400D02*
D03*
Y594600D02*
D03*
X237100Y645400D02*
D03*
Y594600D02*
D03*
X211700Y645400D02*
D03*
Y594600D02*
D03*
X186300Y645400D02*
D03*
Y594600D02*
D03*
X160900Y645400D02*
D03*
Y594600D02*
D03*
X135500Y645400D02*
D03*
Y594600D02*
D03*
X1024500Y794600D02*
D03*
X999100Y845400D02*
D03*
Y794600D02*
D03*
X973700Y845400D02*
D03*
Y794600D02*
D03*
X948300Y845400D02*
D03*
Y794600D02*
D03*
X922900Y845400D02*
D03*
Y794600D02*
D03*
X897500Y845400D02*
D03*
Y794600D02*
D03*
X872100Y845400D02*
D03*
Y794600D02*
D03*
X846700Y845400D02*
D03*
Y794600D02*
D03*
X821300Y845400D02*
D03*
Y794600D02*
D03*
X795900Y845400D02*
D03*
Y794600D02*
D03*
X770500Y845400D02*
D03*
Y794600D02*
D03*
X745100Y845400D02*
D03*
Y794600D02*
D03*
X719700Y845400D02*
D03*
Y794600D02*
D03*
X694300Y845400D02*
D03*
Y794600D02*
D03*
X668900Y845400D02*
D03*
Y794600D02*
D03*
X643500Y845400D02*
D03*
Y794600D02*
D03*
X618100Y845400D02*
D03*
Y794600D02*
D03*
X592700Y845400D02*
D03*
Y794600D02*
D03*
X567300Y845400D02*
D03*
Y794600D02*
D03*
X541900Y845400D02*
D03*
Y794600D02*
D03*
X516500Y845400D02*
D03*
Y794600D02*
D03*
X491100Y845400D02*
D03*
Y794600D02*
D03*
X465700Y845400D02*
D03*
Y794600D02*
D03*
X440300Y845400D02*
D03*
Y794600D02*
D03*
X414900Y845400D02*
D03*
Y794600D02*
D03*
X389500Y845400D02*
D03*
Y794600D02*
D03*
X364100Y845400D02*
D03*
Y794600D02*
D03*
X338700Y845400D02*
D03*
Y794600D02*
D03*
X313300Y845400D02*
D03*
Y794600D02*
D03*
X287900Y845400D02*
D03*
Y794600D02*
D03*
X262500Y845400D02*
D03*
Y794600D02*
D03*
X237100Y845400D02*
D03*
Y794600D02*
D03*
X211700Y845400D02*
D03*
Y794600D02*
D03*
X186300Y845400D02*
D03*
Y794600D02*
D03*
X160900Y845400D02*
D03*
Y794600D02*
D03*
X135500Y845400D02*
D03*
Y794600D02*
D03*
X507940Y1215800D02*
D03*
X480000D02*
D03*
X452060D02*
D03*
X424120D02*
D03*
D131*
X1057700Y949600D02*
D03*
X1032300D02*
D03*
X1057700Y975000D02*
D03*
X1032300D02*
D03*
X1057700Y1000400D02*
D03*
X1007700Y900000D02*
D03*
X982300D02*
D03*
X956900D02*
D03*
X1939200Y34600D02*
D03*
Y60000D02*
D03*
X1964600Y34600D02*
D03*
Y60000D02*
D03*
X1990000Y34600D02*
D03*
D132*
X1032300Y1000400D02*
D03*
D133*
X1033100Y900000D02*
D03*
X1990000Y60000D02*
D03*
D134*
X50000Y490000D02*
D03*
Y690000D02*
D03*
Y50000D02*
D03*
X2190000D02*
D03*
Y1270000D02*
D03*
X50000D02*
D03*
X1100000Y750000D02*
D03*
Y550000D02*
D03*
X1200000Y1270000D02*
D03*
D135*
X1125000Y1210000D02*
D03*
X875000D02*
D03*
D136*
X956400Y1235400D02*
D03*
X979400D02*
D03*
X1002400D02*
D03*
X1025400D02*
D03*
X1048400D02*
D03*
X945000Y1210000D02*
D03*
X968000D02*
D03*
X991000D02*
D03*
X1013999D02*
D03*
X1037000D02*
D03*
X1048400Y1184600D02*
D03*
X1025400D02*
D03*
X1002400D02*
D03*
X979400D02*
D03*
D137*
X956400D02*
D03*
D138*
X605000Y282000D02*
D03*
X815000D02*
D03*
X215000D02*
D03*
X425000D02*
D03*
X1100000Y40000D02*
D03*
Y110000D02*
D03*
D139*
X1024500Y445400D02*
D03*
Y645400D02*
D03*
Y845400D02*
D03*
X535880Y1215800D02*
D03*
D140*
X521910Y1244200D02*
D03*
X493970D02*
D03*
X466030D02*
D03*
X438090D02*
D03*
D141*
X355000Y1229700D02*
D03*
X605000D02*
D03*
D142*
X773999Y1217000D02*
D03*
X706000D02*
D03*
X773999Y1242000D02*
D03*
X706000D02*
D03*
X753000D02*
D03*
X727000D02*
D03*
D143*
X807500Y1272000D02*
D03*
X672500D02*
D03*
D144*
X740000Y1280000D02*
D03*
D145*
X1432000Y1188000D02*
D03*
D146*
X1385000Y1220000D02*
D03*
D147*
X1432000Y1250000D02*
D03*
D148*
X1651000Y1150000D02*
D03*
X1789000D02*
D03*
X1720000D02*
D03*
D149*
X2105400Y1277000D02*
D03*
X2054600D02*
D03*
X2033010Y1150000D02*
D03*
X2080000D02*
D03*
X2126990D02*
D03*
X2033010Y1111900D02*
D03*
X2080000D02*
D03*
X2126990D02*
D03*
D150*
X1797400Y1068000D02*
D03*
X1746600D02*
D03*
D151*
X2075000Y350000D02*
D03*
X2017500D02*
D03*
X1960000D02*
D03*
X1902500D02*
D03*
X1845000D02*
D03*
X1760000Y970000D02*
D03*
X1960000D02*
D03*
D152*
X2160000D02*
D03*
D153*
X1562400Y611400D02*
D03*
X1460800D02*
D03*
X1257600D02*
D03*
X1537000Y1068600D02*
D03*
X1435400D02*
D03*
X1359200Y611400D02*
D03*
D154*
X1384600Y1068600D02*
D03*
D155*
X1920000Y1055000D02*
D03*
Y1205000D02*
D03*
D156*
X662000Y1095000D02*
D03*
D157*
X718000D02*
D03*
D158*
X905122Y985042D02*
D03*
M02*
