%FSLAX44Y44*%
%MOMM*%
G71*
G01*
G75*
G04 Layer_Color=4989720*
%ADD10C,0.2000*%
%ADD11R,1.3000X0.7500*%
%ADD12R,0.9900X0.6900*%
%ADD13R,0.7500X1.3000*%
%ADD14R,3.5000X1.2000*%
%ADD15O,0.8000X0.3000*%
%ADD16O,0.3000X0.8000*%
%ADD17R,5.3000X5.3000*%
%ADD18R,2.0000X5.5000*%
%ADD19O,2.1000X0.6000*%
%ADD20R,2.0000X0.6000*%
%ADD21R,0.9500X1.6500*%
%ADD22R,0.2500X1.5500*%
%ADD23R,1.5500X0.2500*%
%ADD24R,1.0000X1.5000*%
%ADD25R,0.7000X1.5000*%
%ADD26R,2.0000X3.0000*%
%ADD27R,0.8000X1.5000*%
%ADD28R,1.4500X2.0000*%
%ADD29R,1.0000X2.2000*%
%ADD30R,5.5000X2.0000*%
%ADD31C,0.3500*%
%ADD32R,2.6000X2.2000*%
%ADD33R,2.4000X2.5000*%
%ADD34R,2.6000X1.8000*%
%ADD35R,6.8000X6.9000*%
%ADD36R,1.0000X1.9000*%
%ADD37P,1.4142X4X270.0*%
%ADD38P,1.4142X4X360.0*%
%ADD39R,2.0320X0.8890*%
%ADD40O,2.0320X0.8890*%
%ADD41O,1.7000X0.4500*%
%ADD42R,0.6500X1.7500*%
%ADD43R,1.3000X1.9000*%
%ADD44C,2.5000*%
%ADD45C,0.5000*%
%ADD46C,0.2500*%
%ADD47C,1.8000*%
%ADD48C,1.0000*%
%ADD49C,1.5000*%
%ADD50C,0.1500*%
%ADD51C,0.1250*%
%ADD52C,2.0320*%
%ADD53R,2.0320X2.0320*%
%ADD54C,2.4000*%
%ADD55C,1.8000*%
%ADD56C,1.6510*%
%ADD57R,1.6510X1.6510*%
%ADD58R,1.6510X1.6510*%
%ADD59C,7.0000*%
%ADD60C,4.6000*%
%ADD61C,1.9000*%
%ADD62R,1.9000X1.9000*%
%ADD63R,1.8000X1.8000*%
%ADD64C,1.8000*%
%ADD65C,5.0000*%
%ADD66C,1.7000*%
%ADD67O,1.4000X3.0000*%
%ADD68O,3.0000X1.4000*%
%ADD69O,3.7000X1.4000*%
%ADD70O,1.3000X3.5000*%
%ADD71O,3.2000X1.4000*%
%ADD72R,3.6000X2.6000*%
%ADD73C,3.0000*%
%ADD74O,1.4000X2.0000*%
%ADD75C,2.5000*%
%ADD76R,2.5000X2.5000*%
%ADD77C,2.5400*%
%ADD78R,1.5000X1.5000*%
%ADD79C,1.5000*%
%ADD80C,0.6000*%
%ADD81C,0.4000*%
%ADD82C,1.0000*%
%ADD83C,0.1778*%
%ADD84C,0.2540*%
%ADD85C,0.6000*%
%ADD86C,0.1250*%
%ADD87C,0.0100*%
%ADD88C,0.2032*%
%ADD89C,0.1270*%
%ADD90C,0.0800*%
%ADD91R,1.0000X3.2500*%
%ADD92R,1.0000X3.2500*%
%ADD93R,0.9000X1.4500*%
%ADD94R,1.0001X3.2500*%
%ADD95R,1.1000X0.2000*%
%ADD96R,1.5032X0.9532*%
%ADD97R,1.1932X0.8932*%
%ADD98R,0.9532X1.5032*%
%ADD99R,3.7032X1.4032*%
%ADD100O,1.0032X0.5032*%
%ADD101O,0.5032X1.0032*%
%ADD102R,5.5032X5.5032*%
%ADD103R,2.2032X5.7032*%
%ADD104O,2.3032X0.8032*%
%ADD105R,2.2032X0.8032*%
%ADD106R,1.1532X1.8532*%
%ADD107R,0.4532X1.7532*%
%ADD108R,1.7532X0.4532*%
%ADD109R,1.2032X1.7032*%
%ADD110R,0.9032X1.7032*%
%ADD111R,2.2032X3.2032*%
%ADD112R,1.0032X1.7032*%
%ADD113R,1.6532X2.2032*%
%ADD114R,1.2032X2.4032*%
%ADD115R,5.7032X2.2032*%
%ADD116C,0.5532*%
%ADD117R,2.8032X2.4032*%
%ADD118R,2.6032X2.7032*%
%ADD119R,2.8032X2.0032*%
%ADD120R,7.0032X7.1032*%
%ADD121R,1.2032X2.1032*%
%ADD122P,1.7016X4X270.0*%
%ADD123P,1.7016X4X360.0*%
%ADD124R,2.2352X1.0922*%
%ADD125O,2.2352X1.0922*%
%ADD126O,1.9032X0.6532*%
%ADD127R,0.8532X1.9532*%
%ADD128R,1.5032X2.1032*%
%ADD129C,2.2352*%
%ADD130R,2.2352X2.2352*%
%ADD131C,2.6032*%
%ADD132C,2.0032*%
%ADD133C,1.8542*%
%ADD134R,1.8542X1.8542*%
%ADD135R,1.8542X1.8542*%
%ADD136C,7.2032*%
%ADD137C,4.8032*%
%ADD138C,2.1032*%
%ADD139R,2.1032X2.1032*%
%ADD140R,0.2032X0.2032*%
%ADD141R,2.0032X2.0032*%
%ADD142C,2.0032*%
%ADD143C,5.2032*%
%ADD144C,1.9032*%
%ADD145O,1.6032X3.2032*%
%ADD146O,3.2032X1.6032*%
%ADD147O,3.9032X1.6032*%
%ADD148O,1.5032X3.7032*%
%ADD149O,3.4032X1.6032*%
%ADD150R,3.8032X2.8032*%
%ADD151C,3.2032*%
%ADD152O,1.6032X2.2032*%
%ADD153C,2.7032*%
%ADD154R,2.7032X2.7032*%
%ADD155C,2.7432*%
%ADD156R,1.7032X1.7032*%
%ADD157C,1.7032*%
%ADD158C,1.2032*%
D45*
X2239730Y1320000D02*
X2239730Y1320000D01*
X724730D01*
X314730D02*
X-270D01*
X314730Y1280000D02*
Y1320000D01*
X724730Y1280000D02*
X314730D01*
X724730D02*
Y1320000D01*
X2239730Y-0D02*
Y1320000D01*
Y-0D02*
X-270D01*
Y1320000D01*
D129*
X677330Y611400D02*
D03*
X778930D02*
D03*
X982130D02*
D03*
X702730Y1068600D02*
D03*
X804330D02*
D03*
X880530Y611400D02*
D03*
D130*
X855130Y1068600D02*
D03*
D131*
X2184730Y1132500D02*
D03*
Y1202500D02*
D03*
D132*
X2209730Y1145000D02*
D03*
Y1190000D02*
D03*
X1731790Y1215800D02*
D03*
X1759730D02*
D03*
X1787670D02*
D03*
X1815610D02*
D03*
D133*
X1182030Y949600D02*
D03*
X1207430D02*
D03*
X1182030Y975000D02*
D03*
X1207430D02*
D03*
X1182030Y1000400D02*
D03*
X1232030Y900000D02*
D03*
X1257430D02*
D03*
X1282830D02*
D03*
X300530Y34600D02*
D03*
Y60000D02*
D03*
X275130Y34600D02*
D03*
Y60000D02*
D03*
X249730Y34600D02*
D03*
D134*
X1207430Y1000400D02*
D03*
D135*
X1206630Y900000D02*
D03*
X249730Y60000D02*
D03*
D136*
X2189730Y490000D02*
D03*
Y690000D02*
D03*
Y50000D02*
D03*
X49730D02*
D03*
Y1270000D02*
D03*
X2189730D02*
D03*
X1139730Y750000D02*
D03*
Y550000D02*
D03*
X1039730Y1270000D02*
D03*
D137*
X1114731Y1210000D02*
D03*
X1364731D02*
D03*
D138*
X1283331Y1235400D02*
D03*
X1260330D02*
D03*
X1237330D02*
D03*
X1214331D02*
D03*
X1191330D02*
D03*
X1294730Y1210000D02*
D03*
X1271730D02*
D03*
X1248730D02*
D03*
X1225731D02*
D03*
X1202730D02*
D03*
X1191330Y1184600D02*
D03*
X1214331D02*
D03*
X1237330D02*
D03*
X1260330D02*
D03*
X1215230Y794600D02*
D03*
X1240630Y845400D02*
D03*
Y794600D02*
D03*
X1266030Y845400D02*
D03*
Y794600D02*
D03*
X1291430Y845400D02*
D03*
Y794600D02*
D03*
X1316830Y845400D02*
D03*
Y794600D02*
D03*
X1342230Y845400D02*
D03*
Y794600D02*
D03*
X1367630Y845400D02*
D03*
Y794600D02*
D03*
X1393030Y845400D02*
D03*
Y794600D02*
D03*
X1418430Y845400D02*
D03*
Y794600D02*
D03*
X1443830Y845400D02*
D03*
Y794600D02*
D03*
X1469230Y845400D02*
D03*
Y794600D02*
D03*
X1494630Y845400D02*
D03*
Y794600D02*
D03*
X1520030Y845400D02*
D03*
Y794600D02*
D03*
X1545430Y845400D02*
D03*
Y794600D02*
D03*
X1570830Y845400D02*
D03*
Y794600D02*
D03*
X1596230Y845400D02*
D03*
Y794600D02*
D03*
X1621630Y845400D02*
D03*
Y794600D02*
D03*
X1647030Y845400D02*
D03*
Y794600D02*
D03*
X1672430Y845400D02*
D03*
Y794600D02*
D03*
X1697830Y845400D02*
D03*
Y794600D02*
D03*
X1723230Y845400D02*
D03*
Y794600D02*
D03*
X1748630Y845400D02*
D03*
Y794600D02*
D03*
X1774030Y845400D02*
D03*
Y794600D02*
D03*
X1799430Y845400D02*
D03*
Y794600D02*
D03*
X1824830Y845400D02*
D03*
Y794600D02*
D03*
X1850230Y845400D02*
D03*
Y794600D02*
D03*
X1875630Y845400D02*
D03*
Y794600D02*
D03*
X1901030Y845400D02*
D03*
Y794600D02*
D03*
X1926430Y845400D02*
D03*
Y794600D02*
D03*
X1951830Y845400D02*
D03*
Y794600D02*
D03*
X1977230Y845400D02*
D03*
Y794600D02*
D03*
X2002630Y845400D02*
D03*
Y794600D02*
D03*
X2028030Y845400D02*
D03*
Y794600D02*
D03*
X2053430Y845400D02*
D03*
Y794600D02*
D03*
X2078830Y845400D02*
D03*
Y794600D02*
D03*
X2104230Y845400D02*
D03*
Y794600D02*
D03*
X1215230Y594600D02*
D03*
X1240630Y645400D02*
D03*
Y594600D02*
D03*
X1266030Y645400D02*
D03*
Y594600D02*
D03*
X1291430Y645400D02*
D03*
Y594600D02*
D03*
X1316830Y645400D02*
D03*
Y594600D02*
D03*
X1342230Y645400D02*
D03*
Y594600D02*
D03*
X1367630Y645400D02*
D03*
Y594600D02*
D03*
X1393030Y645400D02*
D03*
Y594600D02*
D03*
X1418430Y645400D02*
D03*
Y594600D02*
D03*
X1443830Y645400D02*
D03*
Y594600D02*
D03*
X1469230Y645400D02*
D03*
Y594600D02*
D03*
X1494630Y645400D02*
D03*
Y594600D02*
D03*
X1520030Y645400D02*
D03*
Y594600D02*
D03*
X1545430Y645400D02*
D03*
Y594600D02*
D03*
X1570830Y645400D02*
D03*
Y594600D02*
D03*
X1596230Y645400D02*
D03*
Y594600D02*
D03*
X1621630Y645400D02*
D03*
Y594600D02*
D03*
X1647030Y645400D02*
D03*
Y594600D02*
D03*
X1672430Y645400D02*
D03*
Y594600D02*
D03*
X1697830Y645400D02*
D03*
Y594600D02*
D03*
X1723230Y645400D02*
D03*
Y594600D02*
D03*
X1748630Y645400D02*
D03*
Y594600D02*
D03*
X1774030Y645400D02*
D03*
Y594600D02*
D03*
X1799430Y645400D02*
D03*
Y594600D02*
D03*
X1824830Y645400D02*
D03*
Y594600D02*
D03*
X1850230Y645400D02*
D03*
Y594600D02*
D03*
X1875630Y645400D02*
D03*
Y594600D02*
D03*
X1901030Y645400D02*
D03*
Y594600D02*
D03*
X1926430Y645400D02*
D03*
Y594600D02*
D03*
X1951830Y645400D02*
D03*
Y594600D02*
D03*
X1977230Y645400D02*
D03*
Y594600D02*
D03*
X2002630Y645400D02*
D03*
Y594600D02*
D03*
X2028030Y645400D02*
D03*
Y594600D02*
D03*
X2053430Y645400D02*
D03*
Y594600D02*
D03*
X2078830Y645400D02*
D03*
Y594600D02*
D03*
X2104230Y645400D02*
D03*
Y594600D02*
D03*
X1215230Y394600D02*
D03*
X1240630Y445400D02*
D03*
Y394600D02*
D03*
X1266030Y445400D02*
D03*
Y394600D02*
D03*
X1291430Y445400D02*
D03*
Y394600D02*
D03*
X1316830Y445400D02*
D03*
Y394600D02*
D03*
X1342230Y445400D02*
D03*
Y394600D02*
D03*
X1367630Y445400D02*
D03*
Y394600D02*
D03*
X1393030Y445400D02*
D03*
Y394600D02*
D03*
X1418430Y445400D02*
D03*
Y394600D02*
D03*
X1443830Y445400D02*
D03*
Y394600D02*
D03*
X1469230Y445400D02*
D03*
Y394600D02*
D03*
X1494630Y445400D02*
D03*
Y394600D02*
D03*
X1520030Y445400D02*
D03*
Y394600D02*
D03*
X1545430Y445400D02*
D03*
Y394600D02*
D03*
X1570830Y445400D02*
D03*
Y394600D02*
D03*
X1596230Y445400D02*
D03*
Y394600D02*
D03*
X1621630Y445400D02*
D03*
Y394600D02*
D03*
X1647030Y445400D02*
D03*
Y394600D02*
D03*
X1672430Y445400D02*
D03*
Y394600D02*
D03*
X1697830Y445400D02*
D03*
Y394600D02*
D03*
X1723230Y445400D02*
D03*
Y394600D02*
D03*
X1748630Y445400D02*
D03*
Y394600D02*
D03*
X1774030Y445400D02*
D03*
Y394600D02*
D03*
X1799430Y445400D02*
D03*
Y394600D02*
D03*
X1824830Y445400D02*
D03*
Y394600D02*
D03*
X1850230Y445400D02*
D03*
Y394600D02*
D03*
X1875630Y445400D02*
D03*
Y394600D02*
D03*
X1901030Y445400D02*
D03*
Y394600D02*
D03*
X1926430Y445400D02*
D03*
Y394600D02*
D03*
X1951830Y445400D02*
D03*
Y394600D02*
D03*
X1977230Y445400D02*
D03*
Y394600D02*
D03*
X2002630Y445400D02*
D03*
Y394600D02*
D03*
X2028030Y445400D02*
D03*
Y394600D02*
D03*
X2053430Y445400D02*
D03*
Y394600D02*
D03*
X2078830Y445400D02*
D03*
Y394600D02*
D03*
X2104230Y445400D02*
D03*
Y394600D02*
D03*
D139*
X1283331Y1184600D02*
D03*
X1215230Y845400D02*
D03*
Y645400D02*
D03*
Y445400D02*
D03*
D140*
X1634730Y282000D02*
D03*
X1424730D02*
D03*
X2024730D02*
D03*
X1814730D02*
D03*
X1139730Y40000D02*
D03*
Y110000D02*
D03*
D141*
X1703850Y1215800D02*
D03*
D142*
X1717820Y1244200D02*
D03*
X1745760D02*
D03*
X1773700D02*
D03*
X1801640D02*
D03*
D143*
X1884730Y1229700D02*
D03*
X1634730D02*
D03*
D144*
X1465730Y1217000D02*
D03*
X1533730D02*
D03*
X1465730Y1242000D02*
D03*
X1533730D02*
D03*
X1486730D02*
D03*
X1512730D02*
D03*
D145*
X1432231Y1272000D02*
D03*
X1567230D02*
D03*
D146*
X1499731Y1280000D02*
D03*
D147*
X807730Y1188000D02*
D03*
D148*
X854731Y1220000D02*
D03*
D149*
X807730Y1250000D02*
D03*
D150*
X588730Y1143000D02*
D03*
X450730D02*
D03*
X519730D02*
D03*
D151*
X134330Y1276000D02*
D03*
X185130D02*
D03*
X206720Y1149000D02*
D03*
X159730D02*
D03*
X112740D02*
D03*
X206720Y1110900D02*
D03*
X159730D02*
D03*
X112740D02*
D03*
D152*
X442330Y1068000D02*
D03*
X493130D02*
D03*
D153*
X164730Y350000D02*
D03*
X222230D02*
D03*
X279730D02*
D03*
X337230D02*
D03*
X394730D02*
D03*
X479730Y970000D02*
D03*
X279730D02*
D03*
D154*
X79730D02*
D03*
D155*
X319730Y1055000D02*
D03*
Y1205000D02*
D03*
D156*
X1577730Y1095000D02*
D03*
D157*
X1521730D02*
D03*
M02*
