%FSLAX44Y44*%
%MOMM*%
G71*
G01*
G75*
G04 Layer_Color=8421504*
%ADD10C,0.2000*%
%ADD11R,2.0000X3.0000*%
%ADD12R,1.0000X1.5000*%
%ADD13R,0.7000X1.5000*%
%ADD14R,1.0000X2.2000*%
%ADD15R,2.6000X1.8000*%
%ADD16R,2.4000X2.5000*%
%ADD17R,2.6000X2.2000*%
%ADD18R,3.5000X1.2000*%
%ADD19R,0.9500X1.6500*%
%ADD20R,0.9900X0.6900*%
%ADD21R,0.7500X1.3000*%
%ADD22R,1.0000X1.9000*%
%ADD23R,6.8000X6.9000*%
%ADD24P,1.4142X4X180.0*%
%ADD25P,1.4142X4X90.0*%
%ADD26O,0.4500X1.7000*%
%ADD27R,5.3000X5.3000*%
%ADD28O,0.3000X0.8000*%
%ADD29O,0.8000X0.3000*%
%ADD30R,2.0000X0.6000*%
%ADD31O,2.1000X0.6000*%
%ADD32R,1.5500X0.2500*%
%ADD33R,0.2500X1.5500*%
%ADD34R,0.6500X1.7500*%
%ADD35O,2.0320X0.8890*%
%ADD36R,2.0320X0.8890*%
%ADD37R,1.4500X2.0000*%
%ADD38R,0.8000X1.5000*%
%ADD39R,5.5000X2.0000*%
%ADD40R,1.3000X1.9000*%
%ADD41C,0.3500*%
%ADD42R,1.3000X0.7500*%
%ADD43R,2.0000X5.5000*%
%ADD44R,0.6900X0.9900*%
%ADD45R,1.2000X3.5000*%
%ADD46C,0.5000*%
%ADD47C,2.5000*%
%ADD48C,0.2500*%
%ADD49C,0.1500*%
%ADD50C,1.0000*%
%ADD51C,0.1250*%
%ADD52C,1.5000*%
%ADD53C,1.8000*%
%ADD54R,1.6510X1.6510*%
%ADD55C,1.6510*%
%ADD56C,1.9000*%
%ADD57R,1.9000X1.9000*%
%ADD58O,3.2000X1.4000*%
%ADD59O,1.3000X3.5000*%
%ADD60O,3.7000X1.4000*%
%ADD61R,3.6000X2.6000*%
%ADD62C,1.8000*%
%ADD63C,2.4000*%
%ADD64C,3.0000*%
%ADD65R,2.5000X2.5000*%
%ADD66C,2.5000*%
%ADD67C,5.0000*%
%ADD68C,1.8000*%
%ADD69R,1.8000X1.8000*%
%ADD70C,4.6000*%
%ADD71O,3.0000X1.4000*%
%ADD72O,1.4000X3.0000*%
%ADD73C,1.7000*%
%ADD74O,1.4000X2.0000*%
%ADD75C,2.5400*%
%ADD76R,2.0320X2.0320*%
%ADD77C,2.0320*%
%ADD78C,1.5000*%
%ADD79R,1.5000X1.5000*%
%ADD80R,1.6510X1.6510*%
%ADD81C,1.2000*%
%ADD82R,1.2000X1.2000*%
%ADD83C,7.0000*%
%ADD84C,0.6000*%
%ADD85C,0.4000*%
%ADD86C,1.0000*%
%ADD87C,0.2540*%
%ADD88C,0.1778*%
%ADD89C,0.6000*%
%ADD90C,0.1250*%
%ADD91C,0.2032*%
%ADD92C,0.0100*%
%ADD93C,0.0800*%
%ADD94C,0.1270*%
%ADD95R,1.0000X3.2500*%
%ADD96R,0.9000X1.4500*%
%ADD97R,1.1000X0.2000*%
%ADD98R,1.0000X1.0000*%
%ADD99R,1.0001X3.2500*%
%ADD100R,1.0000X3.2500*%
%ADD101R,3.2500X1.0000*%
D11*
X488200Y32500D02*
D03*
X187200D02*
D03*
X878200D02*
D03*
X577200D02*
D03*
D12*
X423800Y310000D02*
D03*
X232500D02*
D03*
X249500D02*
D03*
X398800D02*
D03*
X373800D02*
D03*
X348800D02*
D03*
X323800D02*
D03*
X298800D02*
D03*
X273800D02*
D03*
X813800D02*
D03*
X622500D02*
D03*
X639500D02*
D03*
X788800D02*
D03*
X763800D02*
D03*
X738800D02*
D03*
X713800D02*
D03*
X688800D02*
D03*
X663800D02*
D03*
D13*
X207500D02*
D03*
X219500D02*
D03*
X597500D02*
D03*
X609500D02*
D03*
D14*
X225400Y1010000D02*
D03*
X200000D02*
D03*
X174600D02*
D03*
X149200D02*
D03*
Y1110000D02*
D03*
X174600D02*
D03*
X200000D02*
D03*
X225400D02*
D03*
D15*
X1064000Y21000D02*
D03*
Y48000D02*
D03*
X1136000Y29000D02*
D03*
D16*
X1093000Y163000D02*
D03*
D17*
X1136000Y122000D02*
D03*
D18*
X1920000Y220000D02*
D03*
X1860000D02*
D03*
X2060000D02*
D03*
X2000000D02*
D03*
X1349000Y490000D02*
D03*
X1289000D02*
D03*
X1429000D02*
D03*
X1489000D02*
D03*
D19*
X1424750Y1120000D02*
D03*
X1397250D02*
D03*
D20*
X961250Y1115000D02*
D03*
Y1105500D02*
D03*
Y1124500D02*
D03*
X988750D02*
D03*
Y1115000D02*
D03*
Y1105500D02*
D03*
X1029750Y137500D02*
D03*
Y156500D02*
D03*
X1002250Y147000D02*
D03*
X1278250Y394500D02*
D03*
Y413500D02*
D03*
X1305750D02*
D03*
Y404000D02*
D03*
X1305750Y394500D02*
D03*
X1605750Y312500D02*
D03*
Y293500D02*
D03*
X1578250D02*
D03*
Y303000D02*
D03*
X1578250Y312500D02*
D03*
X44250Y1074500D02*
D03*
Y1093500D02*
D03*
X71750D02*
D03*
Y1084000D02*
D03*
Y1074500D02*
D03*
X1499750Y304000D02*
D03*
Y313500D02*
D03*
Y294500D02*
D03*
X1472250D02*
D03*
Y304000D02*
D03*
Y313500D02*
D03*
D21*
X614500Y1149000D02*
D03*
X589500D02*
D03*
X1561250Y25000D02*
D03*
X1578750D02*
D03*
X1580750Y333000D02*
D03*
X1563250D02*
D03*
X1561250Y50000D02*
D03*
X1578750D02*
D03*
X1841250Y25000D02*
D03*
X1858750D02*
D03*
X1841250Y50000D02*
D03*
X1858750D02*
D03*
X1578250Y244000D02*
D03*
X1595750D02*
D03*
Y144000D02*
D03*
X1578250D02*
D03*
X1007250Y182000D02*
D03*
X1024750D02*
D03*
X1007250Y202000D02*
D03*
X1024750D02*
D03*
X970250D02*
D03*
X987750D02*
D03*
X970250Y182000D02*
D03*
X987750D02*
D03*
X933250Y202000D02*
D03*
X950750D02*
D03*
X933250Y182000D02*
D03*
X950750D02*
D03*
X1715750Y144000D02*
D03*
X1698250D02*
D03*
Y244000D02*
D03*
X1715750D02*
D03*
X1496750Y401000D02*
D03*
X1479250D02*
D03*
X1402250D02*
D03*
X1419750D02*
D03*
X1421250Y295000D02*
D03*
X1438750D02*
D03*
X2058750Y282000D02*
D03*
X2041250D02*
D03*
X1861250D02*
D03*
X1878750D02*
D03*
X1181250Y240000D02*
D03*
X1198750D02*
D03*
X1181250Y265000D02*
D03*
X1198750D02*
D03*
X1438750Y205000D02*
D03*
X1421250D02*
D03*
X1438750Y275000D02*
D03*
X1421250D02*
D03*
X441250Y995000D02*
D03*
X458750D02*
D03*
X49250Y1054000D02*
D03*
X66750D02*
D03*
Y1034000D02*
D03*
X49250D02*
D03*
X831250Y1145000D02*
D03*
X848750D02*
D03*
X831250Y1125000D02*
D03*
X848750D02*
D03*
X831250Y1105000D02*
D03*
X848750D02*
D03*
X921250D02*
D03*
X938750D02*
D03*
X921250Y1125000D02*
D03*
X938750D02*
D03*
X921250Y1145000D02*
D03*
X938750D02*
D03*
X971250Y950000D02*
D03*
X988750D02*
D03*
X971250Y970000D02*
D03*
X988750D02*
D03*
X741250Y945000D02*
D03*
X758750D02*
D03*
X1097500Y385000D02*
D03*
X1122500D02*
D03*
X1100250Y455000D02*
D03*
X1117750D02*
D03*
X1488750Y1120000D02*
D03*
X1471250D02*
D03*
X1488750Y1140000D02*
D03*
X1471250D02*
D03*
X758750Y1015000D02*
D03*
X741250D02*
D03*
X1421250Y25000D02*
D03*
X1438750D02*
D03*
X1421250Y50000D02*
D03*
X1438750D02*
D03*
X1491250D02*
D03*
X1508750D02*
D03*
X1491250Y25000D02*
D03*
X1508750D02*
D03*
X1631250D02*
D03*
X1648750D02*
D03*
X1631250Y50000D02*
D03*
X1648750D02*
D03*
X1701250Y25000D02*
D03*
X1718750D02*
D03*
X1701250Y50000D02*
D03*
X1718750D02*
D03*
X1771250Y25000D02*
D03*
X1788750D02*
D03*
X1771250Y50000D02*
D03*
X1788750D02*
D03*
X1330250Y552000D02*
D03*
X1347750D02*
D03*
X1430250D02*
D03*
X1447750D02*
D03*
D22*
X1297252Y1149904D02*
D03*
X1342852D02*
D03*
D23*
X1320052Y1214904D02*
D03*
D24*
X1023234Y93234D02*
D03*
X956766Y26766D02*
D03*
D25*
X1023234Y26766D02*
D03*
X956766Y93234D02*
D03*
D26*
X1133550Y267592D02*
D03*
X1127050D02*
D03*
X1120550D02*
D03*
X1114050D02*
D03*
X1107550D02*
D03*
X1101050D02*
D03*
X1094550D02*
D03*
Y324592D02*
D03*
X1101050D02*
D03*
X1107550D02*
D03*
X1114050D02*
D03*
X1120550D02*
D03*
X1127050D02*
D03*
X1133550D02*
D03*
D27*
X905122Y985042D02*
D03*
D28*
X877622Y1020042D02*
D03*
X882622D02*
D03*
X887622D02*
D03*
X892622D02*
D03*
X897622D02*
D03*
X902622D02*
D03*
X907622D02*
D03*
X912622D02*
D03*
X917622D02*
D03*
X922622D02*
D03*
X927622D02*
D03*
X932622D02*
D03*
Y950042D02*
D03*
X927622D02*
D03*
X922622D02*
D03*
X917622D02*
D03*
X912622D02*
D03*
X907622D02*
D03*
X902622D02*
D03*
X897622D02*
D03*
X892622D02*
D03*
X887622D02*
D03*
X882622D02*
D03*
X877622D02*
D03*
D29*
X940122Y1012542D02*
D03*
Y1007542D02*
D03*
Y1002542D02*
D03*
Y997542D02*
D03*
Y992542D02*
D03*
Y987542D02*
D03*
Y982542D02*
D03*
Y977542D02*
D03*
Y972542D02*
D03*
Y967542D02*
D03*
Y962542D02*
D03*
Y957542D02*
D03*
X870122D02*
D03*
Y962542D02*
D03*
Y967542D02*
D03*
Y972542D02*
D03*
Y977542D02*
D03*
Y982542D02*
D03*
Y987542D02*
D03*
Y992542D02*
D03*
Y997542D02*
D03*
Y1002542D02*
D03*
Y1007542D02*
D03*
Y1012542D02*
D03*
D30*
X416000Y1109398D02*
D03*
Y1096698D02*
D03*
Y1083998D02*
D03*
Y1071298D02*
D03*
Y1058598D02*
D03*
Y1045898D02*
D03*
Y1033198D02*
D03*
Y1020498D02*
D03*
X484000Y1109398D02*
D03*
Y1096698D02*
D03*
Y1083998D02*
D03*
Y1071298D02*
D03*
Y1058598D02*
D03*
Y1045898D02*
D03*
Y1033198D02*
D03*
Y1020498D02*
D03*
D31*
X952516Y235900D02*
D03*
Y248600D02*
D03*
Y261300D02*
D03*
Y274000D02*
D03*
X1017516D02*
D03*
Y261300D02*
D03*
Y248600D02*
D03*
Y235900D02*
D03*
D32*
X1389000Y180000D02*
D03*
Y185000D02*
D03*
Y190000D02*
D03*
Y195000D02*
D03*
Y200000D02*
D03*
Y205000D02*
D03*
Y210000D02*
D03*
Y215000D02*
D03*
Y220000D02*
D03*
Y225000D02*
D03*
Y230000D02*
D03*
Y235000D02*
D03*
Y240000D02*
D03*
Y245000D02*
D03*
Y250000D02*
D03*
Y255000D02*
D03*
Y260000D02*
D03*
Y265000D02*
D03*
Y270000D02*
D03*
Y275000D02*
D03*
Y280000D02*
D03*
Y285000D02*
D03*
Y290000D02*
D03*
Y295000D02*
D03*
Y300000D02*
D03*
X1231000D02*
D03*
Y295000D02*
D03*
Y290000D02*
D03*
Y285000D02*
D03*
Y280000D02*
D03*
Y275000D02*
D03*
Y270000D02*
D03*
Y265000D02*
D03*
Y260000D02*
D03*
Y255000D02*
D03*
Y250000D02*
D03*
Y245000D02*
D03*
Y240000D02*
D03*
Y235000D02*
D03*
Y230000D02*
D03*
Y225000D02*
D03*
Y220000D02*
D03*
Y215000D02*
D03*
Y210000D02*
D03*
Y205000D02*
D03*
Y200000D02*
D03*
Y195000D02*
D03*
Y190000D02*
D03*
Y185000D02*
D03*
Y180000D02*
D03*
D33*
X1370000Y319000D02*
D03*
X1365000D02*
D03*
X1360000D02*
D03*
X1355000D02*
D03*
X1350000D02*
D03*
X1345000D02*
D03*
X1340000D02*
D03*
X1335000D02*
D03*
X1330000D02*
D03*
X1325000D02*
D03*
X1320000D02*
D03*
X1315000D02*
D03*
X1310000D02*
D03*
X1305000D02*
D03*
X1300000D02*
D03*
X1295000D02*
D03*
X1290000D02*
D03*
X1285000D02*
D03*
X1280000D02*
D03*
X1275000D02*
D03*
X1270000D02*
D03*
X1265000D02*
D03*
X1260000D02*
D03*
X1255000D02*
D03*
X1250000D02*
D03*
Y160750D02*
D03*
X1255000D02*
D03*
X1260000D02*
D03*
X1265000D02*
D03*
X1270000D02*
D03*
X1275000D02*
D03*
X1280000D02*
D03*
X1285000D02*
D03*
X1290000D02*
D03*
X1295000D02*
D03*
X1300000D02*
D03*
X1305000D02*
D03*
X1310000D02*
D03*
X1315000D02*
D03*
X1320000D02*
D03*
X1325000D02*
D03*
X1330000D02*
D03*
X1335000D02*
D03*
X1340000D02*
D03*
X1345000D02*
D03*
X1350000D02*
D03*
X1355000D02*
D03*
X1360000D02*
D03*
X1365000D02*
D03*
X1370000D02*
D03*
D34*
X595950Y1067000D02*
D03*
X634050Y1123000D02*
D03*
X621350D02*
D03*
X608650D02*
D03*
X595950D02*
D03*
X634050Y1067000D02*
D03*
X621350D02*
D03*
X608650D02*
D03*
D35*
X1514250Y1118300D02*
D03*
X1577750Y1143700D02*
D03*
X1514250D02*
D03*
D36*
X1577750Y1118300D02*
D03*
D37*
X31250Y148500D02*
D03*
X168750D02*
D03*
X31250Y231500D02*
D03*
X168750D02*
D03*
D38*
X132050Y174500D02*
D03*
X121050D02*
D03*
X110050D02*
D03*
X99050D02*
D03*
X88050D02*
D03*
X77050D02*
D03*
X66050D02*
D03*
X55050D02*
D03*
D39*
X1497500Y361000D02*
D03*
X1402500D02*
D03*
D40*
X637500Y1004000D02*
D03*
X582500D02*
D03*
Y1036000D02*
D03*
X637500D02*
D03*
D41*
X1613226Y212628D02*
D03*
Y205128D02*
D03*
Y197628D02*
D03*
Y190128D02*
D03*
Y182628D02*
D03*
Y175128D02*
D03*
X1605726Y212628D02*
D03*
Y205128D02*
D03*
Y197628D02*
D03*
Y190128D02*
D03*
Y182628D02*
D03*
Y175128D02*
D03*
X1598226Y212628D02*
D03*
Y205128D02*
D03*
Y197628D02*
D03*
Y190128D02*
D03*
Y182628D02*
D03*
Y175128D02*
D03*
X1590726Y212628D02*
D03*
Y205128D02*
D03*
Y197628D02*
D03*
Y190128D02*
D03*
Y182628D02*
D03*
Y175128D02*
D03*
X1583226Y212628D02*
D03*
Y205128D02*
D03*
Y197628D02*
D03*
Y190128D02*
D03*
Y182628D02*
D03*
Y175128D02*
D03*
X1575726Y212628D02*
D03*
Y205128D02*
D03*
Y197628D02*
D03*
Y190128D02*
D03*
Y182628D02*
D03*
Y175128D02*
D03*
X1568226Y212628D02*
D03*
Y205128D02*
D03*
Y197628D02*
D03*
Y190128D02*
D03*
Y182628D02*
D03*
Y175128D02*
D03*
X1560726Y212628D02*
D03*
Y205128D02*
D03*
Y197628D02*
D03*
Y190128D02*
D03*
Y182628D02*
D03*
Y175128D02*
D03*
X1733226Y212628D02*
D03*
Y205128D02*
D03*
Y197628D02*
D03*
Y190128D02*
D03*
Y182628D02*
D03*
Y175128D02*
D03*
X1725726Y212628D02*
D03*
Y205128D02*
D03*
Y197628D02*
D03*
Y190128D02*
D03*
Y182628D02*
D03*
Y175128D02*
D03*
X1718226Y212628D02*
D03*
Y205128D02*
D03*
Y197628D02*
D03*
Y190128D02*
D03*
Y182628D02*
D03*
Y175128D02*
D03*
X1710726Y212628D02*
D03*
Y205128D02*
D03*
Y197628D02*
D03*
Y190128D02*
D03*
Y182628D02*
D03*
Y175128D02*
D03*
X1703226Y212628D02*
D03*
Y205128D02*
D03*
Y197628D02*
D03*
Y190128D02*
D03*
Y182628D02*
D03*
Y175128D02*
D03*
X1695726Y212628D02*
D03*
Y205128D02*
D03*
Y197628D02*
D03*
Y190128D02*
D03*
Y182628D02*
D03*
Y175128D02*
D03*
X1688226Y212628D02*
D03*
Y205128D02*
D03*
Y197628D02*
D03*
Y190128D02*
D03*
Y182628D02*
D03*
Y175128D02*
D03*
X1680726Y212628D02*
D03*
Y205128D02*
D03*
Y197628D02*
D03*
Y190128D02*
D03*
Y182628D02*
D03*
Y175128D02*
D03*
D42*
X1560000Y376750D02*
D03*
Y359250D02*
D03*
X1259000Y412750D02*
D03*
Y395250D02*
D03*
X1580000Y376750D02*
D03*
Y359250D02*
D03*
X570000Y1118750D02*
D03*
Y1101250D02*
D03*
X1134000Y245750D02*
D03*
Y228250D02*
D03*
X1709000Y1058250D02*
D03*
Y1075750D02*
D03*
X959000Y138250D02*
D03*
Y155750D02*
D03*
X979000Y134500D02*
D03*
Y159500D02*
D03*
X1045000Y200750D02*
D03*
Y183250D02*
D03*
X1350000Y111250D02*
D03*
Y128750D02*
D03*
X1325000Y111250D02*
D03*
Y128750D02*
D03*
X1265000Y111250D02*
D03*
Y128750D02*
D03*
X1250000Y369750D02*
D03*
Y352250D02*
D03*
X1280000Y369750D02*
D03*
Y352250D02*
D03*
X1314000Y369750D02*
D03*
Y352250D02*
D03*
X1334000D02*
D03*
Y369750D02*
D03*
X1354000D02*
D03*
Y352250D02*
D03*
X385000Y1016250D02*
D03*
Y1033750D02*
D03*
X515000Y1021250D02*
D03*
Y1038750D02*
D03*
Y1073750D02*
D03*
Y1056250D02*
D03*
X535000D02*
D03*
Y1073750D02*
D03*
X420000Y1134250D02*
D03*
Y1151750D02*
D03*
X440000Y1134250D02*
D03*
Y1151750D02*
D03*
X460000Y1134250D02*
D03*
Y1151750D02*
D03*
X480000Y1134250D02*
D03*
Y1151750D02*
D03*
X365000Y1016250D02*
D03*
Y1033750D02*
D03*
X345000Y1016250D02*
D03*
Y1033750D02*
D03*
X920000Y231250D02*
D03*
Y248750D02*
D03*
X2018600Y56050D02*
D03*
Y38550D02*
D03*
X810000Y1061250D02*
D03*
Y1078750D02*
D03*
X830000Y1061250D02*
D03*
Y1078750D02*
D03*
X850000Y1061250D02*
D03*
Y1078750D02*
D03*
X870000Y1061250D02*
D03*
Y1078750D02*
D03*
X890000Y1061250D02*
D03*
Y1078750D02*
D03*
X910000Y1061250D02*
D03*
Y1078750D02*
D03*
X930000Y1061250D02*
D03*
Y1078750D02*
D03*
X950000Y1061250D02*
D03*
Y1078750D02*
D03*
X970000Y1061250D02*
D03*
Y1078750D02*
D03*
X990000Y1061250D02*
D03*
Y1078750D02*
D03*
X1010000Y1061250D02*
D03*
Y1078750D02*
D03*
X1030000Y1061250D02*
D03*
Y1078750D02*
D03*
X1050000Y1061250D02*
D03*
Y1078750D02*
D03*
X1070000Y1061250D02*
D03*
Y1078750D02*
D03*
X1090000Y1061250D02*
D03*
Y1078750D02*
D03*
X840000Y918250D02*
D03*
Y935750D02*
D03*
Y1021750D02*
D03*
Y1004250D02*
D03*
X869000Y923750D02*
D03*
Y906250D02*
D03*
X889000Y923750D02*
D03*
Y906250D02*
D03*
X909000Y923750D02*
D03*
Y906250D02*
D03*
X840000Y978750D02*
D03*
Y961250D02*
D03*
X720000Y988750D02*
D03*
Y971250D02*
D03*
X760000D02*
D03*
Y988750D02*
D03*
X1123000Y348250D02*
D03*
Y365750D02*
D03*
X1098000Y347250D02*
D03*
Y364750D02*
D03*
X760000Y901250D02*
D03*
Y918750D02*
D03*
X740000Y901250D02*
D03*
Y918750D02*
D03*
X720000Y901250D02*
D03*
Y918750D02*
D03*
X700000Y901250D02*
D03*
Y918750D02*
D03*
X680000Y901250D02*
D03*
Y918750D02*
D03*
X660000Y901250D02*
D03*
Y918750D02*
D03*
X640000Y901250D02*
D03*
Y918750D02*
D03*
X620000Y901250D02*
D03*
Y918750D02*
D03*
X600000Y901250D02*
D03*
Y918750D02*
D03*
X580000Y901250D02*
D03*
Y918750D02*
D03*
X560000Y901250D02*
D03*
Y918750D02*
D03*
X540000Y901250D02*
D03*
Y918750D02*
D03*
X520000Y901250D02*
D03*
Y918750D02*
D03*
X500000Y901250D02*
D03*
Y918750D02*
D03*
X740000Y971250D02*
D03*
Y988750D02*
D03*
X560000Y308750D02*
D03*
Y291250D02*
D03*
X540000Y308750D02*
D03*
Y291250D02*
D03*
X150000D02*
D03*
Y308750D02*
D03*
X170000Y291250D02*
D03*
Y308750D02*
D03*
X1519000Y295250D02*
D03*
Y312750D02*
D03*
D43*
X800000Y1004500D02*
D03*
Y909500D02*
D03*
D44*
X1119500Y435750D02*
D03*
X1100500D02*
D03*
X1110000Y408250D02*
D03*
D45*
X1670000Y301000D02*
D03*
Y361000D02*
D03*
D46*
X2240000Y-0D02*
Y1320000D01*
X0Y-0D02*
X2240000D01*
X0D02*
Y1320000D01*
X1515000Y1280000D02*
Y1320000D01*
Y1280000D02*
X1925000D01*
Y1320000D01*
X2240000D01*
X0D02*
X1515000D01*
X0Y1320000D02*
X0Y1320000D01*
M02*
