%FSLAX44Y44*%
%MOMM*%
G71*
G01*
G75*
G04 Layer_Color=32896*
%ADD10C,0.2000*%
%ADD11R,0.7500X1.3000*%
%ADD12R,3.5000X1.2000*%
%ADD13R,1.3000X0.7500*%
%ADD14R,0.9900X0.6900*%
%ADD15O,0.8000X0.3000*%
%ADD16O,0.3000X0.8000*%
%ADD17R,5.3000X5.3000*%
%ADD18R,2.0000X5.5000*%
%ADD19O,2.1000X0.6000*%
%ADD20R,2.0000X0.6000*%
%ADD21R,0.9500X1.6500*%
%ADD22R,0.2500X1.5500*%
%ADD23R,1.5500X0.2500*%
%ADD24R,1.0000X1.5000*%
%ADD25R,0.7000X1.5000*%
%ADD26R,2.0000X3.0000*%
%ADD27R,0.8000X1.5000*%
%ADD28R,1.4500X2.0000*%
%ADD29R,1.0000X2.2000*%
%ADD30R,5.5000X2.0000*%
%ADD31C,0.3500*%
%ADD32R,2.6000X2.2000*%
%ADD33R,2.4000X2.5000*%
%ADD34R,2.6000X1.8000*%
%ADD35R,6.8000X6.9000*%
%ADD36R,1.0000X1.9000*%
%ADD37P,1.4142X4X270.0*%
%ADD38P,1.4142X4X360.0*%
%ADD39R,2.0320X0.8890*%
%ADD40O,2.0320X0.8890*%
%ADD41O,1.7000X0.4500*%
%ADD42R,0.6500X1.7500*%
%ADD43R,1.3000X1.9000*%
%ADD44C,2.5000*%
%ADD45C,0.5000*%
%ADD46C,0.2500*%
%ADD47C,1.0000*%
%ADD48C,1.5000*%
%ADD49C,0.1250*%
%ADD50C,0.1500*%
%ADD51C,1.8000*%
%ADD52C,2.0320*%
%ADD53R,2.0320X2.0320*%
%ADD54C,2.4000*%
%ADD55C,1.8000*%
%ADD56C,1.6510*%
%ADD57R,1.6510X1.6510*%
%ADD58R,1.6510X1.6510*%
%ADD59C,7.0000*%
%ADD60C,4.6000*%
%ADD61C,1.9000*%
%ADD62R,1.9000X1.9000*%
%ADD63R,1.8000X1.8000*%
%ADD64C,1.8000*%
%ADD65C,5.0000*%
%ADD66C,1.7000*%
%ADD67O,1.4000X3.0000*%
%ADD68O,3.0000X1.4000*%
%ADD69O,3.7000X1.4000*%
%ADD70O,1.3000X3.5000*%
%ADD71O,3.2000X1.4000*%
%ADD72R,3.6000X2.6000*%
%ADD73C,3.0000*%
%ADD74O,1.4000X2.0000*%
%ADD75C,2.5000*%
%ADD76R,2.5000X2.5000*%
%ADD77C,2.5400*%
%ADD78R,1.5000X1.5000*%
%ADD79C,1.5000*%
%ADD80C,0.6000*%
%ADD81C,1.0000*%
%ADD82C,0.4000*%
%ADD83C,0.2540*%
%ADD84C,0.1778*%
%ADD85C,0.6000*%
%ADD86C,0.1250*%
%ADD87C,0.0100*%
%ADD88C,0.2032*%
%ADD89C,0.1270*%
%ADD90C,0.0800*%
%ADD91R,1.0000X3.2500*%
%ADD92R,1.0000X3.2500*%
%ADD93R,0.9000X1.4500*%
%ADD94R,1.0001X3.2500*%
%ADD95R,1.1000X0.2000*%
%ADD96R,0.9532X1.5032*%
%ADD97R,3.7032X1.4032*%
%ADD98R,1.5032X0.9532*%
%ADD99R,1.1932X0.8932*%
%ADD100O,1.0032X0.5032*%
%ADD101O,0.5032X1.0032*%
%ADD102R,5.5032X5.5032*%
%ADD103R,2.2032X5.7032*%
%ADD104O,2.3032X0.8032*%
%ADD105R,2.2032X0.8032*%
%ADD106R,1.1532X1.8532*%
%ADD107R,0.4532X1.7532*%
%ADD108R,1.7532X0.4532*%
%ADD109R,1.2032X1.7032*%
%ADD110R,0.9032X1.7032*%
%ADD111R,2.2032X3.2032*%
%ADD112R,1.0032X1.7032*%
%ADD113R,1.6532X2.2032*%
%ADD114R,1.2032X2.4032*%
%ADD115R,5.7032X2.2032*%
%ADD116C,0.5532*%
%ADD117R,2.8032X2.4032*%
%ADD118R,2.6032X2.7032*%
%ADD119R,2.8032X2.0032*%
%ADD120R,7.0032X7.1032*%
%ADD121R,1.2032X2.1032*%
%ADD122P,1.7016X4X270.0*%
%ADD123P,1.7016X4X360.0*%
%ADD124R,2.2352X1.0922*%
%ADD125O,2.2352X1.0922*%
%ADD126O,1.9032X0.6532*%
%ADD127R,0.8532X1.9532*%
%ADD128R,1.5032X2.1032*%
%ADD129C,2.2352*%
%ADD130R,2.2352X2.2352*%
%ADD131C,2.6032*%
%ADD132C,2.0032*%
%ADD133C,1.8542*%
%ADD134R,1.8542X1.8542*%
%ADD135R,1.8542X1.8542*%
%ADD136C,7.2032*%
%ADD137C,4.8032*%
%ADD138C,2.1032*%
%ADD139R,2.1032X2.1032*%
%ADD140R,0.2032X0.2032*%
%ADD141R,2.0032X2.0032*%
%ADD142C,2.0032*%
%ADD143C,5.2032*%
%ADD144C,1.9032*%
%ADD145O,1.6032X3.2032*%
%ADD146O,3.2032X1.6032*%
%ADD147O,3.9032X1.6032*%
%ADD148O,1.5032X3.7032*%
%ADD149O,3.4032X1.6032*%
%ADD150R,3.8032X2.8032*%
%ADD151C,3.2032*%
%ADD152O,1.6032X2.2032*%
%ADD153C,2.7032*%
%ADD154R,2.7032X2.7032*%
%ADD155C,2.7432*%
%ADD156R,1.7032X1.7032*%
%ADD157C,1.7032*%
%ADD158C,1.2032*%
D10*
X289730Y1269994D02*
Y1250000D01*
X299727D01*
X303059Y1253332D01*
Y1266661D01*
X299727Y1269994D01*
X289730D01*
X309724Y1250000D02*
Y1263329D01*
X316388Y1269994D01*
X323053Y1263329D01*
Y1250000D01*
Y1259997D01*
X309724D01*
X329717Y1250000D02*
Y1269994D01*
X343046Y1250000D01*
Y1269994D01*
X363040Y1266661D02*
X359707Y1269994D01*
X353043D01*
X349711Y1266661D01*
Y1253332D01*
X353043Y1250000D01*
X359707D01*
X363040Y1253332D01*
Y1259997D01*
X356375D01*
X383033Y1269994D02*
X369704D01*
Y1250000D01*
X383033D01*
X369704Y1259997D02*
X376369D01*
X389698Y1250000D02*
Y1269994D01*
X399695D01*
X403027Y1266661D01*
Y1259997D01*
X399695Y1256665D01*
X389698D01*
X396362D02*
X403027Y1250000D01*
X439682Y1269994D02*
X433017D01*
X429685Y1266661D01*
Y1253332D01*
X433017Y1250000D01*
X439682D01*
X443014Y1253332D01*
Y1266661D01*
X439682Y1269994D01*
X463008D02*
X449678D01*
Y1259997D01*
X456343D01*
X449678D01*
Y1250000D01*
X489666Y1269994D02*
Y1250000D01*
X499662D01*
X502995Y1253332D01*
Y1266661D01*
X499662Y1269994D01*
X489666D01*
X522988D02*
X509659D01*
Y1250000D01*
X522988D01*
X509659Y1259997D02*
X516324D01*
X529653Y1250000D02*
Y1263329D01*
X536317Y1269994D01*
X542982Y1263329D01*
Y1250000D01*
Y1259997D01*
X529653D01*
X549646Y1269994D02*
X562975D01*
X556311D01*
Y1250000D01*
X569640Y1269994D02*
Y1250000D01*
Y1259997D01*
X582969D01*
Y1269994D01*
Y1250000D01*
X589633Y1256665D02*
Y1273326D01*
Y1253332D02*
Y1250000D01*
X209730Y1299994D02*
X223059D01*
X216395D01*
Y1280000D01*
X239720Y1299994D02*
X233056D01*
X229724Y1296661D01*
Y1283332D01*
X233056Y1280000D01*
X239720D01*
X243053Y1283332D01*
Y1296661D01*
X239720Y1299994D01*
X249717D02*
Y1283332D01*
X253049Y1280000D01*
X259714D01*
X263046Y1283332D01*
Y1299994D01*
X283040Y1296661D02*
X279708Y1299994D01*
X273043D01*
X269711Y1296661D01*
Y1283332D01*
X273043Y1280000D01*
X279708D01*
X283040Y1283332D01*
X289704Y1299994D02*
Y1280000D01*
Y1289997D01*
X303033D01*
Y1299994D01*
Y1280000D01*
X309698Y1299994D02*
X316362D01*
X313030D01*
Y1280000D01*
X309698D01*
X316362D01*
X326359D02*
Y1299994D01*
X339688Y1280000D01*
Y1299994D01*
X359682Y1296661D02*
X356349Y1299994D01*
X349685D01*
X346353Y1296661D01*
Y1283332D01*
X349685Y1280000D01*
X356349D01*
X359682Y1283332D01*
Y1289997D01*
X353017D01*
X386340Y1299994D02*
X399669D01*
X393004D01*
Y1280000D01*
X406333Y1299994D02*
Y1280000D01*
Y1289997D01*
X419662D01*
Y1299994D01*
Y1280000D01*
X439656Y1299994D02*
X426327D01*
Y1280000D01*
X439656D01*
X426327Y1289997D02*
X432991D01*
X466314Y1280000D02*
Y1299994D01*
X476311D01*
X479643Y1296661D01*
Y1289997D01*
X476311Y1286664D01*
X466314D01*
X486308Y1280000D02*
Y1293329D01*
X492972Y1299994D01*
X499637Y1293329D01*
Y1280000D01*
Y1289997D01*
X486308D01*
X506301Y1299994D02*
Y1280000D01*
X516298D01*
X519630Y1283332D01*
Y1296661D01*
X516298Y1299994D01*
X506301D01*
X539624Y1296661D02*
X536292Y1299994D01*
X529627D01*
X526295Y1296661D01*
Y1293329D01*
X529627Y1289997D01*
X536292D01*
X539624Y1286664D01*
Y1283332D01*
X536292Y1280000D01*
X529627D01*
X526295Y1283332D01*
X566282Y1280000D02*
Y1299994D01*
X576279D01*
X579611Y1296661D01*
Y1289997D01*
X576279Y1286664D01*
X566282D01*
X596272Y1299994D02*
X589608D01*
X586275Y1296661D01*
Y1283332D01*
X589608Y1280000D01*
X596272D01*
X599604Y1283332D01*
Y1296661D01*
X596272Y1299994D01*
X619598Y1296661D02*
X616266Y1299994D01*
X609601D01*
X606269Y1296661D01*
Y1293329D01*
X609601Y1289997D01*
X616266D01*
X619598Y1286664D01*
Y1283332D01*
X616266Y1280000D01*
X609601D01*
X606269Y1283332D01*
X639591Y1299994D02*
X626263D01*
Y1280000D01*
X639591D01*
X626263Y1289997D02*
X632927D01*
X659585Y1296661D02*
X656253Y1299994D01*
X649588D01*
X646256Y1296661D01*
Y1293329D01*
X649588Y1289997D01*
X656253D01*
X659585Y1286664D01*
Y1283332D01*
X656253Y1280000D01*
X649588D01*
X646256Y1283332D01*
X19730Y1041996D02*
Y1030000D01*
Y1035998D01*
X27727D01*
Y1041996D01*
Y1030000D01*
X31726Y1041996D02*
X35725D01*
X33726D01*
Y1030000D01*
X31726D01*
X35725D01*
X49720Y1039997D02*
X47721Y1041996D01*
X43722D01*
X41723Y1039997D01*
Y1031999D01*
X43722Y1030000D01*
X47721D01*
X49720Y1031999D01*
Y1035998D01*
X45722D01*
X53719Y1041996D02*
Y1030000D01*
Y1035998D01*
X61716D01*
Y1041996D01*
Y1030000D01*
X77711Y1041996D02*
Y1033999D01*
X81710Y1030000D01*
X85709Y1033999D01*
Y1041996D01*
X95705D02*
X91707D01*
X89707Y1039997D01*
Y1031999D01*
X91707Y1030000D01*
X95705D01*
X97705Y1031999D01*
Y1039997D01*
X95705Y1041996D01*
X101704D02*
Y1030000D01*
X109701D01*
X113700Y1041996D02*
X121697D01*
X117698D01*
Y1030000D01*
X125696D02*
Y1037997D01*
X129694Y1041996D01*
X133693Y1037997D01*
Y1030000D01*
Y1035998D01*
X125696D01*
X145689Y1039997D02*
X143690Y1041996D01*
X139691D01*
X137692Y1039997D01*
Y1031999D01*
X139691Y1030000D01*
X143690D01*
X145689Y1031999D01*
Y1035998D01*
X141691D01*
X157685Y1041996D02*
X149688D01*
Y1030000D01*
X157685D01*
X149688Y1035998D02*
X153687D01*
X173680Y1030000D02*
Y1037997D01*
X177679Y1041996D01*
X181678Y1037997D01*
Y1030000D01*
Y1035998D01*
X173680D01*
X185676Y1030000D02*
Y1041996D01*
X191674D01*
X193674Y1039997D01*
Y1035998D01*
X191674Y1033999D01*
X185676D01*
X189675D02*
X193674Y1030000D01*
X205670Y1041996D02*
X197672D01*
Y1030000D01*
X205670D01*
X197672Y1035998D02*
X201671D01*
X209669Y1030000D02*
Y1037997D01*
X213667Y1041996D01*
X217666Y1037997D01*
Y1030000D01*
Y1035998D01*
X209669D01*
X19730Y1074995D02*
Y1060000D01*
X24728Y1064998D01*
X29727Y1060000D01*
Y1074995D01*
X34725Y1060000D02*
Y1069997D01*
X39724Y1074995D01*
X44722Y1069997D01*
Y1060000D01*
Y1067498D01*
X34725D01*
X49720Y1060000D02*
Y1074995D01*
X57218D01*
X59717Y1072496D01*
Y1067498D01*
X57218Y1064998D01*
X49720D01*
X54719D02*
X59717Y1060000D01*
X64715D02*
Y1074995D01*
X74712Y1060000D01*
Y1074995D01*
X79711D02*
X84709D01*
X82210D01*
Y1060000D01*
X79711D01*
X84709D01*
X92207D02*
Y1074995D01*
X102203Y1060000D01*
Y1074995D01*
X117198Y1072496D02*
X114699Y1074995D01*
X109701D01*
X107202Y1072496D01*
Y1062499D01*
X109701Y1060000D01*
X114699D01*
X117198Y1062499D01*
Y1067498D01*
X112200D01*
X122197Y1064998D02*
Y1077494D01*
Y1062499D02*
Y1060000D01*
D45*
X679730Y890000D02*
Y1320000D01*
Y890000D02*
X-270D01*
X2239730Y-0D02*
Y1320000D01*
Y-0D02*
X-270D01*
Y1320000D01*
X2239730D02*
X-270D01*
M02*
