%FSLAX44Y44*%
%MOMM*%
G71*
G01*
G75*
G04 Layer_Color=255*
%ADD10C,0.2000*%
%ADD11R,1.2000X3.5000*%
%ADD12R,1.3000X0.7500*%
%ADD13R,0.9900X0.6900*%
%ADD14R,0.7500X1.3000*%
%ADD15R,3.5000X1.2000*%
%ADD16R,0.6900X0.9900*%
%ADD17R,2.0000X5.5000*%
%ADD18R,1.0000X1.5000*%
%ADD19R,0.7000X1.5000*%
%ADD20R,2.0000X3.0000*%
%ADD21C,0.3500*%
%ADD22R,1.3000X1.9000*%
%ADD23R,5.5000X2.0000*%
%ADD24R,0.8000X1.5000*%
%ADD25R,1.4500X2.0000*%
%ADD26R,2.0320X0.8890*%
%ADD27O,2.0320X0.8890*%
%ADD28R,0.6500X1.7500*%
%ADD29R,0.2500X1.5500*%
%ADD30R,1.5500X0.2500*%
%ADD31O,2.1000X0.6000*%
%ADD32R,2.0000X0.6000*%
%ADD33O,0.8000X0.3000*%
%ADD34O,0.3000X0.8000*%
%ADD35R,5.3000X5.3000*%
%ADD36O,0.4500X1.7000*%
%ADD37P,1.4142X4X270.0*%
%ADD38P,1.4142X4X360.0*%
%ADD39R,6.8000X6.9000*%
%ADD40R,1.0000X1.9000*%
%ADD41R,0.9500X1.6500*%
%ADD42R,2.6000X2.2000*%
%ADD43R,2.4000X2.5000*%
%ADD44R,2.6000X1.8000*%
%ADD45R,1.0000X2.2000*%
%ADD46C,0.5000*%
%ADD47C,2.5000*%
%ADD48C,0.2500*%
%ADD49C,1.0000*%
%ADD50C,1.5000*%
%ADD51C,1.8000*%
%ADD52C,0.1250*%
%ADD53C,0.1500*%
%ADD54C,1.6510*%
%ADD55R,1.6510X1.6510*%
%ADD56C,7.0000*%
%ADD57R,1.9000X1.9000*%
%ADD58C,1.9000*%
%ADD59R,1.6510X1.6510*%
%ADD60R,1.5000X1.5000*%
%ADD61C,1.5000*%
%ADD62C,2.0320*%
%ADD63R,2.0320X2.0320*%
%ADD64C,2.5400*%
%ADD65O,1.4000X2.0000*%
%ADD66C,1.7000*%
%ADD67O,1.4000X3.0000*%
%ADD68O,3.0000X1.4000*%
%ADD69C,4.6000*%
%ADD70R,1.8000X1.8000*%
%ADD71C,1.8000*%
%ADD72C,1.8000*%
%ADD73C,5.0000*%
%ADD74C,2.5000*%
%ADD75R,2.5000X2.5000*%
%ADD76C,3.0000*%
%ADD77C,2.4000*%
%ADD78R,3.6000X2.6000*%
%ADD79O,3.7000X1.4000*%
%ADD80O,1.3000X3.5000*%
%ADD81O,3.2000X1.4000*%
%ADD82C,1.2000*%
%ADD83C,0.6000*%
%ADD84C,0.4000*%
%ADD85C,1.0000*%
D46*
X2239730Y1320000D02*
X2239730Y1320000D01*
X724730D01*
X314730D02*
X-270D01*
X314730Y1280000D02*
Y1320000D01*
X724730Y1280000D02*
X314730D01*
X724730D02*
Y1320000D01*
X2239730Y-0D02*
Y1320000D01*
Y-0D02*
X-270D01*
Y1320000D01*
D54*
X996730Y464600D02*
D03*
Y490000D02*
D03*
X1182030Y949600D02*
D03*
X1207430D02*
D03*
X1182030Y975000D02*
D03*
X1207430D02*
D03*
X1182030Y1000400D02*
D03*
X633730Y365700D02*
D03*
Y340300D02*
D03*
X300530Y34600D02*
D03*
Y60000D02*
D03*
X275130Y34600D02*
D03*
Y60000D02*
D03*
X249730Y34600D02*
D03*
X1232030Y900000D02*
D03*
X1257430D02*
D03*
X1282830D02*
D03*
D55*
X996730Y515400D02*
D03*
X1207430Y1000400D02*
D03*
D56*
X2189730Y490000D02*
D03*
Y690000D02*
D03*
Y50000D02*
D03*
X49730D02*
D03*
Y1270000D02*
D03*
X2189730D02*
D03*
X1139730Y750000D02*
D03*
Y550000D02*
D03*
X1039730Y1270000D02*
D03*
D57*
X1215230Y645400D02*
D03*
Y445400D02*
D03*
X1283331Y1184600D02*
D03*
X1215230Y845400D02*
D03*
D58*
Y594600D02*
D03*
X1240630Y645400D02*
D03*
Y594600D02*
D03*
X1266030Y645400D02*
D03*
Y594600D02*
D03*
X1291430Y645400D02*
D03*
Y594600D02*
D03*
X1316830Y645400D02*
D03*
Y594600D02*
D03*
X1342230Y645400D02*
D03*
Y594600D02*
D03*
X1367630Y645400D02*
D03*
Y594600D02*
D03*
X1393030Y645400D02*
D03*
Y594600D02*
D03*
X1418430Y645400D02*
D03*
Y594600D02*
D03*
X1443830Y645400D02*
D03*
Y594600D02*
D03*
X1469230Y645400D02*
D03*
Y594600D02*
D03*
X1494630Y645400D02*
D03*
Y594600D02*
D03*
X1520030Y645400D02*
D03*
Y594600D02*
D03*
X1545430Y645400D02*
D03*
Y594600D02*
D03*
X1570830Y645400D02*
D03*
Y594600D02*
D03*
X1596230Y645400D02*
D03*
Y594600D02*
D03*
X1621630Y645400D02*
D03*
Y594600D02*
D03*
X1647030Y645400D02*
D03*
Y594600D02*
D03*
X1672430Y645400D02*
D03*
Y594600D02*
D03*
X1697830Y645400D02*
D03*
Y594600D02*
D03*
X1723230Y645400D02*
D03*
Y594600D02*
D03*
X1748630Y645400D02*
D03*
Y594600D02*
D03*
X1774030Y645400D02*
D03*
Y594600D02*
D03*
X1799430Y645400D02*
D03*
Y594600D02*
D03*
X1824830Y645400D02*
D03*
Y594600D02*
D03*
X1850230Y645400D02*
D03*
Y594600D02*
D03*
X1875630Y645400D02*
D03*
Y594600D02*
D03*
X1901030Y645400D02*
D03*
Y594600D02*
D03*
X1926430Y645400D02*
D03*
Y594600D02*
D03*
X1951830Y645400D02*
D03*
Y594600D02*
D03*
X1977230Y645400D02*
D03*
Y594600D02*
D03*
X2002630Y645400D02*
D03*
Y594600D02*
D03*
X2028030Y645400D02*
D03*
Y594600D02*
D03*
X2053430Y645400D02*
D03*
Y594600D02*
D03*
X2078830Y645400D02*
D03*
Y594600D02*
D03*
X2104230Y645400D02*
D03*
Y594600D02*
D03*
X1215230Y394600D02*
D03*
X1240630Y445400D02*
D03*
Y394600D02*
D03*
X1266030Y445400D02*
D03*
Y394600D02*
D03*
X1291430Y445400D02*
D03*
Y394600D02*
D03*
X1316830Y445400D02*
D03*
Y394600D02*
D03*
X1342230Y445400D02*
D03*
Y394600D02*
D03*
X1367630Y445400D02*
D03*
Y394600D02*
D03*
X1393030Y445400D02*
D03*
Y394600D02*
D03*
X1418430Y445400D02*
D03*
Y394600D02*
D03*
X1443830Y445400D02*
D03*
Y394600D02*
D03*
X1469230Y445400D02*
D03*
Y394600D02*
D03*
X1494630Y445400D02*
D03*
Y394600D02*
D03*
X1520030Y445400D02*
D03*
Y394600D02*
D03*
X1545430Y445400D02*
D03*
Y394600D02*
D03*
X1570830Y445400D02*
D03*
Y394600D02*
D03*
X1596230Y445400D02*
D03*
Y394600D02*
D03*
X1621630Y445400D02*
D03*
Y394600D02*
D03*
X1647030Y445400D02*
D03*
Y394600D02*
D03*
X1672430Y445400D02*
D03*
Y394600D02*
D03*
X1697830Y445400D02*
D03*
Y394600D02*
D03*
X1723230Y445400D02*
D03*
Y394600D02*
D03*
X1748630Y445400D02*
D03*
Y394600D02*
D03*
X1774030Y445400D02*
D03*
Y394600D02*
D03*
X1799430Y445400D02*
D03*
Y394600D02*
D03*
X1824830Y445400D02*
D03*
Y394600D02*
D03*
X1850230Y445400D02*
D03*
Y394600D02*
D03*
X1875630Y445400D02*
D03*
Y394600D02*
D03*
X1901030Y445400D02*
D03*
Y394600D02*
D03*
X1926430Y445400D02*
D03*
Y394600D02*
D03*
X1951830Y445400D02*
D03*
Y394600D02*
D03*
X1977230Y445400D02*
D03*
Y394600D02*
D03*
X2002630Y445400D02*
D03*
Y394600D02*
D03*
X2028030Y445400D02*
D03*
Y394600D02*
D03*
X2053430Y445400D02*
D03*
Y394600D02*
D03*
X2078830Y445400D02*
D03*
Y394600D02*
D03*
X2104230Y445400D02*
D03*
Y394600D02*
D03*
X1283331Y1235400D02*
D03*
X1260330D02*
D03*
X1237330D02*
D03*
X1214331D02*
D03*
X1191330D02*
D03*
X1294730Y1210000D02*
D03*
X1271730D02*
D03*
X1248730D02*
D03*
X1225731D02*
D03*
X1202730D02*
D03*
X1191330Y1184600D02*
D03*
X1214331D02*
D03*
X1237330D02*
D03*
X1260330D02*
D03*
X1215230Y794600D02*
D03*
X1240630Y845400D02*
D03*
Y794600D02*
D03*
X1266030Y845400D02*
D03*
Y794600D02*
D03*
X1291430Y845400D02*
D03*
Y794600D02*
D03*
X1316830Y845400D02*
D03*
Y794600D02*
D03*
X1342230Y845400D02*
D03*
Y794600D02*
D03*
X1367630Y845400D02*
D03*
Y794600D02*
D03*
X1393030Y845400D02*
D03*
Y794600D02*
D03*
X1418430Y845400D02*
D03*
Y794600D02*
D03*
X1443830Y845400D02*
D03*
Y794600D02*
D03*
X1469230Y845400D02*
D03*
Y794600D02*
D03*
X1494630Y845400D02*
D03*
Y794600D02*
D03*
X1520030Y845400D02*
D03*
Y794600D02*
D03*
X1545430Y845400D02*
D03*
Y794600D02*
D03*
X1570830Y845400D02*
D03*
Y794600D02*
D03*
X1596230Y845400D02*
D03*
Y794600D02*
D03*
X1621630Y845400D02*
D03*
Y794600D02*
D03*
X1647030Y845400D02*
D03*
Y794600D02*
D03*
X1672430Y845400D02*
D03*
Y794600D02*
D03*
X1697830Y845400D02*
D03*
Y794600D02*
D03*
X1723230Y845400D02*
D03*
Y794600D02*
D03*
X1748630Y845400D02*
D03*
Y794600D02*
D03*
X1774030Y845400D02*
D03*
Y794600D02*
D03*
X1799430Y845400D02*
D03*
Y794600D02*
D03*
X1824830Y845400D02*
D03*
Y794600D02*
D03*
X1850230Y845400D02*
D03*
Y794600D02*
D03*
X1875630Y845400D02*
D03*
Y794600D02*
D03*
X1901030Y845400D02*
D03*
Y794600D02*
D03*
X1926430Y845400D02*
D03*
Y794600D02*
D03*
X1951830Y845400D02*
D03*
Y794600D02*
D03*
X1977230Y845400D02*
D03*
Y794600D02*
D03*
X2002630Y845400D02*
D03*
Y794600D02*
D03*
X2028030Y845400D02*
D03*
Y794600D02*
D03*
X2053430Y845400D02*
D03*
Y794600D02*
D03*
X2078830Y845400D02*
D03*
Y794600D02*
D03*
X2104230Y845400D02*
D03*
Y794600D02*
D03*
D59*
X249730Y60000D02*
D03*
X1206630Y900000D02*
D03*
D60*
X1577730Y1095000D02*
D03*
D61*
X1521730D02*
D03*
D62*
X677330Y611400D02*
D03*
X778930D02*
D03*
X982130D02*
D03*
X702730Y1068600D02*
D03*
X804330D02*
D03*
X880530Y611400D02*
D03*
D63*
X855130Y1068600D02*
D03*
D64*
X319730Y1055000D02*
D03*
Y1205000D02*
D03*
D65*
X442330Y1068000D02*
D03*
X493130D02*
D03*
D66*
X1465730Y1217000D02*
D03*
X1533730D02*
D03*
X1465730Y1242000D02*
D03*
X1533730D02*
D03*
X1486730D02*
D03*
X1512730D02*
D03*
D67*
X1432231Y1272000D02*
D03*
X1567230D02*
D03*
D68*
X1499731Y1280000D02*
D03*
D69*
X1114731Y1210000D02*
D03*
X1364731D02*
D03*
D70*
X1703850Y1215800D02*
D03*
D71*
X1731790D02*
D03*
X1759730D02*
D03*
X1787670D02*
D03*
X1815610D02*
D03*
X2209730Y1145000D02*
D03*
Y1190000D02*
D03*
D72*
X1717820Y1244200D02*
D03*
X1745760D02*
D03*
X1773700D02*
D03*
X1801640D02*
D03*
D73*
X1884730Y1229700D02*
D03*
X1634730D02*
D03*
D74*
X164730Y350000D02*
D03*
X222230D02*
D03*
X279730D02*
D03*
X337230D02*
D03*
X394730D02*
D03*
X479730Y970000D02*
D03*
X279730D02*
D03*
D75*
X79730D02*
D03*
D76*
X134330Y1276000D02*
D03*
X185130D02*
D03*
X206720Y1149000D02*
D03*
X159730D02*
D03*
X112740D02*
D03*
X206720Y1110900D02*
D03*
X159730D02*
D03*
X112740D02*
D03*
D77*
X2184730Y1132500D02*
D03*
Y1202500D02*
D03*
D78*
X588730Y1143000D02*
D03*
X450730D02*
D03*
X519730D02*
D03*
D79*
X807730Y1188000D02*
D03*
D80*
X854731Y1220000D02*
D03*
D81*
X807730Y1250000D02*
D03*
D82*
X633430Y420500D02*
D03*
X658830Y445900D02*
D03*
Y420500D02*
D03*
X684230Y445900D02*
D03*
X658830Y471300D02*
D03*
X684230D02*
D03*
X658830Y496700D02*
D03*
X684230D02*
D03*
X658830Y522100D02*
D03*
X684230D02*
D03*
X658830Y547500D02*
D03*
X633430Y522100D02*
D03*
Y547500D02*
D03*
X608030Y522100D02*
D03*
Y547500D02*
D03*
X582630Y522100D02*
D03*
Y547500D02*
D03*
X557230Y522100D02*
D03*
X582630Y496700D02*
D03*
X557230D02*
D03*
X582630Y471300D02*
D03*
X557230D02*
D03*
X582630Y445900D02*
D03*
X557230D02*
D03*
X582630Y420500D02*
D03*
X608030Y445900D02*
D03*
Y420500D02*
D03*
X633430Y445900D02*
D03*
M02*
